<?xml version="1.0" encoding="UTF-8" standalone="no"?>
<!-- Created with Inkscape (http://www.inkscape.org/) -->

<svg
   xmlns:dc="http://purl.org/dc/elements/1.1/"
   xmlns:cc="http://creativecommons.org/ns#"
   xmlns:rdf="http://www.w3.org/1999/02/22-rdf-syntax-ns#"
   xmlns:svg="http://www.w3.org/2000/svg"
   xmlns="http://www.w3.org/2000/svg"
   xmlns:sodipodi="http://sodipodi.sourceforge.net/DTD/sodipodi-0.dtd"
   xmlns:inkscape="http://www.inkscape.org/namespaces/inkscape"
   id="svg2985"
   version="1.1"
   inkscape:version="0.48.4 r9939"
   width="418.25691"
   height="236.54585"
   xml:space="preserve"
   sodipodi:docname="SFA_vs_3stepmodel.pdf"><metadata
     id="metadata2991"><rdf:RDF><cc:Work
         rdf:about=""><dc:format>image/svg+xml</dc:format><dc:type
           rdf:resource="http://purl.org/dc/dcmitype/StillImage" /><dc:title></dc:title></cc:Work></rdf:RDF></metadata><defs
     id="defs2989"><clipPath
       clipPathUnits="userSpaceOnUse"
       id="clipPath3003"><path
         d="M 0,0 335,0 335,190 0,190 0,0 z"
         id="path3005" /></clipPath></defs><sodipodi:namedview
     pagecolor="#ffffff"
     bordercolor="#666666"
     borderopacity="1"
     objecttolerance="10"
     gridtolerance="10"
     guidetolerance="10"
     inkscape:pageopacity="0"
     inkscape:pageshadow="2"
     inkscape:window-width="1680"
     inkscape:window-height="988"
     id="namedview2987"
     showgrid="false"
     inkscape:zoom="2.3047512"
     inkscape:cx="209.12845"
     inkscape:cy="118.27293"
     inkscape:window-x="-8"
     inkscape:window-y="-8"
     inkscape:window-maximized="1"
     inkscape:current-layer="g3011" /><g
     id="g2993"
     inkscape:groupmode="layer"
     inkscape:label="CH1_SFAvs3stepmodel"
     transform="matrix(1.25,0,0,-1.25,0,236.54585)"><g
       id="g2995" /><g
       id="g2997"><g
         id="g2999"
         transform="translate(0,-0.763321)"><g
           id="g3001" /><g
           id="g3011"><g
             transform="translate(0,190)"
             id="g3013"><path
               d="m 30.656,-167.691 4.231,0"
               style="fill:none;stroke:#000000;stroke-width:0.67163002;stroke-linecap:butt;stroke-linejoin:miter;stroke-miterlimit:10;stroke-opacity:1;stroke-dasharray:none"
               id="path3015"
               inkscape:connector-curvature="0" /></g><text
             transform="matrix(1,0,0,-1,21.052748,19.401329)"
             id="text3017"><tspan
               style="font-size:8.73118973px;font-variant:normal;font-weight:normal;writing-mode:lr-tb;fill:#000000;fill-opacity:1;fill-rule:nonzero;stroke:none;font-family:Palatino Linotype;-inkscape-font-specification:PalatinoLinotype-Roman"
               x="0"
               y="0"
               id="tspan3019">0</tspan></text>
<g
             transform="translate(0,190)"
             id="g3021"><path
               d="m 30.656,-136.863 4.231,0"
               style="fill:none;stroke:#000000;stroke-width:0.67163002;stroke-linecap:butt;stroke-linejoin:miter;stroke-miterlimit:10;stroke-opacity:1;stroke-dasharray:none"
               id="path3023"
               inkscape:connector-curvature="0" /></g><text
             transform="matrix(1,0,0,-1,14.504355,50.229146)"
             id="text3025"><tspan
               style="font-size:8.73118973px;font-variant:normal;font-weight:normal;writing-mode:lr-tb;fill:#000000;fill-opacity:1;fill-rule:nonzero;stroke:none;font-family:Palatino Linotype;-inkscape-font-specification:PalatinoLinotype-Roman"
               x="0 4.3655949 6.5483923"
               y="0"
               sodipodi:role="line"
               id="tspan3027">0.5</tspan></text>
<g
             transform="translate(0,190)"
             id="g3029"><path
               d="m 30.656,-106.035 4.231,0"
               style="fill:none;stroke:#000000;stroke-width:0.67163002;stroke-linecap:butt;stroke-linejoin:miter;stroke-miterlimit:10;stroke-opacity:1;stroke-dasharray:none"
               id="path3031"
               inkscape:connector-curvature="0" /></g><text
             transform="matrix(1,0,0,-1,21.052748,81.056963)"
             id="text3033"><tspan
               style="font-size:8.73118973px;font-variant:normal;font-weight:normal;writing-mode:lr-tb;fill:#000000;fill-opacity:1;fill-rule:nonzero;stroke:none;font-family:Palatino Linotype;-inkscape-font-specification:PalatinoLinotype-Roman"
               x="0"
               y="0"
               id="tspan3035">1</tspan></text>
<g
             transform="translate(0,190)"
             id="g3037"><path
               d="m 30.656,-75.207 4.231,0"
               style="fill:none;stroke:#000000;stroke-width:0.67163002;stroke-linecap:butt;stroke-linejoin:miter;stroke-miterlimit:10;stroke-opacity:1;stroke-dasharray:none"
               id="path3039"
               inkscape:connector-curvature="0" /></g><text
             transform="matrix(1,0,0,-1,14.504355,111.88478)"
             id="text3041"><tspan
               style="font-size:8.73118973px;font-variant:normal;font-weight:normal;writing-mode:lr-tb;fill:#000000;fill-opacity:1;fill-rule:nonzero;stroke:none;font-family:Palatino Linotype;-inkscape-font-specification:PalatinoLinotype-Roman"
               x="0 4.3655949 6.5483923"
               y="0"
               sodipodi:role="line"
               id="tspan3043">1.5</tspan></text>
<g
             transform="translate(0,190)"
             id="g3045"><path
               d="m 30.656,-44.379 4.231,0"
               style="fill:none;stroke:#000000;stroke-width:0.67163002;stroke-linecap:butt;stroke-linejoin:miter;stroke-miterlimit:10;stroke-opacity:1;stroke-dasharray:none"
               id="path3047"
               inkscape:connector-curvature="0" /></g><text
             transform="matrix(1,0,0,-1,21.052748,142.71233)"
             id="text3049"><tspan
               style="font-size:8.73118973px;font-variant:normal;font-weight:normal;writing-mode:lr-tb;fill:#000000;fill-opacity:1;fill-rule:nonzero;stroke:none;font-family:Palatino Linotype;-inkscape-font-specification:PalatinoLinotype-Roman"
               x="0"
               y="0"
               id="tspan3051">2</tspan></text>
<g
             transform="translate(0,190)"
             id="g3053"><path
               d="m 30.656,-13.551 4.231,0"
               style="fill:none;stroke:#000000;stroke-width:0.67163002;stroke-linecap:butt;stroke-linejoin:miter;stroke-miterlimit:10;stroke-opacity:1;stroke-dasharray:none"
               id="path3055"
               inkscape:connector-curvature="0" /></g><text
             transform="matrix(1,0,0,-1,14.504355,173.54015)"
             id="text3057"><tspan
               style="font-size:8.73118973px;font-variant:normal;font-weight:normal;writing-mode:lr-tb;fill:#000000;fill-opacity:1;fill-rule:nonzero;stroke:none;font-family:Palatino Linotype;-inkscape-font-specification:PalatinoLinotype-Roman"
               x="0 4.3655949 6.5483923"
               y="0"
               sodipodi:role="line"
               id="tspan3059">2.5</tspan></text>
<g
             transform="translate(0,190)"
             id="g3061"><path
               d="m 30.656,-167.691 0,4.23 m 0,160.32 0,-4.23"
               style="fill:none;stroke:#000000;stroke-width:0.67163002;stroke-linecap:butt;stroke-linejoin:miter;stroke-miterlimit:10;stroke-opacity:1;stroke-dasharray:none"
               id="path3063"
               inkscape:connector-curvature="0" /></g><text
             transform="matrix(1,0,0,-1,27.382861,10.670139)"
             id="text3065"><tspan
               style="font-size:8.73118973px;font-variant:normal;font-weight:normal;writing-mode:lr-tb;fill:#000000;fill-opacity:1;fill-rule:nonzero;stroke:none;font-family:Palatino Linotype;-inkscape-font-specification:PalatinoLinotype-Roman"
               x="0 4.3655949"
               y="0"
               sodipodi:role="line"
               id="tspan3067">10</tspan></text>
<g
             transform="translate(0,190)"
             id="g3069"><path
               d="m 85.461,-167.691 0,4.23 m 0,160.32 0,-4.23"
               style="fill:none;stroke:#000000;stroke-width:0.67163002;stroke-linecap:butt;stroke-linejoin:miter;stroke-miterlimit:10;stroke-opacity:1;stroke-dasharray:none"
               id="path3071"
               inkscape:connector-curvature="0" /></g><text
             transform="matrix(1,0,0,-1,82.187869,10.670139)"
             id="text3073"><tspan
               style="font-size:8.73118973px;font-variant:normal;font-weight:normal;writing-mode:lr-tb;fill:#000000;fill-opacity:1;fill-rule:nonzero;stroke:none;font-family:Palatino Linotype;-inkscape-font-specification:PalatinoLinotype-Roman"
               x="0 4.3655949"
               y="0"
               sodipodi:role="line"
               id="tspan3075">15</tspan></text>
<g
             transform="translate(0,190)"
             id="g3077"><path
               d="m 140.336,-167.691 0,4.23 m 0,160.32 0,-4.23"
               style="fill:none;stroke:#000000;stroke-width:0.67163002;stroke-linecap:butt;stroke-linejoin:miter;stroke-miterlimit:10;stroke-opacity:1;stroke-dasharray:none"
               id="path3079"
               inkscape:connector-curvature="0" /></g><text
             transform="matrix(1,0,0,-1,137.06071,10.670139)"
             id="text3081"><tspan
               style="font-size:8.73118973px;font-variant:normal;font-weight:normal;writing-mode:lr-tb;fill:#000000;fill-opacity:1;fill-rule:nonzero;stroke:none;font-family:Palatino Linotype;-inkscape-font-specification:PalatinoLinotype-Roman"
               x="0 4.3655949"
               y="0"
               sodipodi:role="line"
               id="tspan3083">20</tspan></text>
<g
             transform="translate(0,190)"
             id="g3085"><path
               d="m 195.141,-167.691 0,4.23 m 0,160.32 0,-4.23"
               style="fill:none;stroke:#000000;stroke-width:0.67163002;stroke-linecap:butt;stroke-linejoin:miter;stroke-miterlimit:10;stroke-opacity:1;stroke-dasharray:none"
               id="path3087"
               inkscape:connector-curvature="0" /></g><text
             transform="matrix(1,0,0,-1,191.86438,10.670139)"
             id="text3089"><tspan
               style="font-size:8.73118973px;font-variant:normal;font-weight:normal;writing-mode:lr-tb;fill:#000000;fill-opacity:1;fill-rule:nonzero;stroke:none;font-family:Palatino Linotype;-inkscape-font-specification:PalatinoLinotype-Roman"
               x="0 4.3655949"
               y="0"
               sodipodi:role="line"
               id="tspan3091">25</tspan></text>
<g
             transform="translate(0,190)"
             id="g3093"><path
               d="m 250.012,-167.691 0,4.23 m 0,160.32 0,-4.23"
               style="fill:none;stroke:#000000;stroke-width:0.67163002;stroke-linecap:butt;stroke-linejoin:miter;stroke-miterlimit:10;stroke-opacity:1;stroke-dasharray:none"
               id="path3095"
               inkscape:connector-curvature="0" /></g><text
             transform="matrix(1,0,0,-1,246.73789,10.670139)"
             id="text3097"><tspan
               style="font-size:8.73118973px;font-variant:normal;font-weight:normal;writing-mode:lr-tb;fill:#000000;fill-opacity:1;fill-rule:nonzero;stroke:none;font-family:Palatino Linotype;-inkscape-font-specification:PalatinoLinotype-Roman"
               x="0 4.3655949"
               y="0"
               sodipodi:role="line"
               id="tspan3099">30</tspan></text>
<g
             transform="translate(0,190)"
             id="g3101"><path
               d="m 304.816,-167.691 0,4.23 m 0,160.32 0,-4.23"
               style="fill:none;stroke:#000000;stroke-width:0.67163002;stroke-linecap:butt;stroke-linejoin:miter;stroke-miterlimit:10;stroke-opacity:1;stroke-dasharray:none"
               id="path3103"
               inkscape:connector-curvature="0" /></g><text
             transform="matrix(1,0,0,-1,301.5429,10.670139)"
             id="text3105"><tspan
               style="font-size:8.73118973px;font-variant:normal;font-weight:normal;writing-mode:lr-tb;fill:#000000;fill-opacity:1;fill-rule:nonzero;stroke:none;font-family:Palatino Linotype;-inkscape-font-specification:PalatinoLinotype-Roman"
               x="0 4.3655949"
               y="0"
               sodipodi:role="line"
               id="tspan3107">35</tspan></text>
<g
             transform="translate(0,190)"
             id="g3109"><path
               d="m 304.816,-167.691 -4.23,0"
               style="fill:none;stroke:#000000;stroke-width:0.67163002;stroke-linecap:butt;stroke-linejoin:miter;stroke-miterlimit:10;stroke-opacity:1;stroke-dasharray:none"
               id="path3111"
               inkscape:connector-curvature="0" /></g><text
             transform="matrix(1,0,0,-1,312.23793,19.401329)"
             id="text3113"><tspan
               style="font-size:8.73118973px;font-variant:normal;font-weight:normal;writing-mode:lr-tb;fill:#000000;fill-opacity:1;fill-rule:nonzero;stroke:none;font-family:Palatino Linotype;-inkscape-font-specification:PalatinoLinotype-Roman"
               x="0"
               y="0"
               id="tspan3115">0</tspan></text>
<g
             transform="translate(0,190)"
             id="g3117"><path
               d="m 304.816,-134.781 -4.23,0"
               style="fill:none;stroke:#000000;stroke-width:0.67163002;stroke-linecap:butt;stroke-linejoin:miter;stroke-miterlimit:10;stroke-opacity:1;stroke-dasharray:none"
               id="path3119"
               inkscape:connector-curvature="0" /></g><text
             transform="matrix(1,0,0,-1,312.23793,52.311199)"
             id="text3121"><tspan
               style="font-size:8.73118973px;font-variant:normal;font-weight:normal;writing-mode:lr-tb;fill:#000000;fill-opacity:1;fill-rule:nonzero;stroke:none;font-family:Palatino Linotype;-inkscape-font-specification:PalatinoLinotype-Roman"
               x="0 4.3655949 6.5483923"
               y="0"
               sodipodi:role="line"
               id="tspan3123">0.2</tspan></text>
<g
             transform="translate(0,190)"
             id="g3125"><path
               d="m 304.816,-101.871 -4.23,0"
               style="fill:none;stroke:#000000;stroke-width:0.67163002;stroke-linecap:butt;stroke-linejoin:miter;stroke-miterlimit:10;stroke-opacity:1;stroke-dasharray:none"
               id="path3127"
               inkscape:connector-curvature="0" /></g><text
             transform="matrix(1,0,0,-1,312.23793,85.221069)"
             id="text3129"><tspan
               style="font-size:8.73118973px;font-variant:normal;font-weight:normal;writing-mode:lr-tb;fill:#000000;fill-opacity:1;fill-rule:nonzero;stroke:none;font-family:Palatino Linotype;-inkscape-font-specification:PalatinoLinotype-Roman"
               x="0 4.3655949 6.5483923"
               y="0"
               sodipodi:role="line"
               id="tspan3131">0.4</tspan></text>
<g
             transform="translate(0,190)"
             id="g3133"><path
               d="m 304.816,-68.961 -4.23,0"
               style="fill:none;stroke:#000000;stroke-width:0.67163002;stroke-linecap:butt;stroke-linejoin:miter;stroke-miterlimit:10;stroke-opacity:1;stroke-dasharray:none"
               id="path3135"
               inkscape:connector-curvature="0" /></g><text
             transform="matrix(1,0,0,-1,312.23793,118.13094)"
             id="text3137"><tspan
               style="font-size:8.73118973px;font-variant:normal;font-weight:normal;writing-mode:lr-tb;fill:#000000;fill-opacity:1;fill-rule:nonzero;stroke:none;font-family:Palatino Linotype;-inkscape-font-specification:PalatinoLinotype-Roman"
               x="0 4.3655949 6.5483923"
               y="0"
               sodipodi:role="line"
               id="tspan3139">0.6</tspan></text>
<g
             transform="translate(0,190)"
             id="g3141"><path
               d="m 304.816,-36.051 -4.23,0"
               style="fill:none;stroke:#000000;stroke-width:0.67163002;stroke-linecap:butt;stroke-linejoin:miter;stroke-miterlimit:10;stroke-opacity:1;stroke-dasharray:none"
               id="path3143"
               inkscape:connector-curvature="0" /></g><text
             transform="matrix(1,0,0,-1,312.23793,151.04054)"
             id="text3145"><tspan
               style="font-size:8.73118973px;font-variant:normal;font-weight:normal;writing-mode:lr-tb;fill:#000000;fill-opacity:1;fill-rule:nonzero;stroke:none;font-family:Palatino Linotype;-inkscape-font-specification:PalatinoLinotype-Roman"
               x="0 4.3655949 6.5483923"
               y="0"
               sodipodi:role="line"
               id="tspan3147">0.8</tspan></text>
<g
             transform="translate(0,190)"
             id="g3149"><path
               d="m 304.816,-3.141 -4.23,0"
               style="fill:none;stroke:#000000;stroke-width:0.67163002;stroke-linecap:butt;stroke-linejoin:miter;stroke-miterlimit:10;stroke-opacity:1;stroke-dasharray:none"
               id="path3151"
               inkscape:connector-curvature="0" /></g><text
             transform="matrix(1,0,0,-1,312.23793,183.95041)"
             id="text3153"><tspan
               style="font-size:8.73118973px;font-variant:normal;font-weight:normal;writing-mode:lr-tb;fill:#000000;fill-opacity:1;fill-rule:nonzero;stroke:none;font-family:Palatino Linotype;-inkscape-font-specification:PalatinoLinotype-Roman"
               x="0"
               y="0"
               id="tspan3155">1</tspan></text>
<g
             transform="translate(0,190)"
             id="g3157"><path
               d="m 30.656,-3.141 274.16,0 0,-164.551 -274.16,0 0,164.551 z"
               style="fill:none;stroke:#000000;stroke-width:0.67163002;stroke-linecap:butt;stroke-linejoin:miter;stroke-miterlimit:10;stroke-opacity:1;stroke-dasharray:none"
               id="path3159"
               inkscape:connector-curvature="0" /></g><g
             transform="translate(0,190)"
             id="g3191"><path
               d="m 32.469,-167.691 2.957,0.066 3.023,0.07 2.821,0.067 2.886,0.066 5.508,0.133 2.82,0 2.555,0.07 2.75,0.067 2.555,0.066 2.687,0.066 5.102,0.133 2.418,0.071 2.484,0.066 2.488,0.066 2.348,0.067 2.555,0.066 2.351,0 2.082,0.071 2.418,0.066 6.446,0.199 2.218,0.07 2.149,0.067 2.215,0.066 1.949,0.067 1.879,0.066 2.219,0.07 1.945,0 1.883,0.067 1.945,0.066 1.949,0.067 1.879,0.066 1.68,0.07 1.883,0.067 1.879,0.066 1.613,0.067 1.609,0.066 1.883,0.07 1.609,0.067 1.547,0 1.61,0.066 1.816,0.066 1.543,0.067 1.547,0.066 1.476,0.071 1.344,0.066 4.43,0.199 1.48,0.071 1.207,0.066 1.411,0 1.21,0.066 1.411,0.067 1.207,0.066 1.343,0.07 1.145,0.067 1.273,0.066 1.141,0.067 1.145,0.066 1.207,0.07 1.144,0.067 1.004,0.066 1.078,0.067 1.141,0 1.008,0.066 1.007,0.07 1.008,0.067 0.938,0.066 1.008,0.067 0.875,0.066 0.937,0.07 0.875,0.067 0.871,0.066 0.875,0.067 0.871,0.066 0.809,0 0.804,0.066 0.739,0.071 0.738,0.066 0.742,0.066 0.739,0.067 0.671,0.066 0.739,0.071 0.672,0.066 0.601,0.066 0.672,0.067 0.605,0.066 0.606,0 0.535,0.071 0.606,0.066 0.539,0.066 0.535,0.067 0.472,0.066 0.536,0.07 0.468,0.067 0.473,0.066 0.469,0.067 0.402,0.066 0.406,0.07 0.403,0"
               style="fill:none;stroke:#000000;stroke-width:1.20000005;stroke-linecap:butt;stroke-linejoin:miter;stroke-miterlimit:10;stroke-opacity:1;stroke-dasharray:2.4, 1.2;stroke-dashoffset:0"
               id="path3193"
               inkscape:connector-curvature="0" /></g><g
             transform="translate(0,190)"
             id="g3195"><path
               d="m 188.223,-161.309 0.402,0.067 0.672,0.133 0.402,0.066 0.27,0.07 0.672,0.133 0.199,0.067 0.336,0.066 0.269,0.07 0.133,0.067 0.27,0 0.269,0.066 0.203,0.066 0.067,0.067 0.199,0.066 0.203,0.071 0.199,0.066 0,0.066 0.137,0.067 0.133,0.066 0.137,0.071 0.066,0.066 0.133,0 0.066,0.066 -0.133,0.067 0.067,0.066 0.066,0.07 0,0.067"
               style="fill:none;stroke:#000000;stroke-width:1.20000005;stroke-linecap:butt;stroke-linejoin:miter;stroke-miterlimit:10;stroke-opacity:1;stroke-dasharray:2.4, 1.2;stroke-dashoffset:0"
               id="path3197"
               inkscape:connector-curvature="0" /></g><g
             transform="translate(0,190)"
             id="g3199"><path
               d="m 32.469,-3.207 2.957,-4.367 3.023,-1.879 2.821,-1.344 2.886,-1.144 2.754,-1.004 2.754,-0.942 2.82,-0.875 2.555,-0.738 2.75,-0.738 2.555,-0.672 2.687,-0.672 2.551,-0.606 2.551,-0.601 2.418,-0.539 2.484,-0.606 2.488,-0.535 2.348,-0.472 2.555,-0.602 2.351,-0.473 2.082,-0.402 2.418,-0.535 2.149,-0.406 2.148,-0.469 2.149,-0.402 2.218,-0.403 2.149,-0.472 2.215,-0.403 1.949,-0.402 1.879,-0.336 2.219,-0.469 1.945,-0.336 1.883,-0.402 1.945,-0.336 1.949,-0.402 1.879,-0.336 1.68,-0.336 1.883,-0.336 1.879,-0.406 1.613,-0.266 1.609,-0.336 1.883,-0.336 1.609,-0.336 1.547,-0.336 1.61,-0.269 1.816,-0.403 1.543,-0.269 1.547,-0.336 1.476,-0.336 1.344,-0.199 1.477,-0.336 1.476,-0.27 1.477,-0.336 1.48,-0.336 1.207,-0.203 1.411,-0.336 1.21,-0.199 1.411,-0.336 1.207,-0.269 1.343,-0.27 1.145,-0.27 1.273,-0.332 1.141,-0.203 1.145,-0.269 1.207,-0.336 1.144,-0.199 1.004,-0.27 1.078,-0.269 1.141,-0.27 1.008,-0.266 1.007,-0.203 1.008,-0.269 0.938,-0.27 1.008,-0.265 0.875,-0.204 0.937,-0.269 0.875,-0.27 0.871,-0.199 0.875,-0.269 0.871,-0.27 0.809,-0.199 0.804,-0.27 0.739,-0.203 0.738,-0.199 0.742,-0.269 0.739,-0.27 0.671,-0.133 0.739,-0.269 0.672,-0.27 0.601,-0.199 0.672,-0.203 0.605,-0.27 0.606,-0.199 0.535,-0.203 0.606,-0.27 0.539,-0.199 0.535,-0.203 0.472,-0.199 0.536,-0.27 0.468,-0.203 0.473,-0.199 0.469,-0.203 0.402,-0.27 0.406,-0.133 0.403,-0.269"
               style="fill:none;stroke:#000000;stroke-width:1.20000005;stroke-linecap:butt;stroke-linejoin:miter;stroke-miterlimit:10;stroke-opacity:1;stroke-dasharray:2.4, 1.2;stroke-dashoffset:0"
               id="path3201"
               inkscape:connector-curvature="0" /></g><g
             transform="translate(0,190)"
             id="g3203"><path
               d="m 188.223,-46.664 0.402,-0.199 0.336,-0.203 0.336,-0.2 0.402,-0.203 0.27,-0.269 0.336,-0.133 0.336,-0.203 0.199,-0.27 0.336,-0.199 0.269,-0.137 0.133,-0.265 0.27,-0.203 0.269,-0.2 0.203,-0.136 0.067,-0.27 0.199,-0.199 0.203,-0.137 0.199,-0.199 0,-0.27 0.137,-0.203 0.133,-0.133 0.137,-0.203 0.066,-0.199 0.133,-0.203 0.066,-0.133 -0.133,-0.269 0.067,-0.2 0.066,-0.203 0,-0.133"
               style="fill:none;stroke:#000000;stroke-width:1.20000005;stroke-linecap:butt;stroke-linejoin:miter;stroke-miterlimit:10;stroke-opacity:1;stroke-dasharray:2.4, 1.2;stroke-dashoffset:0"
               id="path3205"
               inkscape:connector-curvature="0" /></g><g
             transform="translate(0,190)"
             id="g3207"><path
               d="m 193.66,-159.43 0,0.203 -0.199,0.2 -0.066,0 -0.071,0.066 -0.066,0.07 -0.133,0.067 -0.137,0.066 -0.265,0.133 -0.203,0.07 -0.133,0.067 -0.203,0.066 -0.2,0.067 -0.203,0.066 -0.203,0 -0.265,0.066 -0.204,0.071 -0.269,0.066 0,0.066 -0.27,0.067 -0.265,0.066 -0.336,0.071 -0.27,0.066 -0.672,0.133 -0.066,0.066 -0.336,0 -0.336,0.071 -0.402,0.066 -0.336,0.066 -0.403,0.067 -0.136,0.066 -0.403,0.07 -0.804,0.133 -0.473,0.067 -0.133,0.066 -0.469,0.07 -0.472,0 -0.469,0.067 -0.133,0.066 -0.472,0.067 -0.536,0.066 -0.539,0.07 -0.132,0.067 -0.539,0.066 -0.536,0.067 -0.203,0.066 -0.539,0.066 -0.601,0.071 -0.204,0 -0.535,0.066 -0.605,0.066 -0.27,0.067 -0.605,0.066 -0.602,0.071 -0.203,0.066 -0.672,0.066 -0.605,0.067 -0.266,0.066 -0.672,0.071 -0.672,0.066 -0.269,0.066 -0.672,0 -0.672,0.067 -0.269,0.066 -0.672,0.07 -0.336,0.067 -0.672,0.066 -0.738,0.067 -0.336,0.066 -0.672,0.07 -0.336,0.067 -1.477,0.133 -0.336,0 -0.738,0.066 -0.402,0.07 -0.738,0.067 -0.336,0.066 -0.809,0.067 -0.336,0.066 -0.805,0.066 -0.804,0.071 -0.336,0.066 -0.805,0.067 -0.406,0.066 -0.805,0 -0.336,0.066 -0.871,0.071 -0.406,0.066 -0.805,0.066 -0.402,0.067 -0.805,0.066 -0.406,0.071 -0.871,0.066 -0.403,0.066 -0.875,0.067 -0.402,0.066 -0.871,0"
               style="fill:none;stroke:#000000;stroke-width:1.20000005;stroke-linecap:butt;stroke-linejoin:miter;stroke-miterlimit:10;stroke-opacity:1;stroke-dasharray:none"
               id="path3209"
               inkscape:connector-curvature="0" /></g><g
             transform="translate(0,190)"
             id="g3211"><path
               d="m 151.418,-153.051 -0.406,0.071 -0.871,0.066 -0.403,0.066 -0.875,0.067 -0.468,0.066 -0.403,0.07 -0.875,0.067 -0.469,0.066 -0.875,0.067 -0.468,0.066 -0.875,0.07 -0.469,0 -0.871,0.067 -0.473,0.066 -0.469,0.067 -0.875,0.066 -0.468,0.066 -0.942,0.071 -0.402,0.066 -0.469,0.067 -0.941,0.066 -0.469,0.066 -0.941,0.071 -0.469,0.066 -0.875,0 -0.469,0.066 -0.539,0.067 -0.871,0.066 -0.473,0.071 -0.535,0.066 -0.875,0.066 -0.535,0.067 -0.875,0.066 -0.535,0.071 -0.473,0.066 -0.937,0.066 -0.473,0 -0.469,0.067 -0.941,0.066 -0.535,0.07 -0.875,0.067 -0.539,0.066 -0.469,0.067 -0.941,0.066 -0.469,0.07 -0.539,0.067 -0.871,0.066 -0.539,0.067 -0.469,0 -0.942,0.066 -0.468,0.066 -0.539,0.071 -0.938,0.066 -0.473,0.067 -0.535,0.066 -0.875,0.066 -0.535,0.071 -0.473,0.066 -0.535,0.067 -0.875,0.066 -0.535,0 -0.473,0.066 -0.937,0.071 -0.473,0.066 -0.468,0.066 -0.942,0.067 -0.469,0.066 -0.539,0.071 -0.468,0.066 -0.942,0.066 -0.937,0.133 -0.942,0 -0.468,0.071 -0.473,0.066 -0.535,0.066 -0.875,0.067 -0.469,0.066 -0.473,0.07 -0.937,0.067 -0.473,0.066 -0.937,0.133 -0.875,0.07 -0.469,0 -0.539,0.067 -0.469,0.066 -0.875,0.067 -0.937,0.132 -0.473,0.071 -0.871,0.066 -0.473,0.067 -0.937,0.132 -0.809,0.071 -0.469,0.066 -0.468,0 -0.473,0.066 -0.469,0.067 -0.804,0.066 -0.473,0.071 -0.938,0.132"
               style="fill:none;stroke:#000000;stroke-width:1.20000005;stroke-linecap:butt;stroke-linejoin:miter;stroke-miterlimit:10;stroke-opacity:1;stroke-dasharray:none"
               id="path3213"
               inkscape:connector-curvature="0" /></g><g
             transform="translate(0,190)"
             id="g3215"><path
               d="m 87.277,-146.602 -0.808,0.067 -0.469,0.066 -0.473,0.071 -0.402,0.066 -0.469,0.066 -0.804,0 -0.407,0.067 -0.468,0.066 -0.469,0.07 -0.403,0.067 -0.808,0.066 -0.402,0.067 -0.469,0.066 -0.403,0.07 -0.472,0.067 -0.738,0.066 -0.403,0.067 -0.469,0 -0.406,0.066 -0.402,0.066 -0.738,0.071 -0.403,0.066 -0.469,0.067 -0.406,0.066 -0.402,0.066 -0.738,0.071 -1.207,0.199 -0.403,0 -0.406,0.066 -0.672,0.071 -1.207,0.199 -0.336,0.066 -0.402,0.071 -0.672,0.066 -0.402,0.066 -0.336,0.067 -0.403,0.066 -0.406,0 -0.336,0.071 -0.672,0.066 -0.332,0.066 -0.406,0.067 -0.336,0.066 -0.336,0.07 -0.402,0.067 -0.336,0.066 -0.602,0.067 -0.336,0.066 -0.406,0.066 -0.336,0.071 -0.336,0 -0.332,0.066 -0.336,0.067 -0.605,0.066 -0.336,0.066 -0.336,0.071 -0.336,0.066 -0.27,0.067 -0.672,0.132 -0.535,0.071 -0.336,0.066 -0.336,0 -0.269,0.066 -0.672,0.133 -0.269,0.071 -0.336,0.066 -0.469,0.066 -0.336,0.067 -0.27,0.066 -0.269,0.071 -0.336,0.066 -0.266,0.066 -0.269,0 -0.336,0.067 -0.27,0.066 -0.468,0.07 -0.809,0.2 -0.266,0.066 -0.269,0.067 -0.27,0.07 -0.269,0.066 -0.266,0.067 -0.406,0 -0.266,0.066 -0.269,0.066 -0.203,0.071 -0.27,0.066 -0.266,0.067 -0.203,0.066 -0.269,0.066 -0.199,0.071 -0.27,0.066 -0.203,0.067 -0.402,0.066 -0.27,0 -0.199,0.066"
               style="fill:none;stroke:#000000;stroke-width:1.20000005;stroke-linecap:butt;stroke-linejoin:miter;stroke-miterlimit:10;stroke-opacity:1;stroke-dasharray:none"
               id="path3217"
               inkscape:connector-curvature="0" /></g><g
             transform="translate(0,190)"
             id="g3219"><path
               d="m 46.844,-140.223 -0.203,0.071 -0.266,0.066 -0.406,0.133 -0.199,0.066 -0.204,0.071 -0.199,0.066 -0.269,0.066 -0.336,0.067 -0.203,0.066 -0.2,0.071 -0.203,0 -0.199,0.066 -0.137,0.066 -0.199,0.067 -0.406,0.133 -0.199,0.07 -0.137,0.066 -0.199,0.067 -0.203,0.066 -0.266,0.066 -0.203,0.071 -0.133,0 -0.203,0.066 -0.133,0.067 -0.203,0.066 -0.133,0.066 -0.137,0.071 -0.199,0.066 -0.137,0.067 -0.132,0.066 -0.203,0.066 -0.133,0.071 -0.133,0.066 -0.137,0 -0.269,0.066 -0.266,0.133 -0.137,0.071 -0.132,0.066 -0.137,0.066 -0.266,0.133 -0.137,0.071 -0.132,0.066 -0.137,0.066 -0.133,0 -0.066,0.067 -0.133,0.066 -0.137,0.07 -0.133,0.067 -0.066,0.066 -0.137,0.067 -0.133,0.066 -0.136,0.067 -0.133,0.07 -0.067,0.066 -0.136,0.067 -0.133,0 -0.133,0.132 -0.137,0.071 -0.066,0.066 -0.133,0.067 -0.07,0.066 -0.067,0.066 -0.132,0.071 -0.133,0.133 -0.137,0.066 -0.066,0 -0.067,0.066 -0.066,0.071 -0.07,0.066 -0.133,0.066 -0.203,0.204 -0.133,0.066 -0.133,0.133 -0.07,0.066 -0.067,0.071 -0.066,0 -0.133,0.132 0,0.067 -0.07,0.066 -0.067,0.067 -0.066,0.07 -0.133,0.133 0,0.066 -0.07,0.066 -0.067,0.071 -0.066,0 0,0.066 -0.199,0.199 0,0.071 -0.07,0.066 0,0.067"
               style="fill:none;stroke:#000000;stroke-width:1.20000005;stroke-linecap:butt;stroke-linejoin:miter;stroke-miterlimit:10;stroke-opacity:1;stroke-dasharray:none"
               id="path3221"
               inkscape:connector-curvature="0" /></g><g
             transform="translate(0,190)"
             id="g3223"><path
               d="m 33.813,-133.773 -0.133,0.132 0,0.071 -0.133,0.132 -0.07,0.067 0,0.066 -0.067,0.071 0,0.066 -0.066,0.066 0,0.133 -0.067,0.071 -0.066,0.066 0,0.066 -0.07,0.067 0,0.066 -0.067,0.067 0,0.136 -0.066,0.067 0,0.133 -0.067,0.07 0,0.133 -0.066,0.066 0,0.203 -0.07,0.067 0,0.203 -0.067,0.066 0,0.27 -0.066,0.066 0,0.402 -0.067,0.067 0,0.539 -0.066,0.066 0,1.477 -0.07,0.066 0,1.68"
               style="fill:none;stroke:#000000;stroke-width:1.20000005;stroke-linecap:butt;stroke-linejoin:miter;stroke-miterlimit:10;stroke-opacity:1;stroke-dasharray:none"
               id="path3225"
               inkscape:connector-curvature="0" /></g><g
             transform="translate(0,190)"
             id="g3227"><path
               d="m 32.469,-126.789 0,0.269"
               style="fill:none;stroke:#000000;stroke-width:0.67163002;stroke-linecap:butt;stroke-linejoin:miter;stroke-miterlimit:10;stroke-opacity:1;stroke-dasharray:none"
               id="path3229"
               inkscape:connector-curvature="0" /></g><g
             transform="translate(0,190)"
             id="g3231"><path
               d="m 193.66,-52.641 0,-0.539 -0.066,-0.199 -0.067,-0.203 -0.066,-0.199 -0.066,-0.137 -0.071,-0.199 -0.066,-0.203 -0.133,-0.2 -0.137,-0.136 -0.133,-0.199 -0.132,-0.204 -0.942,-0.941 -0.203,-0.133 -0.265,-0.203 -0.204,-0.199 -0.269,-0.203 0,-0.133 -0.27,-0.137 -0.265,-0.199 -0.336,-0.203 -0.27,-0.199 -0.336,-0.137 -0.336,-0.199 -0.066,-0.137 -0.336,-0.199 -0.336,-0.137 -0.402,-0.199 -0.336,-0.203 -0.403,-0.2 -0.136,-0.07 -0.403,-0.199 -0.402,-0.203 -0.402,-0.199 -0.473,-0.204 -0.133,-0.066 -0.469,-0.203 -0.472,-0.199 -0.469,-0.203 -0.133,-0.067 -0.472,-0.203 -0.536,-0.199 -0.539,-0.203 -0.132,-0.133 -0.539,-0.137 -0.536,-0.199 -0.203,-0.137 -0.539,-0.199 -0.601,-0.133 -0.204,-0.137 -0.535,-0.199 -0.605,-0.203 -0.27,-0.133 -0.605,-0.136 -0.602,-0.2 -0.203,-0.136 -0.672,-0.2 -0.605,-0.136 -0.266,-0.133 -0.672,-0.203 -0.672,-0.199 -0.269,-0.137 -0.672,-0.133 -0.672,-0.203 -0.269,-0.133 -0.672,-0.203 -0.336,-0.133 -0.672,-0.133 -0.738,-0.203 -0.336,-0.133 -0.672,-0.203 -0.336,-0.066 -0.738,-0.203 -0.739,-0.199 -0.336,-0.137 -0.738,-0.199 -0.402,-0.067 -0.738,-0.203 -0.336,-0.133 -0.809,-0.203 -0.336,-0.133 -0.805,-0.136 -0.804,-0.2 -0.336,-0.136 -0.805,-0.2 -0.406,-0.136 -0.805,-0.133 -0.336,-0.137 -0.871,-0.199 -0.406,-0.133 -0.805,-0.137 -0.402,-0.132 -0.805,-0.203 -0.406,-0.133 -0.871,-0.203 -0.403,-0.067 -0.875,-0.203 -0.402,-0.133 -0.871,-0.203"
               style="fill:none;stroke:#000000;stroke-width:1.20000005;stroke-linecap:butt;stroke-linejoin:miter;stroke-miterlimit:10;stroke-opacity:1;stroke-dasharray:none"
               id="path3233"
               inkscape:connector-curvature="0" /></g><g
             transform="translate(0,190)"
             id="g3235"><path
               d="m 151.418,-70.172 -0.406,-0.133 -0.871,-0.133 -0.403,-0.136 -0.875,-0.199 -0.468,-0.137 -0.403,-0.133 -0.875,-0.133 -0.469,-0.137 -0.875,-0.199 -0.468,-0.136 -0.875,-0.2 -0.469,-0.07 -0.871,-0.199 -0.473,-0.137 -0.469,-0.133 -0.875,-0.203 -0.468,-0.066 -0.942,-0.199 -0.402,-0.137 -0.469,-0.133 -0.941,-0.203 -0.469,-0.067 -0.941,-0.199 -0.469,-0.136 -0.875,-0.2 -0.469,-0.136 -0.539,-0.067 -0.871,-0.203 -0.473,-0.133 -0.535,-0.133 -0.875,-0.203 -0.535,-0.066 -0.875,-0.203 -0.535,-0.133 -0.473,-0.133 -0.937,-0.203 -0.473,-0.133 -0.469,-0.07 -0.941,-0.199 -0.535,-0.137 -0.875,-0.199 -0.539,-0.137 -0.469,-0.066 -0.941,-0.2 -0.469,-0.136 -0.539,-0.133 -0.871,-0.203 -0.539,-0.067 -0.469,-0.132 -0.942,-0.204 -0.468,-0.132 -0.539,-0.137 -0.938,-0.133 -0.473,-0.133 -0.535,-0.136 -0.875,-0.2 -0.535,-0.136 -0.473,-0.067 -0.535,-0.133 -0.875,-0.203 -0.535,-0.133 -0.473,-0.136 -0.937,-0.2 -0.473,-0.066 -0.468,-0.137 -0.942,-0.199 -0.469,-0.137 -0.539,-0.132 -0.468,-0.067 -0.942,-0.203 -0.469,-0.133 -0.468,-0.136 -0.942,-0.2 -0.468,-0.07 -0.473,-0.133 -0.535,-0.133 -0.875,-0.203 -0.469,-0.133 -0.473,-0.136 -0.937,-0.133 -0.473,-0.133 -0.469,-0.137 -0.468,-0.132 -0.875,-0.204 -0.469,-0.066 -0.539,-0.133 -0.469,-0.136 -0.875,-0.2 -0.469,-0.136 -0.468,-0.067 -0.473,-0.133 -0.871,-0.203 -0.473,-0.133 -0.469,-0.136 -0.468,-0.133 -0.809,-0.133 -0.469,-0.137 -0.468,-0.132 -0.473,-0.137 -0.469,-0.133 -0.804,-0.133 -0.473,-0.137 -0.469,-0.132 -0.469,-0.137"
               style="fill:none;stroke:#000000;stroke-width:1.20000005;stroke-linecap:butt;stroke-linejoin:miter;stroke-miterlimit:10;stroke-opacity:1;stroke-dasharray:none"
               id="path3237"
               inkscape:connector-curvature="0" /></g><g
             transform="translate(0,190)"
             id="g3239"><path
               d="m 87.277,-85.082 -0.808,-0.199 -0.469,-0.137 -0.473,-0.066 -0.402,-0.133 -0.469,-0.133 -0.804,-0.203 -0.407,-0.133 -0.468,-0.07 -0.469,-0.133 -0.403,-0.133 -0.808,-0.203 -0.402,-0.133 -0.469,-0.137 -0.403,-0.066 -0.472,-0.133 -0.738,-0.203 -0.403,-0.133 -0.469,-0.136 -0.406,-0.133 -0.402,-0.067 -0.738,-0.203 -0.403,-0.133 -0.469,-0.136 -0.406,-0.133 -0.402,-0.067 -0.738,-0.203 -0.403,-0.132 -0.402,-0.137 -0.805,-0.266 -0.406,-0.07 -0.672,-0.199 -0.402,-0.137 -0.805,-0.266 -0.336,-0.07 -0.402,-0.133 -0.672,-0.199 -0.402,-0.137 -0.336,-0.133 -0.403,-0.136 -0.406,-0.067 -0.336,-0.132 -0.672,-0.204 -0.332,-0.132 -0.406,-0.137 -0.336,-0.067 -0.336,-0.132 -0.402,-0.137 -0.336,-0.133 -0.602,-0.203 -0.336,-0.133 -0.406,-0.066 -0.336,-0.133 -0.336,-0.137 -0.332,-0.133 -0.336,-0.136 -0.605,-0.2 -0.336,-0.066 -0.336,-0.137 -0.336,-0.132 -0.27,-0.137 -0.672,-0.266 -0.535,-0.137 -0.336,-0.132 -0.336,-0.137 -0.269,-0.133 -0.336,-0.133 -0.336,-0.066 -0.269,-0.137 -0.336,-0.133 -0.469,-0.203 -0.336,-0.133 -0.27,-0.136 -0.269,-0.067 -0.336,-0.132 -0.266,-0.137 -0.269,-0.133 -0.336,-0.133 -0.27,-0.137 -0.468,-0.132 -0.27,-0.137 -0.539,-0.266 -0.266,-0.136 -0.269,-0.133 -0.27,-0.067 -0.269,-0.136 -0.938,-0.469 -0.269,-0.067 -0.203,-0.136 -0.27,-0.133 -0.266,-0.133 -0.203,-0.137 -0.269,-0.132 -0.199,-0.067 -0.27,-0.137 -0.203,-0.132 -0.402,-0.203 -0.27,-0.133 -0.199,-0.133"
               style="fill:none;stroke:#000000;stroke-width:1.20000005;stroke-linecap:butt;stroke-linejoin:miter;stroke-miterlimit:10;stroke-opacity:1;stroke-dasharray:none"
               id="path3241"
               inkscape:connector-curvature="0" /></g><g
             transform="translate(0,190)"
             id="g3243"><path
               d="m 46.844,-98.914 -0.203,-0.07 -0.266,-0.133 -0.203,-0.133 -0.203,-0.137 -0.199,-0.133 -0.204,-0.136 -0.199,-0.067 -0.269,-0.132 -0.336,-0.204 -0.203,-0.132 -0.2,-0.137 -0.203,-0.133 -0.199,-0.066 -0.137,-0.133 -0.199,-0.137 -0.203,-0.133 -0.203,-0.136 -0.199,-0.133 -0.137,-0.067 -0.199,-0.136 -0.203,-0.133 -0.266,-0.203 -0.203,-0.133 -0.133,-0.067 -0.203,-0.136 -0.133,-0.133 -0.203,-0.133 -0.133,-0.137 -0.137,-0.132 -0.199,-0.067 -0.269,-0.269 -0.203,-0.133 -0.133,-0.137 -0.133,-0.133 -0.137,-0.066 -0.269,-0.203 -0.133,-0.133 -0.133,-0.137 -0.137,-0.133 -0.132,-0.136 -0.137,-0.067 -0.133,-0.132 -0.133,-0.137 -0.137,-0.133 -0.269,-0.27 -0.133,-0.066 -0.066,-0.133 -0.133,-0.136 -0.137,-0.133 -0.133,-0.133 -0.066,-0.137 -0.137,-0.066 -0.133,-0.133 -0.136,-0.203 -0.133,-0.133 -0.067,-0.137 -0.136,-0.133 -0.133,-0.066 -0.066,-0.137 -0.067,-0.132 -0.137,-0.137 -0.066,-0.133 -0.133,-0.133 -0.07,-0.066 -0.067,-0.137 -0.132,-0.133 -0.067,-0.136 -0.066,-0.133 -0.137,-0.133 -0.066,-0.07 -0.133,-0.266 -0.07,-0.137 -0.133,-0.133 -0.067,-0.136 -0.066,-0.067 -0.07,-0.132 -0.133,-0.204 -0.133,-0.265 -0.07,-0.137 -0.067,-0.066 -0.066,-0.133 -0.066,-0.137 -0.067,-0.133 0,-0.136 -0.07,-0.133 -0.067,-0.067 -0.066,-0.136 -0.133,-0.266 0,-0.137 -0.07,-0.133 -0.067,-0.066 -0.066,-0.137 0,-0.132 -0.066,-0.133 -0.067,-0.137 -0.066,-0.133 0,-0.066 -0.07,-0.137 0,-0.133"
               style="fill:none;stroke:#000000;stroke-width:1.20000005;stroke-linecap:butt;stroke-linejoin:miter;stroke-miterlimit:10;stroke-opacity:1;stroke-dasharray:none"
               id="path3245"
               inkscape:connector-curvature="0" /></g><g
             transform="translate(0,190)"
             id="g3247"><path
               d="m 33.813,-112.012 -0.067,-0.136 -0.066,-0.133 0,-0.133 -0.067,-0.07 0,-0.133 -0.066,-0.133 -0.07,-0.137 0,-0.133 -0.067,-0.136 0,-0.067 -0.066,-0.132 0,-0.27 -0.067,-0.133 -0.066,-0.203 0,-0.199 -0.07,-0.137 0,-0.133 -0.067,-0.136 0,-0.2 -0.066,-0.136 0,-0.266 -0.067,-0.137 0,-0.336 -0.066,-0.132 0,-0.403 -0.07,-0.066 0,-0.406 -0.067,-0.133 0,-0.606 -0.066,-0.133 0,-0.738 -0.067,-0.137 0,-1.074 -0.066,-0.133 0,-2.957 -0.07,-0.132 0,-2.215"
               style="fill:none;stroke:#000000;stroke-width:1.20000005;stroke-linecap:butt;stroke-linejoin:miter;stroke-miterlimit:10;stroke-opacity:1;stroke-dasharray:none"
               id="path3249"
               inkscape:connector-curvature="0" /></g><g
             transform="translate(0,190)"
             id="g3251"><path
               d="m 32.469,-124.906 0,-1.614 0,0.067"
               style="fill:none;stroke:#000000;stroke-width:1.20000005;stroke-linecap:butt;stroke-linejoin:miter;stroke-miterlimit:10;stroke-opacity:1;stroke-dasharray:none"
               id="path3253"
               inkscape:connector-curvature="0" /></g><g
             transform="translate(0,190)"
             id="g3255"><path
               d="m 33.477,-166.414 1.007,0.066 3.895,0 1.008,0.067 3.828,0 0.941,0.066 3.762,0 0.941,0.07 3.692,0 0.875,0.067 2.687,0 0.938,0.066 3.492,0 0.875,0.067 3.492,0 0.805,0.066 3.426,0 0.808,0.07 3.289,0 0.805,0.067 3.227,0 0.804,0.066 3.156,0 0.805,0.067 3.828,0 0.742,0.066 3.02,0 0.738,0.07 2.891,0 0.738,0.067 2.887,0 0.672,0.066 2.82,0 0.672,0.067 2.754,0 0.672,0.066 3.293,0 0.672,0.07 2.55,0 0.672,0.067 2.485,0 0.605,0.066 1.274,0"
               style="fill:none;stroke:#d82900;stroke-width:1.34326005;stroke-linecap:butt;stroke-linejoin:miter;stroke-miterlimit:10;stroke-opacity:1;stroke-dasharray:2.68652, 1.34326;stroke-dashoffset:0"
               id="path3257"
               inkscape:connector-curvature="0" /></g><g
             transform="translate(0,190)"
             id="g3259"><path
               d="m 116.02,-165.004 1.816,0 0.602,0.066 2.417,0 0.54,0.067 2.886,0 0.606,0.066 2.285,0 0.535,0.071 2.754,0 0.539,0.066 2.082,0 0.535,0.066 2.555,0 0.535,0.067 2.484,0 0.473,0.066 1.945,0 0.473,0.071 2.348,0 0.472,0.066 2.282,0 0.472,0.066 2.149,0 0.468,0.067 2.082,0 0.403,0.066 2.015,0 0.403,0.07 2.351,0 0.403,0.067 1.883,0 0.335,0.066 2.215,0 0.336,0.067 1.68,0 0.336,0.066"
               style="fill:none;stroke:#d82900;stroke-width:1.34326005;stroke-linecap:butt;stroke-linejoin:miter;stroke-miterlimit:10;stroke-opacity:1;stroke-dasharray:2.68652, 1.34326;stroke-dashoffset:0"
               id="path3261"
               inkscape:connector-curvature="0" /></g><g
             transform="translate(0,190)"
             id="g3263"><path
               d="m 164.715,-163.797 2.015,0 0.336,0.07 1.879,0 0.27,0.067 1.812,0 0.27,0.066 1.945,0 0.27,0.067 1.883,0 0.265,0.066 1.68,0 0.269,0.07 1.614,0 0.199,0.067 1.746,0 0.203,0.066 1.543,0 0.203,0.067 1.613,0 0.2,0.066 1.547,0 0.199,0.07 1.48,0 0.133,0.067"
               style="fill:none;stroke:#d82900;stroke-width:1.34326005;stroke-linecap:butt;stroke-linejoin:miter;stroke-miterlimit:10;stroke-opacity:1;stroke-dasharray:2.68652, 1.34326;stroke-dashoffset:0"
               id="path3265"
               inkscape:connector-curvature="0" /></g><g
             transform="translate(0,190)"
             id="g3267"><path
               d="m 188.289,-162.988 1.613,0 0.133,0.066 1.41,0 0.133,0.067 1.481,0 0.066,0.066 0.402,0 -0.203,0 1.078,0 1.141,0.066 1.074,0.071 1.074,0.066 1.141,0 1.074,0.066 1.078,0.067 1.141,0.066 1.074,0.071 1.074,0.066 1.141,0.066 2.149,0.133 1.144,0.071 3.223,0.199 1.14,0.066 1.075,0.137 1.078,0.066 1.14,0.067 1.075,0.136 1.074,0.067 1.14,0.133 1.075,0.066 1.078,0.137 1.14,0.066 1.075,0.133 1.074,0.07 1.14,0.133 1.075,0.066 1.078,0.067 1.14,0.066 1.075,0.071 1.074,0 1.14,0.066 1.075,0.066 1.078,0 1.14,0.067 1.075,0 1.074,0.066 1.14,0"
               style="fill:none;stroke:#d82900;stroke-width:1.34326005;stroke-linecap:butt;stroke-linejoin:miter;stroke-miterlimit:10;stroke-opacity:1;stroke-dasharray:2.68652, 1.34326;stroke-dashoffset:0"
               id="path3269"
               inkscape:connector-curvature="0" /></g><g
             transform="translate(0,190)"
             id="g3271"><path
               d="m 239.398,-159.969 1.075,0.071 2.218,0 1.075,0.066 2.214,0 1.075,0.066 3.293,0 1.074,0.067 5.508,0 1.074,0.066 6.582,0 1.141,0.07 13.097,0 1.141,0.067 24.851,0"
               style="fill:none;stroke:#d82900;stroke-width:1.34326005;stroke-linecap:butt;stroke-linejoin:miter;stroke-miterlimit:10;stroke-opacity:1;stroke-dasharray:2.68652, 1.34326;stroke-dashoffset:0"
               id="path3273"
               inkscape:connector-curvature="0" /></g><g
             transform="translate(0,190)"
             id="g3275"><path
               d="m 33.477,-4.016 1.007,-1.074 0.942,-0.738 1.008,-0.672 1.007,-0.605 0.938,-0.536 1.008,-0.472 0.941,-0.469 0.942,-0.402 1.007,-0.403 0.938,-0.402 2.824,-1.008 0.938,-0.336 0.941,-0.336 0.941,-0.269 0.938,-0.27 0.875,-0.336 0.941,-0.269 0.938,-0.266 0.875,-0.203 0.941,-0.27 0.871,-0.265 0.875,-0.203 0.938,-0.27 0.875,-0.199 0.871,-0.27 0.875,-0.203 0.871,-0.199 0.875,-0.203 0.871,-0.27 0.875,-0.199 0.871,-0.203 0.875,-0.199 0.805,-0.203 0.875,-0.133 0.871,-0.203 0.809,-0.203 0.871,-0.2 0.808,-0.203 0.805,-0.133 0.871,-0.203 0.809,-0.132 0.804,-0.204 0.805,-0.199 0.809,-0.137 0.804,-0.199 0.805,-0.136 0.809,-0.2 0.804,-0.136 0.805,-0.133 0.809,-0.203 0.738,-0.133 0.804,-0.133 0.805,-0.203 0.742,-0.133 0.805,-0.137 0.738,-0.132 0.739,-0.204 0.804,-0.132 0.742,-0.133 0.739,-0.137 0.738,-0.133 0.805,-0.136 1.476,-0.266 0.742,-0.203 0.739,-0.133 0.672,-0.137 1.476,-0.265 0.738,-0.137 0.672,-0.066 0.739,-0.133 0.738,-0.137 0.672,-0.133 0.738,-0.137 1.344,-0.265 0.738,-0.137 0.672,-0.133 0.672,-0.066 0.672,-0.137 0.672,-0.133 0.738,-0.132 0.672,-0.137 0.672,-0.067 0.605,-0.132 0.672,-0.137 0.672,-0.133 0.672,-0.066 0.672,-0.137 0.601,-0.133 0.672,-0.066 0.672,-0.137 0.605,-0.133 0.672,-0.066 0.606,-0.137 0.601,-0.133 0.672,-0.066 0.606,-0.137 0.605,-0.066 0.672,-0.133 0.602,-0.137"
               style="fill:none;stroke:#d82900;stroke-width:1.34319997;stroke-linecap:butt;stroke-linejoin:miter;stroke-miterlimit:10;stroke-opacity:1;stroke-dasharray:2.6864, 1.3432;stroke-dashoffset:0"
               id="path3277"
               inkscape:connector-curvature="0" /></g><g
             transform="translate(0,190)"
             id="g3279"><path
               d="m 116.02,-25.844 0.605,-0.066 0.605,-0.133 0.606,-0.066 0.602,-0.137 0.605,-0.067 0.605,-0.132 0.606,-0.071 0.601,-0.132 0.54,-0.067 0.605,-0.137 0.602,-0.066 0.539,-0.133 0.605,-0.066 0.535,-0.137 0.606,-0.066 0.539,-0.133 0.601,-0.07 0.539,-0.133 0.606,-0.067 0.535,-0.066 0.539,-0.137 0.535,-0.066 0.539,-0.133 0.535,-0.066 0.606,-0.071 0.539,-0.133 0.535,-0.066 0.473,-0.066 0.535,-0.137 0.539,-0.066 0.535,-0.067 0.539,-0.137 0.535,-0.066 0.473,-0.066 0.535,-0.133 0.473,-0.071 0.535,-0.066 0.539,-0.133 0.469,-0.066 0.469,-0.07 0.539,-0.067 0.468,-0.133 0.473,-0.066 0.535,-0.07 0.473,-0.067 0.469,-0.133 0.468,-0.066 0.473,-0.066 0.469,-0.071 0.539,-0.133 0.402,-0.066 0.469,-0.066 0.469,-0.071 0.472,-0.066 0.469,-0.133 0.469,-0.066 0.473,-0.071 0.402,-0.066 0.469,-0.066 0.472,-0.067 0.403,-0.137 0.468,-0.066 0.403,-0.066 0.472,-0.067 0.403,-0.066 0.468,-0.071 0.403,-0.066 0.406,-0.066 0.469,-0.133 0.402,-0.07 0.805,-0.133 0.406,-0.067 0.805,-0.132 0.402,-0.071 0.805,-0.133 0.406,-0.066 0.402,-0.066 0.403,-0.071 0.804,-0.133 0.336,-0.066 0.403,-0.137 0.402,-0.066 0.336,-0.066 0.406,-0.067 0.336,-0.066 0.403,-0.071 0.335,-0.066 0.403,-0.066 0.336,0 0.402,-0.067 0.336,-0.066 0.336,-0.071 0.402,-0.066 1.008,-0.199 0.336,-0.07 1.008,-0.2"
               style="fill:none;stroke:#d82900;stroke-width:1.34319997;stroke-linecap:butt;stroke-linejoin:miter;stroke-miterlimit:10;stroke-opacity:1;stroke-dasharray:2.6864, 1.3432;stroke-dashoffset:0"
               id="path3281"
               inkscape:connector-curvature="0" /></g><g
             transform="translate(0,190)"
             id="g3283"><path
               d="m 164.715,-34.305 0.672,-0.133 0.336,-0.07 0.672,-0.133 0.335,0 0.336,-0.066 0.266,-0.066 0.336,-0.071 0.336,-0.066 0.269,-0.067 0.672,-0.132 0.27,0 0.336,-0.071 0.269,-0.066 0.336,-0.067 0.266,-0.066 0.269,-0.066 0.336,0 0.27,-0.071 0.269,-0.066 0.266,-0.066 0.336,-0.067 0.27,-0.066 0.269,0 0.27,-0.071 0.265,-0.066 0.539,-0.133 0.27,0 0.269,-0.066 0.266,-0.071 0.269,-0.066 0.27,0 0.27,-0.066 0.265,-0.067 0.203,-0.066 0.27,0 0.269,-0.067 0.266,-0.07 0.203,-0.066 0.27,0 0.199,-0.067 0.269,-0.066 0.204,0 0.265,-0.066 0.203,-0.071 0.27,0 0.199,-0.066 0.27,-0.067 0.203,0 0.199,-0.066 0.269,-0.066 0.204,0 0.199,-0.071 0.203,-0.066 0.269,0 0.2,-0.067 0.203,-0.066 0.199,0 0.203,-0.066 0.203,-0.071 0.199,0 0.204,-0.066 0.199,0 0.203,-0.066 0.199,-0.067 0.137,0 0.199,-0.066 0.203,0 0.203,-0.071 0.2,-0.066 0.136,0 0.199,-0.066 0.204,0 0.132,-0.067 0.204,0 0.199,-0.066 0.136,0 0.2,-0.071 0.136,-0.066 0.2,0 0.136,-0.066 0.133,0 0.203,-0.067 0.133,0 0.133,-0.066 0.203,0 0.133,-0.067 0.137,0 0.199,-0.07 0.269,0 0.133,-0.066 0.137,0 0.133,-0.067 0.136,0 0.133,-0.066 0.133,0 0.137,-0.067 0.269,0 0.133,-0.07"
               style="fill:none;stroke:#d82900;stroke-width:1.34319997;stroke-linecap:butt;stroke-linejoin:miter;stroke-miterlimit:10;stroke-opacity:1;stroke-dasharray:2.6864, 1.3432;stroke-dashoffset:0"
               id="path3285"
               inkscape:connector-curvature="0" /></g><g
             transform="translate(0,190)"
             id="g3287"><path
               d="m 188.289,-39.008 0.133,0 0.137,-0.066 0.132,0 0.133,-0.067 0.203,0 0.133,-0.066 0.203,0 0.133,-0.066 0.137,0 0.066,-0.071 0.203,0 0.133,-0.066 0.203,0 0.067,-0.067 0.199,0 0.137,-0.066 0.132,0 0.133,-0.066 0.27,0 0.066,-0.071 0.203,0 0.133,-0.066 0.203,0 0.067,-0.067 0.203,0 0.066,-0.066 0.203,0 0.067,-0.066 0.199,0 0.066,-0.071 0.27,0 0.066,-0.066 0.203,0 0.067,-0.066 0.269,0 0,-0.067 -0.203,0.067 1.078,-0.27 1.141,-0.266 1.074,-0.203 1.074,-0.269 1.141,-0.336 1.074,-0.27 1.078,-0.265 1.141,-0.27 1.074,-0.336 1.074,-0.269 1.141,-0.336 1.074,-0.27 1.075,-0.336 1.144,-0.336 1.074,-0.336 1.074,-0.402 1.075,-0.336 1.14,-0.336 1.075,-0.402 1.078,-0.403 1.14,-0.402 1.075,-0.402 1.074,-0.473 1.14,-0.402 1.075,-0.403 1.078,-0.402 1.14,-0.402 1.075,-0.403 1.074,-0.336 1.14,-0.269 1.075,-0.27 1.078,-0.203 1.14,-0.199 1.075,-0.137 1.074,-0.132 1.14,-0.133 1.075,-0.137 1.078,-0.066 1.14,-0.067 2.149,-0.133"
               style="fill:none;stroke:#d82900;stroke-width:1.34319997;stroke-linecap:butt;stroke-linejoin:miter;stroke-miterlimit:10;stroke-opacity:1;stroke-dasharray:2.6864, 1.3432;stroke-dashoffset:0"
               id="path3289"
               inkscape:connector-curvature="0" /></g><g
             transform="translate(0,190)"
             id="g3291"><path
               d="m 238.258,-51.766 1.14,-0.07 1.075,-0.066 1.078,-0.067 1.14,0 2.149,-0.133 1.14,0 1.075,-0.07 1.078,0 1.14,-0.066 2.149,0 1.141,-0.067 2.148,0 1.144,-0.066 4.364,0 1.074,-0.067 5.508,0 1.074,-0.07 8.801,0 1.074,-0.066 27.066,0"
               style="fill:none;stroke:#d82900;stroke-width:1.34319997;stroke-linecap:butt;stroke-linejoin:miter;stroke-miterlimit:10;stroke-opacity:1;stroke-dasharray:2.6864, 1.3432;stroke-dashoffset:0"
               id="path3293"
               inkscape:connector-curvature="0" /></g><g
             transform="translate(0,190)"
             id="g3295"><path
               d="m 32.941,-152.715 2.282,0 0,0.07 4.636,0"
               style="fill:none;stroke:#d82900;stroke-width:1.34326005;stroke-linecap:butt;stroke-linejoin:miter;stroke-miterlimit:10;stroke-opacity:1;stroke-dasharray:none"
               id="path3297"
               inkscape:connector-curvature="0" /></g><g
             transform="translate(0,190)"
             id="g3299"><path
               d="m 39.859,-152.645 7.254,0"
               style="fill:none;stroke:#d82900;stroke-width:1.34326005;stroke-linecap:butt;stroke-linejoin:miter;stroke-miterlimit:10;stroke-opacity:1;stroke-dasharray:none"
               id="path3301"
               inkscape:connector-curvature="0" /></g><g
             transform="translate(0,190)"
             id="g3303"><path
               d="m 47.113,-152.645 10.075,0"
               style="fill:none;stroke:#d82900;stroke-width:1.34326005;stroke-linecap:butt;stroke-linejoin:miter;stroke-miterlimit:10;stroke-opacity:1;stroke-dasharray:none"
               id="path3305"
               inkscape:connector-curvature="0" /></g><g
             transform="translate(0,190)"
             id="g3307"><path
               d="m 57.188,-152.645 0.199,0 0.136,-0.07 5.977,0 0.133,-0.066 4.637,0 0.132,-0.067 2.352,0"
               style="fill:none;stroke:#d82900;stroke-width:1.34326005;stroke-linecap:butt;stroke-linejoin:miter;stroke-miterlimit:10;stroke-opacity:1;stroke-dasharray:none"
               id="path3309"
               inkscape:connector-curvature="0" /></g><g
             transform="translate(0,190)"
             id="g3311"><path
               d="m 70.754,-152.848 1.613,0 0.133,-0.066 3.762,0 0.133,-0.066 3.293,0 0.132,-0.071 3.223,0 0.203,-0.066 2.754,0 0.199,-0.067 1.614,0"
               style="fill:none;stroke:#d82900;stroke-width:1.34326005;stroke-linecap:butt;stroke-linejoin:miter;stroke-miterlimit:10;stroke-opacity:1;stroke-dasharray:none"
               id="path3313"
               inkscape:connector-curvature="0" /></g><g
             transform="translate(0,190)"
             id="g3315"><path
               d="m 87.813,-153.184 1.277,0 0.133,-0.066 2.82,0 0.137,-0.066 2.484,0 0.199,-0.071 2.489,0 0.199,-0.066 2.484,0 0.203,-0.067 2.215,0 0.203,-0.066 2.418,0 0.199,-0.066 2.219,0 0.199,-0.071 0.204,0"
               style="fill:none;stroke:#d82900;stroke-width:1.34326005;stroke-linecap:butt;stroke-linejoin:miter;stroke-miterlimit:10;stroke-opacity:1;stroke-dasharray:none"
               id="path3317"
               inkscape:connector-curvature="0" /></g><g
             transform="translate(0,190)"
             id="g3319"><path
               d="m 107.895,-153.723 1.878,0 0.204,-0.066 2.082,0 0.203,-0.066 2.082,0 0.199,-0.067 2.148,0 0.204,-0.066 1.878,0 0.27,-0.071 1.883,0 0.199,-0.066 1.949,0 0.199,-0.066 1.95,0 0.203,-0.067 1.746,0 0.199,-0.066 2.016,0 0.203,-0.067 0.402,0"
               style="fill:none;stroke:#d82900;stroke-width:1.34326005;stroke-linecap:butt;stroke-linejoin:miter;stroke-miterlimit:10;stroke-opacity:1;stroke-dasharray:none"
               id="path3321"
               inkscape:connector-curvature="0" /></g><g
             transform="translate(0,190)"
             id="g3323"><path
               d="m 129.992,-154.391 1.344,0 0.199,-0.07 1.746,0 0.203,-0.066 1.746,0 0.2,-0.067 1.746,0 0.203,-0.066 1.746,0 0.203,-0.067 1.543,0 0.203,-0.07 1.746,0 0.2,-0.066 1.546,0 0.2,-0.067 1.679,0 0.27,-0.066 1.476,0 0.204,-0.067 1.476,0 0.203,-0.07 1.68,0 0.266,-0.066 0.402,0"
               style="fill:none;stroke:#d82900;stroke-width:1.34326005;stroke-linecap:butt;stroke-linejoin:miter;stroke-miterlimit:10;stroke-opacity:1;stroke-dasharray:none"
               id="path3325"
               inkscape:connector-curvature="0" /></g><g
             transform="translate(0,190)"
             id="g3327"><path
               d="m 152.422,-155.199 1.008,0 0.269,-0.067 1.41,0 0.204,-0.066 1.476,0 0.203,-0.066 1.41,0 0.2,-0.071 1.613,0 0.199,-0.066 1.414,0 0.199,-0.067 1.344,0 0.203,-0.066 1.41,0 0.133,-0.066 1.344,0 0.203,-0.071 1.34,0 0.203,-0.066 1.277,0 0.2,-0.067 1.41,0 0.203,-0.066 1.277,0 0.133,-0.066"
               style="fill:none;stroke:#d82900;stroke-width:1.34326005;stroke-linecap:butt;stroke-linejoin:miter;stroke-miterlimit:10;stroke-opacity:1;stroke-dasharray:none"
               id="path3329"
               inkscape:connector-curvature="0" /></g><g
             transform="translate(0,190)"
             id="g3331"><path
               d="m 172.707,-156.07 1.207,0 0.203,-0.071 1.344,0 0.199,-0.066 1.145,0 0.133,-0.066 1.277,0 0.199,-0.067 1.211,0 0.133,-0.066 1.211,0 0.133,-0.067 0.136,0 12.086,-0.605 1.078,-0.067 1.141,-0.07 2.148,-0.133 1.141,-0.066 1.074,-0.066 1.078,-0.071 1.141,-0.066 1.074,-0.067 1.074,-0.132 1.141,-0.071 2.149,-0.133 1.144,-0.066 1.074,-0.137 1.074,-0.066 1.075,-0.133 1.14,-0.066 1.075,-0.067 1.078,-0.136 1.14,-0.133 1.075,-0.067 1.074,-0.136 1.14,-0.133 1.075,-0.137 1.078,-0.066 1.14,-0.133 1.075,-0.137 1.074,-0.133 1.14,-0.066 1.075,-0.137 1.078,-0.066 1.14,-0.067 2.149,-0.132 1.14,-0.071 1.075,-0.066 1.078,-0.067 1.14,-0.066 1.075,0 1.074,-0.066 1.14,-0.067 1.075,0 1.078,-0.07 1.14,0 1.075,-0.066 1.074,0 1.14,-0.067 1.075,-0.066 1.078,0"
               style="fill:none;stroke:#d82900;stroke-width:1.34326005;stroke-linecap:butt;stroke-linejoin:miter;stroke-miterlimit:10;stroke-opacity:1;stroke-dasharray:none"
               id="path3333"
               inkscape:connector-curvature="0" /></g><g
             transform="translate(0,190)"
             id="g3335"><path
               d="m 248.133,-160.906 1.14,0 1.075,-0.067 1.074,0 1.141,-0.07 1.074,0 1.074,-0.066 2.219,0 1.074,-0.067 1.141,0 1.074,-0.066 2.219,0 1.074,-0.067 2.215,0 1.074,-0.07 2.219,0 1.074,-0.066 2.215,0 1.074,-0.067 2.219,0 1.074,-0.066 3.289,0 1.074,-0.067 2.219,0 1.074,-0.07 3.289,0 1.078,-0.066 3.289,0 1.141,-0.067 3.293,0 1.074,-0.066 3.289,0 1.074,-0.066 2.957,0"
               style="fill:none;stroke:#d82900;stroke-width:1.34326005;stroke-linecap:butt;stroke-linejoin:miter;stroke-miterlimit:10;stroke-opacity:1;stroke-dasharray:none"
               id="path3337"
               inkscape:connector-curvature="0" /></g><g
             transform="translate(0,190)"
             id="g3339"><path
               d="m 32.941,-111.273 0,0.066 0.067,0 0,0.066 0.066,0 0,0.137 0.067,0 0,0.066 0.07,0.067 0,0.066 0.066,0 0,0.067 0.067,0 0,0.07 0.066,0.066 0,0.067 0.067,0 0,0.066 0.07,0 0,0.067 0.066,0 0,0.07 0.067,0.066 0,0.067 0.066,0 0,0.066 0.067,0 0,0.067 0.07,0 0,0.07 0.066,0 0,0.066 0.067,0 0,0.067 0.066,0 0,0.066 0.066,0 0,0.067 0.067,0 0,0.07 0.07,0 0,0.066 0.067,0 0,0.067 0.066,0 0,0.066 0.066,0 0,0.066 0.067,0 0,0.071 0.07,0 0.266,0.265 0.07,0 0,0.067 0.066,0 0,0.07 0.067,0 0.133,0.133 0.07,0 0,0.066 0.066,0 0,0.067 0.067,0 0.066,0.07 0.067,0.066 0.07,0 0,0.067 0.066,0 0.133,0.133 0.067,0 0,0.07 0.07,0 0,0.066 0.066,0 0.067,0.067 0.066,0 0.066,0.066 0.067,0 0,0.067 0.07,0 0,0.07 0.067,0 0.066,0.066 0.066,0 0,0.067 0.067,0 0.07,0.066 0.067,0 0,0.067 0.066,0 0.066,0.07 0.067,0.066 0.07,0 0.066,0.067 0.067,0 0,0.066 0.066,0 0.067,0.066 0.07,0"
               style="fill:none;stroke:#d82900;stroke-width:1.34326005;stroke-linecap:butt;stroke-linejoin:miter;stroke-miterlimit:10;stroke-opacity:1;stroke-dasharray:none"
               id="path3341"
               inkscape:connector-curvature="0" /></g><g
             transform="translate(0,190)"
             id="g3343"><path
               d="m 37.375,-107.313 0,0.071 0.133,0 0,0.066 0.066,0 0.067,0.067 0.07,0 0,0.066 0.066,0 0.067,0.066 0.066,0 0.067,0.067 0.07,0 0.066,0.07 0.067,0.067 0.066,0 0.067,0.066 0.066,0 0.07,0.066 0.067,0.067 0.066,0 0.066,0.07 0.067,0 0.07,0.066 0.067,0.067 0.066,0 0.066,0.066 0.137,0 0,0.067 0.067,0 0.066,0.07 0.066,0 0.067,0.066 0.07,0.067 0.133,0 0,0.066 0.066,0 0.067,0.067 0.07,0 0.066,0.07 0.067,0 0.066,0.066 0.067,0 0.07,0.067 0.066,0 0,0.066 0.133,0 0.067,0.067 0.066,0 0,0.07 0.137,0 0.066,0.066 0.066,0 0,0.067 0.137,0 0.067,0.066 0.066,0 0,0.067 0.066,0 0.067,0.07 0.137,0 0.132,0.133 0.137,0 0.066,0.066 0.067,0 0.066,0.066 0.067,0 0,0.067 0.136,0 0.067,0.07 0.066,0 0.067,0.067 0.07,0 0.066,0.066 0.067,0 0.066,0.066 0.067,0 0.066,0.067 0.07,0 0.067,0.07 0.066,0 0.067,0.067 0.136,0 0.067,0.066 0.066,0 0.066,0.066 0.067,0 0.07,0.067 0.067,0 0.066,0.07 0.133,0 0.07,0.066 0.067,0"
               style="fill:none;stroke:#d82900;stroke-width:1.34326005;stroke-linecap:butt;stroke-linejoin:miter;stroke-miterlimit:10;stroke-opacity:1;stroke-dasharray:none"
               id="path3345"
               inkscape:connector-curvature="0" /></g><g
             transform="translate(0,190)"
             id="g3347"><path
               d="m 43.688,-104.02 0.066,0.067 0.066,0 0.067,0.066 0.07,0 0.066,0.067 0.133,0 0.067,0.07 0.07,0 0.066,0.066 0.067,0 0.066,0.067 0.067,0 0.07,0.066 0.066,0 0.067,0.067 0.133,0 0.066,0.07 0.07,0 0.133,0.066 0.066,0 0.067,0.067 0.07,0 0.067,0.066 0.066,0 0.066,0.067 0.067,0 0.07,0.07 0.067,0 0.132,0.066 0.067,0 0.07,0.067 0.133,0 0.066,0.066 0.067,0 0.136,0.066 0.067,0 0.066,0.067 0.067,0 0.07,0.07 0.066,0 0.133,0.067 0.067,0 0.066,0.066 0.07,0 0.067,0.066 0.133,0 0.066,0.067 0.07,0 0.067,0.07 0.066,0 0.133,0.067 0.07,0 0.067,0.066 0.066,0 0.133,0.066 0.07,0 0.067,0.067 0.066,0 0.133,0.07 0.136,0 0.067,0.066 0.133,0 0.07,0.067 0.066,0 0.133,0.066 0.067,0 0.066,0.067 0.137,0 0.066,0.07 0.067,0 0.066,0.066 0.137,0 0.066,0.067 0.066,0 0.137,0.066 0.067,0 0.132,0.067 0.067,0.07 0.07,0 0.133,0.066 0.066,0 0.067,0.067 0.136,0 0.067,0.066 0.066,0 0.137,0.067 0.066,0 0.133,0.07 0.067,0 0.066,0.066 0.137,0 0.066,0.067 0.133,0 0.07,0.066 0.133,0 0.067,0.067 0.066,0 0.137,0.07 0.066,0 0.133,0.066"
               style="fill:none;stroke:#d82900;stroke-width:1.34326005;stroke-linecap:butt;stroke-linejoin:miter;stroke-miterlimit:10;stroke-opacity:1;stroke-dasharray:none"
               id="path3349"
               inkscape:connector-curvature="0" /></g><g
             transform="translate(0,190)"
             id="g3351"><path
               d="m 52.215,-100.594 0.07,0 0.133,0.067 0.066,0 0.137,0.066 0.067,0 0.132,0.066 0.067,0 0.136,0.067 0.067,0.07 0.133,0 0.066,0.067 0.137,0 0.066,0.066 0.133,0 0.07,0.066 0.133,0 0.067,0.067 0.136,0 0.067,0.07 0.132,0 0.137,0.067 0.067,0 0.132,0.066 0.067,0.066 0.137,0 0.066,0.067 0.133,0 0.136,0.07 0.067,0 0.133,0.066 0.066,0 0.137,0.067 0.133,0 0.066,0.066 0.137,0 0.066,0.067 0.133,0.07 0.137,0 0.066,0.066 0.133,0 0.137,0.067 0.066,0 0.133,0.066 0.137,0 0.066,0.067 0.133,0 0.137,0.07 0.066,0.066 0.133,0 0.136,0.067 0.067,0 0.133,0.066 0.136,0 0.133,0.067 0.067,0 0.136,0.07 0.133,0.066 0.133,0 0.07,0.067 0.133,0 0.133,0.066 0.137,0 0.066,0.066 0.133,0 0.137,0.067 0.132,0.07 0.067,0 0.136,0.067 0.133,0 0.133,0.066 0.137,0 0.066,0.066 0.133,0 0.137,0.067 0.133,0.07 0.136,0 0.067,0.067 0.133,0 0.136,0.066 0.133,0 0.133,0.066 0.137,0.067 0.132,0 0.067,0.07 0.137,0 0.132,0.066 0.133,0 0.137,0.067 0.133,0.066 0.136,0 0.133,0.067 0.133,0 0.07,0.07 0.133,0 0.133,0.066 0.137,0.067 0.132,0 0.137,0.066 0.133,0 0.133,0.067 0.137,0 0.132,0.07 0.133,0.066 0.137,0"
               style="fill:none;stroke:#d82900;stroke-width:1.34326005;stroke-linecap:butt;stroke-linejoin:miter;stroke-miterlimit:10;stroke-opacity:1;stroke-dasharray:none"
               id="path3353"
               inkscape:connector-curvature="0" /></g><g
             transform="translate(0,190)"
             id="g3355"><path
               d="m 64.172,-96.766 0.133,0.067 0.136,0 0.266,0.133 0.137,0 0.133,0.07 0.136,0 0.133,0.066 0.133,0 0.137,0.067 0.132,0.066 0.137,0 0.133,0.067 0.133,0 0.137,0.066 0.132,0.07 0.133,0 0.137,0.067 0.133,0 0.136,0.066 0.133,0.066 0.133,0 0.137,0.067 0.133,0 0.136,0.07 0.199,0 0.137,0.067 0.133,0.066 0.133,0 0.137,0.066 0.132,0 0.133,0.067 0.137,0.07 0.133,0 0.203,0.067 0.133,0 0.136,0.066 0.133,0.066 0.133,0 0.137,0.067 0.199,0 0.137,0.07 0.132,0.066 0.137,0 0.133,0.067 0.133,0 0.203,0.066 0.133,0.067 0.136,0 0.133,0.07 0.133,0 0.203,0.066 0.133,0.067 0.137,0 0.133,0.066 0.203,0 0.132,0.067 0.137,0.07 0.133,0 0.199,0.066 0.137,0 0.133,0.067 0.136,0.066 0.2,0 0.136,0.067 0.133,0.066 0.203,0 0.133,0.07 0.133,0 0.137,0.067 0.199,0.066 0.137,0 0.132,0.066 0.204,0 0.132,0.067 0.133,0.07 0.203,0 0.133,0.067 0.137,0 0.199,0.066 0.137,0.066 0.199,0 0.137,0.067 0.133,0.07 0.203,0 0.132,0.067 0.133,0 0.203,0.066 0.133,0.066 0.203,0 0.133,0.067 0.137,0 0.199,0.07 0.137,0.066 0.199,0 0.137,0.067 0.199,0.066 0.137,0 0.133,0.067 0.203,0 0.132,0.07 0.204,0.066 0.132,0 0.204,0.067"
               style="fill:none;stroke:#d82900;stroke-width:1.34326005;stroke-linecap:butt;stroke-linejoin:miter;stroke-miterlimit:10;stroke-opacity:1;stroke-dasharray:none"
               id="path3357"
               inkscape:connector-curvature="0" /></g><g
             transform="translate(0,190)"
             id="g3359"><path
               d="m 79.688,-92.535 0.132,0.066 0.203,0 0.133,0.067 0.203,0 0.133,0.07 0.203,0.066 0.133,0 0.203,0.067 0.133,0.066 0.199,0 0.137,0.067 0.199,0 0.137,0.066 0.199,0.07 0.137,0 0.199,0.067 0.137,0.066 0.199,0 0.203,0.067 0.133,0 0.203,0.066 0.133,0.07 0.203,0 0.133,0.067 0.203,0.066 0.199,0 0.137,0.066 0.199,0.067 0.137,0 0.199,0.07 0.203,0 0.133,0.067 0.203,0.066 0.133,0 0.203,0.066 0.199,0.067 0.137,0 0.199,0.07 0.203,0 0.133,0.067 0.203,0.066 0.133,0 0.406,0.133 0.133,0 0.199,0.07 0.204,0.066 0.203,0 0.132,0.067 0.204,0 0.199,0.066 0.137,0.067 0.199,0 0.203,0.07 0.133,0.066 0.203,0 0.199,0.067 0.203,0.066 0.133,0 0.203,0.067 0.199,0.066 0.137,0 0.199,0.07 0.203,0 0.203,0.067 0.133,0.066 0.203,0 0.2,0.067 0.203,0.066 0.199,0 0.137,0.07 0.199,0.067 0.203,0 0.199,0.066 0.137,0.066 0.199,0 0.203,0.067 0.203,0 0.2,0.07 0.136,0.067 0.2,0 0.203,0.066 0.199,0.066 0.203,0 0.199,0.067 0.137,0.07 0.199,0 0.406,0.133 0.2,0 0.203,0.066 0.199,0 0.137,0.067 0.199,0.07 0.203,0 0.199,0.066 0.203,0.067 0.204,0 0.199,0.066 0.203,0.067 0.133,0 0.203,0.07 0.199,0.066 0.203,0"
               style="fill:none;stroke:#d82900;stroke-width:1.34326005;stroke-linecap:butt;stroke-linejoin:miter;stroke-miterlimit:10;stroke-opacity:1;stroke-dasharray:none"
               id="path3361"
               inkscape:connector-curvature="0" /></g><g
             transform="translate(0,190)"
             id="g3363"><path
               d="m 98.492,-88.102 0.199,0.067 0.204,0.066 0.203,0 0.199,0.067 0.203,0.07 0.199,0 0.137,0.066 0.199,0 0.203,0.067 0.2,0.066 0.203,0 0.203,0.067 0.199,0.066 0.203,0 0.199,0.07 0.203,0.067 0.204,0 0.199,0.066 0.203,0.067 0.199,0 0.203,0.066 0.199,0.07 0.204,0 0.203,0.067 0.199,0.066 0.203,0 0.199,0.066 0.203,0.067 0.204,0 0.199,0.07 0.203,0.067 0.199,0 0.203,0.066 0.199,0 0.407,0.133 0.199,0 0.203,0.07 0.199,0.067 0.203,0 0.204,0.066 0.199,0.066 0.203,0 0.199,0.067 0.203,0.07 0.199,0 0.407,0.133 0.199,0 0.203,0.066 0.199,0.067 0.203,0 0.27,0.07 0.199,0.066 0.203,0 0.199,0.067 0.204,0.066 0.203,0 0.199,0.067 0.203,0.066 0.199,0 0.203,0.07 0.2,0.067 0.203,0 0.269,0.066 0.199,0.067 0.204,0 0.203,0.066 0.199,0 0.203,0.07 0.199,0.067 0.203,0 0.2,0.066 0.269,0.066 0.203,0 0.2,0.067 0.203,0.07 0.203,0 0.199,0.067 0.203,0.066 0.27,0 0.199,0.066 0.203,0.067 0.199,0 0.203,0.07 0.2,0.067 0.203,0 0.269,0.066 0.199,0.066 0.204,0 0.203,0.067 0.199,0.07 0.203,0 0.199,0.066 0.27,0.067 0.203,0 0.199,0.066 0.203,0.067 0.199,0 0.27,0.07 0.203,0.066 0.199,0 0.203,0.067 0.2,0.066"
               style="fill:none;stroke:#d82900;stroke-width:1.34326005;stroke-linecap:butt;stroke-linejoin:miter;stroke-miterlimit:10;stroke-opacity:1;stroke-dasharray:none"
               id="path3365"
               inkscape:connector-curvature="0" /></g><g
             transform="translate(0,190)"
             id="g3367"><path
               d="m 119.848,-83.469 0.203,0 0.269,0.067 0.2,0.066 0.203,0 0.203,0.07 0.199,0.067 0.27,0 0.203,0.066 0.199,0.067 0.203,0 0.199,0.066 0.27,0.07 0.203,0 0.199,0.067 0.203,0.066 0.199,0 0.27,0.067 0.203,0.066 0.199,0 0.203,0.07 0.2,0.067 0.269,0 0.203,0.066 0.2,0.066 0.203,0 0.203,0.067 0.265,0 0.204,0.07 0.199,0.067 0.203,0 0.269,0.066 0.2,0.066 0.203,0 0.203,0.067 0.199,0.07 0.27,0 0.203,0.067 0.199,0.066 0.203,0 0.266,0.066 0.203,0.067 0.203,0 0.199,0.07 0.27,0.066 0.203,0 0.199,0.067 0.203,0.066 0.199,0 0.27,0.067 0.203,0.066 0.199,0 0.203,0.07 0.27,0.067 0.199,0 0.203,0.066 0.2,0.067 0.269,0 0.203,0.066 0.199,0.07 0.204,0 0.269,0.067 0.199,0.066 0.203,0 0.2,0.067 0.269,0.066 0.203,0 0.199,0.07 0.204,0.067 0.199,0 0.269,0.066 0.203,0.066 0.2,0 0.203,0.067 0.269,0.07 0.2,0 0.406,0.133 0.265,0 0.204,0.066 0.199,0 0.203,0.067 0.269,0.07 0.2,0 0.406,0.133 0.199,0 0.27,0.066 0.199,0.067 0.203,0 0.203,0.07 0.266,0.066 0.203,0 0.203,0.067 0.199,0.066 0.27,0 0.203,0.067 0.199,0.066 0.203,0 0.199,0.07 0.27,0.067 0.203,0 0.199,0.066 0.203,0.067 0.27,0"
               style="fill:none;stroke:#d82900;stroke-width:1.34326005;stroke-linecap:butt;stroke-linejoin:miter;stroke-miterlimit:10;stroke-opacity:1;stroke-dasharray:none"
               id="path3369"
               inkscape:connector-curvature="0" /></g><g
             transform="translate(0,190)"
             id="g3371"><path
               d="m 142.418,-78.902 0.199,0.066 0.203,0.07 0.2,0 0.203,0.067 0.269,0 0.199,0.066 0.204,0.067 0.199,0 0.203,0.066 0.269,0.07 0.2,0 0.406,0.133 0.199,0 0.27,0.067 0.199,0.066 0.203,0 0.203,0.07 0.199,0.067 0.27,0 0.203,0.066 0.199,0.066 0.203,0 0.2,0.067 0.203,0 0.269,0.07 0.199,0.067 0.204,0 0.199,0.066 0.203,0.066 0.269,0 0.2,0.067 0.203,0.07 0.199,0 0.406,0.133 0.199,0 0.27,0.066 0.203,0.067 0.199,0 0.203,0.066 0.2,0 0.203,0.07 0.203,0.067 0.266,0 0.203,0.066 0.199,0.067 0.203,0 0.203,0.066 0.199,0.07 0.203,0 0.2,0.067 0.269,0 0.203,0.066 0.2,0.067 0.203,0 0.199,0.066 0.203,0.07 0.203,0 0.199,0.067 0.204,0.066 0.199,0 0.203,0.067 0.203,0 0.266,0.066 0.203,0.07 0.199,0 0.406,0.133 0.199,0 0.204,0.066 0.199,0.067 0.203,0 0.203,0.07 0.199,0 0.203,0.067 0.2,0.066 0.203,0 0.199,0.066 0.203,0.067 0.203,0 0.199,0.07 0.204,0 0.199,0.067 0.203,0.066 0.199,0 0.406,0.133 0.2,0 0.203,0.07 0.199,0 0.406,0.133 0.199,0 0.203,0.066 0.2,0 0.203,0.067 0.199,0.066 0.203,0 0.133,0.07 0.203,0.067 0.203,0 0.199,0.066 0.204,0"
               style="fill:none;stroke:#d82900;stroke-width:1.34326005;stroke-linecap:butt;stroke-linejoin:miter;stroke-miterlimit:10;stroke-opacity:1;stroke-dasharray:none"
               id="path3373"
               inkscape:connector-curvature="0" /></g><g
             transform="translate(0,190)"
             id="g3375"><path
               d="m 163.977,-74.469 0.199,0.067 0.203,0.066 0.203,0 0.199,0.07 0.203,0 0.133,0.067 0.203,0.066 0.2,0 0.203,0.067 0.199,0 0.203,0.066 0.203,0.07 0.133,0 0.203,0.067 0.199,0 0.203,0.066 0.2,0.067 0.136,0 0.2,0.066 0.203,0 0.199,0.07 0.203,0.067 0.133,0 0.203,0.066 0.203,0 0.199,0.066 0.133,0.067 0.203,0 0.203,0.07 0.2,0 0.136,0.067 0.2,0.066 0.203,0 0.199,0.066 0.137,0 0.199,0.067 0.203,0 0.133,0.07 0.203,0.067 0.199,0 0.137,0.066 0.199,0 0.203,0.066 0.133,0.067 0.203,0 0.203,0.066 0.133,0 0.203,0.07 0.133,0 0.199,0.067 0.203,0 0.133,0.066 0.203,0.067 0.133,0 0.203,0.066 0.133,0 0.203,0.07 0.133,0 0.203,0.067 0.133,0.066 0.203,0 0.203,0.067 0.133,0 0.199,0.066 0.137,0 0.133,0.07 0.203,0 0.133,0.067 0.203,0 0.133,0.066 0.203,0.067 0.133,0 0.203,0.066 0.132,0 0.137,0.07 0.199,0 0.133,0.067 0.137,0 0.199,0.066 0.137,0 0.199,0.066 0.137,0 0.133,0.067 0.203,0 0.133,0.07 0.136,0.067 0.133,0 0.203,0.066 0.133,0 0.133,0.066 0.203,0 0.133,0.067 0.136,0 0.133,0.07 0.133,0 0.203,0.067 0.133,0 0.137,0.066 0.133,0 0.136,0.066 0.2,0 0.136,0.067 0.133,0 0.133,0.066"
               style="fill:none;stroke:#d82900;stroke-width:1.34326005;stroke-linecap:butt;stroke-linejoin:miter;stroke-miterlimit:10;stroke-opacity:1;stroke-dasharray:none"
               id="path3377"
               inkscape:connector-curvature="0" /></g><g
             transform="translate(0,190)"
             id="g3379"><path
               d="m 181.84,-70.508 0.137,0 0.132,0.07 0.133,0 0.137,0.067 0.133,0 0.203,0.066 0.269,0 0.133,0.067 0.133,0 0.137,0.066 0.133,0 0.136,0.07 0.133,0 0.133,0.067 0.137,0 0.132,0.066 0.133,0 0.137,0.067 0.199,0 0.137,0.066 0.133,0 0.136,0.07 0.133,0 0.133,0.067 0.137,0 0.066,0.066 0.27,0 0.133,0.067 0.132,0 0.071,0.066 0.265,0 0.137,0.07 0.066,0 0.133,0.067 0.137,0 0.066,0.066 0.27,0 0.066,0.067 0.133,0 0.137,0.066 0.199,0 0.07,0.07 0.266,0 0.07,0.067 0.133,0 0.066,0.066 0.204,0 0.132,0.066 0.204,0 0.066,0.067 0.199,0 0.07,0.07 0.2,0 0.066,0.067 0.203,0 0.067,0.066 0.203,0 0.066,0.066 0.203,0 0.067,0.067 0.199,0 0.066,0.066 0.203,0 0.067,0.071 0.203,0 0.066,0.066 0.204,0 0.066,0.066 0.199,0 0.07,0.067 0.266,0 0.07,0.066 0.133,0 0.067,0.07 0.203,0 0.066,0.067"
               style="fill:none;stroke:#d82900;stroke-width:1.34326005;stroke-linecap:butt;stroke-linejoin:miter;stroke-miterlimit:10;stroke-opacity:1;stroke-dasharray:none"
               id="path3381"
               inkscape:connector-curvature="0" /></g><g
             transform="translate(0,190)"
             id="g3383"><path
               d="m 192.453,-67.953 0.199,0 0.071,0.066 0.199,0 0.066,0.067 0.203,0 0.067,0.066 0.203,0 0,0.07 0.066,0 0.875,0.2 1.141,0.269 1.074,0.336 1.074,0.27 1.141,0.265 1.074,0.336 1.078,0.336 1.141,0.27 2.148,0.672 1.141,0.335 2.149,0.672 1.144,0.336 1.074,0.403 1.074,0.336 1.075,0.402 1.14,0.402 1.075,0.406 1.078,0.403 1.14,0.402 1.075,0.469 1.074,0.402 1.14,0.473 1.075,0.469 1.078,0.402 1.14,0.406 1.075,0.403 1.074,0.336 1.14,0.335 1.075,0.266 1.078,0.203 1.14,0.27 1.075,0.133 1.074,0.203 1.14,0.133 1.075,0.132 1.078,0.071 1.14,0.132 2.149,0.133 1.14,0.137 1.075,0.066 1.078,0.067 1.14,0.066 1.075,0.071 1.074,0.066 1.14,0 1.075,0.066 1.078,0.067 1.14,0.066 1.075,0 1.074,0.07 1.141,0 2.148,0.133 1.144,0 1.075,0.067 1.074,0 1.141,0.066 1.074,0 1.074,0.07 2.219,0 1.074,0.067 1.141,0 1.074,0.066 2.219,0 1.074,0.067 2.215,0 1.074,0.066 1.074,0 1.145,0.07 3.222,0 1.141,0.067 2.152,0 1.141,0.066 3.289,0 1.074,0.067 1.078,0"
               style="fill:none;stroke:#d82900;stroke-width:1.34326005;stroke-linecap:butt;stroke-linejoin:miter;stroke-miterlimit:10;stroke-opacity:1;stroke-dasharray:none"
               id="path3385"
               inkscape:connector-curvature="0" /></g><g
             transform="translate(0,190)"
             id="g3387"><path
               d="m 288.699,-53.648 1.141,0 1.074,0.066 3.289,0 1.074,0.066 4.434,0 1.074,0.071 4.031,0"
               style="fill:none;stroke:#d82900;stroke-width:1.34326005;stroke-linecap:butt;stroke-linejoin:miter;stroke-miterlimit:10;stroke-opacity:1;stroke-dasharray:none"
               id="path3389"
               inkscape:connector-curvature="0" /></g><g
             transform="translate(0,190)"
             id="g3391"><path
               d="m 30.656,-3.141 274.16,0 0,-164.551 -274.16,0 0,164.551 z"
               style="fill:none;stroke:#000000;stroke-width:0.67163002;stroke-linecap:butt;stroke-linejoin:miter;stroke-miterlimit:10;stroke-opacity:1;stroke-dasharray:none"
               id="path3393"
               inkscape:connector-curvature="0" /></g><g
             transform="matrix(1,0,0,-1,0,190)"
             id="g3395"><path
               d="m 188.652,8.676 104.961,0 c 0.703,0 1.27,0.566 1.27,1.269 l 0,20.914 c 0,0.707 -0.567,1.27 -1.27,1.27 l -104.961,0 c -0.703,0 -1.269,-0.563 -1.269,-1.27 l 0,-20.914 c 0,-0.703 0.566,-1.269 1.269,-1.269 z"
               style="fill:none;stroke:#000000;stroke-width:0.80000001;stroke-linecap:square;stroke-linejoin:round;stroke-miterlimit:10;stroke-opacity:1;stroke-dasharray:1.6, 0.8;stroke-dashoffset:0"
               id="path3397"
               inkscape:connector-curvature="0" /></g><g
             transform="translate(0,190)"
             id="g3399"><path
               d="m 190.719,-14.902 11.82,0"
               style="fill:none;stroke:#d82900;stroke-width:1.20000005;stroke-linecap:butt;stroke-linejoin:miter;stroke-miterlimit:4;stroke-opacity:1;stroke-dasharray:none"
               id="path3401"
               inkscape:connector-curvature="0" /></g><g
             transform="translate(0,190)"
             id="g3403"><path
               d="m 191.023,-25.918 11.821,0"
               style="fill:#000000;fill-opacity:1;fill-rule:nonzero;stroke:#000000;stroke-width:1.20000005;stroke-linecap:butt;stroke-linejoin:miter;stroke-miterlimit:4;stroke-opacity:1;stroke-dasharray:none"
               id="path3405"
               inkscape:connector-curvature="0" /></g><text
             xml:space="preserve"
             style="font-size:8.80000019px;font-style:normal;font-variant:normal;font-weight:normal;font-stretch:normal;line-height:125%;letter-spacing:0px;word-spacing:0px;fill:#000000;fill-opacity:1;stroke:none;font-family:Times New Roman;-inkscape-font-specification:Times New Roman"
             x="204.44724"
             y="-172.58231"
             id="text3820"
             sodipodi:linespacing="125%"
             transform="scale(1,-1)"><tspan
               sodipodi:role="line"
               id="tspan3822"
               x="204.44724"
               y="-172.58231">Modle quantique</tspan></text>
<text
             xml:space="preserve"
             style="font-size:8.80000019px;font-style:normal;font-variant:normal;font-weight:normal;font-stretch:normal;line-height:125%;letter-spacing:0px;word-spacing:0px;fill:#000000;fill-opacity:1;stroke:none;font-family:Times New Roman;-inkscape-font-specification:Times New Roman"
             x="204.90356"
             y="-162.13762"
             id="text3820-9"
             sodipodi:linespacing="125%"
             transform="scale(1,-1)"><tspan
               sodipodi:role="line"
               id="tspan3822-5"
               x="204.90356"
               y="-162.13762">Modle semi-classique</tspan></text>
<text
             xml:space="preserve"
             style="font-size:8.80000019px;font-style:normal;font-variant:normal;font-weight:normal;font-stretch:normal;line-height:125%;letter-spacing:0px;word-spacing:0px;fill:#000000;fill-opacity:1;stroke:none;font-family:Times New Roman;-inkscape-font-specification:Times New Roman"
             x="77.515923"
             y="10.439899"
             id="text3845"
             sodipodi:linespacing="125%"
             transform="matrix(0,1,1,0,0,0)"><tspan
               sodipodi:role="line"
               id="tspan3847"
               x="77.515923"
               y="10.439899">$\mathcal{R}e \left[t\right]$</tspan></text>
<text
             xml:space="preserve"
             style="font-size:11.19999981px;font-style:normal;font-variant:normal;font-weight:normal;font-stretch:normal;line-height:125%;letter-spacing:0px;word-spacing:0px;fill:#000000;fill-opacity:1;stroke:none;font-family:Times New Roman;-inkscape-font-specification:Times New Roman"
             x="126.00059"
             y="-1.4575429"
             id="text3849"
             sodipodi:linespacing="125%"
             transform="scale(1,-1)"><tspan
               sodipodi:role="line"
               id="tspan3851"
               x="126.00059"
               y="-1.4575429">Ordre harmonique</tspan></text>
<text
             xml:space="preserve"
             style="font-size:11.19999981px;font-style:normal;font-variant:normal;font-weight:normal;font-stretch:normal;line-height:125%;letter-spacing:0px;word-spacing:0px;fill:#000000;fill-opacity:1;stroke:none;font-family:Times New Roman;-inkscape-font-specification:Times New Roman"
             x="-131.45151"
             y="-325.95786"
             id="text3853"
             sodipodi:linespacing="125%"
             transform="matrix(0,-1,-1,0,0,0)"><tspan
               sodipodi:role="line"
               id="tspan3855"
               x="-131.45151"
               y="-325.95786">Temps (cycles)</tspan></text>
</g></g></g></g></svg>