<?xml version="1.0" encoding="UTF-8" standalone="no"?>
<svg
   xmlns:dc="http://purl.org/dc/elements/1.1/"
   xmlns:cc="http://creativecommons.org/ns#"
   xmlns:rdf="http://www.w3.org/1999/02/22-rdf-syntax-ns#"
   xmlns:svg="http://www.w3.org/2000/svg"
   xmlns="http://www.w3.org/2000/svg"
   xmlns:xlink="http://www.w3.org/1999/xlink"
   xmlns:sodipodi="http://sodipodi.sourceforge.net/DTD/sodipodi-0.dtd"
   xmlns:inkscape="http://www.inkscape.org/namespaces/inkscape"
   preserveAspectRatio="xMinYMin meet"
   width="100%"
   height="100%"
   viewBox="0 0 1575.000 875.625"
   version="1.1"
   id="svg3442"
   inkscape:version="0.48.4 r9939"
   sodipodi:docname="SpectreHHGAr800.pdf">
  <metadata
     id="metadata3897">
    <rdf:RDF>
      <cc:Work
         rdf:about="">
        <dc:format>image/svg+xml</dc:format>
        <dc:type
           rdf:resource="http://purl.org/dc/dcmitype/StillImage" />
        <dc:title></dc:title>
      </cc:Work>
    </rdf:RDF>
  </metadata>
  <defs
     id="defs3895">
    <marker
       inkscape:stockid="Arrow1Mend"
       orient="auto"
       refY="0.0"
       refX="0.0"
       id="Arrow1Mend"
       style="overflow:visible;">
      <path
         id="path4690"
         d="M 0.0,0.0 L 5.0,-5.0 L -12.5,0.0 L 5.0,5.0 L 0.0,0.0 z "
         style="fill-rule:evenodd;stroke:#000000;stroke-width:1.0pt;"
         transform="scale(0.4) rotate(180) translate(10,0)" />
    </marker>
    <clipPath
       clipPathUnits="userSpaceOnUse"
       id="clipPath3901">
      <rect
         style="opacity:0.98000004;fill:none;stroke:#000000;stroke-width:2;stroke-linecap:butt;stroke-linejoin:miter;stroke-miterlimit:4;stroke-opacity:1;stroke-dasharray:none;stroke-dashoffset:0"
         id="rect3903"
         width="1270.1278"
         height="334.84253"
         x="175.68898"
         y="185.27066" />
    </clipPath>
  </defs>
  <sodipodi:namedview
     pagecolor="#ffffff"
     bordercolor="#666666"
     borderopacity="1"
     objecttolerance="10"
     gridtolerance="10"
     guidetolerance="10"
     inkscape:pageopacity="0"
     inkscape:pageshadow="2"
     inkscape:window-width="1680"
     inkscape:window-height="988"
     id="namedview3893"
     showgrid="true"
     inkscape:zoom="0.68420999"
     inkscape:cx="807.85292"
     inkscape:cy="357.2127"
     inkscape:window-x="-8"
     inkscape:window-y="-8"
     inkscape:window-maximized="1"
     inkscape:current-layer="g3707">
    <inkscape:grid
       type="xygrid"
       id="grid3905" />
  </sodipodi:namedview>
  <desc
     id="desc3444">Matlab Figure Converted by PLOT2SVG written by Juerg Schwizer</desc>
  <g
     id="topgroup">
    <g
       id="ID000000">
      <clipPath
         id="ID000001">
        <rect
           x="204.750"
           y="65.672"
           width="1220.625"
           height="451.269"
           id="rect3451" />
      </clipPath>
      <polygon
         fill="#ffffff"
         fill-opacity="1.00"
         stroke="none"
         stroke-width="2.0pt"
         stroke-opacity="1.00"
         stroke-dasharray="none"
         points="204.750,65.672 1425.375,65.672 1425.375,65.672 204.750,65.672 "
         id="polygon3455" />
      <g
         id="g3459">
        <g
           id="ID000002"
           clip-path="url(#ID000001)">
          <image
             x="204.750"
             y="65.672"
             width="1220.625"
             height="451.269"
             image-rendering="optimizeSpeed"
             preserveAspectRatio="none"
             xlink:href="D:\Lou\CIEL N2 aligné\Intensite SF6 Ar\20140410\SpectreHHGAr800001.png"
             id="image3462"
             clip-path="url(#clipPath3901)"
             sodipodi:absref="D:\Lou\CIEL N2 aligné\Intensite SF6 Ar\20140410\SpectreHHGAr800001.png" />
        </g>
        <g
           id="ID000003" />
        <g
           id="ID000004" />
        <g
           id="ID000005" />
        <g
           id="ID000006" />
        <g
           id="ID000007" />
      </g>
      <g
         id="g3469">
        <polyline
           points="204.750,516.941 1425.375,516.941 "
           id="polyline3491"
           transform="matrix(1.0244959,0,0,1,-10.984918,0)"
           style="fill:none;stroke:#000000;stroke-width:2pt;stroke-dasharray:none;marker-end:none" />
        <path
           style="fill:none;stroke:#000000;stroke-width:2;stroke-linecap:butt;stroke-linejoin:miter;stroke-opacity:1;stroke-miterlimit:4;stroke-dasharray:none;marker-end:url(#Arrow1Mend)"
           d="m 200,515.625 0,-360"
           id="path3907"
           inkscape:connector-curvature="0" />
      </g>
    </g>
    <g
       id="ID000008">
      <clipPath
         id="ID000009">
        <rect
           x="204.750"
           y="594.166"
           width="1220.625"
           height="185.140"
           id="rect3689" />
      </clipPath>
      <polygon
         points="204.75,779.306 204.75,594.166 204.75,594.166 204.75,779.306 "
         id="polygon3695"
         transform="translate(0,-14)"
         style="fill:#ffffff;fill-opacity:1;stroke:none" />
      <g
         id="g3697"
         transform="translate(0,-14)">
        <g
           id="ID000010"
           clip-path="url(#ID000009)">
          <polyline
             points="205.346,779.418 205.942,779.198 206.538,778.860 207.134,778.257 207.730,779.110 208.326,778.438 208.922,778.549 209.518,779.039 210.114,779.120 210.710,778.157 211.306,778.489 211.902,778.581 212.498,778.572 213.094,779.071 213.690,778.647 214.286,779.025 214.882,778.478 215.478,778.447 216.074,778.904 216.670,778.756 217.266,778.659 217.862,779.115 218.458,778.983 219.054,779.025 219.650,778.399 220.246,778.911 220.842,779.131 221.438,778.633 222.034,778.161 222.630,778.592 223.226,778.094 223.822,778.368 224.418,778.980 225.014,778.598 225.610,779.000 226.206,778.189 226.802,778.949 227.398,778.840 227.994,778.950 228.590,778.608 229.186,778.553 229.782,778.657 230.378,778.638 230.974,778.028 231.570,778.223 232.166,778.771 232.762,778.607 233.358,779.405 233.954,778.557 234.550,778.566 235.146,778.530 235.742,778.515 236.338,778.979 236.934,778.712 237.530,778.748 238.126,778.730 238.722,778.973 239.318,778.723 239.914,778.728 240.510,778.527 241.107,778.487 241.703,779.192 242.299,778.372 242.895,779.198 243.491,778.865 244.087,778.779 244.683,778.683 245.279,779.034 245.875,778.964 246.471,778.755 247.067,778.741 247.663,779.148 248.259,779.046 248.855,778.143 249.451,778.786 250.047,779.145 250.643,779.369 251.239,778.950 251.835,778.330 252.431,779.249 253.027,778.907 253.623,779.490 254.219,779.725 254.815,779.077 255.411,778.671 256.007,778.559 256.603,778.641 257.199,778.815 257.795,779.058 258.391,778.993 258.987,778.838 259.583,778.911 260.179,779.010 260.775,778.953 261.371,779.399 261.967,778.859 262.563,779.079 263.159,778.416 263.755,778.704 264.351,778.503 264.947,779.019 265.543,778.649 266.139,778.968 266.735,779.477 267.331,778.620 267.927,779.308 268.523,779.091 269.119,778.698 269.715,779.060 270.311,778.481 270.907,778.204 271.503,778.471 272.099,778.387 272.695,778.623 273.291,778.254 273.887,778.469 274.483,778.409 275.079,778.781 275.675,778.618 276.271,778.795 276.867,778.518 277.463,778.041 278.059,778.540 278.655,778.310 279.251,777.959 279.847,778.910 280.443,778.399 281.039,778.651 281.635,779.196 282.231,778.615 282.827,778.608 283.423,778.541 284.019,778.669 284.615,778.634 285.211,778.265 285.807,778.572 286.403,778.583 286.999,778.236 287.595,778.869 288.191,777.972 288.787,778.206 289.383,778.603 289.979,778.557 290.575,778.428 291.171,778.912 291.767,778.790 292.363,778.385 292.959,778.574 293.555,778.166 294.151,778.899 294.747,778.743 295.343,778.784 295.939,778.287 296.535,778.482 297.131,778.552 297.727,777.955 298.323,778.880 298.919,778.307 299.515,778.003 300.111,778.414 300.707,778.722 301.303,778.708 301.899,778.432 302.495,777.793 303.091,778.252 303.687,778.345 304.283,778.395 304.879,778.552 305.475,777.838 306.071,778.340 306.667,778.681 307.263,778.074 307.859,777.945 308.455,777.991 309.051,777.865 309.647,778.060 310.243,778.436 310.839,778.084 311.435,778.464 312.031,778.527 312.628,778.427 313.224,777.953 313.820,778.013 314.416,778.233 315.012,778.430 315.608,777.354 316.204,778.482 316.800,778.234 317.396,777.858 317.992,778.068 318.588,778.489 319.184,778.280 319.780,779.084 320.376,778.253 320.972,778.083 321.568,777.801 322.164,778.385 322.760,777.766 323.356,777.930 323.952,778.023 324.548,777.821 325.144,777.909 325.740,777.633 326.336,778.362 326.932,777.849 327.528,777.718 328.124,777.784 328.720,778.018 329.316,777.392 329.912,778.110 330.508,777.858 331.104,777.703 331.700,777.741 332.296,778.253 332.892,778.231 333.488,777.656 334.084,777.919 334.680,777.497 335.276,777.909 335.872,777.749 336.468,778.155 337.064,778.319 337.660,777.993 338.256,777.309 338.852,777.523 339.448,777.906 340.044,777.704 340.640,778.289 341.236,778.022 341.832,777.872 342.428,777.841 343.024,777.324 343.620,777.505 344.216,777.772 344.812,777.446 345.408,777.814 346.004,778.174 346.600,777.674 347.196,778.181 347.792,776.950 348.388,778.003 348.984,777.326 349.580,777.388 350.176,777.637 350.772,776.646 351.368,777.989 351.964,777.082 352.560,777.731 353.156,777.647 353.752,777.867 354.348,777.513 354.944,777.033 355.540,777.750 356.136,777.205 356.732,776.887 357.328,777.086 357.924,777.052 358.520,777.516 359.116,777.710 359.712,777.666 360.308,777.651 360.904,777.364 361.500,777.153 362.096,777.201 362.692,778.204 363.288,777.242 363.884,776.800 364.480,777.541 365.076,777.645 365.672,777.130 366.268,777.710 366.864,776.996 367.460,777.336 368.056,777.249 368.652,776.908 369.248,776.856 369.844,777.111 370.440,777.157 371.036,776.797 371.632,776.645 372.228,776.311 372.824,776.447 373.420,776.920 374.016,777.386 374.612,776.735 375.208,776.819 375.804,776.938 376.400,776.819 376.996,776.395 377.592,777.329 378.188,776.768 378.784,776.638 379.380,777.182 379.976,776.862 380.572,776.831 381.168,776.862 381.764,776.550 382.360,776.260 382.956,776.250 383.552,776.583 384.148,776.092 384.745,776.827 385.341,776.571 385.937,776.513 386.533,775.913 387.129,776.158 387.725,775.287 388.321,775.666 388.917,775.587 389.513,775.299 390.109,774.909 390.705,775.462 391.301,775.461 391.897,775.613 392.493,775.534 393.089,775.622 393.685,775.692 394.281,775.499 394.877,776.495 395.473,776.522 396.069,776.321 396.665,775.702 397.261,775.541 397.857,775.619 398.453,776.508 399.049,776.602 399.645,775.857 400.241,776.310 400.837,776.033 401.433,776.183 402.029,776.287 402.625,776.041 403.221,775.764 403.817,776.119 404.413,775.704 405.009,776.107 405.605,775.583 406.201,775.700 406.797,775.896 407.393,775.710 407.989,775.855 408.585,775.708 409.181,775.288 409.777,775.503 410.373,776.059 410.969,775.806 411.565,776.230 412.161,775.325 412.757,775.145 413.353,775.592 413.949,774.865 414.545,775.264 415.141,775.514 415.737,775.064 416.333,775.046 416.929,774.498 417.525,775.364 418.121,774.440 418.717,774.698 419.313,774.181 419.909,774.553 420.505,773.208 421.101,773.461 421.697,773.650 422.293,772.324 422.889,771.941 423.485,771.556 424.081,770.887 424.677,770.718 425.273,771.412 425.869,770.519 426.465,770.714 427.061,770.830 427.657,770.118 428.253,771.210 428.849,771.037 429.445,771.497 430.041,771.814 430.637,772.316 431.233,772.898 431.829,773.315 432.425,774.234 433.021,774.162 433.617,774.442 434.213,774.914 434.809,774.734 435.405,774.901 436.001,774.858 436.597,774.894 437.193,775.046 437.789,774.651 438.385,774.243 438.981,775.034 439.577,774.435 440.173,774.649 440.769,775.143 441.365,774.472 441.961,775.067 442.557,774.436 443.153,774.221 443.749,774.057 444.345,774.188 444.941,774.491 445.537,774.561 446.133,773.812 446.729,774.366 447.325,774.676 447.921,774.330 448.517,773.882 449.113,774.112 449.709,774.398 450.305,773.952 450.901,773.724 451.497,773.733 452.093,774.106 452.689,773.397 453.285,773.334 453.881,773.606 454.477,773.125 455.073,773.259 455.669,773.120 456.266,773.006 456.862,772.977 457.458,772.698 458.054,772.332 458.650,772.055 459.246,771.901 459.842,771.352 460.438,770.682 461.034,770.122 461.630,768.611 462.226,767.596 462.822,765.306 463.418,762.816 464.014,760.782 464.610,759.471 465.206,758.736 465.802,759.677 466.398,761.139 466.994,761.769 467.590,764.299 468.186,765.481 468.782,766.532 469.378,767.452 469.974,768.990 470.570,768.550 471.166,769.593 471.762,769.979 472.358,770.862 472.954,771.395 473.550,772.188 474.146,772.361 474.742,772.555 475.338,772.687 475.934,772.737 476.530,773.060 477.126,772.940 477.722,772.625 478.318,773.360 478.914,773.180 479.510,772.779 480.106,773.128 480.702,773.060 481.298,772.837 481.894,773.146 482.490,772.830 483.086,772.478 483.682,772.603 484.278,773.318 484.874,773.190 485.470,772.783 486.066,772.932 486.662,772.700 487.258,772.909 487.854,773.297 488.450,772.623 489.046,772.770 489.642,772.967 490.238,772.406 490.834,773.041 491.430,772.674 492.026,772.877 492.622,772.547 493.218,772.332 493.814,772.772 494.410,772.335 495.006,772.788 495.602,772.608 496.198,772.436 496.794,772.001 497.390,771.785 497.986,771.633 498.582,771.450 499.178,772.450 499.774,771.378 500.370,771.165 500.966,771.331 501.562,771.093 502.158,770.893 502.754,770.644 503.350,770.299 503.946,769.877 504.542,770.126 505.138,768.996 505.734,769.010 506.330,768.499 506.926,767.318 507.522,766.615 508.118,765.316 508.714,763.053 509.310,760.232 509.906,757.967 510.502,755.405 511.098,754.187 511.694,753.507 512.290,754.187 512.886,755.157 513.482,756.878 514.078,755.429 514.674,756.946 515.270,756.286 515.866,756.966 516.462,757.767 517.058,758.374 517.654,759.172 518.250,760.481 518.846,761.880 519.442,763.615 520.038,764.856 520.634,766.739 521.230,765.880 521.826,767.055 522.422,768.140 523.018,768.410 523.614,769.433 524.210,769.346 524.806,768.966 525.402,770.387 525.998,769.872 526.594,769.963 527.190,769.737 527.786,770.065 528.383,770.311 528.979,770.759 529.575,770.894 530.171,770.616 530.767,771.314 531.363,771.339 531.959,770.738 532.555,771.097 533.151,770.728 533.747,771.163 534.343,771.455 534.939,770.761 535.535,771.114 536.131,771.577 536.727,772.079 537.323,771.179 537.919,771.263 538.515,770.919 539.111,771.343 539.707,771.188 540.303,771.172 540.899,770.966 541.495,771.249 542.091,770.637 542.687,770.348 543.283,771.116 543.879,770.278 544.475,770.321 545.071,770.636 545.667,769.973 546.263,770.267 546.859,770.092 547.455,769.801 548.051,770.297 548.647,770.023 549.243,768.943 549.839,769.053 550.435,769.173 551.031,768.889 551.627,768.139 552.223,768.562 552.819,767.622 553.415,768.407 554.011,767.821 554.607,767.475 555.203,766.935 555.799,766.563 556.395,765.880 556.991,766.582 557.587,765.890 558.183,765.392 558.779,764.259 559.375,762.926 559.971,761.327 560.567,761.781 561.163,759.315 561.759,756.525 562.355,752.466 562.951,745.253 563.547,735.804 564.143,724.273 564.739,715.134 565.335,709.490 565.931,708.035 566.527,710.589 567.123,715.727 567.719,722.448 568.315,730.150 568.911,736.497 569.507,742.471 570.103,746.996 570.699,750.401 571.295,755.099 571.891,758.003 572.487,759.277 573.083,760.942 573.679,762.151 574.275,763.911 574.871,764.928 575.467,765.011 576.063,765.253 576.659,765.854 577.255,766.219 577.851,766.189 578.447,767.190 579.043,767.246 579.639,767.306 580.235,767.361 580.831,767.536 581.427,767.992 582.023,767.489 582.619,767.919 583.215,767.894 583.811,768.068 584.407,768.265 585.003,768.425 585.599,769.006 586.195,768.638 586.791,769.040 587.387,769.300 587.983,769.094 588.579,769.003 589.175,768.985 589.771,768.678 590.367,768.939 590.963,769.060 591.559,768.449 592.155,768.732 592.751,769.465 593.347,768.878 593.943,768.861 594.539,768.781 595.135,768.546 595.731,768.796 596.327,768.996 596.923,769.244 597.519,769.249 598.115,768.625 598.711,769.130 599.307,768.630 599.904,768.749 600.500,769.012 601.096,768.586 601.692,768.231 602.288,768.607 602.884,768.312 603.480,768.937 604.076,768.290 604.672,767.869 605.268,767.791 605.864,767.905 606.460,768.373 607.056,767.863 607.652,767.777 608.248,768.009 608.844,767.734 609.440,768.413 610.036,767.431 610.632,767.506 611.228,766.634 611.824,766.869 612.420,765.813 613.016,765.882 613.612,765.241 614.208,765.054 614.804,763.909 615.400,763.777 615.996,763.237 616.592,762.341 617.188,762.423 617.784,760.025 618.380,759.472 618.976,758.599 619.572,756.950 620.168,756.026 620.764,755.199 621.360,753.784 621.956,751.172 622.552,750.477 623.148,748.053 623.744,745.492 624.340,743.394 624.936,739.586 625.532,734.266 626.128,725.120 626.724,715.361 627.320,698.966 627.916,682.581 628.512,667.750 629.108,659.089 629.704,657.020 630.300,661.881 630.896,673.478 631.492,685.590 632.088,698.895 632.684,710.572 633.280,720.392 633.876,728.589 634.472,734.581 635.068,738.134 635.664,743.368 636.260,746.386 636.856,749.124 637.452,751.824 638.048,752.687 638.644,754.549 639.240,753.987 639.836,755.754 640.432,757.099 641.028,757.683 641.624,757.939 642.220,759.740 642.816,759.500 643.412,760.626 644.008,761.531 644.604,762.052 645.200,762.428 645.796,762.790 646.392,763.268 646.988,763.490 647.584,764.373 648.180,764.657 648.776,764.468 649.372,765.078 649.968,764.714 650.564,764.585 651.160,765.248 651.756,765.903 652.352,766.180 652.948,765.540 653.544,765.625 654.140,765.408 654.736,766.091 655.332,766.068 655.928,766.024 656.524,766.481 657.120,765.965 657.716,766.668 658.312,766.314 658.908,766.716 659.504,766.532 660.100,766.587 660.696,766.658 661.292,767.231 661.888,766.787 662.484,766.776 663.080,766.804 663.676,767.017 664.272,767.376 664.868,766.991 665.464,766.579 666.060,767.020 666.656,766.647 667.252,766.768 667.848,767.276 668.444,767.386 669.040,766.740 669.636,766.452 670.232,766.856 670.828,766.676 671.424,767.127 672.021,766.842 672.617,766.941 673.213,766.924 673.809,766.856 674.405,766.398 675.001,766.610 675.597,765.989 676.193,766.058 676.789,766.117 677.385,765.497 677.981,765.821 678.577,766.068 679.173,765.146 679.769,765.873 680.365,765.833 680.961,764.956 681.557,764.257 682.153,765.077 682.749,764.807 683.345,764.616 683.941,764.090 684.537,764.193 685.133,763.403 685.729,763.812 686.325,763.184 686.921,763.196 687.517,763.249 688.113,763.459 688.709,762.308 689.305,762.664 689.901,762.870 690.497,761.204 691.093,761.701 691.689,760.931 692.285,760.978 692.881,759.538 693.477,759.955 694.073,758.078 694.669,756.890 695.265,756.230 695.861,755.201 696.457,754.140 697.053,753.128 697.649,751.941 698.245,750.940 698.841,748.252 699.437,748.174 700.033,744.112 700.629,742.624 701.225,739.242 701.821,736.094 702.417,730.369 703.013,722.015 703.609,708.538 704.205,691.539 704.801,668.513 705.397,645.159 705.993,623.227 706.589,609.600 707.185,606.658 707.781,612.629 708.377,628.289 708.973,646.209 709.569,665.027 710.165,683.638 710.761,698.578 711.357,711.283 711.953,722.103 712.549,730.102 713.145,736.231 713.741,740.084 714.337,743.181 714.933,745.020 715.529,747.864 716.125,748.943 716.721,751.009 717.317,751.940 717.913,751.957 718.509,753.734 719.105,754.481 719.701,754.946 720.297,756.474 720.893,756.166 721.489,756.448 722.085,757.589 722.681,757.989 723.277,759.200 723.873,758.794 724.469,759.398 725.065,759.915 725.661,760.697 726.257,759.687 726.853,760.831 727.449,759.703 728.045,759.874 728.641,761.096 729.237,761.536 729.833,761.352 730.429,761.577 731.025,761.754 731.621,762.060 732.217,762.564 732.813,762.830 733.409,763.292 734.005,762.917 734.601,762.818 735.197,763.558 735.793,763.723 736.389,763.871 736.985,764.533 737.581,763.531 738.177,764.897 738.773,765.554 739.369,764.241 739.965,765.140 740.561,763.853 741.157,764.206 741.753,765.463 742.349,764.979 742.945,765.342 743.542,765.290 744.138,765.528 744.734,765.147 745.330,765.379 745.926,765.118 746.522,765.896 747.118,765.884 747.714,764.813 748.310,765.506 748.906,765.225 749.502,765.735 750.098,765.512 750.694,764.992 751.290,764.986 751.886,765.213 752.482,765.522 753.078,764.373 753.674,764.641 754.270,765.174 754.866,764.863 755.462,764.869 756.058,764.911 756.654,765.154 757.250,764.949 757.846,764.884 758.442,765.538 759.038,765.018 759.634,765.012 760.230,763.750 760.826,764.394 761.422,764.357 762.018,764.205 762.614,764.325 763.210,764.154 763.806,764.370 764.402,764.213 764.998,764.235 765.594,764.039 766.190,764.065 766.786,763.760 767.382,763.596 767.978,764.391 768.574,763.552 769.170,763.496 769.766,763.552 770.362,763.376 770.958,763.564 771.554,762.952 772.150,763.107 772.746,763.317 773.342,763.115 773.938,762.312 774.534,763.316 775.130,762.757 775.726,762.180 776.322,762.410 776.918,762.267 777.514,761.708 778.110,762.025 778.706,761.288 779.302,760.429 779.898,759.967 780.494,759.262 781.090,760.282 781.686,759.653 782.282,758.259 782.878,759.665 783.474,758.331 784.070,757.740 784.666,757.285 785.262,758.211 785.858,757.728 786.454,757.412 787.050,757.250 787.646,756.121 788.242,756.168 788.838,756.605 789.434,757.029 790.030,755.705 790.626,756.180 791.222,755.506 791.818,755.375 792.414,754.950 793.010,754.698 793.606,754.602 794.202,753.806 794.798,753.202 795.394,752.133 795.990,750.533 796.586,748.862 797.182,746.613 797.778,743.333 798.374,738.652 798.970,732.737 799.566,722.496 800.162,710.400 800.758,694.853 801.354,676.534 801.950,661.902 802.546,648.669 803.142,642.414 803.738,645.398 804.334,656.534 804.930,671.653 805.526,688.228 806.122,704.463 806.718,718.075 807.314,728.774 807.910,736.029 808.506,742.464 809.102,746.514 809.698,748.885 810.294,751.424 810.890,752.809 811.486,754.960 812.082,756.408 812.678,757.298 813.274,757.727 813.870,758.692 814.466,759.203 815.063,760.236 815.659,760.330 816.255,760.464 816.851,760.846 817.447,760.428 818.043,760.884 818.639,760.642 819.235,760.528 819.831,761.187 820.427,761.201 821.023,760.146 821.619,760.773 822.215,761.481 822.811,759.999 823.407,759.957 824.003,759.913 824.599,760.208 825.195,760.121 825.791,760.396 826.387,760.349 826.983,760.618 827.579,760.810 828.175,760.996 828.771,761.262 829.367,761.032 829.963,762.261 830.559,762.001 831.155,762.668 831.751,761.971 832.347,763.183 832.943,763.654 833.539,763.648 834.135,764.723 834.731,763.987 835.327,764.626 835.923,764.059 836.519,765.005 837.115,765.172 837.711,764.999 838.307,765.094 838.903,765.127 839.499,765.664 840.095,764.770 840.691,766.008 841.287,765.911 841.883,765.520 842.479,765.415 843.075,765.538 843.671,765.574 844.267,765.456 844.863,765.269 845.459,765.710 846.055,765.262 846.651,765.504 847.247,765.404 847.843,766.056 848.439,765.925 849.035,765.680 849.631,766.032 850.227,765.682 850.823,765.884 851.419,765.833 852.015,765.777 852.611,765.247 853.207,766.041 853.803,765.279 854.399,766.453 854.995,766.097 855.591,766.358 856.187,766.058 856.783,765.833 857.379,765.962 857.975,767.006 858.571,766.262 859.167,765.940 859.763,766.279 860.359,766.294 860.955,765.531 861.551,765.974 862.147,766.246 862.743,767.066 863.339,766.914 863.935,766.268 864.531,766.939 865.127,766.749 865.723,766.608 866.319,767.001 866.915,766.643 867.511,766.627 868.107,766.406 868.703,766.390 869.299,766.000 869.895,766.281 870.491,766.442 871.087,766.129 871.683,766.436 872.279,766.009 872.875,766.107 873.471,766.048 874.067,765.904 874.663,766.912 875.259,766.217 875.855,766.531 876.451,766.109 877.047,765.886 877.643,766.338 878.239,766.927 878.835,766.235 879.431,766.402 880.027,766.183 880.623,766.584 881.219,765.598 881.815,766.131 882.411,766.287 883.007,766.407 883.603,766.903 884.199,765.913 884.795,766.798 885.391,766.346 885.987,766.120 886.583,765.861 887.180,766.226 887.776,766.402 888.372,766.555 888.968,765.513 889.564,766.132 890.160,765.772 890.756,765.817 891.352,765.117 891.948,764.678 892.544,764.050 893.140,762.835 893.736,762.572 894.332,762.625 894.928,763.900 895.524,764.138 896.120,764.940 896.716,765.603 897.312,766.532 897.908,765.190 898.504,765.865 899.100,766.246 899.696,765.718 900.292,766.403 900.888,766.166 901.484,765.764 902.080,766.036 902.676,766.040 903.272,766.054 903.868,766.604 904.464,766.277 905.060,766.237 905.656,765.915 906.252,766.461 906.848,765.878 907.444,766.214 908.040,766.059 908.636,766.430 909.232,765.810 909.828,765.552 910.424,765.953 911.020,765.838 911.616,765.457 912.212,765.736 912.808,765.458 913.404,765.754 914.000,765.199 914.596,765.827 915.192,765.454 915.788,764.685 916.384,765.102 916.980,764.854 917.576,765.382 918.172,764.473 918.768,763.987 919.364,763.866 919.960,762.863 920.556,761.841 921.152,761.228 921.748,759.854 922.344,758.232 922.940,755.278 923.536,751.987 924.132,748.481 924.728,744.299 925.324,737.668 925.920,732.904 926.516,727.267 927.112,722.613 927.708,719.521 928.304,718.543 928.900,720.682 929.496,724.784 930.092,730.055 930.688,735.935 931.284,742.120 931.880,747.375 932.476,751.876 933.072,754.591 933.668,756.791 934.264,758.642 934.860,759.819 935.456,760.880 936.052,762.120 936.648,761.978 937.244,762.583 937.840,763.908 938.436,764.189 939.032,764.938 939.628,765.078 940.224,764.818 940.820,765.318 941.416,765.064 942.012,765.611 942.608,766.178 943.204,766.441 943.800,766.114 944.396,765.813 944.992,766.110 945.588,766.715 946.184,766.460 946.780,766.331 947.376,766.541 947.972,766.819 948.568,766.065 949.164,766.672 949.760,766.175 950.356,766.744 950.952,766.857 951.548,766.440 952.144,766.690 952.740,766.737 953.336,766.760 953.932,766.655 954.528,766.846 955.124,766.836 955.720,766.898 956.316,766.324 956.912,766.784 957.508,766.588 958.104,767.305 958.701,766.804 959.297,766.641 959.893,766.360 960.489,767.009 961.085,766.580 961.681,766.450 962.277,766.176 962.873,766.102 963.469,764.180 964.065,762.689 964.661,761.007 965.257,758.381 965.853,758.817 966.449,759.525 967.045,761.504 967.641,763.023 968.237,764.399 968.833,765.141 969.429,765.598 970.025,765.986 970.621,766.189 971.217,765.879 971.813,766.599 972.409,766.310 973.005,766.322 973.601,767.004 974.197,767.039 974.793,766.325 975.389,767.401 975.985,767.220 976.581,766.728 977.177,767.247 977.773,767.796 978.369,767.603 978.965,767.554 979.561,767.008 980.157,767.503 980.753,767.547 981.349,767.608 981.945,767.437 982.541,767.457 983.137,767.492 983.733,767.583 984.329,767.535 984.925,767.313 985.521,767.171 986.117,767.342 986.713,767.359 987.309,767.286 987.905,767.839 988.501,767.698 989.097,767.961 989.693,767.694 990.289,767.393 990.885,767.726 991.481,767.960 992.077,767.566 992.673,767.915 993.269,767.837 993.865,767.653 994.461,767.782 995.057,767.702 995.653,767.205 996.249,767.630 996.845,767.682 997.441,768.559 998.037,767.389 998.633,767.382 999.229,767.460 999.825,767.905 1000.421,767.661 1001.017,767.905 1001.613,768.345 1002.209,767.974 1002.805,767.397 1003.401,767.444 1003.997,767.289 1004.593,767.373 1005.189,767.341 1005.785,767.554 1006.381,768.086 1006.977,768.071 1007.573,767.966 1008.169,768.219 1008.765,767.589 1009.361,767.684 1009.957,767.866 1010.553,767.070 1011.149,767.549 1011.745,767.657 1012.341,767.194 1012.937,767.761 1013.533,767.588 1014.129,767.469 1014.725,767.408 1015.321,767.145 1015.917,767.302 1016.513,767.290 1017.109,767.581 1017.705,767.789 1018.301,767.480 1018.897,767.556 1019.493,767.591 1020.089,766.980 1020.685,767.600 1021.281,766.864 1021.877,767.510 1022.473,767.087 1023.069,767.539 1023.665,767.456 1024.261,767.738 1024.857,766.959 1025.453,767.128 1026.049,767.443 1026.645,767.080 1027.241,767.084 1027.837,767.343 1028.433,767.814 1029.029,767.338 1029.625,767.650 1030.221,766.789 1030.818,767.117 1031.414,767.079 1032.010,767.415 1032.606,767.341 1033.202,767.279 1033.798,766.763 1034.394,767.371 1034.990,767.328 1035.586,767.151 1036.182,767.333 1036.778,767.103 1037.374,766.860 1037.970,767.293 1038.566,766.949 1039.162,767.557 1039.758,767.445 1040.354,766.818 1040.950,766.725 1041.546,767.510 1042.142,767.575 1042.738,765.855 1043.334,766.676 1043.930,766.769 1044.526,766.686 1045.122,766.806 1045.718,766.056 1046.314,765.294 1046.910,763.413 1047.506,761.296 1048.102,757.895 1048.698,755.849 1049.294,753.008 1049.890,753.000 1050.486,754.600 1051.082,756.894 1051.678,758.791 1052.274,760.574 1052.870,762.955 1053.466,763.740 1054.062,764.480 1054.658,765.567 1055.254,765.629 1055.850,766.671 1056.446,765.987 1057.042,765.933 1057.638,765.928 1058.234,766.548 1058.830,767.159 1059.426,766.450 1060.022,767.097 1060.618,767.128 1061.214,766.953 1061.810,767.793 1062.406,767.412 1063.002,767.421 1063.598,767.242 1064.194,767.384 1064.790,768.989 1065.386,767.422 1065.982,767.528 1066.578,767.520 1067.174,768.029 1067.770,768.279 1068.366,768.038 1068.962,768.012 1069.558,767.885 1070.154,767.743 1070.750,767.976 1071.346,768.032 1071.942,768.286 1072.538,768.108 1073.134,767.368 1073.730,767.764 1074.326,767.814 1074.922,768.768 1075.518,768.073 1076.114,767.954 1076.710,767.562 1077.306,768.272 1077.902,767.782 1078.498,768.497 1079.094,768.359 1079.690,767.970 1080.286,768.008 1080.882,768.544 1081.478,768.332 1082.074,768.211 1082.670,768.218 1083.266,768.172 1083.862,768.200 1084.458,768.422 1085.054,767.719 1085.650,768.152 1086.246,768.144 1086.842,767.814 1087.438,767.979 1088.034,767.560 1088.630,767.415 1089.226,766.987 1089.822,766.126 1090.418,765.746 1091.014,764.583 1091.610,764.454 1092.206,763.069 1092.802,762.682 1093.398,761.521 1093.994,760.686 1094.590,759.673 1095.186,759.312 1095.782,759.165 1096.378,758.974 1096.974,759.246 1097.570,759.143 1098.166,759.663 1098.762,760.682 1099.358,761.862 1099.954,761.477 1100.550,763.094 1101.146,763.245 1101.742,764.394 1102.339,764.329 1102.935,765.517 1103.531,766.243 1104.127,766.853 1104.723,766.969 1105.319,767.290 1105.915,768.064 1106.511,767.787 1107.107,767.952 1107.703,767.467 1108.299,768.448 1108.895,769.136 1109.491,768.632 1110.087,768.771 1110.683,768.183 1111.279,768.489 1111.875,769.050 1112.471,768.838 1113.067,768.885 1113.663,768.636 1114.259,769.611 1114.855,769.541 1115.451,769.417 1116.047,769.316 1116.643,768.913 1117.239,769.319 1117.835,769.484 1118.431,769.952 1119.027,769.338 1119.623,769.599 1120.219,769.406 1120.815,769.075 1121.411,769.342 1122.007,769.419 1122.603,768.834 1123.199,769.520 1123.795,769.138 1124.391,769.246 1124.987,769.579 1125.583,769.449 1126.179,769.562 1126.775,769.641 1127.371,769.738 1127.967,769.022 1128.563,769.804 1129.159,769.246 1129.755,769.050 1130.351,768.975 1130.947,769.392 1131.543,769.367 1132.139,769.772 1132.735,769.212 1133.331,768.960 1133.927,769.068 1134.523,769.169 1135.119,769.375 1135.715,769.344 1136.311,769.568 1136.907,769.307 1137.503,769.185 1138.099,768.804 1138.695,769.078 1139.291,769.058 1139.887,768.957 1140.483,768.556 1141.079,768.765 1141.675,768.838 1142.271,768.528 1142.867,768.658 1143.463,768.948 1144.059,768.608 1144.655,768.452 1145.251,767.911 1145.847,767.543 1146.443,766.558 1147.039,765.303 1147.635,764.105 1148.231,762.626 1148.827,760.470 1149.423,759.372 1150.019,758.455 1150.615,758.316 1151.211,758.371 1151.807,758.715 1152.403,760.014 1152.999,761.235 1153.595,762.373 1154.191,763.883 1154.787,765.127 1155.383,765.594 1155.979,766.638 1156.575,766.550 1157.171,767.828 1157.767,768.420 1158.363,768.427 1158.959,768.539 1159.555,769.138 1160.151,768.850 1160.747,768.792 1161.343,768.622 1161.939,769.137 1162.535,768.835 1163.131,769.246 1163.727,769.082 1164.323,768.883 1164.919,768.931 1165.515,769.764 1166.111,769.882 1166.707,769.640 1167.303,769.402 1167.899,769.989 1168.495,769.992 1169.091,769.647 1169.687,770.287 1170.283,769.461 1170.879,770.158 1171.475,769.844 1172.071,770.418 1172.667,770.229 1173.263,770.366 1173.859,770.394 1174.456,770.195 1175.052,770.385 1175.648,770.835 1176.244,770.263 1176.840,770.563 1177.436,770.780 1178.032,770.197 1178.628,770.467 1179.224,770.595 1179.820,770.956 1180.416,770.204 1181.012,770.328 1181.608,770.312 1182.204,771.221 1182.800,770.447 1183.396,770.966 1183.992,770.926 1184.588,770.565 1185.184,770.480 1185.780,770.538 1186.376,770.643 1186.972,770.669 1187.568,771.028 1188.164,770.703 1188.760,771.451 1189.356,771.174 1189.952,771.423 1190.548,771.260 1191.144,771.300 1191.740,771.195 1192.336,771.123 1192.932,771.081 1193.528,770.780 1194.124,771.298 1194.720,771.196 1195.316,770.852 1195.912,771.336 1196.508,771.456 1197.104,771.562 1197.700,771.174 1198.296,771.181 1198.892,771.004 1199.488,770.909 1200.084,771.007 1200.680,770.990 1201.276,771.296 1201.872,771.300 1202.468,771.643 1203.064,771.040 1203.660,771.224 1204.256,771.417 1204.852,771.010 1205.448,771.214 1206.044,770.970 1206.640,771.461 1207.236,770.828 1207.832,771.210 1208.428,771.154 1209.024,771.239 1209.620,771.025 1210.216,770.878 1210.812,771.343 1211.408,771.493 1212.004,771.518 1212.600,770.932 1213.196,771.749 1213.792,771.224 1214.388,771.539 1214.984,771.478 1215.580,772.015 1216.176,771.324 1216.772,771.562 1217.368,771.495 1217.964,771.908 1218.560,771.712 1219.156,771.541 1219.752,771.569 1220.348,771.821 1220.944,771.773 1221.540,771.780 1222.136,772.018 1222.732,771.735 1223.328,771.138 1223.924,771.741 1224.520,772.269 1225.116,772.402 1225.712,771.923 1226.308,771.700 1226.904,771.927 1227.500,772.433 1228.096,771.616 1228.692,771.355 1229.288,771.693 1229.884,771.990 1230.480,772.173 1231.076,771.974 1231.672,771.380 1232.268,772.114 1232.864,772.194 1233.460,772.157 1234.056,771.886 1234.652,772.353 1235.248,771.706 1235.844,772.042 1236.440,772.096 1237.036,772.230 1237.632,772.359 1238.228,772.223 1238.824,771.942 1239.420,772.675 1240.016,772.533 1240.612,771.723 1241.208,772.391 1241.804,772.468 1242.400,772.844 1242.996,772.668 1243.592,772.427 1244.188,772.648 1244.784,772.461 1245.380,772.694 1245.977,772.322 1246.573,772.312 1247.169,772.191 1247.765,772.623 1248.361,771.756 1248.957,772.694 1249.553,772.441 1250.149,772.101 1250.745,772.876 1251.341,773.185 1251.937,772.726 1252.533,772.691 1253.129,773.627 1253.725,773.188 1254.321,773.097 1254.917,773.192 1255.513,773.503 1256.109,773.252 1256.705,772.583 1257.301,773.654 1257.897,773.599 1258.493,772.991 1259.089,773.670 1259.685,774.342 1260.281,773.290 1260.877,773.612 1261.473,773.536 1262.069,773.733 1262.665,773.927 1263.261,773.821 1263.857,773.730 1264.453,774.176 1265.049,773.928 1265.645,773.831 1266.241,773.885 1266.837,773.626 1267.433,773.907 1268.029,774.226 1268.625,773.331 1269.221,774.506 1269.817,774.102 1270.413,774.081 1271.009,773.838 1271.605,774.310 1272.201,774.305 1272.797,773.967 1273.393,774.260 1273.989,774.291 1274.585,774.241 1275.181,774.226 1275.777,773.916 1276.373,774.059 1276.969,774.517 1277.565,774.355 1278.161,774.127 1278.757,774.278 1279.353,774.481 1279.949,774.438 1280.545,774.216 1281.141,774.820 1281.737,774.584 1282.333,774.484 1282.929,774.709 1283.525,774.614 1284.121,774.651 1284.717,774.794 1285.313,774.779 1285.909,774.801 1286.505,774.639 1287.101,774.010 1287.697,774.946 1288.293,774.318 1288.889,774.727 1289.485,774.615 1290.081,774.454 1290.677,774.302 1291.273,774.703 1291.869,774.265 1292.465,774.459 1293.061,774.525 1293.657,774.500 1294.253,774.783 1294.849,774.295 1295.445,774.579 1296.041,774.978 1296.637,774.786 1297.233,775.100 1297.829,774.640 1298.425,775.015 1299.021,774.544 1299.617,774.546 1300.213,774.784 1300.809,774.822 1301.405,774.991 1302.001,774.975 1302.597,775.087 1303.193,774.523 1303.789,774.951 1304.385,775.314 1304.981,774.864 1305.577,775.738 1306.173,776.003 1306.769,775.582 1307.365,776.051 1307.961,775.514 1308.557,775.719 1309.153,775.970 1309.749,775.408 1310.345,776.325 1310.941,775.993 1311.537,775.903 1312.133,775.579 1312.729,776.214 1313.325,775.597 1313.921,776.154 1314.517,776.387 1315.113,776.297 1315.709,776.291 1316.305,776.252 1316.901,775.602 1317.497,775.836 1318.094,775.690 1318.690,775.382 1319.286,775.980 1319.882,775.744 1320.478,775.752 1321.074,775.973 1321.670,776.295 1322.266,776.251 1322.862,776.353 1323.458,776.247 1324.054,776.190 1324.650,775.831 1325.246,776.084 1325.842,776.332 1326.438,776.457 1327.034,776.122 1327.630,776.330 1328.226,775.882 1328.822,775.979 1329.418,776.068 1330.014,776.012 1330.610,776.041 1331.206,776.045 1331.802,776.193 1332.398,776.015 1332.994,776.481 1333.590,776.288 1334.186,776.494 1334.782,776.103 1335.378,776.748 1335.974,776.634 1336.570,776.439 1337.166,776.189 1337.762,776.372 1338.358,776.383 1338.954,776.119 1339.550,776.709 1340.146,776.468 1340.742,777.030 1341.338,776.669 1341.934,776.279 1342.530,775.575 1343.126,776.472 1343.722,776.849 1344.318,776.144 1344.914,776.488 1345.510,776.569 1346.106,775.740 1346.702,776.417 1347.298,776.061 1347.894,776.362 1348.490,776.632 1349.086,776.587 1349.682,776.330 1350.278,776.574 1350.874,776.336 1351.470,776.398 1352.066,776.586 1352.662,776.390 1353.258,776.485 1353.854,776.991 1354.450,776.445 1355.046,776.329 1355.642,777.341 1356.238,776.409 1356.834,776.517 1357.430,776.595 1358.026,776.815 1358.622,776.521 1359.218,776.854 1359.814,776.534 1360.410,777.055 1361.006,776.553 1361.602,776.637 1362.198,777.132 1362.794,776.960 1363.390,776.457 1363.986,776.313 1364.582,776.452 1365.178,776.830 1365.774,776.950 1366.370,776.498 1366.966,776.884 1367.562,775.942 1368.158,776.633 1368.754,776.529 1369.350,776.119 1369.946,776.723 1370.542,776.786 1371.138,776.746 1371.734,776.582 1372.330,776.915 1372.926,776.744 1373.522,776.761 1374.118,777.260 1374.714,776.569 1375.310,776.892 1375.906,776.277 1376.502,776.916 1377.098,776.666 1377.694,776.819 1378.290,776.965 1378.886,776.955 1379.482,776.417 1380.078,776.804 1380.674,776.760 1381.270,776.918 1381.866,776.722 1382.462,776.342 1383.058,777.602 1383.654,776.925 1384.250,776.670 1384.846,777.115 1385.442,777.594 1386.038,776.860 1386.634,776.713 1387.230,777.229 1387.826,776.520 1388.422,776.964 1389.018,776.792 1389.615,777.374 1390.211,776.992 1390.807,776.756 1391.403,776.889 1391.999,777.088 1392.595,777.014 1393.191,777.163 1393.787,777.224 1394.383,776.611 1394.979,776.962 1395.575,777.315 1396.171,777.143 1396.767,777.538 1397.363,776.767 1397.959,777.384 1398.555,777.346 1399.151,776.980 1399.747,776.887 1400.343,776.910 1400.939,776.699 1401.535,777.840 1402.131,777.025 1402.727,777.416 1403.323,777.167 1403.919,776.812 1404.515,777.398 1405.111,776.965 1405.707,777.278 1406.303,776.669 1406.899,777.171 1407.495,776.993 1408.091,777.315 1408.687,777.122 1409.283,777.413 1409.879,776.925 1410.475,776.964 1411.071,777.323 1411.667,777.127 1412.263,777.312 1412.859,776.916 1413.455,777.054 1414.051,777.603 1414.647,776.988 1415.243,777.349 1415.839,777.173 1416.435,776.975 1417.031,777.190 1417.627,777.441 1418.223,777.368 1418.819,776.950 1419.415,777.827 1420.011,777.400 1420.607,777.141 1421.203,777.357 1421.799,777.274 1422.395,777.139 1422.991,777.433 1423.587,777.432 1424.183,777.127 1424.779,777.256 1425.375,778.060 "
             id="polyline3700"
             style="fill:none;stroke:#0000ff;stroke-width:1.5pt;stroke-dasharray:none" />
          <g
             id="g3702" />
        </g>
        <g
           id="ID000011" />
        <g
           id="ID000012" />
        <g
           id="ID000013" />
      </g>
      <g
         id="g3707">
        <polyline
           points="204.750,779.306 1425.375,779.306 "
           id="polyline3731"
           transform="matrix(1.0167289,0,0,1,-3.4043343,-14)"
           style="fill:none;stroke:#000000;stroke-width:2pt;stroke-dasharray:none;marker-end:none" />
        <polyline
           points="204.750,594.166 204.750,581.960 "
           id="polyline3733"
           transform="translate(0,-14)"
           style="fill:none;stroke:#000000;stroke-width:2pt;stroke-dasharray:none" />
        <polyline
           points="204.750,779.306 192.544,779.306 "
           id="polyline3823"
           transform="translate(0,-14)"
           style="fill:none;stroke:#000000;stroke-width:2pt;stroke-dasharray:none" />
        <polyline
           points="204.750,738.164 192.544,738.164 "
           id="polyline3825"
           transform="translate(0,-14)"
           style="fill:none;stroke:#000000;stroke-width:2pt;stroke-dasharray:none" />
        <polyline
           points="204.750,697.022 192.544,697.022 "
           id="polyline3827"
           transform="translate(0,-14)"
           style="fill:none;stroke:#000000;stroke-width:2pt;stroke-dasharray:none" />
        <polyline
           points="204.750,655.880 192.544,655.880 "
           id="polyline3829"
           transform="translate(0,-14)"
           style="fill:none;stroke:#000000;stroke-width:2pt;stroke-dasharray:none" />
        <polyline
           points="204.750,614.738 192.544,614.738 "
           id="polyline3831"
           transform="translate(0,-14)"
           style="fill:none;stroke:#000000;stroke-width:2pt;stroke-dasharray:none" />
        <polyline
           points="204.750,779.306 204.750,594.166 "
           id="polyline3833"
           transform="translate(0,-14)"
           style="fill:none;stroke:#000000;stroke-width:2pt;stroke-dasharray:none" />
        <g
           transform="translate(180.131,771.634)"
           id="g3847">
          <g
             id="g3849">
            <text
               x="0"
               y="0"
               font-size="14pt"
               id="text3851"
               style="font-size:17.5px;text-anchor:end;fill:#000000;font-family:Helvetica">0</text>
          </g>
        </g>
        <g
           transform="translate(180.131,730.492)"
           id="g3853">
          <g
             id="g3855">
            <text
               x="0"
               y="0"
               font-size="14pt"
               id="text3857"
               style="font-size:17.5px;text-anchor:end;fill:#000000;font-family:Helvetica">2</text>
          </g>
        </g>
        <g
           transform="translate(180.131,689.35)"
           id="g3859">
          <g
             id="g3861">
            <text
               x="0"
               y="0"
               font-size="14pt"
               id="text3863"
               style="font-size:17.5px;text-anchor:end;fill:#000000;font-family:Helvetica">4</text>
          </g>
        </g>
        <g
           transform="translate(180.131,648.208)"
           id="g3865">
          <g
             id="g3867">
            <text
               x="0"
               y="0"
               font-size="14pt"
               id="text3869"
               style="font-size:17.5px;text-anchor:end;fill:#000000;font-family:Helvetica">6</text>
          </g>
        </g>
        <g
           transform="translate(180.131,607.066)"
           id="g3871">
          <g
             id="g3873">
            <text
               x="0"
               y="0"
               font-size="14pt"
               id="text3875"
               style="font-size:17.5px;text-anchor:end;fill:#000000;font-family:Helvetica">8</text>
          </g>
        </g>
        <polyline
           points="204.750,779.306 204.750,781.158 "
           id="polyline3877"
           transform="translate(0,-14)"
           style="fill:none;stroke:#000000;stroke-width:2pt;stroke-dasharray:none" />
        <polyline
           points="204.750,779.306 204.750,781.158 "
           id="polyline3879"
           transform="translate(0,-14)"
           style="fill:none;stroke:#000000;stroke-width:2pt;stroke-dasharray:none" />
        <polyline
           points="204.750,779.306 204.750,781.158 "
           id="polyline3881"
           transform="translate(0,-14)"
           style="fill:none;stroke:#000000;stroke-width:2pt;stroke-dasharray:none" />
        <polyline
           points="204.750,779.306 204.750,779.306 "
           id="polyline3883"
           transform="translate(0,-14)"
           style="fill:none;stroke:#000000;stroke-width:2pt;stroke-dasharray:none" />
        <text
           xml:space="preserve"
           style="font-size:14px;font-style:normal;font-variant:normal;font-weight:normal;font-stretch:normal;line-height:125%;letter-spacing:0px;word-spacing:0px;fill:#000000;fill-opacity:1;stroke:none;font-family:Times New Roman;-inkscape-font-specification:Times New Roman"
           x="-451.625"
           y="170"
           id="text6031"
           sodipodi:linespacing="125%"
           transform="matrix(0,-1,1,0,0,0)"><tspan
             sodipodi:role="line"
             id="tspan6033"
             x="-451.625"
             y="170">Divergence</tspan></text>
        <text
           xml:space="preserve"
           style="font-size:14px;font-style:normal;font-variant:normal;font-weight:normal;font-stretch:normal;line-height:125%;letter-spacing:0px;word-spacing:0px;fill:#000000;fill-opacity:1;stroke:none;font-family:Times New Roman;-inkscape-font-specification:Times New Roman"
           x="690"
           y="555.625"
           id="text6035"
           sodipodi:linespacing="125%"><tspan
             sodipodi:role="line"
             id="tspan6037"
             x="690"
             y="555.625">Ordre harmonique</tspan></text>
        <text
           xml:space="preserve"
           style="font-size:14px;font-style:normal;font-variant:normal;font-weight:normal;font-stretch:normal;line-height:125%;letter-spacing:0px;word-spacing:0px;fill:#000000;fill-opacity:1;stroke:none;font-family:Times New Roman;-inkscape-font-specification:Times New Roman"
           x="690"
           y="801.625"
           id="text6035-1"
           sodipodi:linespacing="125%"><tspan
             sodipodi:role="line"
             id="tspan6037-7"
             x="690"
             y="801.625">Ordre harmonique</tspan></text>
        <text
           xml:space="preserve"
           style="font-size:14px;font-style:normal;font-variant:normal;font-weight:normal;font-stretch:normal;line-height:125%;letter-spacing:0px;word-spacing:0px;fill:#000000;fill-opacity:1;stroke:none;font-family:Times New Roman;-inkscape-font-specification:Times New Roman"
           x="-785.625"
           y="150"
           id="text6031-4"
           sodipodi:linespacing="125%"
           transform="matrix(0,-1,1,0,0,0)"><tspan
             sodipodi:role="line"
             id="tspan6033-0"
             x="-785.625"
             y="150">Intensité (u. arb.)</tspan></text>
        <text
           xml:space="preserve"
           style="font-size:14px;font-style:normal;font-variant:normal;font-weight:normal;font-stretch:normal;line-height:125%;letter-spacing:0px;word-spacing:0px;fill:#000000;fill-opacity:1;stroke:none;font-family:Times New Roman;-inkscape-font-specification:Times New Roman"
           x="1090"
           y="497.37698"
           id="text6081"
           sodipodi:linespacing="125%"><tspan
             sodipodi:role="line"
             id="tspan6083"
             x="1090"
             y="497.37698">9</tspan></text>
        <text
           xml:space="preserve"
           style="font-size:14px;font-style:normal;font-variant:normal;font-weight:normal;font-stretch:normal;line-height:125%;letter-spacing:0px;word-spacing:0px;fill:#000000;fill-opacity:1;stroke:none;font-family:Times New Roman;-inkscape-font-specification:Times New Roman"
           x="917.13287"
           y="497.47269"
           id="text6085"
           sodipodi:linespacing="125%"><tspan
             sodipodi:role="line"
             id="tspan6087"
             x="917.13287"
             y="497.47269">11</tspan></text>
        <text
           xml:space="preserve"
           style="font-size:14px;font-style:normal;font-variant:normal;font-weight:normal;font-stretch:normal;line-height:125%;letter-spacing:0px;word-spacing:0px;fill:#000000;fill-opacity:1;stroke:none;font-family:Times New Roman;-inkscape-font-specification:Times New Roman"
           x="792.73425"
           y="497.39066"
           id="text6089"
           sodipodi:linespacing="125%"><tspan
             sodipodi:role="line"
             id="tspan6091"
             x="792.73425"
             y="497.39066">13</tspan></text>
        <text
           xml:space="preserve"
           style="font-size:14px;font-style:normal;font-variant:normal;font-weight:normal;font-stretch:normal;line-height:125%;letter-spacing:0px;word-spacing:0px;fill:#000000;fill-opacity:1;stroke:none;font-family:Times New Roman;-inkscape-font-specification:Times New Roman"
           x="699.65552"
           y="497.39066"
           id="text6093"
           sodipodi:linespacing="125%"><tspan
             sodipodi:role="line"
             id="tspan6095"
             x="699.65552"
             y="497.39066">15</tspan></text>
        <text
           xml:space="preserve"
           style="font-size:14px;font-style:normal;font-variant:normal;font-weight:normal;font-stretch:normal;line-height:125%;letter-spacing:0px;word-spacing:0px;fill:#000000;fill-opacity:1;stroke:none;font-family:Times New Roman;-inkscape-font-specification:Times New Roman"
           x="623.17914"
           y="497.37698"
           id="text6097"
           sodipodi:linespacing="125%"><tspan
             sodipodi:role="line"
             id="tspan6099"
             x="623.17914"
             y="497.37698">17</tspan></text>
        <text
           xml:space="preserve"
           style="font-size:14px;font-style:normal;font-variant:normal;font-weight:normal;font-stretch:normal;line-height:125%;letter-spacing:0px;word-spacing:0px;fill:#000000;fill-opacity:1;stroke:none;font-family:Times New Roman;-inkscape-font-specification:Times New Roman"
           x="559.37207"
           y="497.37698"
           id="text6101"
           sodipodi:linespacing="125%"><tspan
             sodipodi:role="line"
             id="tspan6103"
             x="559.37207"
             y="497.37698">19</tspan></text>
        <text
           xml:space="preserve"
           style="font-size:14px;font-style:normal;font-variant:normal;font-weight:normal;font-stretch:normal;line-height:125%;letter-spacing:0px;word-spacing:0px;fill:#000000;fill-opacity:1;stroke:none;font-family:Times New Roman;-inkscape-font-specification:Times New Roman"
           x="506.91437"
           y="497.47269"
           id="text6105"
           sodipodi:linespacing="125%"><tspan
             sodipodi:role="line"
             id="tspan6107"
             x="506.91437"
             y="497.47269">21</tspan></text>
        <text
           xml:space="preserve"
           style="font-size:14px;font-style:normal;font-variant:normal;font-weight:normal;font-stretch:normal;line-height:125%;letter-spacing:0px;word-spacing:0px;fill:#000000;fill-opacity:1;stroke:none;font-family:Times New Roman;-inkscape-font-specification:Times New Roman"
           x="451.44193"
           y="495.39066"
           id="text6109"
           sodipodi:linespacing="125%"><tspan
             sodipodi:role="line"
             id="tspan6111"
             x="451.44193"
             y="495.39066">23</tspan></text>
        <text
           xml:space="preserve"
           style="font-size:14px;font-style:normal;font-variant:normal;font-weight:normal;font-stretch:normal;line-height:125%;letter-spacing:0px;word-spacing:0px;fill:#000000;fill-opacity:1;stroke:none;font-family:Times New Roman;-inkscape-font-specification:Times New Roman"
           x="413.13681"
           y="473.39066"
           id="text6113"
           sodipodi:linespacing="125%"><tspan
             sodipodi:role="line"
             id="tspan6115"
             x="413.13681"
             y="473.39066">25</tspan></text>
        <text
           xml:space="preserve"
           style="font-size:14px;font-style:normal;font-variant:normal;font-weight:normal;font-stretch:normal;line-height:125%;letter-spacing:0px;word-spacing:0px;fill:#000000;fill-opacity:1;stroke:none;font-family:Times New Roman;-inkscape-font-specification:Times New Roman"
           x="377.48227"
           y="445.37698"
           id="text6117"
           sodipodi:linespacing="125%"><tspan
             sodipodi:role="line"
             id="tspan6119"
             x="377.48227"
             y="445.37698">27</tspan></text>
      </g>
    </g>
  </g>
</svg>
