<?xml version="1.0" encoding="UTF-8" standalone="no"?>
<svg
   xmlns:dc="http://purl.org/dc/elements/1.1/"
   xmlns:cc="http://creativecommons.org/ns#"
   xmlns:rdf="http://www.w3.org/1999/02/22-rdf-syntax-ns#"
   xmlns:svg="http://www.w3.org/2000/svg"
   xmlns="http://www.w3.org/2000/svg"
   xmlns:sodipodi="http://sodipodi.sourceforge.net/DTD/sodipodi-0.dtd"
   xmlns:inkscape="http://www.inkscape.org/namespaces/inkscape"
   preserveAspectRatio="xMinYMin meet"
   width="100%"
   height="100%"
   viewBox="0 0 1052.813 744.375"
   version="1.1"
   id="svg7180"
   inkscape:version="0.91 r13725"
   sodipodi:docname="Bessel_Spheriques.svg">
  <metadata
     id="metadata7759">
    <rdf:RDF>
      <cc:Work
         rdf:about="">
        <dc:format>image/svg+xml</dc:format>
        <dc:type
           rdf:resource="http://purl.org/dc/dcmitype/StillImage" />
        <dc:title></dc:title>
      </cc:Work>
    </rdf:RDF>
  </metadata>
  <defs
     id="defs7757">
    <clipPath
       id="ID000025">
      <rect
         id="rect7473"
         height="352.333"
         width="352.333"
         y="182.994"
         x="600.462" />
    </clipPath>
    <clipPath
       id="ID000001">
      <rect
         id="rect7189"
         height="352.333"
         width="352.333"
         y="182.994"
         x="136.866" />
    </clipPath>
    <clipPath
       id="ID000011">
      <rect
         id="rect7395"
         height="76.563"
         width="99.375"
         y="189.531"
         x="384.687" />
    </clipPath>
    <clipPath
       id="ID000035">
      <rect
         id="rect7679"
         height="76.563"
         width="199.687"
         y="189.531"
         x="747.500" />
    </clipPath>
  </defs>
  <sodipodi:namedview
     pagecolor="#ffffff"
     bordercolor="#666666"
     borderopacity="1"
     objecttolerance="10"
     gridtolerance="10"
     guidetolerance="10"
     inkscape:pageopacity="0"
     inkscape:pageshadow="2"
     inkscape:window-width="1920"
     inkscape:window-height="1003"
     id="namedview7755"
     showgrid="false"
     inkscape:zoom="1.7934745"
     inkscape:cx="816.29207"
     inkscape:cy="372.1875"
     inkscape:window-x="-9"
     inkscape:window-y="-9"
     inkscape:window-maximized="1"
     inkscape:current-layer="topgroup" />
  <desc
     id="desc7182">Matlab Figure Converted by PLOT2SVG written by Juerg Schwizer</desc>
  <g
     id="topgroup">
    <polygon
       style="fill:#ffffff;fill-opacity:1;stroke:none"
       id="polygon7193"
       points="489.199,182.994 136.866,182.994 136.866,182.994 489.199,182.994 " />
    <polygon
       style="fill:#ffffff;fill-opacity:1;stroke:none"
       id="polygon7195"
       points="136.866,182.994 136.866,182.994 136.866,535.328 136.866,535.328 " />
    <g
       id="ID000002"
       clip-path="url(#ID000001)">
      <polyline
         points="137.746,183.032 138.627,183.145 139.508,183.334 140.389,183.598 141.270,183.937 142.151,184.351 143.031,184.840 143.912,185.403 144.793,186.041 145.674,186.752 146.555,187.537 147.436,188.395 148.316,189.326 149.197,190.328 150.078,191.402 150.959,192.548 151.840,193.763 152.721,195.048 153.601,196.402 154.482,197.825 155.363,199.315 156.244,200.871 157.125,202.494 158.006,204.182 158.886,205.933 159.767,207.748 160.648,209.625 161.529,211.564 162.410,213.562 163.291,215.620 164.171,217.735 165.052,219.908 165.933,222.136 166.814,224.419 167.695,226.755 168.576,229.143 169.456,231.582 170.337,234.071 171.218,236.608 172.099,239.192 172.980,241.821 173.861,244.495 174.741,247.211 175.622,249.969 176.503,252.767 177.384,255.603 178.265,258.476 179.146,261.385 180.026,264.328 180.907,267.303 181.788,270.310 182.669,273.346 183.550,276.409 184.431,279.499 185.311,282.614 186.192,285.752 187.073,288.911 187.954,292.090 188.835,295.288 189.716,298.503 190.596,301.732 191.477,304.975 192.358,308.230 193.239,311.496 194.120,314.770 195.001,318.051 195.881,321.337 196.762,324.627 197.643,327.920 198.524,331.213 199.405,334.505 200.286,337.795 201.166,341.080 202.047,344.360 202.928,347.632 203.809,350.896 204.690,354.149 205.571,357.390 206.451,360.618 207.332,363.831 208.213,367.028 209.094,370.207 209.975,373.366 210.856,376.505 211.736,379.622 212.617,382.715 213.498,385.783 214.379,388.825 215.260,391.839 216.141,394.825 217.021,397.780 217.902,400.704 218.783,403.596 219.664,406.453 220.545,409.275 221.426,412.062 222.306,414.811 223.187,417.521 224.068,420.192 224.949,422.823 225.830,425.411 226.711,427.958 227.591,430.461 228.472,432.919 229.353,435.333 230.234,437.700 231.115,440.020 231.996,442.292 232.876,444.516 233.757,446.691 234.638,448.816 235.519,450.890 236.400,452.913 237.281,454.884 238.161,456.803 239.042,458.669 239.923,460.482 240.804,462.241 241.685,463.946 242.566,465.596 243.446,467.192 244.327,468.732 245.208,470.217 246.089,471.646 246.970,473.019 247.851,474.336 248.731,475.597 249.612,476.802 250.493,477.950 251.374,479.042 252.255,480.078 253.136,481.058 254.016,481.981 254.897,482.848 255.778,483.660 256.659,484.416 257.540,485.116 258.421,485.761 259.301,486.351 260.182,486.886 261.063,487.367 261.944,487.795 262.825,488.169 263.706,488.490 264.586,488.758 265.467,488.974 266.348,489.139 267.229,489.253 268.110,489.316 268.991,489.330 269.871,489.295 270.752,489.211 271.633,489.080 272.514,488.902 273.395,488.677 274.276,488.408 275.156,488.093 276.037,487.735 276.918,487.334 277.799,486.890 278.680,486.406 279.561,485.881 280.441,485.317 281.322,484.714 282.203,484.074 283.084,483.398 283.965,482.686 284.846,481.939 285.726,481.159 286.607,480.347 287.488,479.503 288.369,478.629 289.250,477.725 290.131,476.794 291.011,475.835 291.892,474.851 292.773,473.841 293.654,472.808 294.535,471.753 295.416,470.676 296.296,469.578 297.177,468.461 298.058,467.327 298.939,466.175 299.820,465.008 300.701,463.826 301.581,462.630 302.462,461.423 303.343,460.204 304.224,458.975 305.105,457.737 305.986,456.491 306.866,455.239 307.747,453.981 308.628,452.719 309.509,451.454 310.390,450.186 311.271,448.917 312.151,447.649 313.032,446.381 313.913,445.115 314.794,443.853 315.675,442.595 316.556,441.342 317.436,440.095 318.317,438.855 319.198,437.624 320.079,436.402 320.960,435.190 321.841,433.989 322.721,432.800 323.602,431.624 324.483,430.462 325.364,429.314 326.245,428.182 327.126,427.066 328.006,425.968 328.887,424.887 329.768,423.824 330.649,422.781 331.530,421.759 332.411,420.757 333.291,419.776 334.172,418.817 335.053,417.882 335.934,416.969 336.815,416.080 337.696,415.216 338.576,414.377 339.457,413.563 340.338,412.775 341.219,412.014 342.100,411.280 342.981,410.572 343.861,409.892 344.742,409.241 345.623,408.617 346.504,408.022 347.385,407.456 348.266,406.919 349.146,406.412 350.027,405.934 350.908,405.485 351.789,405.066 352.670,404.678 353.551,404.319 354.431,403.991 355.312,403.692 356.193,403.424 357.074,403.186 357.955,402.978 358.836,402.800 359.716,402.652 360.597,402.534 361.478,402.445 362.359,402.387 363.240,402.357 364.121,402.357 365.001,402.386 365.882,402.443 366.763,402.529 367.644,402.643 368.525,402.785 369.406,402.954 370.286,403.151 371.167,403.374 372.048,403.623 372.929,403.899 373.810,404.200 374.691,404.526 375.571,404.877 376.452,405.252 377.333,405.651 378.214,406.073 379.095,406.517 379.976,406.983 380.856,407.471 381.737,407.979 382.618,408.508 383.499,409.057 384.380,409.624 385.261,410.211 386.141,410.814 387.022,411.435 387.903,412.073 388.784,412.726 389.665,413.394 390.546,414.077 391.426,414.774 392.307,415.483 393.188,416.205 394.069,416.938 394.950,417.683 395.831,418.437 396.711,419.201 397.592,419.974 398.473,420.755 399.354,421.542 400.235,422.337 401.116,423.137 401.996,423.942 402.877,424.751 403.758,425.564 404.639,426.380 405.520,427.198 406.401,428.017 407.281,428.837 408.162,429.657 409.043,430.476 409.924,431.293 410.805,432.108 411.686,432.920 412.566,433.729 413.447,434.533 414.328,435.333 415.209,436.126 416.090,436.913 416.971,437.694 417.851,438.466 418.732,439.231 419.613,439.987 420.494,440.733 421.375,441.469 422.256,442.194 423.136,442.908 424.017,443.611 424.898,444.301 425.779,444.978 426.660,445.642 427.541,446.292 428.421,446.927 429.302,447.548 430.183,448.154 431.064,448.744 431.945,449.317 432.826,449.874 433.706,450.414 434.587,450.937 435.468,451.442 436.349,451.929 437.230,452.398 438.111,452.848 438.991,453.279 439.872,453.691 440.753,454.083 441.634,454.456 442.515,454.809 443.396,455.141 444.276,455.454 445.157,455.746 446.038,456.017 446.919,456.268 447.800,456.498 448.681,456.707 449.561,456.895 450.442,457.062 451.323,457.208 452.204,457.332 453.085,457.436 453.966,457.519 454.846,457.581 455.727,457.622 456.608,457.642 457.489,457.642 458.370,457.620 459.251,457.579 460.131,457.517 461.012,457.434 461.893,457.332 462.774,457.210 463.655,457.068 464.536,456.908 465.416,456.727 466.297,456.529 467.178,456.311 468.059,456.075 468.940,455.822 469.821,455.550 470.701,455.262 471.582,454.956 472.463,454.634 473.344,454.295 474.225,453.941 475.106,453.571 475.986,453.186 476.867,452.787 477.748,452.373 478.629,451.946 479.510,451.505 480.391,451.051 481.271,450.585 482.152,450.107 483.033,449.618 483.914,449.117 484.795,448.607 485.676,448.086 486.556,447.556 487.437,447.017 488.318,446.469 489.199,445.914 490.080,445.351 490.961,444.782 491.841,444.206 492.722,443.625 493.603,443.038 494.484,442.447 495.365,441.852 496.246,441.253 497.126,440.651 498.007,440.047 498.888,439.441 499.769,438.833 500.650,438.225 501.531,437.616 502.411,437.008 503.292,436.400 504.173,435.794 505.054,435.190 505.935,434.588 506.816,433.989 507.696,433.394 508.577,432.802 509.458,432.215 510.339,431.633 511.220,431.057 512.101,430.486 512.981,429.922 513.862,429.364 514.743,428.814 515.624,428.272 516.505,427.738 517.386,427.213 518.266,426.697 519.147,426.190 520.028,425.694 520.909,425.207 521.790,424.732 522.671,424.267 523.551,423.814 524.432,423.373 525.313,422.943 526.194,422.527 527.075,422.123 527.956,421.732 528.836,421.355 529.717,420.991 530.598,420.641 531.479,420.305 532.360,419.984 533.241,419.677 534.121,419.385 535.002,419.108 535.883,418.846 536.764,418.600 537.645,418.369 538.526,418.153 539.406,417.954 540.287,417.770 541.168,417.603 542.049,417.451 542.930,417.316 543.811,417.196 544.691,417.093 545.572,417.006 546.453,416.935 547.334,416.881 548.215,416.843 549.096,416.821 549.976,416.815 550.857,416.825 551.738,416.851 552.619,416.892 553.500,416.950 554.381,417.024 555.261,417.112 556.142,417.217 557.023,417.336 557.904,417.471 558.785,417.620 559.666,417.784 560.546,417.963 561.427,418.156 562.308,418.363 563.189,418.583 564.070,418.817 564.951,419.065 565.831,419.325 566.712,419.598 567.593,419.884 568.474,420.182 569.355,420.491 570.236,420.812 571.116,421.144 571.997,421.487 572.878,421.840 573.759,422.204 574.640,422.577 575.521,422.959 576.401,423.351 577.282,423.751 "
         id="polyline7200"
         style="fill:none;stroke:#0000ff;stroke-width:1pt;stroke-dasharray:none" />
      <g
         id="g7202" />
    </g>
    <g
       id="ID000003"
       clip-path="url(#ID000001)">
      <polyline
         points="137.746,432.144 138.627,429.629 139.508,427.117 140.389,424.609 141.270,422.106 142.151,419.610 143.031,417.122 143.912,414.643 144.793,412.176 145.674,409.720 146.555,407.278 147.436,404.851 148.316,402.439 149.197,400.045 150.078,397.670 150.959,395.314 151.840,392.980 152.721,390.668 153.601,388.380 154.482,386.116 155.363,383.879 156.244,381.669 157.125,379.487 158.006,377.335 158.886,375.213 159.767,373.123 160.648,371.066 161.529,369.043 162.410,367.054 163.291,365.102 164.171,363.187 165.052,361.309 165.933,359.471 166.814,357.672 167.695,355.914 168.576,354.198 169.456,352.524 170.337,350.893 171.218,349.306 172.099,347.764 172.980,346.268 173.861,344.818 174.741,343.415 175.622,342.059 176.503,340.752 177.384,339.493 178.265,338.284 179.146,337.125 180.026,336.016 180.907,334.957 181.788,333.951 182.669,332.995 183.550,332.092 184.431,331.241 185.311,330.443 186.192,329.698 187.073,329.006 187.954,328.368 188.835,327.783 189.716,327.251 190.596,326.774 191.477,326.350 192.358,325.980 193.239,325.665 194.120,325.403 195.001,325.195 195.881,325.040 196.762,324.940 197.643,324.892 198.524,324.899 199.405,324.958 200.286,325.070 201.166,325.234 202.047,325.451 202.928,325.719 203.809,326.039 204.690,326.410 205.571,326.832 206.451,327.303 207.332,327.825 208.213,328.395 209.094,329.014 209.975,329.681 210.856,330.395 211.736,331.157 212.617,331.964 213.498,332.816 214.379,333.713 215.260,334.654 216.141,335.638 217.021,336.665 217.902,337.733 218.783,338.841 219.664,339.990 220.545,341.177 221.426,342.403 222.306,343.665 223.187,344.964 224.068,346.297 224.949,347.665 225.830,349.067 226.711,350.500 227.591,351.965 228.472,353.459 229.353,354.983 230.234,356.534 231.115,358.113 231.996,359.717 232.876,361.346 233.757,362.999 234.638,364.673 235.519,366.370 236.400,368.086 237.281,369.821 238.161,371.574 239.042,373.343 239.923,375.128 240.804,376.928 241.685,378.740 242.566,380.564 243.446,382.399 244.327,384.243 245.208,386.096 246.089,387.955 246.970,389.821 247.851,391.691 248.731,393.565 249.612,395.442 250.493,397.319 251.374,399.196 252.255,401.073 253.136,402.947 254.016,404.817 254.897,406.683 255.778,408.543 256.659,410.396 257.540,412.242 258.421,414.078 259.301,415.904 260.182,417.719 261.063,419.521 261.944,421.310 262.825,423.085 263.706,424.844 264.586,426.587 265.467,428.312 266.348,430.019 267.229,431.707 268.110,433.375 268.991,435.021 269.871,436.645 270.752,438.246 271.633,439.823 272.514,441.376 273.395,442.903 274.276,444.404 275.156,445.878 276.037,447.324 276.918,448.741 277.799,450.130 278.680,451.488 279.561,452.816 280.441,454.113 281.322,455.378 282.203,456.611 283.084,457.810 283.965,458.977 284.846,460.109 285.726,461.207 286.607,462.271 287.488,463.299 288.369,464.291 289.250,465.248 290.131,466.168 291.011,467.051 291.892,467.898 292.773,468.707 293.654,469.479 294.535,470.214 295.416,470.910 296.296,471.569 297.177,472.189 298.058,472.772 298.939,473.316 299.820,473.823 300.701,474.290 301.581,474.720 302.462,475.112 303.343,475.465 304.224,475.781 305.105,476.058 305.986,476.298 306.866,476.501 307.747,476.666 308.628,476.794 309.509,476.885 310.390,476.940 311.271,476.959 312.151,476.941 313.032,476.888 313.913,476.800 314.794,476.677 315.675,476.520 316.556,476.328 317.436,476.104 318.317,475.846 319.198,475.556 320.079,475.234 320.960,474.880 321.841,474.496 322.721,474.081 323.602,473.637 324.483,473.164 325.364,472.662 326.245,472.133 327.126,471.577 328.006,470.994 328.887,470.385 329.768,469.752 330.649,469.095 331.530,468.414 332.411,467.710 333.291,466.984 334.172,466.237 335.053,465.470 335.934,464.683 336.815,463.877 337.696,463.054 338.576,462.213 339.457,461.356 340.338,460.483 341.219,459.596 342.100,458.694 342.981,457.780 343.861,456.854 344.742,455.917 345.623,454.969 346.504,454.012 347.385,453.046 348.266,452.072 349.146,451.091 350.027,450.105 350.908,449.113 351.789,448.117 352.670,447.117 353.551,446.114 354.431,445.110 355.312,444.105 356.193,443.100 357.074,442.096 357.955,441.093 358.836,440.093 359.716,439.095 360.597,438.102 361.478,437.114 362.359,436.131 363.240,435.155 364.121,434.185 365.001,433.224 365.882,432.271 366.763,431.328 367.644,430.395 368.525,429.472 369.406,428.561 370.286,427.662 371.167,426.776 372.048,425.904 372.929,425.046 373.810,424.202 374.691,423.374 375.571,422.561 376.452,421.765 377.333,420.987 378.214,420.225 379.095,419.482 379.976,418.758 380.856,418.052 381.737,417.366 382.618,416.700 383.499,416.055 384.380,415.430 385.261,414.826 386.141,414.244 387.022,413.684 387.903,413.146 388.784,412.631 389.665,412.139 390.546,411.669 391.426,411.223 392.307,410.800 393.188,410.401 394.069,410.026 394.950,409.676 395.831,409.349 396.711,409.047 397.592,408.769 398.473,408.515 399.354,408.286 400.235,408.082 401.116,407.903 401.996,407.748 402.877,407.617 403.758,407.511 404.639,407.430 405.520,407.373 406.401,407.340 407.281,407.331 408.162,407.346 409.043,407.385 409.924,407.448 410.805,407.534 411.686,407.644 412.566,407.776 413.447,407.931 414.328,408.109 415.209,408.309 416.090,408.530 416.971,408.774 417.851,409.038 418.732,409.323 419.613,409.629 420.494,409.954 421.375,410.300 422.256,410.664 423.136,411.048 424.017,411.450 424.898,411.870 425.779,412.307 426.660,412.761 427.541,413.232 428.421,413.718 429.302,414.221 430.183,414.738 431.064,415.269 431.945,415.815 432.826,416.374 433.706,416.945 434.587,417.529 435.468,418.124 436.349,418.731 437.230,419.348 438.111,419.974 438.991,420.610 439.872,421.255 440.753,421.908 441.634,422.568 442.515,423.235 443.396,423.908 444.276,424.587 445.157,425.271 446.038,425.959 446.919,426.652 447.800,427.347 448.681,428.044 449.561,428.744 450.442,429.445 451.323,430.146 452.204,430.848 453.085,431.549 453.966,432.249 454.846,432.947 455.727,433.643 456.608,434.336 457.489,435.025 458.370,435.711 459.251,436.391 460.131,437.067 461.012,437.736 461.893,438.399 462.774,439.056 463.655,439.705 464.536,440.346 465.416,440.978 466.297,441.602 467.178,442.216 468.059,442.820 468.940,443.414 469.821,443.997 470.701,444.568 471.582,445.128 472.463,445.676 473.344,446.211 474.225,446.733 475.106,447.241 475.986,447.736 476.867,448.217 477.748,448.683 478.629,449.134 479.510,449.571 480.391,449.992 481.271,450.397 482.152,450.786 483.033,451.159 483.914,451.515 484.795,451.855 485.676,452.178 486.556,452.484 487.437,452.772 488.318,453.043 489.199,453.296 490.080,453.532 490.961,453.749 491.841,453.949 492.722,454.131 493.603,454.294 494.484,454.439 495.365,454.566 496.246,454.675 497.126,454.766 498.007,454.838 498.888,454.892 499.769,454.928 500.650,454.946 501.531,454.945 502.411,454.927 503.292,454.891 504.173,454.837 505.054,454.765 505.935,454.676 506.816,454.570 507.696,454.446 508.577,454.306 509.458,454.149 510.339,453.975 511.220,453.785 512.101,453.579 512.981,453.357 513.862,453.119 514.743,452.867 515.624,452.599 516.505,452.317 517.386,452.020 518.266,451.709 519.147,451.385 520.028,451.047 520.909,450.696 521.790,450.333 522.671,449.957 523.551,449.569 524.432,449.170 525.313,448.760 526.194,448.340 527.075,447.909 527.956,447.468 528.836,447.018 529.717,446.559 530.598,446.091 531.479,445.615 532.360,445.132 533.241,444.641 534.121,444.144 535.002,443.641 535.883,443.132 536.764,442.617 537.645,442.098 538.526,441.575 539.406,441.047 540.287,440.517 541.168,439.983 542.049,439.447 542.930,438.909 543.811,438.369 544.691,437.829 545.572,437.288 546.453,436.747 547.334,436.207 548.215,435.667 549.096,435.129 549.976,434.593 550.857,434.059 551.738,433.528 552.619,433.000 553.500,432.476 554.381,431.956 555.261,431.441 556.142,430.931 557.023,430.426 557.904,429.927 558.785,429.434 559.666,428.948 560.546,428.469 561.427,427.998 562.308,427.534 563.189,427.079 564.070,426.632 564.951,426.195 565.831,425.767 566.712,425.348 567.593,424.939 568.474,424.541 569.355,424.153 570.236,423.776 571.116,423.411 571.997,423.057 572.878,422.714 573.759,422.384 574.640,422.066 575.521,421.760 576.401,421.468 577.282,421.188 "
         id="polyline7205"
         style="fill:none;stroke:#007f00;stroke-width:1pt;stroke-dasharray:none" />
      <g
         id="g7207" />
    </g>
    <g
       id="ID000004"
       clip-path="url(#ID000001)">
      <polyline
         points="137.746,434.646 138.627,434.601 139.508,434.525 140.389,434.420 141.270,434.284 142.151,434.119 143.031,433.923 143.912,433.698 144.793,433.444 145.674,433.161 146.555,432.848 147.436,432.507 148.316,432.137 149.197,431.738 150.078,431.312 150.959,430.859 151.840,430.378 152.721,429.870 153.601,429.335 154.482,428.775 155.363,428.189 156.244,427.577 157.125,426.941 158.006,426.281 158.886,425.597 159.767,424.889 160.648,424.160 161.529,423.408 162.410,422.634 163.291,421.840 164.171,421.025 165.052,420.191 165.933,419.337 166.814,418.466 167.695,417.576 168.576,416.670 169.456,415.747 170.337,414.809 171.218,413.856 172.099,412.889 172.980,411.908 173.861,410.915 174.741,409.910 175.622,408.894 176.503,407.868 177.384,406.832 178.265,405.788 179.146,404.736 180.026,403.677 180.907,402.611 181.788,401.541 182.669,400.466 183.550,399.387 184.431,398.305 185.311,397.221 186.192,396.137 187.073,395.051 187.954,393.967 188.835,392.884 189.716,391.803 190.596,390.725 191.477,389.652 192.358,388.583 193.239,387.519 194.120,386.463 195.001,385.413 195.881,384.372 196.762,383.340 197.643,382.317 198.524,381.306 199.405,380.305 200.286,379.317 201.166,378.342 202.047,377.381 202.928,376.434 203.809,375.503 204.690,374.587 205.571,373.689 206.451,372.808 207.332,371.945 208.213,371.102 209.094,370.278 209.975,369.474 210.856,368.691 211.736,367.930 212.617,367.192 213.498,366.476 214.379,365.784 215.260,365.115 216.141,364.472 217.021,363.854 217.902,363.261 218.783,362.695 219.664,362.155 220.545,361.643 221.426,361.158 222.306,360.701 223.187,360.273 224.068,359.874 224.949,359.504 225.830,359.164 226.711,358.853 227.591,358.573 228.472,358.324 229.353,358.105 230.234,357.918 231.115,357.762 231.996,357.637 232.876,357.544 233.757,357.483 234.638,357.454 235.519,357.457 236.400,357.493 237.281,357.560 238.161,357.660 239.042,357.793 239.923,357.957 240.804,358.154 241.685,358.383 242.566,358.645 243.446,358.938 244.327,359.264 245.208,359.621 246.089,360.010 246.970,360.431 247.851,360.883 248.731,361.366 249.612,361.880 250.493,362.424 251.374,362.999 252.255,363.604 253.136,364.238 254.016,364.902 254.897,365.594 255.778,366.316 256.659,367.065 257.540,367.842 258.421,368.646 259.301,369.477 260.182,370.334 261.063,371.217 261.944,372.125 262.825,373.058 263.706,374.015 264.586,374.996 265.467,375.999 266.348,377.025 267.229,378.073 268.110,379.142 268.991,380.232 269.871,381.341 270.752,382.469 271.633,383.616 272.514,384.780 273.395,385.962 274.276,387.160 275.156,388.373 276.037,389.601 276.918,390.844 277.799,392.099 278.680,393.368 279.561,394.648 280.441,395.939 281.322,397.240 282.203,398.551 283.084,399.870 283.965,401.197 284.846,402.531 285.726,403.871 286.607,405.216 287.488,406.566 288.369,407.920 289.250,409.277 290.131,410.635 291.011,411.995 291.892,413.356 292.773,414.716 293.654,416.074 294.535,417.431 295.416,418.785 296.296,420.135 297.177,421.480 298.058,422.821 298.939,424.155 299.820,425.482 300.701,426.802 301.581,428.113 302.462,429.416 303.343,430.708 304.224,431.989 305.105,433.259 305.986,434.517 306.866,435.762 307.747,436.993 308.628,438.209 309.509,439.411 310.390,440.597 311.271,441.767 312.151,442.920 313.032,444.055 313.913,445.171 314.794,446.269 315.675,447.347 316.556,448.405 317.436,449.443 318.317,450.459 319.198,451.454 320.079,452.426 320.960,453.375 321.841,454.302 322.721,455.204 323.602,456.082 324.483,456.936 325.364,457.765 326.245,458.568 327.126,459.346 328.006,460.098 328.887,460.823 329.768,461.521 330.649,462.192 331.530,462.836 332.411,463.452 333.291,464.041 334.172,464.601 335.053,465.133 335.934,465.637 336.815,466.112 337.696,466.559 338.576,466.976 339.457,467.365 340.338,467.725 341.219,468.055 342.100,468.357 342.981,468.630 343.861,468.873 344.742,469.088 345.623,469.273 346.504,469.430 347.385,469.558 348.266,469.657 349.146,469.728 350.027,469.770 350.908,469.784 351.789,469.770 352.670,469.728 353.551,469.659 354.431,469.562 355.312,469.438 356.193,469.287 357.074,469.110 357.955,468.907 358.836,468.677 359.716,468.423 360.597,468.143 361.478,467.838 362.359,467.510 363.240,467.157 364.121,466.781 365.001,466.382 365.882,465.960 366.763,465.516 367.644,465.051 368.525,464.564 369.406,464.057 370.286,463.530 371.167,462.984 372.048,462.419 372.929,461.835 373.810,461.234 374.691,460.615 375.571,459.980 376.452,459.329 377.333,458.662 378.214,457.981 379.095,457.285 379.976,456.577 380.856,455.855 381.737,455.121 382.618,454.376 383.499,453.620 384.380,452.854 385.261,452.078 386.141,451.293 387.022,450.500 387.903,449.700 388.784,448.893 389.665,448.080 390.546,447.262 391.426,446.438 392.307,445.611 393.188,444.780 394.069,443.947 394.950,443.112 395.831,442.275 396.711,441.438 397.592,440.601 398.473,439.764 399.354,438.929 400.235,438.096 401.116,437.266 401.996,436.439 402.877,435.616 403.758,434.797 404.639,433.984 405.520,433.177 406.401,432.376 407.281,431.583 408.162,430.797 409.043,430.019 409.924,429.250 410.805,428.491 411.686,427.742 412.566,427.004 413.447,426.276 414.328,425.560 415.209,424.856 416.090,424.165 416.971,423.487 417.851,422.823 418.732,422.173 419.613,421.537 420.494,420.916 421.375,420.311 422.256,419.721 423.136,419.148 424.017,418.591 424.898,418.051 425.779,417.529 426.660,417.023 427.541,416.536 428.421,416.067 429.302,415.617 430.183,415.185 431.064,414.772 431.945,414.379 432.826,414.005 433.706,413.651 434.587,413.316 435.468,413.002 436.349,412.707 437.230,412.433 438.111,412.180 438.991,411.947 439.872,411.734 440.753,411.542 441.634,411.371 442.515,411.220 443.396,411.091 444.276,410.982 445.157,410.893 446.038,410.826 446.919,410.779 447.800,410.752 448.681,410.746 449.561,410.761 450.442,410.795 451.323,410.850 452.204,410.924 453.085,411.019 453.966,411.133 454.846,411.266 455.727,411.419 456.608,411.590 457.489,411.780 458.370,411.989 459.251,412.216 460.131,412.461 461.012,412.723 461.893,413.003 462.774,413.300 463.655,413.613 464.536,413.942 465.416,414.288 466.297,414.649 467.178,415.025 468.059,415.416 468.940,415.822 469.821,416.241 470.701,416.674 471.582,417.120 472.463,417.579 473.344,418.050 474.225,418.533 475.106,419.027 475.986,419.532 476.867,420.047 477.748,420.572 478.629,421.107 479.510,421.650 480.391,422.202 481.271,422.761 482.152,423.328 483.033,423.902 483.914,424.482 484.795,425.068 485.676,425.659 486.556,426.255 487.437,426.856 488.318,427.460 489.199,428.067 490.080,428.676 490.961,429.288 491.841,429.902 492.722,430.516 493.603,431.131 494.484,431.746 495.365,432.361 496.246,432.974 497.126,433.586 498.007,434.196 498.888,434.804 499.769,435.408 500.650,436.009 501.531,436.605 502.411,437.197 503.292,437.784 504.173,438.366 505.054,438.941 505.935,439.511 506.816,440.073 507.696,440.628 508.577,441.175 509.458,441.714 510.339,442.244 511.220,442.765 512.101,443.277 512.981,443.779 513.862,444.270 514.743,444.751 515.624,445.221 516.505,445.680 517.386,446.127 518.266,446.562 519.147,446.985 520.028,447.395 520.909,447.792 521.790,448.176 522.671,448.547 523.551,448.904 524.432,449.247 525.313,449.576 526.194,449.890 527.075,450.189 527.956,450.474 528.836,450.744 529.717,450.999 530.598,451.238 531.479,451.462 532.360,451.670 533.241,451.863 534.121,452.040 535.002,452.201 535.883,452.346 536.764,452.475 537.645,452.588 538.526,452.685 539.406,452.765 540.287,452.830 541.168,452.879 542.049,452.911 542.930,452.928 543.811,452.928 544.691,452.913 545.572,452.882 546.453,452.835 547.334,452.773 548.215,452.695 549.096,452.601 549.976,452.493 550.857,452.369 551.738,452.231 552.619,452.078 553.500,451.910 554.381,451.728 555.261,451.532 556.142,451.321 557.023,451.098 557.904,450.861 558.785,450.611 559.666,450.347 560.546,450.072 561.427,449.784 562.308,449.484 563.189,449.172 564.070,448.849 564.951,448.515 565.831,448.170 566.712,447.815 567.593,447.450 568.474,447.075 569.355,446.691 570.236,446.298 571.116,445.896 571.997,445.486 572.878,445.068 573.759,444.643 574.640,444.211 575.521,443.772 576.401,443.327 577.282,442.877 "
         id="polyline7210"
         style="fill:none;stroke:#ff0000;stroke-width:1pt;stroke-dasharray:none" />
      <g
         id="g7212" />
    </g>
    <g
       id="ID000005">
      <g
         transform="translate(312.564,580.547)"
         id="g7215">
        <g
           id="g7217">
          <text
             x="0"
             y="0"
             font-size="14pt"
             id="text7219"
             style="font-size:17.5px;text-anchor:middle;fill:#000000;font-family:Helvetica">$\rho$</text>
        </g>
      </g>
    </g>
    <g
       id="ID000006" />
    <g
       id="ID000007" />
    <g
       id="ID000008" />
    <g
       id="ID000009" />
    <polyline
       points="136.866,535.328 136.866,538.851 "
       id="polyline7227"
       style="fill:none;stroke:#000000;stroke-width:1.3pt;stroke-dasharray:none" />
    <polyline
       points="195.588,535.328 195.588,538.851 "
       id="polyline7229"
       style="fill:none;stroke:#000000;stroke-width:1.3pt;stroke-dasharray:none" />
    <polyline
       points="254.310,535.328 254.310,538.851 "
       id="polyline7231"
       style="fill:none;stroke:#000000;stroke-width:1.3pt;stroke-dasharray:none" />
    <polyline
       points="313.032,535.328 313.032,538.851 "
       id="polyline7233"
       style="fill:none;stroke:#000000;stroke-width:1.3pt;stroke-dasharray:none" />
    <polyline
       points="371.754,535.328 371.754,538.851 "
       id="polyline7235"
       style="fill:none;stroke:#000000;stroke-width:1.3pt;stroke-dasharray:none" />
    <polyline
       points="430.477,535.328 430.477,538.851 "
       id="polyline7237"
       style="fill:none;stroke:#000000;stroke-width:1.3pt;stroke-dasharray:none" />
    <polyline
       points="489.199,535.328 489.199,538.851 "
       id="polyline7239"
       style="fill:none;stroke:#000000;stroke-width:1.3pt;stroke-dasharray:none" />
    <polyline
       points="136.866,535.328 489.199,535.328 "
       id="polyline7241"
       style="fill:none;stroke:#000000;stroke-width:1.3pt;stroke-dasharray:none" />
    <polyline
       points="136.866,182.994 136.866,179.471 "
       id="polyline7243"
       style="fill:none;stroke:#000000;stroke-width:1.3pt;stroke-dasharray:none" />
    <polyline
       points="195.588,182.994 195.588,179.471 "
       id="polyline7245"
       style="fill:none;stroke:#000000;stroke-width:1.3pt;stroke-dasharray:none" />
    <polyline
       points="254.310,182.994 254.310,179.471 "
       id="polyline7247"
       style="fill:none;stroke:#000000;stroke-width:1.3pt;stroke-dasharray:none" />
    <polyline
       points="313.032,182.994 313.032,179.471 "
       id="polyline7249"
       style="fill:none;stroke:#000000;stroke-width:1.3pt;stroke-dasharray:none" />
    <polyline
       points="371.754,182.994 371.754,179.471 "
       id="polyline7251"
       style="fill:none;stroke:#000000;stroke-width:1.3pt;stroke-dasharray:none" />
    <polyline
       points="430.477,182.994 430.477,179.471 "
       id="polyline7253"
       style="fill:none;stroke:#000000;stroke-width:1.3pt;stroke-dasharray:none" />
    <polyline
       points="489.199,182.994 489.199,179.471 "
       id="polyline7255"
       style="fill:none;stroke:#000000;stroke-width:1.3pt;stroke-dasharray:none" />
    <polyline
       points="136.866,182.994 489.199,182.994 "
       id="polyline7257"
       style="fill:none;stroke:#000000;stroke-width:1.3pt;stroke-dasharray:none" />
    <g
       transform="translate(136.866,562.491)"
       id="g7259">
      <g
         id="g7261">
        <text
           x="0"
           y="0"
           font-size="14pt"
           id="text7263"
           style="font-size:17.5px;text-anchor:middle;fill:#000000;font-family:Helvetica">0</text>
      </g>
    </g>
    <g
       transform="translate(195.588,562.491)"
       id="g7265">
      <g
         id="g7267">
        <text
           x="0"
           y="0"
           font-size="14pt"
           id="text7269"
           style="font-size:17.5px;text-anchor:middle;fill:#000000;font-family:Helvetica">2</text>
      </g>
    </g>
    <g
       transform="translate(254.31,562.491)"
       id="g7271">
      <g
         id="g7273">
        <text
           x="0"
           y="0"
           font-size="14pt"
           id="text7275"
           style="font-size:17.5px;text-anchor:middle;fill:#000000;font-family:Helvetica">4</text>
      </g>
    </g>
    <g
       transform="translate(313.032,562.491)"
       id="g7277">
      <g
         id="g7279">
        <text
           x="0"
           y="0"
           font-size="14pt"
           id="text7281"
           style="font-size:17.5px;text-anchor:middle;fill:#000000;font-family:Helvetica">6</text>
      </g>
    </g>
    <g
       transform="translate(371.754,562.491)"
       id="g7283">
      <g
         id="g7285">
        <text
           x="0"
           y="0"
           font-size="14pt"
           id="text7287"
           style="font-size:17.5px;text-anchor:middle;fill:#000000;font-family:Helvetica">8</text>
      </g>
    </g>
    <g
       transform="translate(430.477,562.491)"
       id="g7289">
      <g
         id="g7291">
        <text
           x="0"
           y="0"
           font-size="14pt"
           id="text7293"
           style="font-size:17.5px;text-anchor:middle;fill:#000000;font-family:Helvetica">10</text>
      </g>
    </g>
    <g
       transform="translate(489.199,562.491)"
       id="g7295">
      <g
         id="g7297">
        <text
           x="0"
           y="0"
           font-size="14pt"
           id="text7299"
           style="font-size:17.5px;text-anchor:middle;fill:#000000;font-family:Helvetica">12</text>
      </g>
    </g>
    <polyline
       points="136.866,535.328 130.799,535.328 "
       id="polyline7301"
       style="fill:none;stroke:#000000;stroke-width:1.3pt;stroke-dasharray:none" />
    <polyline
       points="136.866,484.994 130.799,484.994 "
       id="polyline7303"
       style="fill:none;stroke:#000000;stroke-width:1.3pt;stroke-dasharray:none" />
    <polyline
       points="136.866,434.661 130.799,434.661 "
       id="polyline7305"
       style="fill:none;stroke:#000000;stroke-width:1.3pt;stroke-dasharray:none" />
    <polyline
       points="136.866,384.328 130.799,384.328 "
       id="polyline7307"
       style="fill:none;stroke:#000000;stroke-width:1.3pt;stroke-dasharray:none" />
    <polyline
       points="136.866,333.994 130.799,333.994 "
       id="polyline7309"
       style="fill:none;stroke:#000000;stroke-width:1.3pt;stroke-dasharray:none" />
    <polyline
       points="136.866,283.661 130.799,283.661 "
       id="polyline7311"
       style="fill:none;stroke:#000000;stroke-width:1.3pt;stroke-dasharray:none" />
    <polyline
       points="136.866,233.328 130.799,233.328 "
       id="polyline7313"
       style="fill:none;stroke:#000000;stroke-width:1.3pt;stroke-dasharray:none" />
    <polyline
       points="136.866,182.994 130.799,182.994 "
       id="polyline7315"
       style="fill:none;stroke:#000000;stroke-width:1.3pt;stroke-dasharray:none" />
    <polyline
       points="136.866,535.328 136.866,182.994 "
       id="polyline7317"
       style="fill:none;stroke:#000000;stroke-width:1.3pt;stroke-dasharray:none" />
    <polyline
       points="489.199,535.328 495.266,535.328 "
       id="polyline7319"
       style="fill:none;stroke:#000000;stroke-width:1.3pt;stroke-dasharray:none" />
    <polyline
       points="489.199,484.994 495.266,484.994 "
       id="polyline7321"
       style="fill:none;stroke:#000000;stroke-width:1.3pt;stroke-dasharray:none" />
    <polyline
       points="489.199,434.661 495.266,434.661 "
       id="polyline7323"
       style="fill:none;stroke:#000000;stroke-width:1.3pt;stroke-dasharray:none" />
    <polyline
       points="489.199,384.328 495.266,384.328 "
       id="polyline7325"
       style="fill:none;stroke:#000000;stroke-width:1.3pt;stroke-dasharray:none" />
    <polyline
       points="489.199,333.994 495.266,333.994 "
       id="polyline7327"
       style="fill:none;stroke:#000000;stroke-width:1.3pt;stroke-dasharray:none" />
    <polyline
       points="489.199,283.661 495.266,283.661 "
       id="polyline7329"
       style="fill:none;stroke:#000000;stroke-width:1.3pt;stroke-dasharray:none" />
    <polyline
       points="489.199,233.328 495.266,233.328 "
       id="polyline7331"
       style="fill:none;stroke:#000000;stroke-width:1.3pt;stroke-dasharray:none" />
    <polyline
       points="489.199,182.994 495.266,182.994 "
       id="polyline7333"
       style="fill:none;stroke:#000000;stroke-width:1.3pt;stroke-dasharray:none" />
    <polyline
       points="489.199,535.328 489.199,182.994 "
       id="polyline7335"
       style="fill:none;stroke:#000000;stroke-width:1.3pt;stroke-dasharray:none" />
    <g
       transform="translate(126.296,541.656)"
       id="g7337">
      <g
         id="g7339">
        <text
           x="0"
           y="0"
           font-size="14pt"
           id="text7341"
           style="font-size:17.5px;text-anchor:end;fill:#000000;font-family:Helvetica">-0.4</text>
      </g>
    </g>
    <g
       transform="translate(126.296,491.322)"
       id="g7343">
      <g
         id="g7345">
        <text
           x="0"
           y="0"
           font-size="14pt"
           id="text7347"
           style="font-size:17.5px;text-anchor:end;fill:#000000;font-family:Helvetica">-0.2</text>
      </g>
    </g>
    <g
       transform="translate(126.296,440.989)"
       id="g7349">
      <g
         id="g7351">
        <text
           x="0"
           y="0"
           font-size="14pt"
           id="text7353"
           style="font-size:17.5px;text-anchor:end;fill:#000000;font-family:Helvetica">0</text>
      </g>
    </g>
    <g
       transform="translate(126.296,390.656)"
       id="g7355">
      <g
         id="g7357">
        <text
           x="0"
           y="0"
           font-size="14pt"
           id="text7359"
           style="font-size:17.5px;text-anchor:end;fill:#000000;font-family:Helvetica">0.2</text>
      </g>
    </g>
    <g
       transform="translate(126.296,340.322)"
       id="g7361">
      <g
         id="g7363">
        <text
           x="0"
           y="0"
           font-size="14pt"
           id="text7365"
           style="font-size:17.5px;text-anchor:end;fill:#000000;font-family:Helvetica">0.4</text>
      </g>
    </g>
    <g
       transform="translate(126.296,289.989)"
       id="g7367">
      <g
         id="g7369">
        <text
           x="0"
           y="0"
           font-size="14pt"
           id="text7371"
           style="font-size:17.5px;text-anchor:end;fill:#000000;font-family:Helvetica">0.6</text>
      </g>
    </g>
    <g
       transform="translate(126.296,239.656)"
       id="g7373">
      <g
         id="g7375">
        <text
           x="0"
           y="0"
           font-size="14pt"
           id="text7377"
           style="font-size:17.5px;text-anchor:end;fill:#000000;font-family:Helvetica">0.8</text>
      </g>
    </g>
    <g
       transform="translate(126.296,189.322)"
       id="g7379">
      <g
         id="g7381">
        <text
           x="0"
           y="0"
           font-size="14pt"
           id="text7383"
           style="font-size:17.5px;text-anchor:end;fill:#000000;font-family:Helvetica">1</text>
      </g>
    </g>
    <polyline
       points="136.866,535.328 136.866,538.851 "
       id="polyline7385"
       style="fill:none;stroke:#000000;stroke-width:1.3pt;stroke-dasharray:none" />
    <polyline
       points="136.866,535.328 136.866,538.851 "
       id="polyline7387"
       style="fill:none;stroke:#000000;stroke-width:1.3pt;stroke-dasharray:none" />
    <polyline
       points="136.866,535.328 136.866,538.851 "
       id="polyline7389"
       style="fill:none;stroke:#000000;stroke-width:1.3pt;stroke-dasharray:none" />
    <polyline
       points="136.866,535.328 136.866,535.328 "
       id="polyline7391"
       style="fill:none;stroke:#000000;stroke-width:1.3pt;stroke-dasharray:none" />
    <polygon
       style="fill:#ffffff;fill-opacity:1;stroke:none"
       id="polygon7399"
       points="484.062,189.531 384.687,189.531 384.687,189.531 484.062,189.531 " />
    <polygon
       style="fill:#ffffff;fill-opacity:1;stroke:none"
       id="polygon7401"
       points="384.687,189.531 384.687,189.531 384.687,266.094 384.687,266.094 " />
    <g
       id="ID000012">
      <g
         transform="translate(433.906,210.332)"
         id="g7406">
        <g
           id="g7408">
          <text
             x="0"
             y="0"
             font-size="14pt"
             id="text7410"
             style="font-size:17.5px;text-anchor:start;fill:#000000;font-family:Helvetica">$j_0$</text>
        </g>
      </g>
    </g>
    <g
       id="ID000013"
       clip-path="url(#ID000011)">
      <polyline
         points="392.187,203.750 429.687,203.750 "
         id="polyline7413"
         style="fill:none;stroke:#0000ff;stroke-width:1pt;stroke-dasharray:none" />
      <g
         id="g7415" />
    </g>
    <g
       id="ID000014"
       clip-path="url(#ID000011)">
      <g
         id="g7418" />
    </g>
    <g
       id="ID000015">
      <g
         transform="translate(433.906,235.541)"
         id="g7421">
        <g
           id="g7423">
          <text
             x="0"
             y="0"
             font-size="14pt"
             id="text7425"
             style="font-size:17.5px;text-anchor:start;fill:#000000;font-family:Helvetica">$j_1$</text>
        </g>
      </g>
    </g>
    <g
       id="ID000016"
       clip-path="url(#ID000011)">
      <polyline
         points="392.187,227.813 429.687,227.813 "
         id="polyline7428"
         style="fill:none;stroke:#007f00;stroke-width:1pt;stroke-dasharray:none" />
      <g
         id="g7430" />
    </g>
    <g
       id="ID000017"
       clip-path="url(#ID000011)">
      <g
         id="g7433" />
    </g>
    <g
       id="ID000018">
      <g
         transform="translate(433.906,259.817)"
         id="g7436">
        <g
           id="g7438">
          <text
             x="0"
             y="0"
             font-size="14pt"
             id="text7440"
             style="font-size:17.5px;text-anchor:start;fill:#000000;font-family:Helvetica">$j_2$</text>
        </g>
      </g>
    </g>
    <g
       id="ID000019"
       clip-path="url(#ID000011)">
      <polyline
         points="392.187,251.875 429.687,251.875 "
         id="polyline7443"
         style="fill:none;stroke:#ff0000;stroke-width:1pt;stroke-dasharray:none" />
      <g
         id="g7445" />
    </g>
    <g
       id="ID000020"
       clip-path="url(#ID000011)">
      <g
         id="g7448" />
    </g>
    <g
       id="ID000021" />
    <g
       id="ID000022" />
    <g
       id="ID000023" />
    <polyline
       points="384.687,266.094 384.687,266.094 "
       id="polyline7469"
       style="fill:none;stroke:#000000;stroke-width:1.3pt;stroke-dasharray:none" />
    <polygon
       style="fill:#ffffff;fill-opacity:1;stroke:none"
       id="polygon7477"
       points="952.795,182.994 600.462,182.994 600.462,182.994 952.795,182.994 " />
    <polygon
       style="fill:#ffffff;fill-opacity:1;stroke:none"
       id="polygon7479"
       points="600.462,182.994 600.462,182.994 600.462,535.328 600.462,535.328 " />
    <g
       id="ID000026"
       clip-path="url(#ID000025)">
      <polyline
         points="601.343,535.101 602.224,534.423 603.105,533.295 603.985,531.721 604.866,529.707 605.747,527.261 606.628,524.391 607.509,521.108 608.390,517.423 609.270,513.349 610.151,508.902 611.032,504.096 611.913,498.951 612.794,493.483 613.675,487.714 614.555,481.662 615.436,475.351 616.317,468.803 617.198,462.042 618.079,455.091 618.960,447.976 619.840,440.723 620.721,433.357 621.602,425.906 622.483,418.395 623.364,410.853 624.245,403.305 625.125,395.780 626.006,388.304 626.887,380.905 627.768,373.608 628.649,366.440 629.530,359.428 630.410,352.595 631.291,345.968 632.172,339.569 633.053,333.421 633.934,327.548 634.815,321.969 635.695,316.706 636.576,311.776 637.457,307.198 638.338,302.988 639.219,299.161 640.100,295.732 640.980,292.712 641.861,290.112 642.742,287.942 643.623,286.209 644.504,284.920 645.385,284.080 646.265,283.690 647.146,283.754 648.027,284.270 648.908,285.236 649.789,286.650 650.670,288.506 651.550,290.798 652.431,293.516 653.312,296.652 654.193,300.194 655.074,304.130 655.955,308.444 656.835,313.123 657.716,318.148 658.597,323.502 659.478,329.165 660.359,335.118 661.240,341.338 662.120,347.803 663.001,354.491 663.882,361.376 664.763,368.435 665.644,375.641 666.525,382.969 667.405,390.393 668.286,397.885 669.167,405.419 670.048,412.968 670.929,420.505 671.810,428.001 672.690,435.431 673.571,442.768 674.452,449.985 675.333,457.056 676.214,463.957 677.095,470.661 677.975,477.145 678.856,483.385 679.737,489.360 680.618,495.047 681.499,500.426 682.380,505.478 683.260,510.185 684.141,514.529 685.022,518.495 685.903,522.069 686.784,525.238 687.665,527.990 688.545,530.316 689.426,532.207 690.307,533.656 691.188,534.658 692.069,535.210 692.950,535.310 693.830,534.957 694.711,534.152 695.592,532.898 696.473,531.201 697.354,529.065 698.235,526.499 699.115,523.512 699.996,520.115 700.877,516.320 701.758,512.140 702.639,507.590 703.520,502.688 704.400,497.450 705.281,491.896 706.162,486.045 707.043,479.919 707.924,473.539 708.805,466.929 709.685,460.112 710.566,453.113 711.447,445.956 712.328,438.669 713.209,431.277 714.090,423.806 714.970,416.284 715.851,408.737 716.732,401.193 717.613,393.679 718.494,386.222 719.375,378.848 720.255,371.585 721.136,364.458 722.017,357.494 722.898,350.716 723.779,344.150 724.660,337.820 725.540,331.747 726.421,325.954 727.302,320.462 728.183,315.290 729.064,310.457 729.945,305.980 730.825,301.876 731.706,298.160 732.587,294.844 733.468,291.940 734.349,289.460 735.230,287.412 736.110,285.803 736.991,284.639 737.872,283.925 738.753,283.662 739.634,283.853 740.515,284.495 741.395,285.588 742.276,287.126 743.157,289.105 744.038,291.517 744.919,294.353 745.800,297.604 746.680,301.258 747.561,305.301 748.442,309.719 749.323,314.497 750.204,319.616 751.085,325.058 751.965,330.805 752.846,336.835 753.727,343.126 754.608,349.656 755.489,356.401 756.370,363.338 757.250,370.440 758.131,377.683 759.012,385.041 759.893,392.487 760.774,399.994 761.655,407.535 762.535,415.083 763.416,422.611 764.297,430.091 765.178,437.498 766.059,444.804 766.940,451.983 767.820,459.009 768.701,465.856 769.582,472.501 770.463,478.919 771.344,485.087 772.225,490.983 773.105,496.586 773.986,501.876 774.867,506.833 775.748,511.439 776.629,515.679 777.510,519.537 778.390,522.998 779.271,526.051 780.152,528.685 781.033,530.890 781.914,532.658 782.795,533.982 783.675,534.859 784.556,535.284 785.437,535.256 786.318,534.776 787.199,533.846 788.080,532.467 788.960,530.646 789.841,528.389 790.722,525.704 791.603,522.601 792.484,519.091 793.365,515.186 794.245,510.901 795.126,506.251 796.007,501.253 796.888,495.925 797.769,490.285 798.650,484.355 799.530,478.155 800.411,471.709 801.292,465.038 802.173,458.168 803.054,451.122 803.935,443.926 804.815,436.607 805.696,429.190 806.577,421.702 807.458,414.170 808.339,406.621 809.220,399.083 810.100,391.582 810.981,384.146 811.862,376.801 812.743,369.573 813.624,362.489 814.505,355.575 815.385,348.854 816.266,342.352 817.147,336.091 818.028,330.094 818.909,324.383 819.790,318.979 820.670,313.900 821.551,309.166 822.432,304.792 823.313,300.795 824.194,297.189 825.075,293.988 825.955,291.202 826.836,288.842 827.717,286.916 828.598,285.432 829.479,284.394 830.359,283.806 831.240,283.670 832.121,283.987 833.002,284.756 833.883,285.974 834.764,287.636 835.644,289.737 836.525,292.269 837.406,295.223 838.287,298.588 839.168,302.352 840.049,306.502 840.929,311.023 841.810,315.898 842.691,321.109 843.572,326.639 844.453,332.467 845.334,338.572 846.214,344.933 847.095,351.526 847.976,358.327 848.857,365.313 849.738,372.457 850.619,379.735 851.499,387.120 852.380,394.585 853.261,402.105 854.142,409.650 855.023,417.196 855.904,424.713 856.784,432.176 857.665,439.557 858.546,446.830 859.427,453.968 860.308,460.947 861.189,467.740 862.069,474.324 862.950,480.674 863.831,486.768 864.712,492.584 865.593,498.101 866.474,503.299 867.354,508.160 868.235,512.665 869.116,516.799 869.997,520.547 870.878,523.896 871.759,526.832 872.639,529.347 873.520,531.430 874.401,533.074 875.282,534.273 876.163,535.023 877.044,535.322 877.924,535.168 878.805,534.561 879.686,533.504 880.567,532.001 881.448,530.057 882.329,527.679 883.209,524.876 884.090,521.658 884.971,518.036 885.852,514.023 886.733,509.634 887.614,504.885 888.494,499.792 889.375,494.375 890.256,488.652 891.137,482.644 892.018,476.373 892.899,469.861 893.779,463.132 894.660,456.210 895.541,449.119 896.422,441.886 897.303,434.537 898.184,427.097 899.064,419.594 899.945,412.055 900.826,404.507 901.707,396.976 902.588,389.490 903.469,382.077 904.349,374.762 905.230,367.572 906.111,360.533 906.992,353.671 907.873,347.009 908.754,340.572 909.634,334.383 910.515,328.464 911.396,322.837 912.277,317.522 913.158,312.538 914.039,307.903 914.919,303.633 915.800,299.745 916.681,296.251 917.562,293.165 918.443,290.498 919.324,288.258 920.204,286.456 921.085,285.096 921.966,284.183 922.847,283.722 923.728,283.713 924.609,284.157 925.489,285.052 926.370,286.395 927.251,288.181 928.132,290.404 929.013,293.055 929.894,296.125 930.774,299.603 931.655,303.477 932.536,307.732 933.417,312.354 934.298,317.325 935.179,322.628 936.059,328.243 936.940,334.151 937.821,340.330 938.702,346.758 939.583,353.412 940.464,360.267 941.344,367.300 942.225,374.484 943.106,381.795 943.987,389.205 944.868,396.688 945.749,404.218 946.629,411.766 947.510,419.306 948.391,426.811 949.272,434.254 950.153,441.607 951.034,448.845 951.914,455.941 952.795,462.870 953.676,469.607 954.557,476.128 955.438,482.409 956.319,488.427 957.199,494.161 958.080,499.591 958.961,504.696 959.842,509.459 960.723,513.862 961.604,517.889 962.484,521.527 963.365,524.761 964.246,527.580 965.127,529.974 966.008,531.935 966.889,533.455 967.769,534.529 968.650,535.153 969.531,535.324 970.412,535.043 971.293,534.310 972.174,533.128 973.054,531.501 973.935,529.434 974.816,526.936 975.697,524.016 976.578,520.683 977.459,516.950 978.339,512.831 979.220,508.339 980.101,503.492 980.982,498.306 981.863,492.801 982.744,486.996 983.624,480.912 984.505,474.571 985.386,467.996 986.267,461.210 987.148,454.238 988.029,447.106 988.909,439.837 989.790,432.460 990.671,425.000 991.552,417.484 992.433,409.939 993.314,402.393 994.194,394.873 995.075,387.404 995.956,380.016 996.837,372.733 997.718,365.583 998.599,358.591 999.479,351.782 1000.360,345.181 1001.241,338.811 1002.122,332.696 1003.003,326.857 1003.884,321.315 1004.764,316.091 1005.645,311.203 1006.526,306.669 1007.407,302.504 1008.288,298.725 1009.169,295.345 1010.049,292.375 1010.930,289.826 1011.811,287.709 1012.692,286.030 1013.573,284.795 1014.454,284.008 1015.334,283.674 1016.215,283.792 1017.096,284.363 1017.977,285.384 1018.858,286.851 1019.739,288.760 1020.619,291.104 1021.500,293.874 1022.381,297.059 1023.262,300.650 1024.143,304.632 1025.024,308.991 1025.904,313.712 1026.785,318.778 1027.666,324.171 1028.547,329.870 1029.428,335.856 1030.309,342.107 1031.189,348.601 1032.070,355.314 1032.951,362.221 1033.832,369.299 1034.713,376.522 1035.594,383.863 1036.474,391.296 1037.355,398.795 1038.236,406.332 1039.117,413.881 1039.998,421.414 1040.879,428.904 "
         id="polyline7484"
         style="fill:none;stroke:#0000ff;stroke-width:1pt;stroke-dasharray:none" />
      <g
         id="g7486" />
    </g>
    <g
       id="ID000027"
       clip-path="url(#ID000025)">
      <polyline
         points="601.343,535.328 602.224,535.327 603.105,535.326 603.985,535.322 604.866,535.313 605.747,535.298 606.628,535.274 607.509,535.236 608.390,535.181 609.270,535.105 610.151,535.003 611.032,534.870 611.913,534.700 612.794,534.488 613.675,534.227 614.555,533.910 615.436,533.532 616.317,533.085 617.198,532.562 618.079,531.957 618.960,531.261 619.840,530.467 620.721,529.569 621.602,528.558 622.483,527.429 623.364,526.173 624.245,524.784 625.125,523.256 626.006,521.581 626.887,519.755 627.768,517.771 628.649,515.624 629.530,513.310 630.410,510.824 631.291,508.162 632.172,505.321 633.053,502.298 633.934,499.092 634.815,495.700 635.695,492.122 636.576,488.358 637.457,484.408 638.338,480.274 639.219,475.958 640.100,471.463 640.980,466.793 641.861,461.951 642.742,456.943 643.623,451.775 644.504,446.453 645.385,440.985 646.265,435.380 647.146,429.646 648.027,423.793 648.908,417.831 649.789,411.772 650.670,405.626 651.550,399.407 652.431,393.127 653.312,386.800 654.193,380.440 655.074,374.061 655.955,367.678 656.835,361.307 657.716,354.963 658.597,348.662 659.478,342.419 660.359,336.253 661.240,330.178 662.120,324.212 663.001,318.371 663.882,312.671 664.763,307.130 665.644,301.763 666.525,296.585 667.405,291.614 668.286,286.864 669.167,282.351 670.048,278.088 670.929,274.091 671.810,270.371 672.690,266.943 673.571,263.818 674.452,261.008 675.333,258.524 676.214,256.374 677.095,254.569 677.975,253.116 678.856,252.022 679.737,251.294 680.618,250.936 681.499,250.952 682.380,251.346 683.260,252.119 684.141,253.271 685.022,254.803 685.903,256.713 686.784,258.998 687.665,261.654 688.545,264.676 689.426,268.058 690.307,271.793 691.188,275.871 692.069,280.284 692.950,285.020 693.830,290.068 694.711,295.416 695.592,301.048 696.473,306.950 697.354,313.107 698.235,319.502 699.115,326.117 699.996,332.934 700.877,339.933 701.758,347.096 702.639,354.402 703.520,361.829 704.400,369.356 705.281,376.962 706.162,384.624 707.043,392.320 707.924,400.026 708.805,407.720 709.685,415.379 710.566,422.980 711.447,430.499 712.328,437.915 713.209,445.204 714.090,452.345 714.970,459.314 715.851,466.091 716.732,472.656 717.613,478.986 718.494,485.064 719.375,490.869 720.255,496.384 721.136,501.591 722.017,506.475 722.898,511.018 723.779,515.208 724.660,519.031 725.540,522.475 726.421,525.528 727.302,528.181 728.183,530.426 729.064,532.255 729.945,533.663 730.825,534.644 731.706,535.196 732.587,535.317 733.468,535.007 734.349,534.266 735.230,533.097 736.110,531.503 736.991,529.491 737.872,527.066 738.753,524.237 739.634,521.013 740.515,517.403 741.395,513.421 742.276,509.080 743.157,504.393 744.038,499.376 744.919,494.046 745.800,488.420 746.680,482.518 747.561,476.358 748.442,469.961 749.323,463.349 750.204,456.543 751.085,449.566 751.965,442.443 752.846,435.195 753.727,427.848 754.608,420.427 755.489,412.956 756.370,405.460 757.250,397.965 758.131,390.495 759.012,383.077 759.893,375.735 760.774,368.494 761.655,361.379 762.535,354.413 763.416,347.620 764.297,341.024 765.178,334.647 766.059,328.510 766.940,322.635 767.820,317.041 768.701,311.748 769.582,306.773 770.463,302.135 771.344,297.849 772.225,293.929 773.105,290.389 773.986,287.242 774.867,284.498 775.748,282.167 776.629,280.257 777.510,278.775 778.390,277.726 779.271,277.115 780.152,276.942 781.033,277.210 781.914,277.917 782.795,279.061 783.675,280.639 784.556,282.645 785.437,285.073 786.318,287.915 787.199,291.162 788.080,294.801 788.960,298.822 789.841,303.210 790.722,307.951 791.603,313.028 792.484,318.425 793.365,324.123 794.245,330.103 795.126,336.344 796.007,342.825 796.888,349.524 797.769,356.418 798.650,363.483 799.530,370.695 800.411,378.031 801.292,385.463 802.173,392.967 803.054,400.518 803.935,408.089 804.815,415.653 805.696,423.187 806.577,430.662 807.458,438.054 808.339,445.336 809.220,452.485 810.100,459.475 810.981,466.282 811.862,472.883 812.743,479.255 813.624,485.376 814.505,491.224 815.385,496.780 816.266,502.023 817.147,506.938 818.028,511.505 818.909,515.709 819.790,519.536 820.670,522.973 821.551,526.007 822.432,528.627 823.313,530.826 824.194,532.595 825.075,533.928 825.955,534.821 826.836,535.270 827.717,535.274 828.598,534.832 829.479,533.947 830.359,532.621 831.240,530.860 832.121,528.668 833.002,526.054 833.883,523.027 834.764,519.598 835.644,515.778 836.525,511.580 837.406,507.021 838.287,502.114 839.168,496.878 840.049,491.330 840.929,485.491 841.810,479.380 842.691,473.019 843.572,466.430 844.453,459.636 845.334,452.661 846.214,445.530 847.095,438.266 847.976,430.897 848.857,423.447 849.738,415.942 850.619,408.410 851.499,400.876 852.380,393.366 853.261,385.908 854.142,378.527 855.023,371.249 855.904,364.099 856.784,357.104 857.665,350.287 858.546,343.672 859.427,337.282 860.308,331.141 861.189,325.270 862.069,319.688 862.950,314.417 863.831,309.474 864.712,304.877 865.593,300.642 866.474,296.784 867.354,293.317 868.235,290.253 869.116,287.602 869.997,285.374 870.878,283.578 871.759,282.219 872.639,281.302 873.520,280.831 874.401,280.806 875.282,281.230 876.163,282.099 877.044,283.411 877.924,285.162 878.805,287.345 879.686,289.953 880.567,292.976 881.448,296.405 882.329,300.226 883.209,304.427 884.090,308.993 884.971,313.908 885.852,319.154 886.733,324.714 887.614,330.567 888.494,336.694 889.375,343.072 890.256,349.679 891.137,356.491 892.018,363.486 892.899,370.638 893.779,377.922 894.660,385.312 895.541,392.783 896.422,400.308 897.303,407.860 898.184,415.414 899.064,422.941 899.945,430.417 900.826,437.813 901.707,445.105 902.588,452.267 903.469,459.273 904.349,466.099 905.230,472.720 906.111,479.113 906.992,485.255 907.873,491.126 908.754,496.704 909.634,501.969 910.515,506.903 911.396,511.488 912.277,515.708 913.158,519.549 914.039,522.997 914.919,526.039 915.800,528.664 916.681,530.865 917.562,532.632 918.443,533.959 919.324,534.842 920.204,535.278 921.085,535.265 921.966,534.803 922.847,533.893 923.728,532.540 924.609,530.748 925.489,528.522 926.370,525.872 927.251,522.806 928.132,519.335 929.013,515.472 929.894,511.230 930.774,506.624 931.655,501.671 932.536,496.388 933.417,490.794 934.298,484.908 935.179,478.752 936.059,472.348 936.940,465.717 937.821,458.884 938.702,451.872 939.583,444.708 940.464,437.415 941.344,430.020 942.225,422.550 943.106,415.030 943.987,407.487 944.868,399.949 945.749,392.441 946.629,384.991 947.510,377.625 948.391,370.369 949.272,363.249 950.153,356.290 951.034,349.517 951.914,342.953 952.795,336.623 953.676,330.549 954.557,324.752 955.438,319.253 956.319,314.071 957.199,309.225 958.080,304.732 958.961,300.609 959.842,296.869 960.723,293.526 961.604,290.592 962.484,288.077 963.365,285.991 964.246,284.341 965.127,283.132 966.008,282.369 966.889,282.056 967.769,282.191 968.650,282.777 969.531,283.810 970.412,285.286 971.293,287.201 972.174,289.548 973.054,292.318 973.935,295.502 974.816,299.088 975.697,303.063 976.578,307.415 977.459,312.126 978.339,317.180 979.220,322.560 980.101,328.246 980.982,334.219 981.863,340.456 982.744,346.935 983.624,353.635 984.505,360.530 985.386,367.597 986.267,374.809 987.148,382.143 988.029,389.571 988.909,397.067 989.790,404.604 990.671,412.156 991.552,419.696 992.433,427.197 993.314,434.632 994.194,441.975 995.075,449.200 995.956,456.280 996.837,463.192 997.718,469.909 998.599,476.409 999.479,482.668 1000.360,488.664 1001.241,494.376 1002.122,499.783 1003.003,504.866 1003.884,509.606 1004.764,513.988 1005.645,517.995 1006.526,521.614 1007.407,524.830 1008.288,527.633 1009.169,530.013 1010.049,531.962 1010.930,533.472 1011.811,534.538 1012.692,535.156 1013.573,535.324 1014.454,535.042 1015.334,534.310 1016.215,533.131 1017.096,531.509 1017.977,529.450 1018.858,526.962 1019.739,524.053 1020.619,520.733 1021.500,517.015 1022.381,512.912 1023.262,508.437 1024.143,503.608 1025.024,498.442 1025.904,492.956 1026.785,487.171 1027.666,481.107 1028.547,474.786 1029.428,468.230 1030.309,461.462 1031.189,454.507 1032.070,447.390 1032.951,440.136 1033.832,432.770 1034.713,425.320 1035.594,417.811 1036.474,410.270 1037.355,402.725 1038.236,395.202 1039.117,387.728 1039.998,380.330 1040.879,373.034 "
         id="polyline7489"
         style="fill:none;stroke:#007f00;stroke-width:1pt;stroke-dasharray:none" />
      <g
         id="g7491" />
    </g>
    <g
       id="ID000028"
       clip-path="url(#ID000025)">
      <polyline
         points="601.343,535.328 602.224,535.328 603.105,535.328 603.985,535.328 604.866,535.328 605.747,535.328 606.628,535.327 607.509,535.327 608.390,535.327 609.270,535.327 610.151,535.326 611.032,535.325 611.913,535.324 612.794,535.322 613.675,535.319 614.555,535.314 615.436,535.309 616.317,535.301 617.198,535.291 618.079,535.278 618.960,535.262 619.840,535.241 620.721,535.215 621.602,535.183 622.483,535.144 623.364,535.097 624.245,535.040 625.125,534.973 626.006,534.893 626.887,534.799 627.768,534.689 628.649,534.561 629.530,534.413 630.410,534.243 631.291,534.049 632.172,533.827 633.053,533.576 633.934,533.292 634.815,532.973 635.695,532.615 636.576,532.215 637.457,531.771 638.338,531.277 639.219,530.731 640.100,530.129 640.980,529.467 641.861,528.742 642.742,527.949 643.623,527.084 644.504,526.144 645.385,525.124 646.265,524.020 647.146,522.828 648.027,521.544 648.908,520.164 649.789,518.683 650.670,517.098 651.550,515.406 652.431,513.601 653.312,511.680 654.193,509.641 655.074,507.479 655.955,505.191 656.835,502.775 657.716,500.228 658.597,497.546 659.478,494.729 660.359,491.774 661.240,488.679 662.120,485.443 663.001,482.065 663.882,478.544 664.763,474.881 665.644,471.075 666.525,467.127 667.405,463.038 668.286,458.809 669.167,454.443 670.048,449.940 670.929,445.306 671.810,440.542 672.690,435.652 673.571,430.640 674.452,425.513 675.333,420.273 676.214,414.928 677.095,409.484 677.975,403.946 678.856,398.323 679.737,392.622 680.618,386.852 681.499,381.019 682.380,375.135 683.260,369.208 684.141,363.248 685.022,357.265 685.903,351.271 686.784,345.275 687.665,339.289 688.545,333.325 689.426,327.395 690.307,321.510 691.188,315.683 692.069,309.927 692.950,304.254 693.830,298.677 694.711,293.209 695.592,287.863 696.473,282.650 697.354,277.585 698.235,272.681 699.115,267.949 699.996,263.402 700.877,259.052 701.758,254.912 702.639,250.994 703.520,247.308 704.400,243.866 705.281,240.679 706.162,237.756 707.043,235.108 707.924,232.744 708.805,230.672 709.685,228.901 710.566,227.438 711.447,226.290 712.328,225.463 713.209,224.962 714.090,224.792 714.970,224.958 715.851,225.461 716.732,226.305 717.613,227.490 718.494,229.018 719.375,230.887 720.255,233.097 721.136,235.646 722.017,238.530 722.898,241.745 723.779,245.288 724.660,249.150 725.540,253.327 726.421,257.811 727.302,262.592 728.183,267.662 729.064,273.010 729.945,278.625 730.825,284.495 731.706,290.608 732.587,296.949 733.468,303.505 734.349,310.261 735.230,317.201 736.110,324.308 736.991,331.566 737.872,338.957 738.753,346.463 739.634,354.067 740.515,361.748 741.395,369.487 742.276,377.266 743.157,385.064 744.038,392.861 744.919,400.637 745.800,408.373 746.680,416.046 747.561,423.639 748.442,431.129 749.323,438.497 750.204,445.724 751.085,452.790 751.965,459.675 752.846,466.362 753.727,472.831 754.608,479.064 755.489,485.045 756.370,490.757 757.250,496.184 758.131,501.311 759.012,506.123 759.893,510.606 760.774,514.749 761.655,518.538 762.535,521.964 763.416,525.017 764.297,527.687 765.178,529.967 766.059,531.850 766.940,533.331 767.820,534.406 768.701,535.071 769.582,535.325 770.463,535.166 771.344,534.596 772.225,533.615 773.105,532.227 773.986,530.437 774.867,528.248 775.748,525.668 776.629,522.705 777.510,519.367 778.390,515.665 779.271,511.610 780.152,507.213 781.033,502.489 781.914,497.452 782.795,492.116 783.675,486.500 784.556,480.618 785.437,474.491 786.318,468.136 787.199,461.573 788.080,454.822 788.960,447.905 789.841,440.843 790.722,433.657 791.603,426.371 792.484,419.006 793.365,411.586 794.245,404.134 795.126,396.674 796.007,389.229 796.888,381.823 797.769,374.478 798.650,367.218 799.530,360.067 800.411,353.046 801.292,346.179 802.173,339.486 803.054,332.990 803.935,326.712 804.815,320.671 805.696,314.887 806.577,309.379 807.458,304.164 808.339,299.259 809.220,294.681 810.100,290.444 810.981,286.562 811.862,283.048 812.743,279.913 813.624,277.169 814.505,274.823 815.385,272.885 816.266,271.360 817.147,270.254 818.028,269.571 818.909,269.314 819.790,269.484 820.670,270.080 821.551,271.101 822.432,272.545 823.313,274.407 824.194,276.681 825.075,279.361 825.955,282.437 826.836,285.902 827.717,289.743 828.598,293.949 829.479,298.506 830.359,303.401 831.240,308.616 832.121,314.137 833.002,319.944 833.883,326.020 834.764,332.345 835.644,338.898 836.525,345.660 837.406,352.606 838.287,359.716 839.168,366.966 840.049,374.333 840.929,381.793 841.810,389.321 842.691,396.894 843.572,404.485 844.453,412.071 845.334,419.627 846.214,427.128 847.095,434.550 847.976,441.868 848.857,449.058 849.738,456.097 850.619,462.961 851.499,469.628 852.380,476.076 853.261,482.284 854.142,488.231 855.023,493.898 855.904,499.266 856.784,504.317 857.665,509.034 858.546,513.402 859.427,517.407 860.308,521.035 861.189,524.274 862.069,527.113 862.950,529.543 863.831,531.555 864.712,533.144 865.593,534.304 866.474,535.030 867.354,535.321 868.235,535.176 869.116,534.595 869.997,533.580 870.878,532.134 871.759,530.262 872.639,527.971 873.520,525.267 874.401,522.162 875.282,518.663 876.163,514.784 877.044,510.538 877.924,505.938 878.805,501.000 879.686,495.741 880.567,490.178 881.448,484.331 882.329,478.218 883.209,471.861 884.090,465.280 884.971,458.499 885.852,451.540 886.733,444.426 887.614,437.181 888.494,429.831 889.375,422.400 890.256,414.912 891.137,407.394 892.018,399.871 892.899,392.368 893.779,384.912 894.660,377.526 895.541,370.236 896.422,363.068 897.303,356.045 898.184,349.191 899.064,342.530 899.945,336.085 900.826,329.876 901.707,323.926 902.588,318.255 903.469,312.882 904.349,307.826 905.230,303.104 906.111,298.731 906.992,294.724 907.873,291.095 908.754,287.858 909.634,285.023 910.515,282.601 911.396,280.599 912.277,279.024 913.158,277.883 914.039,277.179 914.919,276.914 915.800,277.091 916.681,277.707 917.562,278.762 918.443,280.251 919.324,282.170 920.204,284.513 921.085,287.271 921.966,290.435 922.847,293.995 923.728,297.939 924.609,302.252 925.489,306.921 926.370,311.930 927.251,317.261 928.132,322.896 929.013,328.817 929.894,335.003 930.774,341.432 931.655,348.084 932.536,354.935 933.417,361.961 934.298,369.140 935.179,376.445 936.059,383.853 936.940,391.338 937.821,398.874 938.702,406.436 939.583,413.996 940.464,421.531 941.344,429.013 942.225,436.417 943.106,443.718 943.987,450.890 944.868,457.910 945.749,464.751 946.629,471.393 947.510,477.810 948.391,483.982 949.272,489.887 950.153,495.505 951.034,500.816 951.914,505.802 952.795,510.446 953.676,514.732 954.557,518.645 955.438,522.172 956.319,525.301 957.199,528.020 958.080,530.320 958.961,532.194 959.842,533.634 960.723,534.637 961.604,535.198 962.484,535.315 963.365,534.989 964.246,534.220 965.127,533.011 966.008,531.365 966.889,529.290 967.769,526.792 968.650,523.879 969.531,520.562 970.412,516.852 971.293,512.762 972.174,508.306 973.054,503.500 973.935,498.361 974.816,492.905 975.697,487.153 976.578,481.123 977.459,474.838 978.339,468.318 979.220,461.586 980.101,454.667 980.982,447.583 981.863,440.359 982.744,433.021 983.624,425.594 984.505,418.103 985.386,410.576 986.267,403.038 987.148,395.514 988.029,388.033 988.909,380.618 989.790,373.297 990.671,366.095 991.552,359.036 992.433,352.146 993.314,345.449 994.194,338.967 995.075,332.723 995.956,326.740 996.837,321.038 997.718,315.637 998.599,310.555 999.479,305.811 1000.360,301.421 1001.241,297.401 1002.122,293.764 1003.003,290.523 1003.884,287.690 1004.764,285.275 1005.645,283.285 1006.526,281.729 1007.407,280.611 1008.288,279.935 1009.169,279.705 1010.049,279.920 1010.930,280.580 1011.811,281.683 1012.692,283.225 1013.573,285.201 1014.454,287.604 1015.334,290.425 1016.215,293.655 1017.096,297.282 1017.977,301.294 1018.858,305.678 1019.739,310.417 1020.619,315.495 1021.500,320.895 1022.381,326.597 1023.262,332.582 1024.143,338.829 1025.024,345.317 1025.904,352.021 1026.785,358.920 1027.666,365.989 1028.547,373.204 1029.428,380.538 1030.309,387.967 1031.189,395.465 1032.070,403.005 1032.951,410.561 1033.832,418.107 1034.713,425.616 1035.594,433.061 1036.474,440.418 1037.355,447.660 1038.236,454.762 1039.117,461.699 1039.998,468.447 1040.879,474.981 "
         id="polyline7494"
         style="fill:none;stroke:#ff0000;stroke-width:1pt;stroke-dasharray:none" />
      <g
         id="g7496" />
    </g>
    <g
       id="ID000029">
      <g
         transform="translate(776.16,580.547)"
         id="g7499">
        <g
           id="g7501">
          <text
             x="0"
             y="0"
             font-size="14pt"
             id="text7503"
             style="font-size:17.5px;text-anchor:middle;fill:#000000;font-family:Helvetica">$\rho$</text>
        </g>
      </g>
    </g>
    <g
       id="ID000030" />
    <g
       id="ID000031" />
    <g
       id="ID000032" />
    <g
       id="ID000033" />
    <polyline
       points="600.462,535.328 600.462,538.851 "
       id="polyline7511"
       style="fill:none;stroke:#000000;stroke-width:1.3pt;stroke-dasharray:none" />
    <polyline
       points="659.184,535.328 659.184,538.851 "
       id="polyline7513"
       style="fill:none;stroke:#000000;stroke-width:1.3pt;stroke-dasharray:none" />
    <polyline
       points="717.906,535.328 717.906,538.851 "
       id="polyline7515"
       style="fill:none;stroke:#000000;stroke-width:1.3pt;stroke-dasharray:none" />
    <polyline
       points="776.629,535.328 776.629,538.851 "
       id="polyline7517"
       style="fill:none;stroke:#000000;stroke-width:1.3pt;stroke-dasharray:none" />
    <polyline
       points="835.351,535.328 835.351,538.851 "
       id="polyline7519"
       style="fill:none;stroke:#000000;stroke-width:1.3pt;stroke-dasharray:none" />
    <polyline
       points="894.073,535.328 894.073,538.851 "
       id="polyline7521"
       style="fill:none;stroke:#000000;stroke-width:1.3pt;stroke-dasharray:none" />
    <polyline
       points="952.795,535.328 952.795,538.851 "
       id="polyline7523"
       style="fill:none;stroke:#000000;stroke-width:1.3pt;stroke-dasharray:none" />
    <polyline
       points="600.462,535.328 952.795,535.328 "
       id="polyline7525"
       style="fill:none;stroke:#000000;stroke-width:1.3pt;stroke-dasharray:none" />
    <polyline
       points="600.462,182.994 600.462,179.471 "
       id="polyline7527"
       style="fill:none;stroke:#000000;stroke-width:1.3pt;stroke-dasharray:none" />
    <polyline
       points="659.184,182.994 659.184,179.471 "
       id="polyline7529"
       style="fill:none;stroke:#000000;stroke-width:1.3pt;stroke-dasharray:none" />
    <polyline
       points="717.906,182.994 717.906,179.471 "
       id="polyline7531"
       style="fill:none;stroke:#000000;stroke-width:1.3pt;stroke-dasharray:none" />
    <polyline
       points="776.629,182.994 776.629,179.471 "
       id="polyline7533"
       style="fill:none;stroke:#000000;stroke-width:1.3pt;stroke-dasharray:none" />
    <polyline
       points="835.351,182.994 835.351,179.471 "
       id="polyline7535"
       style="fill:none;stroke:#000000;stroke-width:1.3pt;stroke-dasharray:none" />
    <polyline
       points="894.073,182.994 894.073,179.471 "
       id="polyline7537"
       style="fill:none;stroke:#000000;stroke-width:1.3pt;stroke-dasharray:none" />
    <polyline
       points="952.795,182.994 952.795,179.471 "
       id="polyline7539"
       style="fill:none;stroke:#000000;stroke-width:1.3pt;stroke-dasharray:none" />
    <polyline
       points="600.462,182.994 952.795,182.994 "
       id="polyline7541"
       style="fill:none;stroke:#000000;stroke-width:1.3pt;stroke-dasharray:none" />
    <g
       transform="translate(600.462,562.491)"
       id="g7543">
      <g
         id="g7545">
        <text
           x="0"
           y="0"
           font-size="14pt"
           id="text7547"
           style="font-size:17.5px;text-anchor:middle;fill:#000000;font-family:Helvetica">0</text>
      </g>
    </g>
    <g
       transform="translate(659.184,562.491)"
       id="g7549">
      <g
         id="g7551">
        <text
           x="0"
           y="0"
           font-size="14pt"
           id="text7553"
           style="font-size:17.5px;text-anchor:middle;fill:#000000;font-family:Helvetica">2</text>
      </g>
    </g>
    <g
       transform="translate(717.906,562.491)"
       id="g7555">
      <g
         id="g7557">
        <text
           x="0"
           y="0"
           font-size="14pt"
           id="text7559"
           style="font-size:17.5px;text-anchor:middle;fill:#000000;font-family:Helvetica">4</text>
      </g>
    </g>
    <g
       transform="translate(776.629,562.491)"
       id="g7561">
      <g
         id="g7563">
        <text
           x="0"
           y="0"
           font-size="14pt"
           id="text7565"
           style="font-size:17.5px;text-anchor:middle;fill:#000000;font-family:Helvetica">6</text>
      </g>
    </g>
    <g
       transform="translate(835.351,562.491)"
       id="g7567">
      <g
         id="g7569">
        <text
           x="0"
           y="0"
           font-size="14pt"
           id="text7571"
           style="font-size:17.5px;text-anchor:middle;fill:#000000;font-family:Helvetica">8</text>
      </g>
    </g>
    <g
       transform="translate(894.073,562.491)"
       id="g7573">
      <g
         id="g7575">
        <text
           x="0"
           y="0"
           font-size="14pt"
           id="text7577"
           style="font-size:17.5px;text-anchor:middle;fill:#000000;font-family:Helvetica">10</text>
      </g>
    </g>
    <g
       transform="translate(952.795,562.491)"
       id="g7579">
      <g
         id="g7581">
        <text
           x="0"
           y="0"
           font-size="14pt"
           id="text7583"
           style="font-size:17.5px;text-anchor:middle;fill:#000000;font-family:Helvetica">12</text>
      </g>
    </g>
    <polyline
       points="600.462,535.328 594.395,535.328 "
       id="polyline7585"
       style="fill:none;stroke:#000000;stroke-width:1.3pt;stroke-dasharray:none" />
    <polyline
       points="600.462,484.994 594.395,484.994 "
       id="polyline7587"
       style="fill:none;stroke:#000000;stroke-width:1.3pt;stroke-dasharray:none" />
    <polyline
       points="600.462,434.661 594.395,434.661 "
       id="polyline7589"
       style="fill:none;stroke:#000000;stroke-width:1.3pt;stroke-dasharray:none" />
    <polyline
       points="600.462,384.328 594.395,384.328 "
       id="polyline7591"
       style="fill:none;stroke:#000000;stroke-width:1.3pt;stroke-dasharray:none" />
    <polyline
       points="600.462,333.994 594.395,333.994 "
       id="polyline7593"
       style="fill:none;stroke:#000000;stroke-width:1.3pt;stroke-dasharray:none" />
    <polyline
       points="600.462,283.661 594.395,283.661 "
       id="polyline7595"
       style="fill:none;stroke:#000000;stroke-width:1.3pt;stroke-dasharray:none" />
    <polyline
       points="600.462,233.328 594.395,233.328 "
       id="polyline7597"
       style="fill:none;stroke:#000000;stroke-width:1.3pt;stroke-dasharray:none" />
    <polyline
       points="600.462,182.994 594.395,182.994 "
       id="polyline7599"
       style="fill:none;stroke:#000000;stroke-width:1.3pt;stroke-dasharray:none" />
    <polyline
       points="600.462,535.328 600.462,182.994 "
       id="polyline7601"
       style="fill:none;stroke:#000000;stroke-width:1.3pt;stroke-dasharray:none" />
    <polyline
       points="952.795,535.328 958.862,535.328 "
       id="polyline7603"
       style="fill:none;stroke:#000000;stroke-width:1.3pt;stroke-dasharray:none" />
    <polyline
       points="952.795,484.994 958.862,484.994 "
       id="polyline7605"
       style="fill:none;stroke:#000000;stroke-width:1.3pt;stroke-dasharray:none" />
    <polyline
       points="952.795,434.661 958.862,434.661 "
       id="polyline7607"
       style="fill:none;stroke:#000000;stroke-width:1.3pt;stroke-dasharray:none" />
    <polyline
       points="952.795,384.328 958.862,384.328 "
       id="polyline7609"
       style="fill:none;stroke:#000000;stroke-width:1.3pt;stroke-dasharray:none" />
    <polyline
       points="952.795,333.994 958.862,333.994 "
       id="polyline7611"
       style="fill:none;stroke:#000000;stroke-width:1.3pt;stroke-dasharray:none" />
    <polyline
       points="952.795,283.661 958.862,283.661 "
       id="polyline7613"
       style="fill:none;stroke:#000000;stroke-width:1.3pt;stroke-dasharray:none" />
    <polyline
       points="952.795,233.328 958.862,233.328 "
       id="polyline7615"
       style="fill:none;stroke:#000000;stroke-width:1.3pt;stroke-dasharray:none" />
    <polyline
       points="952.795,182.994 958.862,182.994 "
       id="polyline7617"
       style="fill:none;stroke:#000000;stroke-width:1.3pt;stroke-dasharray:none" />
    <polyline
       points="952.795,535.328 952.795,182.994 "
       id="polyline7619"
       style="fill:none;stroke:#000000;stroke-width:1.3pt;stroke-dasharray:none" />
    <g
       transform="translate(589.892,541.656)"
       id="g7621">
      <g
         id="g7623">
        <text
           x="0"
           y="0"
           font-size="14pt"
           id="text7625"
           style="font-size:17.5px;text-anchor:end;fill:#000000;font-family:Helvetica">0</text>
      </g>
    </g>
    <g
       transform="translate(589.892,491.322)"
       id="g7627">
      <g
         id="g7629">
        <text
           x="0"
           y="0"
           font-size="14pt"
           id="text7631"
           style="font-size:17.5px;text-anchor:end;fill:#000000;font-family:Helvetica">0.2</text>
      </g>
    </g>
    <g
       transform="translate(589.892,440.989)"
       id="g7633">
      <g
         id="g7635">
        <text
           x="0"
           y="0"
           font-size="14pt"
           id="text7637"
           style="font-size:17.5px;text-anchor:end;fill:#000000;font-family:Helvetica">0.4</text>
      </g>
    </g>
    <g
       transform="translate(589.892,390.656)"
       id="g7639">
      <g
         id="g7641">
        <text
           x="0"
           y="0"
           font-size="14pt"
           id="text7643"
           style="font-size:17.5px;text-anchor:end;fill:#000000;font-family:Helvetica">0.6</text>
      </g>
    </g>
    <g
       transform="translate(589.892,340.322)"
       id="g7645">
      <g
         id="g7647">
        <text
           x="0"
           y="0"
           font-size="14pt"
           id="text7649"
           style="font-size:17.5px;text-anchor:end;fill:#000000;font-family:Helvetica">0.8</text>
      </g>
    </g>
    <g
       transform="translate(589.892,289.989)"
       id="g7651">
      <g
         id="g7653">
        <text
           x="0"
           y="0"
           font-size="14pt"
           id="text7655"
           style="font-size:17.5px;text-anchor:end;fill:#000000;font-family:Helvetica">1</text>
      </g>
    </g>
    <g
       transform="translate(589.892,239.656)"
       id="g7657">
      <g
         id="g7659">
        <text
           x="0"
           y="0"
           font-size="14pt"
           id="text7661"
           style="font-size:17.5px;text-anchor:end;fill:#000000;font-family:Helvetica">1.2</text>
      </g>
    </g>
    <g
       transform="translate(589.892,189.322)"
       id="g7663">
      <g
         id="g7665">
        <text
           x="0"
           y="0"
           font-size="14pt"
           id="text7667"
           style="font-size:17.5px;text-anchor:end;fill:#000000;font-family:Helvetica">1.4</text>
      </g>
    </g>
    <polyline
       points="600.462,535.328 600.462,538.851 "
       id="polyline7669"
       style="fill:none;stroke:#000000;stroke-width:1.3pt;stroke-dasharray:none" />
    <polyline
       points="600.462,535.328 600.462,538.851 "
       id="polyline7671"
       style="fill:none;stroke:#000000;stroke-width:1.3pt;stroke-dasharray:none" />
    <polyline
       points="600.462,535.328 600.462,538.851 "
       id="polyline7673"
       style="fill:none;stroke:#000000;stroke-width:1.3pt;stroke-dasharray:none" />
    <polyline
       points="600.462,535.328 600.462,535.328 "
       id="polyline7675"
       style="fill:none;stroke:#000000;stroke-width:1.3pt;stroke-dasharray:none" />
    <polygon
       style="fill:#ffffff;fill-opacity:1;stroke:none"
       id="polygon7683"
       points="947.187,189.531 747.5,189.531 747.5,189.531 947.187,189.531 " />
    <g
       id="g7692"
       transform="translate(796.719,210.332)">
      <text
         x="0"
         y="0"
         font-size="14pt"
         id="text7694"
         style="font-size:17.5px;font-family:Helvetica;text-anchor:start;fill:#000000">$\rho^2 j_0^2(\rho)$</text>
    </g>
    <polyline
       style="fill:none;stroke:#0000ff;stroke-width:1pt;stroke-dasharray:none"
       id="polyline7697"
       points="755.000,203.750 792.500,203.750 " />
    <g
       id="g7707"
       transform="translate(796.719,235.541)">
      <text
         x="0"
         y="0"
         font-size="14pt"
         id="text7709"
         style="font-size:17.5px;font-family:Helvetica;text-anchor:start;fill:#000000">$\rho^2 j_1^2(\rho)$</text>
    </g>
    <polyline
       style="fill:none;stroke:#007f00;stroke-width:1pt;stroke-dasharray:none"
       id="polyline7712"
       points="755.000,227.813 792.500,227.813 " />
    <g
       id="g7722"
       transform="translate(796.719,259.817)">
      <text
         x="0"
         y="0"
         font-size="14pt"
         id="text7724"
         style="font-size:17.5px;font-family:Helvetica;text-anchor:start;fill:#000000">$\rho^2 j_2^2(\rho)$</text>
    </g>
    <polyline
       style="fill:none;stroke:#ff0000;stroke-width:1pt;stroke-dasharray:none"
       id="polyline7727"
       points="755.000,251.875 792.500,251.875 " />
    <g
       transform="translate(-231.05523,-424.61027)"
       id="ID000005-1">
      <text
         x="312.564"
         y="580.547"
         font-size="14pt"
         id="text7219-0"
         style="font-size:17.5px;text-anchor:middle;fill:#000000;font-family:Helvetica">(a)</text>
      <text
         style="font-size:17.5px;text-anchor:middle;fill:#000000;font-family:Helvetica"
         id="text8392"
         font-size="14pt"
         y="580.547"
         x="781.94666">(b)</text>
    </g>
  </g>
</svg>
