<?xml version="1.0" encoding="UTF-8" standalone="no"?>
<svg
   xmlns:dc="http://purl.org/dc/elements/1.1/"
   xmlns:cc="http://creativecommons.org/ns#"
   xmlns:rdf="http://www.w3.org/1999/02/22-rdf-syntax-ns#"
   xmlns:svg="http://www.w3.org/2000/svg"
   xmlns="http://www.w3.org/2000/svg"
   xmlns:sodipodi="http://sodipodi.sourceforge.net/DTD/sodipodi-0.dtd"
   xmlns:inkscape="http://www.inkscape.org/namespaces/inkscape"
   preserveAspectRatio="xMinYMin meet"
   width="100%"
   height="100%"
   viewBox="0 0 833.438 680.625"
   version="1.1"
   id="svg3361"
   inkscape:version="0.48.4 r9939"
   sodipodi:docname="Gruson_vs_Kaldun.pdf">
  <metadata
     id="metadata3735">
    <rdf:RDF>
      <cc:Work
         rdf:about="">
        <dc:format>image/svg+xml</dc:format>
        <dc:type
           rdf:resource="http://purl.org/dc/dcmitype/StillImage" />
        <dc:title></dc:title>
      </cc:Work>
    </rdf:RDF>
  </metadata>
  <defs
     id="defs3733">
    <clipPath
       id="ID000015">
      <rect
         x="659.375"
         y="56.875"
         width="90"
         height="148.75"
         id="rect3610" />
    </clipPath>
    <clipPath
       id="ID000001">
      <rect
         x="108.347"
         y="51.047001"
         width="645.914"
         height="554.70898"
         id="rect3370" />
    </clipPath>
  </defs>
  <sodipodi:namedview
     pagecolor="#ffffff"
     bordercolor="#666666"
     borderopacity="1"
     objecttolerance="10"
     gridtolerance="10"
     guidetolerance="10"
     inkscape:pageopacity="0"
     inkscape:pageshadow="2"
     inkscape:window-width="1680"
     inkscape:window-height="988"
     id="namedview3731"
     showgrid="false"
     inkscape:zoom="0.8009981"
     inkscape:cx="136.09176"
     inkscape:cy="387.7407"
     inkscape:window-x="-8"
     inkscape:window-y="-8"
     inkscape:window-maximized="1"
     inkscape:current-layer="svg3361" />
  <desc
     id="desc3363">Matlab Figure Converted by PLOT2SVG written by Juerg Schwizer</desc>
  <polygon
     points="108.347,605.756 754.261,605.756 754.261,605.756 108.347,605.756 "
     id="polygon3374"
     style="fill:#ffffff;fill-opacity:1;stroke:none" />
  <polygon
     points="108.347,605.756 108.347,605.756 108.347,51.047 108.347,51.047 "
     id="polygon3376"
     style="fill:#ffffff;fill-opacity:1;stroke:none" />
  <g
     id="g3378">
    <g
       id="ID000002"
       clip-path="url(#ID000001)">
      <polyline
         points="-150.601,482.488 -148.323,482.488 -146.046,482.488 -143.768,482.488 -141.491,482.488 -139.213,482.488 -136.936,482.488 -134.658,482.488 -132.381,482.488 -130.103,482.488 -127.826,482.488 -125.548,482.488 -123.270,482.488 -120.993,482.488 -118.715,482.488 -116.438,482.488 -114.160,482.488 -111.883,482.488 -109.605,482.488 -107.328,482.488 -105.050,482.488 -102.773,482.488 -100.495,482.488 -98.218,482.488 -95.940,482.488 -93.663,482.488 -91.385,482.488 -89.108,482.488 -86.830,482.488 -84.553,482.488 -82.275,482.488 -79.998,482.488 -77.720,482.488 -75.443,482.488 -73.165,482.488 -70.888,482.488 -68.610,482.488 -66.333,482.488 -64.055,482.488 -61.778,482.488 -59.500,482.488 -57.223,482.488 -54.945,482.488 -52.668,482.488 -50.390,482.488 -48.113,482.488 -45.835,482.488 -43.558,482.488 -41.280,482.488 -39.003,482.488 -36.725,482.488 -34.447,482.488 -32.170,482.488 -29.892,482.488 -27.615,482.488 -25.337,482.488 -23.060,482.488 -20.782,482.488 -18.505,482.488 -16.227,482.488 -13.950,482.488 -11.672,482.488 -9.395,482.488 -7.117,482.488 -4.840,482.488 -2.562,482.488 -0.285,482.488 1.993,482.488 4.270,482.488 6.548,482.488 8.825,482.488 11.103,482.488 13.380,482.488 15.658,482.488 17.935,482.488 20.213,482.488 22.490,482.488 24.768,482.488 27.045,482.488 29.323,482.488 31.600,482.488 33.878,482.488 36.155,482.488 38.433,482.488 40.710,482.488 42.988,482.488 45.265,482.488 47.543,482.488 49.820,482.488 52.098,482.488 54.376,482.488 56.653,482.488 58.931,482.488 61.208,482.488 63.486,482.488 65.763,482.488 68.041,482.488 70.318,482.488 72.596,482.488 74.873,482.488 77.151,482.488 79.428,482.488 81.706,482.488 83.983,482.488 86.261,482.488 88.538,482.488 90.816,482.488 93.093,482.488 95.371,482.488 97.648,482.488 99.926,482.488 102.203,482.488 104.481,482.488 106.758,482.488 109.036,482.488 111.313,482.488 113.591,482.488 115.868,482.488 118.146,482.488 120.423,482.488 122.701,482.488 124.978,482.488 127.256,482.488 129.533,482.488 131.811,482.488 134.088,482.488 136.366,482.488 138.643,482.488 140.921,482.488 143.199,482.488 145.476,482.488 147.754,482.488 150.031,482.488 152.309,482.488 154.586,482.488 156.864,482.488 159.141,482.488 161.419,482.488 163.696,482.488 165.974,482.488 168.251,482.488 170.529,482.488 172.806,482.488 175.084,482.488 177.361,482.488 179.639,482.488 181.916,482.488 184.194,482.488 186.471,482.488 188.749,482.488 191.026,482.488 193.304,482.488 195.581,482.488 197.859,482.488 200.136,482.488 202.414,482.488 204.691,482.488 206.969,482.488 209.246,482.488 211.524,482.488 213.801,482.488 216.079,482.488 218.356,482.488 220.634,482.488 222.911,482.488 225.189,482.488 227.466,482.488 229.744,482.488 232.022,482.488 234.299,482.488 236.577,482.488 238.854,482.488 241.132,482.488 243.409,482.488 245.687,482.488 247.964,482.488 250.242,482.488 252.519,482.488 254.797,482.488 257.074,482.488 259.352,482.488 261.629,482.488 263.907,482.488 266.184,482.488 268.462,482.488 270.739,482.488 273.017,482.488 275.294,482.488 277.572,482.488 279.849,482.488 282.127,482.488 284.404,482.488 286.682,482.488 288.959,482.488 291.237,482.488 293.514,482.488 295.792,482.488 298.069,482.488 300.347,482.488 302.624,482.488 304.902,482.488 307.179,482.488 309.457,482.488 311.734,482.488 314.012,482.488 316.290,482.488 318.567,482.488 320.845,482.488 323.122,482.488 325.400,482.488 327.677,482.488 329.955,482.488 332.232,482.488 334.510,482.488 336.787,482.488 339.065,482.488 341.342,482.488 343.620,482.488 345.897,482.488 348.175,482.488 350.452,482.488 352.730,482.488 355.007,482.488 357.285,482.488 359.562,482.488 361.840,482.488 364.117,482.488 366.395,482.488 368.672,482.488 370.950,482.488 373.227,482.488 375.505,482.488 377.782,482.488 380.060,482.488 382.337,482.488 384.615,482.488 386.892,482.488 389.170,482.488 391.447,482.488 393.725,482.488 396.002,482.488 398.280,482.488 400.557,482.488 402.835,482.488 405.113,482.488 407.390,482.488 409.668,482.488 411.945,482.488 414.223,482.488 416.500,482.488 418.778,482.488 421.055,482.488 423.333,482.488 425.610,482.488 427.888,482.488 430.165,482.488 432.443,482.488 434.720,482.488 436.998,482.488 439.275,482.488 441.553,482.488 443.830,482.488 446.108,482.488 448.385,482.488 450.663,482.488 452.940,482.488 455.218,482.488 457.495,482.488 459.773,482.488 462.050,482.488 464.328,482.488 466.605,482.488 468.883,482.488 471.160,482.488 473.438,482.488 475.715,482.488 477.993,482.488 480.270,482.488 482.548,482.488 484.825,482.488 487.103,482.488 489.380,482.488 491.658,482.488 493.936,482.488 496.213,482.488 498.491,482.488 500.768,482.488 503.046,482.488 505.323,482.488 507.601,482.488 509.878,482.488 512.156,482.488 514.433,482.488 516.711,482.488 518.988,482.488 521.266,482.488 523.543,482.488 525.821,482.488 528.098,482.488 530.376,482.488 532.653,482.488 534.931,482.488 537.208,482.488 539.486,482.488 541.763,482.488 544.041,482.488 546.318,482.488 548.596,482.488 550.873,482.488 553.151,482.488 555.428,482.488 557.706,482.488 559.983,482.488 562.261,482.488 564.538,482.488 566.816,482.488 569.093,482.488 571.371,482.488 573.648,482.488 575.926,482.488 578.203,482.488 580.481,482.488 582.759,482.488 585.036,482.488 587.314,482.488 589.591,482.488 591.869,482.488 594.146,482.488 596.424,482.488 598.701,482.488 600.979,482.488 603.256,482.488 605.534,482.488 607.811,482.488 610.089,482.488 612.366,482.488 614.644,482.488 616.921,482.488 619.199,482.488 621.476,482.488 623.754,482.488 626.031,482.488 628.309,482.488 630.586,482.488 632.864,482.488 635.141,482.488 637.419,482.488 639.696,482.488 641.974,482.488 644.251,482.488 646.529,482.488 648.806,482.488 651.084,482.488 653.361,482.488 655.639,482.488 657.916,482.488 660.194,482.488 662.471,482.488 664.749,482.488 667.026,482.488 669.304,482.488 671.582,482.488 673.859,482.488 676.137,482.488 678.414,482.488 680.692,482.488 682.969,482.488 685.247,482.488 687.524,482.488 689.802,482.488 692.079,482.488 694.357,482.488 696.634,482.488 698.912,482.488 701.189,482.488 703.467,482.488 705.744,482.488 708.022,482.488 710.299,482.488 712.577,482.488 714.854,482.488 717.132,482.488 719.409,482.488 721.687,482.488 723.964,482.488 726.242,482.488 728.519,482.488 730.797,482.488 733.074,482.488 735.352,482.488 737.629,482.488 739.907,482.488 742.184,482.488 744.462,482.488 746.739,482.488 749.017,482.488 751.294,482.488 753.572,482.488 755.850,482.488 758.127,482.488 760.405,482.488 762.682,482.488 764.960,482.488 767.237,482.488 769.515,482.488 771.792,482.488 774.070,482.488 776.347,482.488 778.625,482.488 780.902,482.488 783.180,482.488 785.457,482.488 787.735,482.488 790.012,482.488 792.290,482.488 794.567,482.488 796.845,482.488 799.122,482.488 801.400,482.488 803.677,482.488 805.955,482.488 808.232,482.488 810.510,482.488 812.787,482.488 815.065,482.488 817.342,482.488 819.620,482.488 821.897,482.488 824.175,482.488 826.452,482.488 828.730,482.488 831.007,482.488 833.285,482.488 835.562,482.488 837.840,482.488 840.117,482.488 842.395,482.488 844.673,482.488 846.950,482.488 849.228,482.488 851.505,482.488 853.783,482.488 856.060,482.488 858.338,482.488 860.615,482.488 862.893,482.488 865.170,482.488 867.448,482.488 869.725,482.488 872.003,482.488 874.280,482.488 876.558,482.488 878.835,482.488 881.113,482.488 883.390,482.488 885.668,482.488 887.945,482.488 890.223,482.488 892.500,482.488 894.778,482.488 897.055,482.488 899.333,482.488 901.610,482.488 903.888,482.488 906.165,482.488 908.443,482.488 910.720,482.488 912.998,482.488 915.275,482.488 917.553,482.488 919.830,482.488 922.108,482.488 924.385,482.488 926.663,482.488 928.940,482.488 931.218,482.488 933.496,482.488 935.773,482.488 938.051,482.488 940.328,482.488 942.606,482.488 944.883,482.488 947.161,482.488 949.438,482.488 951.716,482.488 953.993,482.488 956.271,482.488 958.548,482.488 960.826,482.488 963.103,482.488 965.381,482.488 967.658,482.488 969.936,482.488 972.213,482.488 974.491,482.488 976.768,482.488 979.046,482.488 981.323,482.488 983.601,482.488 985.878,482.488 988.156,482.488 990.433,482.488 992.711,482.488 994.988,482.488 997.266,482.488 999.543,482.488 1001.821,482.488 1004.098,482.488 1006.376,482.488 1008.653,482.488 1010.931,482.488 1013.208,482.488 "
         id="polyline3381"
         style="fill:none;stroke:#a6cee3;stroke-width:2.5pt;stroke-dasharray:none" />
      <g
         id="g3383" />
    </g>
    <g
       id="ID000003"
       clip-path="url(#ID000001)">
      <polyline
         points="-150.601,482.488 -148.323,482.488 -146.046,482.488 -143.768,482.488 -141.491,482.488 -139.213,482.488 -136.936,482.488 -134.658,482.488 -132.381,482.488 -130.103,482.488 -127.826,482.488 -125.548,482.488 -123.270,482.488 -120.993,482.488 -118.715,482.488 -116.438,482.488 -114.160,482.488 -111.883,482.488 -109.605,482.488 -107.328,482.488 -105.050,482.488 -102.773,482.488 -100.495,482.488 -98.218,482.488 -95.940,482.488 -93.663,482.488 -91.385,482.488 -89.108,482.488 -86.830,482.488 -84.553,482.488 -82.275,482.488 -79.998,482.488 -77.720,482.488 -75.443,482.488 -73.165,482.488 -70.888,482.488 -68.610,482.488 -66.333,482.488 -64.055,482.488 -61.778,482.488 -59.500,482.488 -57.223,482.488 -54.945,482.488 -52.668,482.488 -50.390,482.488 -48.113,482.488 -45.835,482.488 -43.558,482.488 -41.280,482.488 -39.003,482.488 -36.725,482.488 -34.447,482.488 -32.170,482.488 -29.892,482.488 -27.615,482.488 -25.337,482.488 -23.060,482.488 -20.782,482.488 -18.505,482.488 -16.227,482.488 -13.950,482.488 -11.672,482.488 -9.395,482.488 -7.117,482.488 -4.840,482.488 -2.562,482.488 -0.285,482.488 1.993,482.488 4.270,482.488 6.548,482.488 8.825,482.488 11.103,482.488 13.380,482.488 15.658,482.488 17.935,482.488 20.213,482.488 22.490,482.488 24.768,482.488 27.045,482.488 29.323,482.488 31.600,482.488 33.878,482.488 36.155,482.488 38.433,482.488 40.710,482.488 42.988,482.488 45.265,482.488 47.543,482.488 49.820,482.488 52.098,482.488 54.376,482.488 56.653,482.488 58.931,482.488 61.208,482.488 63.486,482.488 65.763,482.488 68.041,482.488 70.318,482.488 72.596,482.488 74.873,482.488 77.151,482.488 79.428,482.488 81.706,482.488 83.983,482.488 86.261,482.488 88.538,482.488 90.816,482.488 93.093,482.488 95.371,482.488 97.648,482.488 99.926,482.488 102.203,482.488 104.481,482.488 106.758,482.488 109.036,482.488 111.313,482.488 113.591,482.488 115.868,482.488 118.146,482.488 120.423,482.488 122.701,482.488 124.978,482.488 127.256,482.488 129.533,482.488 131.811,482.488 134.088,482.488 136.366,482.488 138.643,482.488 140.921,482.488 143.199,482.488 145.476,482.488 147.754,482.488 150.031,482.488 152.309,482.488 154.586,482.488 156.864,482.488 159.141,482.488 161.419,482.488 163.696,482.488 165.974,482.488 168.251,482.488 170.529,482.488 172.806,482.488 175.084,482.488 177.361,482.488 179.639,482.488 181.916,482.488 184.194,482.488 186.471,482.488 188.749,482.488 191.026,482.488 193.304,482.488 195.581,482.488 197.859,482.488 200.136,482.488 202.414,482.488 204.691,482.488 206.969,482.488 209.246,482.488 211.524,482.488 213.801,482.488 216.079,482.488 218.356,482.488 220.634,482.488 222.911,482.488 225.189,482.488 227.466,482.488 229.744,482.488 232.022,482.488 234.299,482.488 236.577,482.488 238.854,482.488 241.132,482.488 243.409,482.488 245.687,482.488 247.964,482.488 250.242,482.488 252.519,482.488 254.797,482.488 257.074,482.488 259.352,482.488 261.629,482.488 263.907,482.488 266.184,482.488 268.462,482.488 270.739,482.488 273.017,482.488 275.294,482.488 277.572,482.488 279.849,482.488 282.127,482.488 284.404,482.488 286.682,482.488 288.959,482.488 291.237,482.488 293.514,482.488 295.792,482.488 298.069,482.488 300.347,482.488 302.624,482.488 304.902,482.488 307.179,482.488 309.457,482.488 311.734,482.488 314.012,482.488 316.290,482.488 318.567,482.488 320.845,482.488 323.122,482.488 325.400,482.488 327.677,482.488 329.955,482.488 332.232,482.488 334.510,482.488 336.787,482.488 339.065,482.488 341.342,482.488 343.620,482.488 345.897,482.488 348.175,482.488 350.452,482.488 352.730,482.488 355.007,482.488 357.285,482.488 359.562,482.488 361.840,482.488 364.117,482.488 366.395,482.488 368.672,482.488 370.950,482.488 373.227,482.488 375.505,482.488 377.782,482.488 380.060,482.488 382.337,482.488 384.615,482.488 386.892,482.488 389.170,482.488 391.447,482.488 393.725,482.488 396.002,482.488 398.280,482.488 400.557,482.488 402.835,482.488 405.113,482.488 407.390,482.488 409.668,482.488 411.945,482.488 414.223,482.488 416.500,482.488 418.778,482.488 421.055,482.488 423.333,482.488 425.610,482.488 427.888,482.488 430.165,482.488 432.443,482.488 434.720,482.488 436.998,482.488 439.275,482.488 441.553,482.488 443.830,482.488 446.108,482.488 448.385,482.488 450.663,482.488 452.940,482.488 455.218,482.488 457.495,482.488 459.773,482.488 462.050,482.488 464.328,482.488 466.605,482.488 468.883,482.488 471.160,482.488 473.438,482.488 475.715,482.488 477.993,482.488 480.270,482.488 482.548,482.488 484.825,482.488 487.103,482.488 489.380,482.488 491.658,482.488 493.936,482.488 496.213,482.488 498.491,482.488 500.768,482.488 503.046,482.488 505.323,482.488 507.601,482.488 509.878,482.488 512.156,482.488 514.433,482.488 516.711,482.488 518.988,482.488 521.266,482.488 523.543,482.488 525.821,482.488 528.098,482.488 530.376,482.488 532.653,482.488 534.931,482.488 537.208,482.488 539.486,482.488 541.763,482.488 544.041,482.488 546.318,482.488 548.596,482.488 550.873,482.488 553.151,482.488 555.428,482.488 557.706,482.488 559.983,482.488 562.261,482.488 564.538,482.488 566.816,482.488 569.093,482.488 571.371,482.488 573.648,482.488 575.926,482.488 578.203,482.488 580.481,482.488 582.759,482.488 585.036,482.488 587.314,482.488 589.591,482.488 591.869,482.488 594.146,482.488 596.424,482.488 598.701,482.488 600.979,482.488 603.256,482.488 605.534,482.488 607.811,482.488 610.089,482.488 612.366,482.488 614.644,482.488 616.921,482.488 619.199,482.488 621.476,482.488 623.754,482.488 626.031,482.488 628.309,482.488 630.586,482.488 632.864,482.488 635.141,482.488 637.419,482.488 639.696,482.488 641.974,482.488 644.251,482.488 646.529,482.488 648.806,482.488 651.084,482.488 653.361,482.488 655.639,482.488 657.916,482.488 660.194,482.488 662.471,482.488 664.749,482.488 667.026,482.488 669.304,482.488 671.582,482.488 673.859,482.488 676.137,482.488 678.414,482.488 680.692,482.488 682.969,482.488 685.247,482.488 687.524,482.488 689.802,482.488 692.079,482.488 694.357,482.488 696.634,482.488 698.912,482.488 701.189,482.488 703.467,482.488 705.744,482.488 708.022,482.488 710.299,482.488 712.577,482.488 714.854,482.488 717.132,482.488 719.409,482.488 721.687,482.488 723.964,482.488 726.242,482.488 728.519,482.488 730.797,482.488 733.074,482.488 735.352,482.488 737.629,482.488 739.907,482.488 742.184,482.488 744.462,482.488 746.739,482.488 749.017,482.488 751.294,482.488 753.572,482.488 755.850,482.488 758.127,482.488 760.405,482.488 762.682,482.488 764.960,482.488 767.237,482.488 769.515,482.488 771.792,482.488 774.070,482.488 776.347,482.488 778.625,482.488 780.902,482.488 783.180,482.488 785.457,482.488 787.735,482.488 790.012,482.488 792.290,482.488 794.567,482.488 796.845,482.488 799.122,482.488 801.400,482.488 803.677,482.488 805.955,482.488 808.232,482.488 810.510,482.488 812.787,482.488 815.065,482.488 817.342,482.488 819.620,482.488 821.897,482.488 824.175,482.488 826.452,482.488 828.730,482.488 831.007,482.488 833.285,482.488 835.562,482.488 837.840,482.488 840.117,482.488 842.395,482.488 844.673,482.488 846.950,482.488 849.228,482.488 851.505,482.488 853.783,482.488 856.060,482.488 858.338,482.488 860.615,482.488 862.893,482.488 865.170,482.488 867.448,482.488 869.725,482.488 872.003,482.488 874.280,482.488 876.558,482.488 878.835,482.488 881.113,482.488 883.390,482.488 885.668,482.488 887.945,482.488 890.223,482.488 892.500,482.488 894.778,482.488 897.055,482.488 899.333,482.488 901.610,482.488 903.888,482.488 906.165,482.488 908.443,482.488 910.720,482.488 912.998,482.488 915.275,482.488 917.553,482.488 919.830,482.488 922.108,482.488 924.385,482.488 926.663,482.488 928.940,482.488 931.218,482.488 933.496,482.488 935.773,482.488 938.051,482.488 940.328,482.488 942.606,482.488 944.883,482.488 947.161,482.488 949.438,482.488 951.716,482.488 953.993,482.488 956.271,482.488 958.548,482.488 960.826,482.488 963.103,482.488 965.381,482.488 967.658,482.488 969.936,482.488 972.213,482.488 974.491,482.488 976.768,482.488 979.046,482.488 981.323,482.488 983.601,482.488 985.878,482.488 988.156,482.488 990.433,482.488 992.711,482.488 994.988,482.488 997.266,482.488 999.543,482.488 1001.821,482.488 1004.098,482.488 1006.376,482.488 1008.653,482.488 1010.931,482.488 1013.208,482.488 "
         id="polyline3386"
         style="fill:none;stroke:#1f78b4;stroke-width:2.5pt;stroke-dasharray:none" />
      <g
         id="g3388" />
    </g>
    <g
       id="ID000004"
       clip-path="url(#ID000001)">
      <polyline
         points="-150.601,479.472 -148.323,479.380 -146.046,479.211 -143.768,478.968 -141.491,478.656 -139.213,478.280 -136.936,477.846 -134.658,477.365 -132.381,476.844 -130.103,476.296 -127.826,475.730 -125.548,475.159 -123.270,474.595 -120.993,474.050 -118.715,473.535 -116.438,473.061 -114.160,472.638 -111.883,472.276 -109.605,471.983 -107.328,471.764 -105.050,471.625 -102.773,471.568 -100.495,471.596 -98.218,471.707 -95.940,471.899 -93.663,472.168 -91.385,472.508 -89.108,472.911 -86.830,473.369 -84.553,473.871 -82.275,474.405 -79.998,474.959 -77.720,475.521 -75.443,476.078 -73.165,476.615 -70.888,477.122 -68.610,477.584 -66.333,477.991 -64.055,478.332 -61.778,478.599 -59.500,478.784 -57.223,478.881 -54.945,478.887 -52.668,478.799 -50.390,478.618 -48.113,478.346 -45.835,477.987 -43.558,477.547 -41.280,477.035 -39.003,476.460 -36.725,475.833 -34.447,475.167 -32.170,474.475 -29.892,473.771 -27.615,473.070 -25.337,472.386 -23.060,471.734 -20.782,471.127 -18.505,470.579 -16.227,470.100 -13.950,469.702 -11.672,469.394 -9.395,469.181 -7.117,469.068 -4.840,469.059 -2.562,469.154 -0.285,469.350 1.993,469.643 4.270,470.027 6.548,470.494 8.825,471.032 11.103,471.630 13.380,472.273 15.658,472.948 17.935,473.639 20.213,474.328 22.490,475.000 24.768,475.639 27.045,476.229 29.323,476.754 31.600,477.202 33.878,477.560 36.155,477.818 38.433,477.968 40.710,478.003 42.988,477.921 45.265,477.720 47.543,477.401 49.820,476.970 52.098,476.433 54.376,475.798 56.653,475.078 58.931,474.285 61.208,473.434 63.486,472.543 65.763,471.629 68.041,470.710 70.318,469.805 72.596,468.933 74.873,468.112 77.151,467.358 79.428,466.689 81.706,466.118 83.983,465.658 86.261,465.319 88.538,465.108 90.816,465.030 93.093,465.087 95.371,465.278 97.648,465.598 99.926,466.042 102.203,466.599 104.481,467.257 106.758,468.000 109.036,468.812 111.313,469.674 113.591,470.565 115.868,471.464 118.146,472.351 120.423,473.201 122.701,473.995 124.978,474.712 127.256,475.332 129.533,475.838 131.811,476.214 134.088,476.448 136.366,476.530 138.643,476.453 140.921,476.214 143.199,475.813 145.476,475.253 147.754,474.542 150.031,473.690 152.309,472.710 154.586,471.620 156.864,470.438 159.141,469.187 161.419,467.890 163.696,466.572 165.974,465.259 168.251,463.976 170.529,462.750 172.806,461.607 175.084,460.568 177.361,459.657 179.639,458.894 181.916,458.293 184.194,457.869 186.471,457.631 188.749,457.585 191.026,457.732 193.304,458.069 195.581,458.590 197.859,459.283 200.136,460.132 202.414,461.119 204.691,462.221 206.969,463.411 209.246,464.662 211.524,465.943 213.801,467.221 216.079,468.466 218.356,469.643 220.634,470.720 222.911,471.666 225.189,472.453 227.466,473.054 229.744,473.446 232.022,473.610 234.299,473.531 236.577,473.198 238.854,472.608 241.132,471.759 243.409,470.657 245.687,469.315 247.964,467.748 250.242,465.977 252.519,464.030 254.797,461.937 257.074,459.733 259.352,457.455 261.629,455.145 263.907,452.844 266.184,450.595 268.462,448.440 270.739,446.423 273.017,444.583 275.294,442.958 277.572,441.580 279.849,440.481 282.127,439.683 284.404,439.205 286.682,439.059 288.959,439.250 291.237,439.774 293.514,440.622 295.792,441.776 298.069,443.210 300.347,444.893 302.624,446.785 304.902,448.839 307.179,451.004 309.457,453.223 311.734,455.435 314.012,457.575 316.290,459.577 318.567,461.374 320.845,462.899 323.122,464.086 325.400,464.873 327.677,465.201 329.955,465.016 332.232,464.270 334.510,462.925 336.787,460.947 339.065,458.316 341.342,455.017 343.620,451.049 345.897,446.421 348.175,441.152 350.452,435.272 352.730,428.824 355.007,421.859 357.285,414.439 359.562,406.635 361.840,398.528 364.117,390.205 366.395,381.759 368.672,373.290 370.950,364.899 373.227,356.692 375.505,348.773 377.782,341.246 380.060,334.215 382.337,327.776 384.615,322.023 386.892,317.040 389.170,312.907 391.447,309.689 393.725,307.446 396.002,306.222 398.280,306.053 400.557,306.958 402.835,308.946 405.113,312.012 407.390,316.136 409.668,321.287 411.945,327.419 414.223,334.477 416.500,342.393 418.778,351.088 421.055,360.475 423.333,370.459 425.610,380.938 427.888,391.804 430.165,402.949 432.443,414.258 434.720,425.620 436.998,436.923 439.275,448.059 441.553,458.922 443.830,469.414 446.108,479.444 448.385,488.928 450.663,497.791 452.940,505.969 455.218,513.409 457.495,520.069 459.773,525.917 462.050,530.936 464.328,535.117 466.605,538.467 468.883,541.000 471.160,542.744 473.438,543.733 475.715,544.014 477.993,543.640 480.270,542.670 482.548,541.171 484.825,539.212 487.103,536.867 489.380,534.211 491.658,531.320 493.936,528.269 496.213,525.131 498.491,521.977 500.768,518.872 503.046,515.877 505.323,513.047 507.601,510.431 509.878,508.068 512.156,505.993 514.433,504.232 516.711,502.801 518.988,501.709 521.266,500.960 523.543,500.546 525.821,500.455 528.098,500.667 530.376,501.157 532.653,501.896 534.931,502.847 537.208,503.974 539.486,505.236 541.763,506.591 544.041,507.997 546.318,509.413 548.596,510.796 550.873,512.108 553.151,513.314 555.428,514.381 557.706,515.280 559.983,515.989 562.261,516.487 564.538,516.762 566.816,516.804 569.093,516.612 571.371,516.188 573.648,515.538 575.926,514.677 578.203,513.619 580.481,512.387 582.759,511.004 585.036,509.498 587.314,507.897 589.591,506.233 591.869,504.538 594.146,502.843 596.424,501.179 598.701,499.576 600.979,498.063 603.256,496.665 605.534,495.405 607.811,494.303 610.089,493.375 612.366,492.633 614.644,492.084 616.921,491.733 619.199,491.578 621.476,491.615 623.754,491.835 626.031,492.226 628.309,492.772 630.586,493.455 632.864,494.253 635.141,495.143 637.419,496.100 639.696,497.100 641.974,498.115 644.251,499.120 646.529,500.091 648.806,501.002 651.084,501.833 653.361,502.563 655.639,503.176 657.916,503.656 660.194,503.992 662.471,504.177 664.749,504.206 667.026,504.078 669.304,503.796 671.582,503.366 673.859,502.796 676.137,502.099 678.414,501.289 680.692,500.382 682.969,499.399 685.247,498.358 687.524,497.280 689.802,496.188 692.079,495.103 694.357,494.046 696.634,493.038 698.912,492.096 701.189,491.240 703.467,490.483 705.744,489.838 708.022,489.317 710.299,488.926 712.577,488.670 714.854,488.550 717.132,488.566 719.409,488.713 721.687,488.984 723.964,489.370 726.242,489.858 728.519,490.435 730.797,491.085 733.074,491.791 735.352,492.536 737.629,493.300 739.907,494.065 742.184,494.813 744.462,495.525 746.739,496.186 749.017,496.779 751.294,497.292 753.572,497.711 755.850,498.028 758.127,498.236 760.405,498.329 762.682,498.306 764.960,498.167 767.237,497.915 769.515,497.555 771.792,497.096 774.070,496.546 776.347,495.918 778.625,495.225 780.902,494.481 783.180,493.702 785.457,492.904 787.735,492.103 790.012,491.316 792.290,490.558 794.567,489.844 796.845,489.188 799.122,488.603 801.400,488.099 803.677,487.685 805.955,487.368 808.232,487.152 810.510,487.041 812.787,487.034 815.065,487.128 817.342,487.321 819.620,487.605 821.897,487.971 824.175,488.411 826.452,488.913 828.730,489.463 831.007,490.048 833.285,490.655 835.562,491.268 837.840,491.873 840.117,492.456 842.395,493.003 844.673,493.502 846.950,493.941 849.228,494.310 851.505,494.601 853.783,494.808 856.060,494.925 858.338,494.950 860.615,494.883 862.893,494.725 865.170,494.480 867.448,494.152 869.725,493.749 872.003,493.280 874.280,492.754 876.558,492.182 878.835,491.578 881.113,490.953 883.390,490.320 885.668,489.693 887.945,489.085 890.223,488.507 892.500,487.972 894.778,487.489 897.055,487.069 899.333,486.718 901.610,486.444 903.888,486.251 906.165,486.141 908.443,486.116 910.720,486.174 912.998,486.313 915.275,486.529 917.553,486.814 919.830,487.162 922.108,487.564 924.385,488.009 926.663,488.487 928.940,488.987 931.218,489.496 933.496,490.003 935.773,490.495 938.051,490.963 940.328,491.394 942.606,491.779 944.883,492.109 947.161,492.377 949.438,492.578 951.716,492.705 953.993,492.757 956.271,492.733 958.548,492.633 960.826,492.458 963.103,492.214 965.381,491.905 967.658,491.537 969.936,491.120 972.213,490.662 974.491,490.172 976.768,489.661 979.046,489.139 981.323,488.619 983.601,488.110 985.878,487.623 988.156,487.168 990.433,486.755 992.711,486.390 994.988,486.082 997.266,485.836 999.543,485.657 1001.821,485.547 1004.098,485.509 1006.376,485.540 1008.653,485.641 1010.931,485.807 1013.208,486.034 "
         id="polyline3391"
         style="fill:none;stroke:#b2df8a;stroke-width:2.5pt;stroke-dasharray:none" />
      <g
         id="g3393" />
    </g>
    <g
       id="ID000005"
       clip-path="url(#ID000001)">
      <polyline
         points="-150.601,478.143 -148.323,478.760 -146.046,479.320 -143.768,479.810 -141.491,480.220 -139.213,480.537 -136.936,480.754 -134.658,480.865 -132.381,480.865 -130.103,480.754 -127.826,480.532 -125.548,480.202 -123.270,479.771 -120.993,479.246 -118.715,478.638 -116.438,477.958 -114.160,477.221 -111.883,476.442 -109.605,475.637 -107.328,474.822 -105.050,474.016 -102.773,473.235 -100.495,472.496 -98.218,471.815 -95.940,471.208 -93.663,470.687 -91.385,470.264 -89.108,469.948 -86.830,469.747 -84.553,469.666 -82.275,469.706 -79.998,469.868 -77.720,470.147 -75.443,470.538 -73.165,471.033 -70.888,471.621 -68.610,472.288 -66.333,473.020 -64.055,473.802 -61.778,474.614 -59.500,475.439 -57.223,476.257 -54.945,477.050 -52.668,477.799 -50.390,478.486 -48.113,479.095 -45.835,479.610 -43.558,480.019 -41.280,480.310 -39.003,480.475 -36.725,480.508 -34.447,480.406 -32.170,480.170 -29.892,479.802 -27.615,479.309 -25.337,478.698 -23.060,477.982 -20.782,477.174 -18.505,476.290 -16.227,475.348 -13.950,474.368 -11.672,473.369 -9.395,472.373 -7.117,471.400 -4.840,470.472 -2.562,469.609 -0.285,468.828 1.993,468.148 4.270,467.583 6.548,467.146 8.825,466.847 11.103,466.693 13.380,466.688 15.658,466.833 17.935,467.124 20.213,467.556 22.490,468.120 24.768,468.803 27.045,469.591 29.323,470.466 31.600,471.408 33.878,472.397 36.155,473.409 38.433,474.421 40.710,475.409 42.988,476.351 45.265,477.223 47.543,478.003 49.820,478.673 52.098,479.214 54.376,479.612 56.653,479.855 58.931,479.933 61.208,479.843 63.486,479.582 65.763,479.152 68.041,478.560 70.318,477.815 72.596,476.930 74.873,475.921 77.151,474.808 79.428,473.612 81.706,472.357 83.983,471.069 86.261,469.773 88.538,468.498 90.816,467.269 93.093,466.114 95.371,465.056 97.648,464.119 99.926,463.323 102.203,462.687 104.481,462.224 106.758,461.946 109.036,461.859 111.313,461.966 113.591,462.266 115.868,462.753 118.146,463.416 120.423,464.242 122.701,465.213 124.978,466.306 127.256,467.498 129.533,468.762 131.811,470.068 134.088,471.385 136.366,472.683 138.643,473.930 140.921,475.095 143.199,476.149 145.476,477.065 147.754,477.816 150.031,478.382 152.309,478.743 154.586,478.888 156.864,478.804 159.141,478.489 161.419,477.943 163.696,477.170 165.974,476.182 168.251,474.993 170.529,473.624 172.806,472.099 175.084,470.445 177.361,468.695 179.639,466.881 181.916,465.041 184.194,463.210 186.471,461.427 188.749,459.728 191.026,458.150 193.304,456.726 195.581,455.487 197.859,454.461 200.136,453.670 202.414,453.134 204.691,452.865 206.969,452.871 209.246,453.152 211.524,453.706 213.801,454.520 216.079,455.577 218.356,456.856 220.634,458.327 222.911,459.958 225.189,461.711 227.466,463.545 229.744,465.416 232.022,467.278 234.299,469.085 236.577,470.789 238.854,472.346 241.132,473.710 243.409,474.841 245.687,475.702 247.964,476.262 250.242,476.493 252.519,476.377 254.797,475.899 257.074,475.054 259.352,473.845 261.629,472.281 263.907,470.379 266.184,468.165 268.462,465.672 270.739,462.939 273.017,460.012 275.294,456.940 277.572,453.781 279.849,450.591 282.127,447.432 284.404,444.365 286.682,441.451 288.959,438.750 291.237,436.318 293.514,434.207 295.792,432.464 298.069,431.126 300.347,430.228 302.624,429.790 304.902,429.827 307.179,430.342 309.457,431.325 311.734,432.759 314.012,434.613 316.290,436.846 318.567,439.408 320.845,442.237 323.122,445.261 325.400,448.404 327.677,451.578 329.955,454.694 332.232,457.655 334.510,460.365 336.787,462.725 339.065,464.639 341.342,466.010 343.620,466.752 345.897,466.779 348.175,466.018 350.452,464.405 352.730,461.885 355.007,458.418 357.285,453.978 359.562,448.553 361.840,442.148 364.117,434.783 366.395,426.493 368.672,417.333 370.950,407.371 373.227,396.692 375.505,385.393 377.782,373.588 380.060,361.401 382.337,348.965 384.615,336.425 386.892,323.930 389.170,311.635 391.447,299.695 393.725,288.268 396.002,277.508 398.280,267.564 400.557,258.578 402.835,250.685 405.113,244.005 407.390,238.649 409.668,234.708 411.945,232.262 414.223,231.368 416.500,232.067 418.778,234.380 421.055,238.307 423.333,243.830 425.610,250.906 427.888,259.478 430.165,269.467 432.443,280.777 434.720,293.294 436.998,306.892 439.275,321.429 441.553,336.754 443.830,352.706 446.108,369.118 448.385,385.818 450.663,402.633 452.940,419.391 455.218,435.922 457.495,452.062 459.773,467.655 462.050,482.555 464.328,496.628 466.605,509.752 468.883,521.823 471.160,532.750 473.438,542.462 475.715,550.904 477.993,558.043 480.270,563.859 482.548,568.357 484.825,571.554 487.103,573.487 489.380,574.211 491.658,573.792 493.936,572.312 496.213,569.865 498.491,566.555 500.768,562.492 503.046,557.796 505.323,552.587 507.601,546.990 509.878,541.129 512.156,535.126 514.433,529.098 516.711,523.159 518.988,517.412 521.266,511.953 523.543,506.869 525.821,502.233 528.098,498.108 530.376,494.543 532.653,491.574 534.931,489.224 537.208,487.504 539.486,486.411 541.763,485.929 544.041,486.031 546.318,486.682 548.596,487.834 550.873,489.432 553.151,491.416 555.428,493.718 557.706,496.269 559.983,498.994 562.261,501.822 564.538,504.678 566.816,507.492 569.093,510.198 571.371,512.733 573.648,515.039 575.926,517.069 578.203,518.779 580.481,520.136 582.759,521.114 585.036,521.698 587.314,521.880 589.591,521.662 591.869,521.054 594.146,520.075 596.424,518.749 598.701,517.111 600.979,515.198 603.256,513.054 605.534,510.726 607.811,508.265 610.089,505.722 612.366,503.149 614.644,500.598 616.921,498.120 619.199,495.761 621.476,493.566 623.754,491.573 626.031,489.817 628.309,488.326 630.586,487.123 632.864,486.222 635.141,485.633 637.419,485.358 639.696,485.391 641.974,485.722 644.251,486.333 646.529,487.202 648.806,488.300 651.084,489.596 653.361,491.054 655.639,492.635 657.916,494.300 660.194,496.007 662.471,497.715 664.749,499.384 667.026,500.975 669.304,502.453 671.582,503.784 673.859,504.940 676.137,505.895 678.414,506.630 680.692,507.130 682.969,507.386 685.247,507.395 687.524,507.157 689.802,506.681 692.079,505.977 694.357,505.063 696.634,503.961 698.912,502.695 701.189,501.292 703.467,499.785 705.744,498.204 708.022,496.584 710.299,494.959 712.577,493.362 714.854,491.824 717.132,490.378 719.409,489.050 721.687,487.865 723.964,486.847 726.242,486.011 728.519,485.372 730.797,484.939 733.074,484.715 735.352,484.702 737.629,484.894 739.907,485.282 742.184,485.854 744.462,486.591 746.739,487.475 749.017,488.481 751.294,489.584 753.572,490.758 755.850,491.974 758.127,493.203 760.405,494.417 762.682,495.587 764.960,496.687 767.237,497.693 769.515,498.582 771.792,499.335 774.070,499.936 776.347,500.373 778.625,500.635 780.902,500.719 783.180,500.624 785.457,500.353 787.735,499.912 790.012,499.312 792.290,498.567 794.567,497.694 796.845,496.711 799.122,495.641 801.400,494.507 803.677,493.334 805.955,492.145 808.232,490.966 810.510,489.822 812.787,488.736 815.065,487.730 817.342,486.824 819.620,486.035 821.897,485.378 824.175,484.865 826.452,484.504 828.730,484.300 831.007,484.255 833.285,484.367 835.562,484.631 837.840,485.037 840.117,485.576 842.395,486.231 844.673,486.987 846.950,487.825 849.228,488.725 851.505,489.665 853.783,490.623 856.060,491.577 858.338,492.506 860.615,493.388 862.893,494.204 865.170,494.935 867.448,495.565 869.725,496.081 872.003,496.472 874.280,496.729 876.558,496.847 878.835,496.825 881.113,496.664 883.390,496.367 885.668,495.941 887.945,495.396 890.223,494.746 892.500,494.003 894.778,493.184 897.055,492.308 899.333,491.393 901.610,490.459 903.888,489.526 906.165,488.613 908.443,487.740 910.720,486.924 912.998,486.182 915.275,485.529 917.553,484.977 919.830,484.538 922.108,484.218 924.385,484.024 926.663,483.957 928.940,484.016 931.218,484.200 933.496,484.502 935.773,484.913 938.051,485.423 940.328,486.019 942.606,486.687 944.883,487.411 947.161,488.173 949.438,488.956 951.716,489.742 953.993,490.513 956.271,491.252 958.548,491.941 960.826,492.567 963.103,493.114 965.381,493.571 967.658,493.929 969.936,494.178 972.213,494.316 974.491,494.337 976.768,494.244 979.046,494.037 981.323,493.722 983.601,493.306 985.878,492.799 988.156,492.211 990.433,491.556 992.711,490.848 994.988,490.103 997.266,489.337 999.543,488.565 1001.821,487.805 1004.098,487.072 1006.376,486.382 1008.653,485.749 1010.931,485.187 1013.208,484.705 "
         id="polyline3396"
         style="fill:none;stroke:#33a02c;stroke-width:2.5pt;stroke-dasharray:none" />
      <g
         id="g3398" />
    </g>
    <g
       id="ID000006"
       clip-path="url(#ID000001)">
      <polyline
         points="-150.601,477.724 -148.323,477.723 -146.046,477.571 -143.768,477.276 -141.491,476.862 -139.213,476.361 -136.936,475.814 -134.658,475.266 -132.381,474.764 -130.103,474.350 -127.826,474.058 -125.548,473.912 -123.270,473.925 -120.993,474.094 -118.715,474.402 -116.438,474.822 -114.160,475.315 -111.883,475.836 -109.605,476.336 -107.328,476.768 -105.050,477.092 -102.773,477.274 -100.495,477.296 -98.218,477.151 -95.940,476.847 -93.663,476.407 -91.385,475.866 -89.108,475.267 -86.830,474.660 -84.553,474.096 -82.275,473.621 -79.998,473.275 -77.720,473.087 -75.443,473.072 -73.165,473.230 -70.888,473.546 -68.610,473.990 -66.333,474.521 -64.055,475.091 -61.778,475.646 -59.500,476.134 -57.223,476.508 -54.945,476.731 -52.668,476.779 -50.390,476.642 -48.113,476.327 -45.835,475.857 -43.558,475.268 -41.280,474.607 -39.003,473.929 -36.725,473.289 -34.447,472.741 -32.170,472.329 -29.892,472.089 -27.615,472.040 -25.337,472.184 -23.060,472.507 -20.782,472.978 -18.505,473.554 -16.227,474.182 -13.950,474.802 -11.672,475.356 -9.395,475.791 -7.117,476.063 -4.840,476.142 -2.562,476.015 -0.285,475.687 1.993,475.180 4.270,474.532 6.548,473.795 8.825,473.029 11.103,472.295 13.380,471.655 15.658,471.162 17.935,470.857 20.213,470.763 22.490,470.887 24.768,471.217 27.045,471.720 29.323,472.349 31.600,473.047 33.878,473.747 36.155,474.383 38.433,474.892 40.710,475.224 42.988,475.341 45.265,475.226 47.543,474.881 49.820,474.326 52.098,473.605 54.376,472.771 56.653,471.892 58.931,471.040 61.208,470.283 63.486,469.685 65.763,469.293 68.041,469.141 70.318,469.237 72.596,469.572 74.873,470.112 77.151,470.808 79.428,471.592 81.706,472.391 83.983,473.129 86.261,473.732 88.538,474.140 90.816,474.305 93.093,474.204 95.371,473.835 97.648,473.219 99.926,472.400 102.203,471.439 104.481,470.413 106.758,469.403 109.036,468.490 111.313,467.750 113.591,467.243 115.868,467.009 118.146,467.064 120.423,467.402 122.701,467.987 124.978,468.764 127.256,469.660 129.533,470.587 131.811,471.457 134.088,472.182 136.366,472.688 138.643,472.915 140.921,472.831 143.199,472.428 145.476,471.727 147.754,470.773 150.031,469.637 152.309,468.406 154.586,467.177 156.864,466.047 159.141,465.108 161.419,464.434 163.696,464.080 165.974,464.072 168.251,464.405 170.529,465.044 172.806,465.927 175.084,466.970 177.361,468.070 179.639,469.118 181.916,470.009 184.194,470.648 186.471,470.959 188.749,470.895 191.026,470.439 193.304,469.610 195.581,468.459 197.859,467.065 200.136,465.532 202.414,463.976 204.691,462.520 206.969,461.278 209.246,460.348 211.524,459.804 213.801,459.686 216.079,459.996 218.356,460.699 220.634,461.725 222.911,462.972 225.189,464.316 227.466,465.622 229.744,466.752 232.022,467.582 234.299,468.010 236.577,467.966 238.854,467.419 241.132,466.382 243.409,464.910 245.687,463.098 247.964,461.072 250.242,458.981 252.519,456.983 254.797,455.230 257.074,453.859 259.352,452.975 261.629,452.641 263.907,452.876 266.184,453.646 268.462,454.869 270.739,456.419 273.017,458.136 275.294,459.841 277.572,461.345 279.849,462.474 282.127,463.075 284.404,463.039 286.682,462.306 288.959,460.874 291.237,458.800 293.514,456.201 295.792,453.240 298.069,450.119 300.347,447.059 302.624,444.282 304.902,441.995 307.179,440.367 309.457,439.513 311.734,439.485 314.012,440.260 316.290,441.745 318.567,443.772 320.845,446.118 323.122,448.518 325.400,450.684 327.677,452.332 329.955,453.204 332.232,453.090 334.510,451.853 336.787,449.441 339.065,445.894 341.342,441.350 343.620,436.037 345.897,430.256 348.175,424.360 350.452,418.732 352.730,413.746 355.007,409.739 357.285,406.980 359.562,405.637 361.840,405.759 364.117,407.261 366.395,409.918 368.672,413.370 370.950,417.138 373.227,420.652 375.505,423.285 377.782,424.392 380.060,423.356 382.337,419.635 384.615,412.804 386.892,402.596 389.170,388.927 391.447,371.920 393.725,351.909 396.002,329.435 398.280,305.225 400.557,280.160 402.835,255.233 405.113,231.499 407.390,210.017 409.668,191.794 411.945,177.729 414.223,168.561 416.500,164.830 418.778,166.843 421.055,174.659 423.333,188.087 425.610,206.691 427.888,229.822 430.165,256.649 432.443,286.207 434.720,317.453 436.998,349.313 439.275,380.748 441.553,410.797 443.830,438.628 446.108,463.571 448.385,485.141 450.663,503.056 452.940,517.230 455.218,527.765 457.495,534.930 459.773,539.124 462.050,540.846 464.328,540.649 466.605,539.103 468.883,536.757 471.160,534.104 473.438,531.553 475.715,529.415 477.993,527.893 480.270,527.077 482.548,526.958 484.825,527.437 487.103,528.352 489.380,529.494 491.658,530.641 493.936,531.576 496.213,532.108 498.491,532.097 500.768,531.457 503.046,530.168 505.323,528.271 507.601,525.869 509.878,523.107 512.156,520.163 514.433,517.230 516.711,514.499 518.988,512.137 521.266,510.281 523.543,509.018 525.821,508.387 528.098,508.370 530.376,508.899 532.653,509.861 534.931,511.112 537.208,512.488 539.486,513.817 541.763,514.941 544.041,515.724 546.318,516.063 548.596,515.898 550.873,515.218 553.151,514.054 555.428,512.481 557.706,510.611 559.983,508.575 562.261,506.521 564.538,504.593 566.816,502.922 569.093,501.617 571.371,500.751 573.648,500.359 575.926,500.435 578.203,500.935 580.481,501.777 582.759,502.856 585.036,504.046 587.314,505.218 589.591,506.245 591.869,507.018 594.146,507.452 596.424,507.494 598.701,507.127 600.979,506.370 603.256,505.274 605.534,503.922 607.811,502.415 610.089,500.868 612.366,499.396 614.644,498.106 616.921,497.089 619.199,496.409 621.476,496.101 623.754,496.167 626.031,496.577 628.309,497.274 630.586,498.175 632.864,499.182 635.141,500.192 637.419,501.100 639.696,501.815 641.974,502.265 644.251,502.400 646.529,502.200 648.806,501.676 651.084,500.864 653.361,499.828 655.639,498.647 657.916,497.414 660.194,496.224 662.471,495.169 664.749,494.324 667.026,493.749 669.304,493.477 671.582,493.516 673.859,493.846 676.137,494.422 678.414,495.180 680.692,496.041 682.969,496.917 685.247,497.723 687.524,498.379 689.802,498.820 692.079,499.002 694.357,498.903 696.634,498.527 698.912,497.901 701.189,497.074 703.467,496.112 705.744,495.091 708.022,494.093 710.299,493.195 712.577,492.466 714.854,491.958 717.132,491.705 719.409,491.715 721.687,491.978 723.964,492.459 726.242,493.104 728.519,493.849 730.797,494.620 733.074,495.341 735.352,495.944 737.629,496.370 739.907,496.578 742.184,496.545 744.462,496.271 746.739,495.775 749.017,495.097 751.294,494.292 753.572,493.424 755.850,492.565 758.127,491.781 760.405,491.134 762.682,490.673 764.960,490.429 767.237,490.415 769.515,490.623 771.792,491.027 774.070,491.583 776.347,492.236 778.625,492.921 780.902,493.573 783.180,494.130 785.457,494.540 787.735,494.762 790.012,494.775 792.290,494.575 794.567,494.175 796.845,493.609 799.122,492.922 801.400,492.170 803.677,491.416 805.955,490.718 808.232,490.134 810.510,489.708 812.787,489.470 815.065,489.434 817.342,489.598 819.620,489.939 821.897,490.422 824.175,490.999 826.452,491.613 828.730,492.208 831.007,492.726 833.285,493.119 835.562,493.350 837.840,493.397 840.117,493.252 842.395,492.927 844.673,492.448 846.950,491.853 849.228,491.193 851.505,490.521 853.783,489.892 856.060,489.357 858.338,488.957 860.615,488.723 862.893,488.669 865.170,488.795 867.448,489.085 869.725,489.507 872.003,490.021 874.280,490.577 876.558,491.122 878.835,491.606 881.113,491.984 883.390,492.221 885.668,492.293 887.945,492.192 890.223,491.926 892.500,491.516 894.778,490.996 897.055,490.410 899.333,489.805 901.610,489.231 903.888,488.735 906.165,488.358 908.443,488.126 910.720,488.057 912.998,488.152 915.275,488.397 917.553,488.769 919.830,489.229 922.108,489.735 924.385,490.238 926.663,490.693 928.940,491.057 931.218,491.295 933.496,491.387 935.773,491.322 938.051,491.104 940.328,490.752 942.606,490.293 944.883,489.768 947.161,489.218 949.438,488.691 951.716,488.229 953.993,487.869 956.271,487.639 958.548,487.557 960.826,487.624 963.103,487.833 965.381,488.161 967.658,488.575 969.936,489.038 972.213,489.505 974.491,489.933 976.768,490.283 979.046,490.523 981.323,490.631 983.601,490.594 985.878,490.417 988.156,490.112 990.433,489.706 992.711,489.232 994.988,488.730 997.266,488.242 999.543,487.807 1001.821,487.463 1004.098,487.235 1006.376,487.141 1008.653,487.186 1010.931,487.362 1013.208,487.652 "
         id="polyline3401"
         style="fill:none;stroke:#fb9a99;stroke-width:2.5pt;stroke-dasharray:none" />
      <g
         id="g3403" />
    </g>
    <g
       id="ID000007"
       clip-path="url(#ID000001)">
      <polyline
         points="-150.601,476.466 -148.323,477.125 -146.046,477.690 -143.768,478.110 -141.491,478.342 -139.213,478.364 -136.936,478.169 -134.658,477.771 -132.381,477.199 -130.103,476.502 -127.826,475.736 -125.548,474.966 -123.270,474.258 -120.993,473.671 -118.715,473.257 -116.438,473.049 -114.160,473.067 -111.883,473.307 -109.605,473.747 -107.328,474.349 -105.050,475.057 -102.773,475.807 -100.495,476.532 -98.218,477.164 -95.940,477.645 -93.663,477.927 -91.385,477.981 -89.108,477.798 -86.830,477.390 -84.553,476.786 -82.275,476.036 -79.998,475.201 -77.720,474.352 -75.443,473.560 -73.165,472.892 -70.888,472.405 -68.610,472.141 -66.333,472.122 -64.055,472.348 -61.778,472.800 -59.500,473.435 -57.223,474.197 -54.945,475.016 -52.668,475.818 -50.390,476.528 -48.113,477.080 -45.835,477.420 -43.558,477.513 -41.280,477.344 -39.003,476.923 -36.725,476.281 -34.447,475.468 -32.170,474.552 -29.892,473.608 -27.615,472.715 -25.337,471.949 -23.060,471.375 -20.782,471.042 -18.505,470.978 -16.227,471.187 -13.950,471.650 -11.672,472.324 -9.395,473.149 -7.117,474.050 -4.840,474.943 -2.562,475.746 -0.285,476.383 1.993,476.791 4.270,476.929 6.548,476.777 8.825,476.341 11.103,475.651 13.380,474.762 15.658,473.746 17.935,472.685 20.213,471.669 22.490,470.783 24.768,470.101 27.045,469.683 29.323,469.561 31.600,469.747 33.878,470.222 36.155,470.943 38.433,471.844 40.710,472.842 42.988,473.845 45.265,474.761 47.543,475.501 49.820,475.993 52.098,476.186 54.376,476.053 56.653,475.596 58.931,474.847 61.208,473.862 63.486,472.719 65.763,471.512 68.041,470.340 70.318,469.301 72.596,468.483 74.873,467.955 77.151,467.760 79.428,467.914 81.706,468.402 83.983,469.178 86.261,470.171 88.538,471.290 90.816,472.431 93.093,473.486 95.371,474.355 97.648,474.951 99.926,475.210 102.203,475.099 104.481,474.614 106.758,473.785 109.036,472.674 111.313,471.367 113.591,469.968 115.868,468.593 118.146,467.355 120.423,466.357 122.701,465.683 124.978,465.389 127.256,465.498 129.533,465.998 131.811,466.842 134.088,467.951 136.366,469.224 138.643,470.540 140.921,471.775 143.199,472.808 145.476,473.536 147.754,473.880 150.031,473.792 152.309,473.264 154.586,472.325 156.864,471.041 159.141,469.508 161.419,467.847 163.696,466.193 165.974,464.680 168.251,463.433 170.529,462.556 172.806,462.121 175.084,462.162 177.361,462.672 179.639,463.601 181.916,464.863 184.194,466.338 186.471,467.887 188.749,469.360 191.026,470.613 193.304,471.514 195.581,471.965 197.859,471.900 200.136,471.302 202.414,470.197 204.691,468.657 206.969,466.794 209.246,464.751 211.524,462.688 213.801,460.772 216.079,459.157 218.356,457.975 220.634,457.324 222.911,457.253 225.189,457.763 227.466,458.802 229.744,460.270 232.022,462.026 234.299,463.900 236.577,465.707 238.854,467.264 241.132,468.402 243.409,468.990 245.687,468.936 247.964,468.206 250.242,466.823 252.519,464.867 254.797,462.473 257.074,459.814 259.352,457.092 261.629,454.520 263.907,452.301 266.184,450.613 268.462,449.589 270.739,449.309 273.017,449.784 275.294,450.962 277.572,452.722 279.849,454.890 282.127,457.247 284.404,459.550 286.682,461.553 288.959,463.025 291.237,463.776 293.514,463.671 295.792,462.645 298.069,460.710 300.347,457.960 302.624,454.561 304.902,450.741 307.179,446.771 309.457,442.946 311.734,439.553 314.012,436.853 316.290,435.050 318.567,434.275 320.845,434.571 323.122,435.882 325.400,438.057 327.677,440.857 329.955,443.976 332.232,447.057 334.510,449.728 336.787,451.630 339.065,452.450 341.342,451.950 343.620,449.992 345.897,446.554 348.175,441.738 350.452,435.766 352.730,428.970 355.007,421.765 357.285,414.616 359.562,408.006 361.840,402.385 364.117,398.133 366.395,395.520 368.672,394.670 370.950,395.542 373.227,397.912 375.505,401.382 377.782,405.393 380.060,409.254 382.337,412.188 384.615,413.380 386.892,412.040 389.170,407.465 391.447,399.093 393.725,386.564 396.002,369.757 398.280,348.823 400.557,324.197 402.835,296.591 405.113,266.968 407.390,236.505 409.668,206.531 411.945,178.459 414.223,153.703 416.500,133.605 418.778,119.348 421.055,111.885 423.333,111.882 425.610,119.669 427.888,135.220 430.165,158.144 432.443,187.702 434.720,222.851 436.998,262.291 439.275,304.543 441.553,348.023 443.830,391.133 446.108,432.347 448.385,470.284 450.663,503.786 452.940,531.967 455.218,554.253 457.495,570.399 459.773,580.482 462.050,584.883 464.328,584.247 466.605,579.425 468.883,571.412 471.160,561.276 473.438,550.090 475.715,538.859 477.993,528.468 480.270,519.631 482.548,512.857 484.825,508.439 487.103,506.449 489.380,506.754 491.658,509.045 493.936,512.876 496.213,517.710 498.491,522.969 500.768,528.083 503.046,532.537 505.323,535.908 507.601,537.894 509.878,538.331 512.156,537.197 514.433,534.608 516.711,530.797 518.988,526.092 521.266,520.880 523.543,515.574 525.821,510.576 528.098,506.244 530.376,502.865 532.653,500.633 534.931,499.637 537.208,499.860 539.486,501.181 541.763,503.394 544.041,506.228 546.318,509.368 548.596,512.491 550.873,515.286 553.151,517.487 555.428,518.886 557.706,519.356 559.983,518.854 562.261,517.422 564.538,515.184 566.816,512.327 569.093,509.087 571.371,505.727 573.648,502.510 575.926,499.682 578.203,497.445 580.481,495.949 582.759,495.272 585.036,495.423 587.314,496.339 589.591,497.893 591.869,499.908 594.146,502.173 596.424,504.461 598.701,506.553 600.979,508.249 603.256,509.392 605.534,509.876 607.811,509.657 610.089,508.752 612.366,507.237 614.644,505.240 616.921,502.927 619.199,500.488 621.476,498.121 623.754,496.011 626.031,494.319 628.309,493.164 630.586,492.619 632.864,492.700 635.141,493.372 637.419,494.546 639.696,496.096 641.974,497.863 644.251,499.676 646.529,501.361 648.806,502.762 651.084,503.748 653.361,504.230 655.639,504.163 657.916,503.550 660.194,502.445 662.471,500.939 664.749,499.160 667.026,497.255 669.304,495.382 671.582,493.690 673.859,492.311 676.137,491.350 678.414,490.870 680.692,490.894 682.969,491.400 685.247,492.325 687.524,493.571 689.802,495.014 692.079,496.515 694.357,497.932 696.634,499.135 698.912,500.014 701.189,500.487 703.467,500.512 705.744,500.084 708.022,499.241 710.299,498.053 712.577,496.621 714.854,495.065 717.132,493.514 719.409,492.095 721.687,490.921 723.964,490.083 726.242,489.641 728.519,489.619 730.797,490.005 733.074,490.752 735.352,491.783 737.629,492.995 739.907,494.274 742.184,495.501 744.462,496.561 746.739,497.359 749.017,497.822 751.294,497.908 753.572,497.608 755.850,496.947 758.127,495.982 760.405,494.794 762.682,493.484 764.960,492.161 767.237,490.935 769.515,489.905 771.792,489.153 774.070,488.734 776.347,488.674 778.625,488.970 780.902,489.583 783.180,490.452 785.457,491.492 787.735,492.605 790.012,493.687 792.290,494.639 794.567,495.375 796.845,495.827 799.122,495.956 801.400,495.749 803.677,495.223 805.955,494.422 808.232,493.416 810.510,492.289 812.787,491.137 815.065,490.055 817.342,489.132 819.620,488.443 821.897,488.040 824.175,487.950 826.452,488.174 828.730,488.683 831.007,489.426 833.285,490.331 835.562,491.313 837.840,492.282 840.117,493.148 842.395,493.833 844.673,494.276 846.950,494.437 849.228,494.300 851.505,493.877 853.783,493.204 856.060,492.338 858.338,491.354 860.615,490.334 862.893,489.365 865.170,488.525 867.448,487.885 869.725,487.494 872.003,487.379 874.280,487.545 876.558,487.970 878.835,488.612 881.113,489.408 883.390,490.285 885.668,491.161 887.945,491.957 890.223,492.601 892.500,493.034 894.778,493.219 897.055,493.137 899.333,492.796 901.610,492.225 903.888,491.472 906.165,490.602 908.443,489.689 910.720,488.810 912.998,488.038 915.275,487.437 917.553,487.054 919.830,486.918 922.108,487.036 924.385,487.392 926.663,487.950 928.940,488.657 931.218,489.446 933.496,490.246 935.773,490.983 938.051,491.592 940.328,492.017 942.606,492.220 944.883,492.183 947.161,491.909 949.438,491.420 951.716,490.760 953.993,489.984 956.271,489.159 958.548,488.354 960.826,487.638 963.103,487.069 965.381,486.694 967.658,486.541 969.936,486.619 972.213,486.916 974.491,487.404 976.768,488.035 979.046,488.750 981.323,489.485 983.601,490.172 985.878,490.750 988.156,491.166 990.433,491.384 992.711,491.384 994.988,491.165 997.266,490.746 999.543,490.163 1001.821,489.467 1004.098,488.716 1006.376,487.974 1008.653,487.305 1010.931,486.764 1013.208,486.395 "
         id="polyline3406"
         style="fill:none;stroke:#e31a1c;stroke-width:2.5pt;stroke-dasharray:none" />
      <g
         id="g3408" />
    </g>
    <g
       id="ID000008"
       clip-path="url(#ID000001)">
      <polyline
         points="108.347,544.122 754.261,544.122 "
         id="polyline3411"
         style="fill:none;stroke:#000000;stroke-width:1pt;stroke-dasharray:8, 2" />
      <g
         id="g3413" />
    </g>
    <g
       id="ID000009" />
    <g
       id="ID000010" />
    <g
       id="ID000011" />
    <g
       id="ID000012" />
    <g
       id="ID000013" />
  </g>
  <g
     id="g3420">
    <polyline
       points="108.347,605.756 108.347,612.215 "
       id="polyline3422"
       style="fill:none;stroke:#000000;stroke-width:2pt;stroke-dasharray:none" />
    <polyline
       points="215.999,605.756 215.999,612.215 "
       id="polyline3424"
       style="fill:none;stroke:#000000;stroke-width:2pt;stroke-dasharray:none" />
    <polyline
       points="323.652,605.756 323.652,612.215 "
       id="polyline3426"
       style="fill:none;stroke:#000000;stroke-width:2pt;stroke-dasharray:none" />
    <polyline
       points="431.304,605.756 431.304,612.215 "
       id="polyline3428"
       style="fill:none;stroke:#000000;stroke-width:2pt;stroke-dasharray:none" />
    <polyline
       points="538.956,605.756 538.956,612.215 "
       id="polyline3430"
       style="fill:none;stroke:#000000;stroke-width:2pt;stroke-dasharray:none" />
    <polyline
       points="646.609,605.756 646.609,612.215 "
       id="polyline3432"
       style="fill:none;stroke:#000000;stroke-width:2pt;stroke-dasharray:none" />
    <polyline
       points="754.261,605.756 754.261,612.215 "
       id="polyline3434"
       style="fill:none;stroke:#000000;stroke-width:2pt;stroke-dasharray:none" />
    <polyline
       points="108.347,605.756 754.261,605.756 "
       id="polyline3436"
       style="fill:none;stroke:#000000;stroke-width:2pt;stroke-dasharray:none" />
    <polyline
       points="108.347,51.047 108.347,44.588 "
       id="polyline3438"
       style="fill:none;stroke:#000000;stroke-width:2pt;stroke-dasharray:none" />
    <polyline
       points="215.999,51.047 215.999,44.588 "
       id="polyline3440"
       style="fill:none;stroke:#000000;stroke-width:2pt;stroke-dasharray:none" />
    <polyline
       points="323.652,51.047 323.652,44.588 "
       id="polyline3442"
       style="fill:none;stroke:#000000;stroke-width:2pt;stroke-dasharray:none" />
    <polyline
       points="431.304,51.047 431.304,44.588 "
       id="polyline3444"
       style="fill:none;stroke:#000000;stroke-width:2pt;stroke-dasharray:none" />
    <polyline
       points="538.956,51.047 538.956,44.588 "
       id="polyline3446"
       style="fill:none;stroke:#000000;stroke-width:2pt;stroke-dasharray:none" />
    <polyline
       points="646.609,51.047 646.609,44.588 "
       id="polyline3448"
       style="fill:none;stroke:#000000;stroke-width:2pt;stroke-dasharray:none" />
    <polyline
       points="754.261,51.047 754.261,44.588 "
       id="polyline3450"
       style="fill:none;stroke:#000000;stroke-width:2pt;stroke-dasharray:none" />
    <polyline
       points="108.347,51.047 754.261,51.047 "
       id="polyline3452"
       style="fill:none;stroke:#000000;stroke-width:2pt;stroke-dasharray:none" />
    <g
       transform="translate(108.347,638.991)"
       id="g3454">
      <g
         id="g3456">
        <text
           x="0"
           y="0"
           font-size="14pt"
           id="text3458"
           style="font-size:17.5px;text-anchor:middle;fill:#000000;font-family:Helvetica">-30</text>
      </g>
    </g>
    <g
       transform="translate(215.999,638.991)"
       id="g3460">
      <g
         id="g3462">
        <text
           x="0"
           y="0"
           font-size="14pt"
           id="text3464"
           style="font-size:17.5px;text-anchor:middle;fill:#000000;font-family:Helvetica">-20</text>
      </g>
    </g>
    <g
       transform="translate(323.652,638.991)"
       id="g3466">
      <g
         id="g3468">
        <text
           x="0"
           y="0"
           font-size="14pt"
           id="text3470"
           style="font-size:17.5px;text-anchor:middle;fill:#000000;font-family:Helvetica">-10</text>
      </g>
    </g>
    <g
       transform="translate(431.304,638.991)"
       id="g3472">
      <g
         id="g3474">
        <text
           x="0"
           y="0"
           font-size="14pt"
           id="text3476"
           style="font-size:17.5px;text-anchor:middle;fill:#000000;font-family:Helvetica">0</text>
      </g>
    </g>
    <g
       transform="translate(538.956,638.991)"
       id="g3478">
      <g
         id="g3480">
        <text
           x="0"
           y="0"
           font-size="14pt"
           id="text3482"
           style="font-size:17.5px;text-anchor:middle;fill:#000000;font-family:Helvetica">10</text>
      </g>
    </g>
    <g
       transform="translate(646.609,638.991)"
       id="g3484">
      <g
         id="g3486">
        <text
           x="0"
           y="0"
           font-size="14pt"
           id="text3488"
           style="font-size:17.5px;text-anchor:middle;fill:#000000;font-family:Helvetica">20</text>
      </g>
    </g>
    <g
       transform="translate(754.261,638.991)"
       id="g3490">
      <g
         id="g3492">
        <text
           x="0"
           y="0"
           font-size="14pt"
           id="text3494"
           style="font-size:17.5px;text-anchor:middle;fill:#000000;font-family:Helvetica">30</text>
      </g>
    </g>
    <polyline
       points="108.347,605.756 101.888,605.756 "
       id="polyline3496"
       style="fill:none;stroke:#000000;stroke-width:2pt;stroke-dasharray:none" />
    <polyline
       points="108.347,544.122 101.888,544.122 "
       id="polyline3498"
       style="fill:none;stroke:#000000;stroke-width:2pt;stroke-dasharray:none" />
    <polyline
       points="108.347,482.488 101.888,482.488 "
       id="polyline3500"
       style="fill:none;stroke:#000000;stroke-width:2pt;stroke-dasharray:none" />
    <polyline
       points="108.347,420.853 101.888,420.853 "
       id="polyline3502"
       style="fill:none;stroke:#000000;stroke-width:2pt;stroke-dasharray:none" />
    <polyline
       points="108.347,359.219 101.888,359.219 "
       id="polyline3504"
       style="fill:none;stroke:#000000;stroke-width:2pt;stroke-dasharray:none" />
    <polyline
       points="108.347,297.584 101.888,297.584 "
       id="polyline3506"
       style="fill:none;stroke:#000000;stroke-width:2pt;stroke-dasharray:none" />
    <polyline
       points="108.347,235.950 101.888,235.950 "
       id="polyline3508"
       style="fill:none;stroke:#000000;stroke-width:2pt;stroke-dasharray:none" />
    <polyline
       points="108.347,174.316 101.888,174.316 "
       id="polyline3510"
       style="fill:none;stroke:#000000;stroke-width:2pt;stroke-dasharray:none" />
    <polyline
       points="108.347,112.681 101.888,112.681 "
       id="polyline3512"
       style="fill:none;stroke:#000000;stroke-width:2pt;stroke-dasharray:none" />
    <polyline
       points="108.347,51.047 101.888,51.047 "
       id="polyline3514"
       style="fill:none;stroke:#000000;stroke-width:2pt;stroke-dasharray:none" />
    <polyline
       points="108.347,605.756 108.347,51.047 "
       id="polyline3516"
       style="fill:none;stroke:#000000;stroke-width:2pt;stroke-dasharray:none" />
    <polyline
       points="754.261,605.756 760.720,605.756 "
       id="polyline3518"
       style="fill:none;stroke:#000000;stroke-width:2pt;stroke-dasharray:none" />
    <polyline
       points="754.261,544.122 760.720,544.122 "
       id="polyline3520"
       style="fill:none;stroke:#000000;stroke-width:2pt;stroke-dasharray:none" />
    <polyline
       points="754.261,482.488 760.720,482.488 "
       id="polyline3522"
       style="fill:none;stroke:#000000;stroke-width:2pt;stroke-dasharray:none" />
    <polyline
       points="754.261,420.853 760.720,420.853 "
       id="polyline3524"
       style="fill:none;stroke:#000000;stroke-width:2pt;stroke-dasharray:none" />
    <polyline
       points="754.261,359.219 760.720,359.219 "
       id="polyline3526"
       style="fill:none;stroke:#000000;stroke-width:2pt;stroke-dasharray:none" />
    <polyline
       points="754.261,297.584 760.720,297.584 "
       id="polyline3528"
       style="fill:none;stroke:#000000;stroke-width:2pt;stroke-dasharray:none" />
    <polyline
       points="754.261,235.950 760.720,235.950 "
       id="polyline3530"
       style="fill:none;stroke:#000000;stroke-width:2pt;stroke-dasharray:none" />
    <polyline
       points="754.261,174.316 760.720,174.316 "
       id="polyline3532"
       style="fill:none;stroke:#000000;stroke-width:2pt;stroke-dasharray:none" />
    <polyline
       points="754.261,112.681 760.720,112.681 "
       id="polyline3534"
       style="fill:none;stroke:#000000;stroke-width:2pt;stroke-dasharray:none" />
    <polyline
       points="754.261,51.047 760.720,51.047 "
       id="polyline3536"
       style="fill:none;stroke:#000000;stroke-width:2pt;stroke-dasharray:none" />
    <polyline
       points="754.261,605.756 754.261,51.047 "
       id="polyline3538"
       style="fill:none;stroke:#000000;stroke-width:2pt;stroke-dasharray:none" />
    <g
       transform="translate(88.969,612.084)"
       id="g3540">
      <g
         id="g3542">
        <text
           x="0"
           y="0"
           font-size="14pt"
           id="text3544"
           style="font-size:17.5px;text-anchor:end;fill:#000000;font-family:Helvetica">-1</text>
      </g>
    </g>
    <g
       transform="translate(88.969,550.45)"
       id="g3546">
      <g
         id="g3548">
        <text
           x="0"
           y="0"
           font-size="14pt"
           id="text3550"
           style="font-size:17.5px;text-anchor:end;fill:#000000;font-family:Helvetica">0</text>
      </g>
    </g>
    <g
       transform="translate(88.969,488.816)"
       id="g3552">
      <g
         id="g3554">
        <text
           x="0"
           y="0"
           font-size="14pt"
           id="text3556"
           style="font-size:17.5px;text-anchor:end;fill:#000000;font-family:Helvetica">1</text>
      </g>
    </g>
    <g
       transform="translate(88.969,427.181)"
       id="g3558">
      <g
         id="g3560">
        <text
           x="0"
           y="0"
           font-size="14pt"
           id="text3562"
           style="font-size:17.5px;text-anchor:end;fill:#000000;font-family:Helvetica">2</text>
      </g>
    </g>
    <g
       transform="translate(88.969,365.547)"
       id="g3564">
      <g
         id="g3566">
        <text
           x="0"
           y="0"
           font-size="14pt"
           id="text3568"
           style="font-size:17.5px;text-anchor:end;fill:#000000;font-family:Helvetica">3</text>
      </g>
    </g>
    <g
       transform="translate(88.969,303.913)"
       id="g3570">
      <g
         id="g3572">
        <text
           x="0"
           y="0"
           font-size="14pt"
           id="text3574"
           style="font-size:17.5px;text-anchor:end;fill:#000000;font-family:Helvetica">4</text>
      </g>
    </g>
    <g
       transform="translate(88.969,242.278)"
       id="g3576">
      <g
         id="g3578">
        <text
           x="0"
           y="0"
           font-size="14pt"
           id="text3580"
           style="font-size:17.5px;text-anchor:end;fill:#000000;font-family:Helvetica">5</text>
      </g>
    </g>
    <g
       transform="translate(88.969,180.644)"
       id="g3582">
      <g
         id="g3584">
        <text
           x="0"
           y="0"
           font-size="14pt"
           id="text3586"
           style="font-size:17.5px;text-anchor:end;fill:#000000;font-family:Helvetica">6</text>
      </g>
    </g>
    <g
       transform="translate(88.969,119.009)"
       id="g3588">
      <g
         id="g3590">
        <text
           x="0"
           y="0"
           font-size="14pt"
           id="text3592"
           style="font-size:17.5px;text-anchor:end;fill:#000000;font-family:Helvetica">7</text>
      </g>
    </g>
    <g
       transform="translate(88.969,57.375)"
       id="g3594">
      <g
         id="g3596">
        <text
           x="0"
           y="0"
           font-size="14pt"
           id="text3598"
           style="font-size:17.5px;text-anchor:end;fill:#000000;font-family:Helvetica">8</text>
      </g>
    </g>
    <polyline
       points="108.347,605.756 108.347,611.303 "
       id="polyline3600"
       style="fill:none;stroke:#000000;stroke-width:2pt;stroke-dasharray:none" />
    <polyline
       points="108.347,605.756 108.347,611.303 "
       id="polyline3602"
       style="fill:none;stroke:#000000;stroke-width:2pt;stroke-dasharray:none" />
    <polyline
       points="108.347,605.756 108.347,611.303 "
       id="polyline3604"
       style="fill:none;stroke:#000000;stroke-width:2pt;stroke-dasharray:none" />
    <polyline
       points="108.347,605.756 108.347,605.756 "
       id="polyline3606"
       style="fill:none;stroke:#000000;stroke-width:2pt;stroke-dasharray:none" />
  </g>
  <polygon
     points="659.375,56.875 749.375,56.875 749.375,56.875 659.375,56.875 "
     id="polygon3614"
     style="fill:#ffffff;fill-opacity:1;stroke:none" />
  <g
     id="g3618"
     transform="translate(-138.59679,37.076849)">
    <g
       id="ID000017"
       clip-path="url(#ID000015)">
      <polyline
         points="666.875,71.094 704.375,71.094 "
         id="polyline3628"
         style="fill:none;stroke:#a6cee3;stroke-width:2.5pt;stroke-dasharray:none" />
      <g
         id="g3630" />
    </g>
    <g
       id="ID000018"
       clip-path="url(#ID000015)">
      <g
         id="g3633" />
    </g>
    <g
       id="ID000020"
       clip-path="url(#ID000015)"
       transform="translate(0,-18)">
      <polyline
         points="666.875,95.156 704.375,95.156 "
         id="polyline3643"
         style="fill:none;stroke:#1f78b4;stroke-width:2.5pt;stroke-dasharray:none" />
      <g
         id="g3645" />
    </g>
    <g
       id="ID000021"
       clip-path="url(#ID000015)">
      <g
         id="g3648" />
    </g>
    <g
       id="ID000023"
       clip-path="url(#ID000015)">
      <polyline
         points="666.875,119.219 704.375,119.219 "
         id="polyline3658"
         style="fill:none;stroke:#b2df8a;stroke-width:2.5pt;stroke-dasharray:none" />
      <g
         id="g3660" />
    </g>
    <g
       id="ID000024"
       clip-path="url(#ID000015)">
      <g
         id="g3663" />
    </g>
    <g
       id="ID000026"
       clip-path="url(#ID000015)"
       transform="translate(0,-18)">
      <polyline
         points="666.875,143.281 704.375,143.281 "
         id="polyline3673"
         style="fill:none;stroke:#33a02c;stroke-width:2.5pt;stroke-dasharray:none" />
      <g
         id="g3675" />
    </g>
    <g
       id="ID000027"
       clip-path="url(#ID000015)">
      <g
         id="g3678" />
    </g>
    <g
       id="ID000029"
       clip-path="url(#ID000015)">
      <polyline
         points="666.875,167.344 704.375,167.344 "
         id="polyline3688"
         style="fill:none;stroke:#fb9a99;stroke-width:2.5pt;stroke-dasharray:none" />
      <g
         id="g3690" />
    </g>
    <g
       id="ID000030"
       clip-path="url(#ID000015)">
      <g
         id="g3693" />
    </g>
    <g
       id="ID000032"
       clip-path="url(#ID000015)"
       transform="translate(0,-18)">
      <polyline
         points="666.875,191.406 704.375,191.406 "
         id="polyline3703"
         style="fill:none;stroke:#e31a1c;stroke-width:2.5pt;stroke-dasharray:none" />
      <g
         id="g3705" />
    </g>
    <g
       id="ID000033"
       clip-path="url(#ID000015)">
      <g
         id="g3708" />
    </g>
    <g
       id="ID000034" />
    <g
       id="ID000035" />
    <g
       id="ID000036" />
    <text
       sodipodi:linespacing="125%"
       id="text5429-9-1-4"
       y="77.680092"
       x="713.02509"
       style="font-size:13px;font-style:normal;font-variant:normal;font-weight:normal;font-stretch:normal;line-height:125%;letter-spacing:0px;word-spacing:0px;fill:#000000;fill-opacity:1;stroke:none;font-family:Times New Roman;-inkscape-font-specification:Times New Roman"
       xml:space="preserve"><tspan
         style="font-size:17.5px;fill:#000000"
         y="77.680092"
         x="713.02509"
         id="tspan5431-5-7-0"
         sodipodi:role="line">$\tau = 0$ fs</tspan></text>
    <text
       xml:space="preserve"
       style="font-size:13px;font-style:normal;font-variant:normal;font-weight:normal;font-stretch:normal;line-height:125%;letter-spacing:0px;word-spacing:0px;fill:#000000;fill-opacity:1;stroke:none;font-family:Times New Roman;-inkscape-font-specification:Times New Roman"
       x="713.02509"
       y="127.68009"
       id="text4198"
       sodipodi:linespacing="125%"><tspan
         sodipodi:role="line"
         id="tspan4200"
         x="713.02509"
         y="127.68009"
         style="font-size:17.5px;fill:#000000">$\tau = 25$ fs</tspan></text>
    <text
       sodipodi:linespacing="125%"
       id="text4202"
       y="175.6801"
       x="713.02509"
       style="font-size:13px;font-style:normal;font-variant:normal;font-weight:normal;font-stretch:normal;line-height:125%;letter-spacing:0px;word-spacing:0px;fill:#000000;fill-opacity:1;stroke:none;font-family:Times New Roman;-inkscape-font-specification:Times New Roman"
       xml:space="preserve"><tspan
         style="font-size:17.5px;fill:#000000"
         y="175.6801"
         x="713.02509"
         id="tspan4204"
         sodipodi:role="line">$\tau = 50$ fs</tspan></text>
  </g>
  <text
     sodipodi:linespacing="125%"
     id="text5429-9-1"
     y="660.09406"
     x="424.91611"
     style="font-size:13px;font-style:normal;font-variant:normal;font-weight:normal;font-stretch:normal;line-height:125%;letter-spacing:0px;word-spacing:0px;fill:#000000;fill-opacity:1;stroke:none;font-family:Times New Roman;-inkscape-font-specification:Times New Roman"
     xml:space="preserve"><tspan
       style="font-size:17.5px;fill:#000000"
       y="660.09406"
       x="424.91611"
       id="tspan5431-5-7"
       sodipodi:role="line">$\epsilon$</tspan></text>
  <text
     sodipodi:linespacing="125%"
     id="text5429-9-1-1"
     y="55.610542"
     x="-470.33145"
     style="font-size:13px;font-style:normal;font-variant:normal;font-weight:normal;font-stretch:normal;line-height:125%;letter-spacing:0px;word-spacing:0px;fill:#000000;fill-opacity:1;stroke:none;font-family:Times New Roman;-inkscape-font-specification:Times New Roman"
     xml:space="preserve"
     transform="matrix(0,-1,1,0,0,0)"><tspan
       style="font-size:17.5px;fill:#000000"
       y="55.610542"
       x="-470.33145"
       id="tspan5431-5-7-7"
       sodipodi:role="line">$\sigma(\epsilon, \tau)$ ou $<tspan
   style="fill:#000000"
   id="tspan4208">|W(\epsilon, \tau)|^2</tspan>$</tspan></text>
</svg>
