<?xml version="1.0" encoding="UTF-8" standalone="no"?>
<!-- Created with Inkscape (http://www.inkscape.org/) -->

<svg
   xmlns:dc="http://purl.org/dc/elements/1.1/"
   xmlns:cc="http://creativecommons.org/ns#"
   xmlns:rdf="http://www.w3.org/1999/02/22-rdf-syntax-ns#"
   xmlns:svg="http://www.w3.org/2000/svg"
   xmlns="http://www.w3.org/2000/svg"
   xmlns:sodipodi="http://sodipodi.sourceforge.net/DTD/sodipodi-0.dtd"
   xmlns:inkscape="http://www.inkscape.org/namespaces/inkscape"
   width="210mm"
   height="297mm"
   id="svg4591"
   version="1.1"
   inkscape:version="0.48.4 r9939"
   sodipodi:docname="Phases1photon2photons.pdf">
  <defs
     id="defs4593" />
  <sodipodi:namedview
     id="base"
     pagecolor="#ffffff"
     bordercolor="#666666"
     borderopacity="1.0"
     inkscape:pageopacity="0.0"
     inkscape:pageshadow="2"
     inkscape:zoom="0.7"
     inkscape:cx="375"
     inkscape:cy="680.18862"
     inkscape:document-units="px"
     inkscape:current-layer="g4404"
     showgrid="true"
     inkscape:window-width="1680"
     inkscape:window-height="988"
     inkscape:window-x="-8"
     inkscape:window-y="-8"
     inkscape:window-maximized="1">
    <inkscape:grid
       type="xygrid"
       id="grid4780" />
  </sodipodi:namedview>
  <metadata
     id="metadata4596">
    <rdf:RDF>
      <cc:Work
         rdf:about="">
        <dc:format>image/svg+xml</dc:format>
        <dc:type
           rdf:resource="http://purl.org/dc/dcmitype/StillImage" />
        <dc:title></dc:title>
      </cc:Work>
    </rdf:RDF>
  </metadata>
  <g
     inkscape:label="Calque 1"
     inkscape:groupmode="layer"
     id="layer1">
    <g
       transform="translate(250.44863,200.34536)"
       id="g4404">
      <g
         transform="matrix(1.0672847,0,0,0.81299846,-381.4168,-174.35182)"
         id="g4492"
         style="font-size:12px;font-style:normal;font-weight:normal;fill:#262626;fill-opacity:1;stroke:#262626;stroke-width:1.926;stroke-linecap:square;stroke-linejoin:miter;stroke-miterlimit:10;stroke-opacity:1;stroke-dasharray:none;stroke-dashoffset:0;font-family:Dialog">
        <line
           id="line4494"
           y1="831"
           x2="781"
           x1="218.0014"
           style="fill:none;stroke-width:2.48114705;stroke-miterlimit:10;stroke-dasharray:none"
           y2="831" />
        <line
           id="line4496"
           y1="70"
           x2="781"
           x1="218.0014"
           style="fill:none;stroke-width:2.48114705;stroke-miterlimit:10;stroke-dasharray:none"
           y2="70" />
        <line
           id="line4498"
           y1="831"
           x2="218.0014"
           x1="218.0014"
           style="fill:none;stroke-width:1.926;stroke-miterlimit:10;stroke-dasharray:none"
           y2="823.39001" />
        <line
           id="line4500"
           y1="70"
           x2="218.0014"
           x1="218.0014"
           style="fill:none;stroke-width:1.926;stroke-miterlimit:10;stroke-dasharray:none"
           y2="77.610001" />
        <line
           id="line4502"
           y1="831"
           x2="311.83331"
           x1="311.83331"
           style="fill:none;stroke-width:2.48114705;stroke-miterlimit:10;stroke-dasharray:none"
           y2="823.39001" />
        <line
           id="line4504"
           y1="70"
           x2="311.83331"
           x1="311.83331"
           style="fill:none;stroke-width:2.48114705;stroke-miterlimit:10;stroke-dasharray:none"
           y2="77.610001" />
        <line
           id="line4506"
           y1="831"
           x2="405.66519"
           x1="405.66519"
           style="fill:none;stroke-width:2.48114705;stroke-miterlimit:10;stroke-dasharray:none"
           y2="823.39001" />
        <line
           id="line4508"
           y1="70"
           x2="405.66519"
           x1="405.66519"
           style="fill:none;stroke-width:2.48114705;stroke-miterlimit:10;stroke-dasharray:none"
           y2="77.610001" />
        <line
           id="line4510"
           y1="831"
           x2="499.5007"
           x1="499.5007"
           style="fill:none;stroke-width:2.48114705;stroke-miterlimit:10;stroke-dasharray:none"
           y2="823.39001" />
        <line
           id="line4512"
           y1="70"
           x2="499.5007"
           x1="499.5007"
           style="fill:none;stroke-width:2.48114705;stroke-miterlimit:10;stroke-dasharray:none"
           y2="77.610001" />
        <line
           id="line4514"
           y1="831"
           x2="593.33258"
           x1="593.33258"
           style="fill:none;stroke-width:2.48114705;stroke-miterlimit:10;stroke-dasharray:none"
           y2="823.39001" />
        <line
           id="line4516"
           y1="70"
           x2="593.33258"
           x1="593.33258"
           style="fill:none;stroke-width:2.48114705;stroke-miterlimit:10;stroke-dasharray:none"
           y2="77.610001" />
        <line
           id="line4518"
           y1="831"
           x2="687.16809"
           x1="687.16809"
           style="fill:none;stroke-width:2.48114705;stroke-miterlimit:10;stroke-dasharray:none"
           y2="823.39001" />
        <line
           id="line4520"
           y1="70"
           x2="687.16809"
           x1="687.16809"
           style="fill:none;stroke-width:2.48114705;stroke-miterlimit:10;stroke-dasharray:none"
           y2="77.610001" />
        <line
           id="line4522"
           y1="831"
           x2="781"
           x1="781"
           style="fill:none;stroke-width:1.926;stroke-miterlimit:10;stroke-dasharray:none"
           y2="823.39001" />
        <line
           id="line4524"
           y1="70"
           x2="781"
           x1="781"
           style="fill:none;stroke-width:1.926;stroke-miterlimit:10;stroke-dasharray:none"
           y2="77.610001" />
      </g>
      <g
         transform="matrix(1.0672847,0,0,0.81299846,-381.4168,-174.35182)"
         id="g4554"
         style="font-size:12px;font-style:normal;font-weight:normal;fill:#262626;fill-opacity:1;stroke:#262626;stroke-width:2.48093247;stroke-linecap:square;stroke-linejoin:miter;stroke-miterlimit:10;stroke-opacity:1;stroke-dasharray:none;stroke-dashoffset:0;font-family:Dialog">
        <line
           id="line4556"
           y1="831"
           x2="218.0014"
           x1="218.0014"
           style="fill:none;stroke-width:2.48093247;stroke-miterlimit:10;stroke-dasharray:none"
           y2="70" />
        <line
           id="line4558"
           y1="831"
           x2="781"
           x1="781"
           style="fill:none;stroke-width:2.48093247;stroke-miterlimit:10;stroke-dasharray:none"
           y2="70" />
        <line
           id="line4560"
           y1="831"
           x2="225.6114"
           x1="218.0014"
           style="fill:none;stroke-width:2.48093247;stroke-miterlimit:10;stroke-dasharray:none"
           y2="831" />
        <line
           id="line4562"
           y1="831"
           x2="773.39008"
           x1="781"
           style="fill:none;stroke-width:2.48093247;stroke-miterlimit:10;stroke-dasharray:none"
           y2="831" />
        <line
           id="line4564"
           y1="722.28571"
           x2="225.6114"
           x1="218.0014"
           style="fill:none;stroke-width:2.48093247;stroke-miterlimit:10;stroke-dasharray:none"
           y2="722.28571" />
        <line
           id="line4566"
           y1="722.28571"
           x2="773.39008"
           x1="781"
           style="fill:none;stroke-width:2.48093247;stroke-miterlimit:10;stroke-dasharray:none"
           y2="722.28571" />
        <line
           id="line4568"
           y1="613.57141"
           x2="225.6114"
           x1="218.0014"
           style="fill:none;stroke-width:2.48093247;stroke-miterlimit:10;stroke-dasharray:none"
           y2="613.57141" />
        <line
           id="line4570"
           y1="613.57141"
           x2="773.39008"
           x1="781"
           style="fill:none;stroke-width:2.48093247;stroke-miterlimit:10;stroke-dasharray:none"
           y2="613.57141" />
        <line
           id="line4572"
           y1="504.85709"
           x2="225.6114"
           x1="218.0014"
           style="fill:none;stroke-width:2.48093247;stroke-miterlimit:10;stroke-dasharray:none"
           y2="504.85709" />
        <line
           id="line4574"
           y1="504.85709"
           x2="773.39008"
           x1="781"
           style="fill:none;stroke-width:2.48093247;stroke-miterlimit:10;stroke-dasharray:none"
           y2="504.85709" />
        <line
           id="line4576"
           y1="396.14291"
           x2="225.6114"
           x1="218.0014"
           style="fill:none;stroke-width:2.48093247;stroke-miterlimit:10;stroke-dasharray:none"
           y2="396.14291" />
        <line
           id="line4578"
           y1="396.14291"
           x2="773.39008"
           x1="781"
           style="fill:none;stroke-width:2.48093247;stroke-miterlimit:10;stroke-dasharray:none"
           y2="396.14291" />
        <line
           id="line4580"
           y1="287.42859"
           x2="225.6114"
           x1="218.0014"
           style="fill:none;stroke-width:2.48093247;stroke-miterlimit:10;stroke-dasharray:none"
           y2="287.42859" />
        <line
           id="line4582"
           y1="287.42859"
           x2="773.39008"
           x1="781"
           style="fill:none;stroke-width:2.48093247;stroke-miterlimit:10;stroke-dasharray:none"
           y2="287.42859" />
        <line
           id="line4584"
           y1="178.71429"
           x2="225.6114"
           x1="218.0014"
           style="fill:none;stroke-width:2.48093247;stroke-miterlimit:10;stroke-dasharray:none"
           y2="178.71429" />
        <line
           id="line4586"
           y1="178.71429"
           x2="773.39008"
           x1="781"
           style="fill:none;stroke-width:2.48093247;stroke-miterlimit:10;stroke-dasharray:none"
           y2="178.71429" />
        <line
           id="line4588"
           y1="70"
           x2="225.6114"
           x1="218.0014"
           style="fill:none;stroke-width:2.48093247;stroke-miterlimit:10;stroke-dasharray:none"
           y2="70" />
        <line
           id="line4590"
           y1="70"
           x2="773.39008"
           x1="781"
           style="fill:none;stroke-width:2.48093247;stroke-miterlimit:10;stroke-dasharray:none"
           y2="70" />
      </g>
      <g
         transform="matrix(1.0672847,0,0,0.81299846,-381.4168,-174.35182)"
         id="g4624"
         style="font-size:12px;font-style:normal;font-weight:normal;fill:#808080;fill-opacity:1;stroke:#808080;stroke-width:3.33330011;stroke-linecap:square;stroke-linejoin:miter;stroke-miterlimit:10;stroke-opacity:1;stroke-dasharray:none;stroke-dashoffset:0;font-family:Dialog">
        <path
           inkscape:connector-curvature="0"
           id="path4626"
           style="fill:none;stroke-width:3.8647151;stroke-miterlimit:10;stroke-dasharray:none"
           d="m 217.9442,701.7253 0.7552,-0.0844 1.5786,-0.1791 1.5749,-0.1821 1.5786,-0.1855 1.5749,-0.1886 1.5786,-0.192 1.5749,-0.1956 1.5786,-0.199 1.5749,-0.2028 1.5786,-0.2065 1.5749,-0.2104 1.5786,-0.2143 1.5749,-0.2185 1.5786,-0.2226 1.5749,-0.227 1.5786,-0.2315 1.5749,-0.236 1.5786,-0.2408 1.5749,-0.2456 1.5786,-0.2506 1.575,-0.2559 1.5785,-0.2612 1.575,-0.2667 1.5785,-0.2723 1.5749,-0.2782 1.5786,-0.2843 1.5749,-0.2906 1.5786,-0.297 1.5749,-0.3036 1.5786,-0.3105 1.575,-0.3178 1.5785,-0.3251 1.575,-0.3327 1.5785,-0.3407 1.575,-0.3488 1.5785,-0.3573 1.575,-0.3663 1.5785,-0.3753 1.575,-0.3847 1.5785,-0.3947 1.575,-0.4048 1.5785,-0.4156 1.575,-0.4265 1.5785,-0.438 1.575,-0.45 1.5785,-0.4624 1.575,-0.4754 1.5785,-0.4889 1.575,-0.503 1.5785,-0.5177 1.575,-0.5331 1.5785,-0.5491 1.575,-0.566 1.5785,-0.5834 1.575,-0.6018 1.5785,-0.621 1.575,-0.6412 1.5749,-0.6624 1.5786,-0.6845 1.575,-0.7078 1.5785,-0.7325 1.575,-0.7581 1.5785,-0.7854 1.575,-0.814 1.5785,-0.8441 1.575,-0.8761 1.5785,-0.9098 1.575,-0.9453 1.5785,-0.9832 1.575,-1.0231 1.5785,-1.0656 1.575,-1.1107 1.5785,-1.1586 1.575,-1.2097 1.5785,-1.2642 1.575,-1.3222 1.5785,-1.3843 1.575,-1.4508 1.5785,-1.522 1.575,-1.5984 1.5785,-1.6806 1.575,-1.769 1.5785,-1.8643 1.575,-1.9674 1.5785,-2.0786 1.575,-2.1994 1.5785,-2.3305 1.575,-2.473 1.5785,-2.6284 1.575,-2.7978 1.5785,-2.9835 1.575,-3.1867 1.5785,-3.4102 1.575,-3.656 1.5785,-3.9271 1.575,-4.2266 1.5785,-4.5582 1.575,-4.926 1.5785,-5.3342 1.575,-5.7882 1.5785,-6.2934 1.575,-6.8557 1.5785,-7.4812 1.575,-8.176 1.5785,-8.9458 1.575,-9.7946 1.5786,-10.7245 1.5749,-11.7332 1.5786,-12.8125 1.5749,-13.9461 1.5786,-15.1067 1.5749,-16.254 1.5785,-17.3355 1.575,-18.2876 1.5785,-19.0431 1.575,-19.54 1.5785,-19.7337 1.575,-19.6057 1.5785,-19.1681 1.575,-18.4613 1.5785,-17.5439 1.575,-16.4837 1.5785,-15.3452 1.575,-14.1836 1.5786,-13.0419 1.5749,-11.9496 1.5786,-10.9256 1.5749,-9.9793 1.5786,-9.1137 1.5749,-8.328 1.5786,-7.6182 1.5749,-6.9788 1.5786,-6.4042 1.5749,-5.8877 1.5786,-5.4237 1.5749,-5.0063 1.5786,-4.6307 1.5749,-4.2921 1.5786,-3.9863 1.5749,-3.7095 1.5786,-3.4588 1.5749,-3.231 1.575,-3.0237 1.5785,-2.8347 1.575,-2.662 1.5785,-2.5038 1.575,-2.3588 1.5785,680.8466 1.575,-2.1028 1.5785,-1.9895 1.575,-1.8848 1.5785,-1.788 1.575,-1.6983 1.5786,-1.6148 1.5749,-1.5373 1.5786,-1.4649 1.5749,-1.3977 1.5786,-1.3346 1.5749,-1.2758 1.5786,-1.2206 1.5749,-1.1689 1.5786,-1.1203 1.5749,-1.0747 1.5786,-1.0316 1.5749,-0.9912 1.5786,-0.9529 1.5749,-0.917 1.5786,-0.8828 1.5749,-0.8506 1.5786,-0.82 1.5749,-0.7912 1.5786,-0.7636 1.5749,-0.7376 1.5786,-0.7128 1.5749,-0.6892 1.5786,-0.6669 1.5749,-0.6454 1.5786,-0.6252 1.5749,-0.6056 1.5786,-0.5872 1.5749,-0.5694 1.5786,-0.5525 1.575,-0.5363 1.5785,-0.5208 1.575,-0.506 1.5785,-0.4918 1.575,-0.4781 1.5785,-0.4651 1.575,-0.4525 1.5785,-0.4404 1.575,-0.4288 1.5785,-0.4178 1.575,-0.407 1.5785,-0.3967 1.575,-0.3868 1.5785,-0.3772 1.575,-0.3681 1.5785,-0.3591 1.575,-0.3506 1.5785,-0.3423 1.575,-0.3343 1.5785,-0.3267 1.575,-0.3192 1.5785,-0.312 1.575,-0.305 1.5785,-0.2984 1.575,-0.2919 1.5785,-0.2855 1.575,-0.2795 1.5785,-0.2735 1.575,-0.2678 1.5785,-0.2623 1.575,-0.257 1.5785,-0.2517 1.575,-0.2466 1.5785,-0.2418 1.5749,-0.237 1.5786,-0.2323 1.575,-0.2279 1.5785,-0.2236 1.575,-0.2193 1.5785,-0.2152 1.575,-0.2111 1.5785,-0.2073 1.575,-0.2036 1.5785,-0.1997 1.575,-0.1963 1.5785,-0.1928 1.575,-0.1893 1.575,-0.186 1.5785,-0.1829 1.575,-0.1797 1.5785,-0.1766 1.5749,-0.1736 1.5786,-0.1708 1.5749,-0.1678 1.5786,-0.1652 1.5749,-0.1624 1.5786,-0.1598 1.5749,-0.1572 1.5786,-0.1548 1.5749,-0.1522 1.5786,-0.1499 1.5749,-0.1476 1.5786,-0.1453 1.5749,-0.143 1.5786,-0.1409 1.575,-0.1387 1.5785,-0.1367 1.575,-0.1345 1.5785,-0.1327 1.575,-0.1306 1.5785,-0.1288 1.575,-0.1269 1.5785,-0.1251 1.575,-0.1233 1.5785,-0.1216 1.575,-0.1198 1.5785,-0.1183 1.575,-0.1165 1.5785,-0.1149 1.575,-0.1134 1.5785,-0.1118 1.575,-0.1103 1.5785,-0.1088 1.575,-0.1075 1.5785,-0.1059 1.575,-0.1046 1.5785,-0.1032 1.575,-0.1018 1.5785,-0.1006 1.575,-0.0993 1.5785,-0.098 1.575,-0.0967 1.5785,-0.0956 1.575,-0.0944 1.5786,-0.0932 1.5749,-0.092 1.5786,-0.0909 1.5749,-0.0898 1.5786,-0.0887 1.5749,-0.0877 1.5786,-0.0866 1.5749,-0.0856 1.5786,-0.0845 1.5749,-0.0835 1.5786,-0.0826 1.5749,-0.0816 1.5786,-0.0807 1.5749,-0.0798 1.5786,-0.0788 1.5749,-0.078 1.5786,-0.0771 1.5749,-0.0761 1.5786,-0.0754 1.5749,-0.0745 1.5786,-0.0737 1.5749,-0.0729 1.5786,-0.0721 1.5749,-0.0713 1.5786,-0.0705 1.5749,-0.0698 1.5786,-0.069 1.5749,-0.0683 1.5786,-0.0676 1.5749,-0.0668 1.5786,-0.0662 1.575,-0.0655 1.5785,-0.0648 1.575,-0.0641 1.5785,-0.0635 1.575,-0.0628 1.5785,-0.0622 1.575,-0.0615 1.5749,-0.0609 1.5786,-0.0604 1.5749,-0.0597 1.5786,-0.0591 1.5749,-0.0586 1.5786,-0.058 1.5749,-0.0574 1.5786,-0.0568 1.5749,-0.0564 1.5786,-0.0557 1.5749,-0.0552 1.5786,-0.0547 1.5749,-0.0542 1.5786,-0.0537 1.5749,-0.0532 1.5786,-0.0527 1.5749,-0.0521 1.5785,-0.0517 1.575,-0.0512 1.5785,-0.0508 1.575,-0.0503 1.5785,-0.0498 1.5751,-0.0494 1.5784,-0.0489 1.5751,-0.0485 1.5784,-0.0481 1.5751,-0.0476 1.5784,-0.0473 1.5751,-0.0468 1.5785,-0.0464 1.575,-0.0459 1.5785,-0.0456 1.575,-0.0452 1.5785,-0.0448 1.5749,-0.0444 1.5786,-0.044 1.5749,-0.0437 1.5786,-0.0433 1.5749,-0.0429 1.5786,-0.0426 1.5749,-0.0422 1.5786,-0.0418 1.5749,-0.0415 1.0417,-0.0272" />
        <path
           inkscape:connector-curvature="0"
           id="path4628"
           style="fill:none;stroke:#0000ff;stroke-width:2.57647681;stroke-miterlimit:10;stroke-dasharray:none"
           d="m 217.9442,701.9792 0.7552,-0.0836 1.5786,-0.1772 1.5749,-0.1804 1.5786,-0.1836 1.5749,-0.1868 1.5786,-0.1902 1.5749,-0.1936 1.5786,-0.1972 1.5749,-0.2008 1.5786,-0.2045 1.5749,-0.2084 1.5786,-0.2123 1.5749,-0.2164 1.5786,-0.2205 1.5749,-0.2249 1.5786,-0.2293 1.5749,-0.2339 1.5786,-0.2385 1.5749,-0.2434 1.5786,-0.2484 1.575,-0.2534 1.5785,-0.2588 1.575,-0.2643 1.5785,-0.2699 1.5749,-0.2758 1.5786,-0.2817 1.5749,-0.288 1.5786,-0.2943 1.5749,-0.3011 1.5786,-0.3078 1.575,-0.315 1.5785,-0.3222 1.575,-0.3299 1.5785,-0.3378 1.575,-0.3459 1.5785,-0.3544 1.575,-0.3631 1.5785,-0.3721 1.575,-0.3817 1.5785,-0.3914 1.575,-0.4016 1.5785,-0.4121 1.575,-0.4231 1.5785,-0.4345 1.575,-0.4465 1.5785,-0.4588 1.575,-0.4717 1.5785,-0.4851 1.575,-0.4992 1.5785,-0.5137 1.575,-0.5291 1.5785,-0.545 1.575,-0.5617 1.5785,-0.5792 1.575,-0.5974 1.5785,-0.6166 1.575,-0.6366 1.5749,-0.6577 1.5786,-0.6798 1.575,-0.703 1.5785,-0.7273 1.575,-0.7531 1.5785,-0.7801 1.575,-0.8086 1.5785,-0.8387 1.575,-0.8704 1.5785,-0.904 1.575,-0.9394 1.5785,-0.9771 1.575,-1.0169 1.5785,-1.0592 1.575,-1.1041 1.5785,-1.1519 1.575,-1.2028 1.5785,-1.257 1.575,-1.3149 1.5785,-1.3767 1.575,-1.443 1.5785,-1.5141 1.575,-1.5901 1.5785,-1.6721 1.575,-1.7602 1.5785,-1.8554 1.575,-1.958 1.5785,-2.0691 1.575,-2.1894 1.5785,-2.3202 1.575,-2.4624 1.5785,-2.6174 1.575,-2.7865 1.5785,-2.9716 1.575,-3.1746 1.5785,-3.3975 1.575,-3.6428 1.5785,-3.9135 1.575,-4.2124 1.5785,-4.5435 1.575,-4.9105 1.5785,-5.3182 1.575,-5.7715 1.5785,-6.276 1.575,-6.8374 1.5785,-7.4621 1.575,-8.1562 1.5785,-8.9248 1.575,-9.7727 1.5786,-10.7015 1.5749,-11.7089 1.5786,-12.787 1.5749,-13.9192 1.5786,-15.0782 1.5749,-16.224 1.5785,-17.3036 1.575,-18.2538 1.5785,-19.0071 1.575,-19.5017 1.5785,-19.6929 1.575,-19.5619 1.5785,-19.1212 1.575,-18.4108 1.5785,-17.4896 1.575,-16.4249 1.5785,-15.2814 1.575,-14.1142 1.5786,-12.966 1.5749,-11.8665 1.5786,-10.834 1.5749,-9.8777 1.5786,-9.0007 1.5749,-8.2015 1.5786,-7.4754 1.5749,-6.8166 1.5786,-6.2179 1.5749,-5.6721 1.5786,-5.171 1.5749,-4.7062 1.5786,-4.2681 1.5749,-3.8454 1.5786,-3.4226 1.5749,-2.9758 1.5786,-2.4645 1.5749,-1.8073 1.575,-0.8163 1.5785,1.0479 1.575,5.9586 1.5785,32.575 1.575,529.6843 1.5785,64.1182 1.575,9.1703 1.5785,2.6276 1.575,0.6251 1.5785,-0.211 1.575,-0.6157 1.5786,-0.8258 1.5749,-0.9365 1.5786,-0.9925 1.5749,-1.0161 1.5786,-1.0203 1.5749,-1.0121 1.5786,-0.9964 1.5749,-0.9759 1.5786,-0.9524 1.5749,-0.9272 1.5786,-0.9013 1.5749,-0.875 1.5786,-0.8487 1.5749,-0.8229 1.5786,-0.7976 1.5749,-0.773 1.5786,-0.7492 1.5749,-0.7259 1.5786,-0.7037 1.5749,-0.6821 1.5786,-0.6614 1.5749,-0.6415 1.5786,-0.6223 1.5749,-0.6039 1.5786,-0.5862 1.5749,-0.5691 1.5786,-0.5528 1.5749,-0.5371 1.5786,-0.522 1.575,-0.5075 1.5785,-0.4935 1.575,-0.4801 1.5785,-0.4672 1.575,-0.4548 1.5785,-0.4429 1.575,-0.4313 1.5785,-0.4203 1.575,-0.4095 1.5785,-0.3993 1.575,-0.3894 1.5785,-0.3798 1.575,-0.3706 1.5785,-0.3617 1.575,-0.3531 1.5785,-0.3448 1.575,-0.3368 1.5785,-0.329 1.575,-0.3216 1.5785,-0.3144 1.575,-0.3073 1.5785,-0.3005 1.575,-0.294 1.5785,-0.2876 1.575,-0.2815 1.5785,-0.2755 1.575,-0.2698 1.5785,-0.2642 1.575,-0.2587 1.5785,-0.2535 1.575,-0.2483 1.5785,-0.2435 1.575,-0.2386 1.5785,-0.2339 1.5749,-0.2294 1.5786,-0.225 1.575,-0.2207 1.5785,-0.2166 1.575,-0.2125 1.5785,-0.2085 1.575,-0.2048 1.5785,-0.201 1.575,-0.1974 1.5785,-0.1938 1.575,-0.1904 1.5785,-0.1871 1.575,-0.1839 1.575,-0.1806 1.5785,-0.1776 1.575,-0.1745 1.5785,-0.1715 1.5749,-0.1688 1.5786,-0.1659 1.5749,-0.1632 1.5786,-0.1606 1.5749,-0.1579 1.5786,-0.1554 1.5749,-0.1529 1.5786,-0.1505 1.5749,-0.1482 1.5786,-0.1459 1.5749,-0.1436 1.5786,-0.1413 1.5749,-0.1392 1.5786,-0.1372 1.575,-0.1351 1.5785,-0.1331 1.575,-0.1311 1.5785,-0.1292 1.575,-0.1273 1.5785,-0.1254 1.575,-0.1237 1.5785,-0.1219 1.575,-0.1202 1.5785,-0.1185 1.575,-0.1168 1.5785,-0.1152 1.575,-0.1136 1.5785,-0.1121 1.575,-0.1106 1.5785,-0.109 1.575,-0.1076 1.5785,-0.1062 1.575,-0.1047 1.5785,-0.1034 1.575,-0.1021 1.5785,-0.1007 1.575,-0.0994 1.5785,-0.0981 1.575,-0.0969 1.5785,-0.0957 1.575,-0.0945 1.5785,-0.0932 1.575,-0.0922 1.5786,-0.0909 1.5749,-0.0899 1.5786,-0.0888 1.5749,-0.0877 1.5786,-0.0866 1.5749,-0.0856 1.5786,-0.0846 1.5749,-0.0836 1.5786,-0.0826 1.5749,-0.0817 1.5786,-0.0807 1.5749,-0.0797 1.5786,-0.0788 1.5749,-0.078 1.5786,-0.077 1.5749,-0.0762 1.5786,-0.0754 1.5749,-0.0744 1.5786,-0.0737 1.5749,-0.0728 1.5786,-0.072 1.5749,-0.0713 1.5786,-0.0705 1.5749,-0.0697 1.5786,-0.069 1.5749,-0.0682 1.5786,-0.0675 1.5749,-0.0668 1.5786,-0.066 1.5749,-0.0655 1.5786,-0.0647 1.575,-0.064 1.5785,-0.0634 1.575,-0.0627 1.5785,-0.0621 1.575,-0.0614 1.5785,-0.0609 1.575,-0.0602 1.5749,-0.0596 1.5786,-0.0591 1.5749,-0.0584 1.5786,-0.0578 1.5749,-0.0574 1.5786,-0.0567 1.5749,-0.0562 1.5786,-0.0556 1.5749,-0.0551 1.5786,-0.0546 1.5749,-0.054 1.5786,-0.0536 1.5749,-0.053 1.5786,-0.0525 1.5749,-0.0521 1.5786,-0.0516 1.5749,-0.0511 1.5785,-0.0506 1.575,-0.0501 1.5785,-0.0497 1.575,-0.0493 1.5785,-0.0487 1.5751,-0.0484 1.5784,-0.0479 1.5751,-0.0475 1.5784,-0.0471 1.5751,-0.0466 1.5784,-0.0462 1.5751,-0.0459 1.5785,-0.0454 1.575,-0.0451 1.5785,-0.0446 1.575,-0.0443 1.5785,-0.0438 1.5749,-0.0436 1.5786,-0.0431 1.5749,-0.0427 1.5786,-0.0425 1.5749,-0.042 1.5786,-0.0417 1.5749,-0.0414 1.5786,-0.0409 1.5749,-0.0407 1.0417,-0.0267" />
        <path
           inkscape:connector-curvature="0"
           id="path4630"
           style="fill:none;stroke:#00aad4;stroke-width:2.57647681;stroke-miterlimit:10;stroke-dasharray:none"
           d="m 217.9442,703.2121 1.9472,-0.236 3.5723,-0.4512 3.5759,-0.4709 3.5723,-0.4924 3.5723,-0.5148 3.5723,-0.5392 3.5758,-0.5649 3.8265,-0.5931 3.5723,-0.6232 3.5759,-0.6555 3.5723,-0.6905 3.5722,-0.7284 3.5724,-0.7697 3.5758,-0.8145 3.5723,-0.8636 3.5723,-0.9169 3.5723,-0.9761 3.5759,-1.0404 3.5723,-1.1114 3.5723,-1.1914 3.83,-1.2798 3.5723,-1.3782 3.5723,-1.4888 3.5723,-1.6139 3.5759,-1.7564 3.5723,-1.9188 3.5723,-2.1058 3.5723,-2.3217 3.5759,-2.5744 3.5723,-2.8711 3.5723,-3.2218 3.5723,-3.6401 3.5759,-4.1405 3.8264,-4.7401 3.5723,-5.4585 3.5759,-6.3135 3.5723,-7.3189 3.5723,-8.4847 3.5723,-9.8076 3.5758,-11.2692 3.5723,-12.8418 3.5723,-14.4773 3.5723,-16.1239 3.5723,-17.7212 3.5759,-19.2142 3.5723,-20.5505 3.83,-21.695 3.5723,-22.6104 3.5723,-23.2822 3.5723,-23.6933 3.5759,-23.8323 3.5723,-23.691 3.5723,-23.2627 3.5723,-22.5365 3.5723,-21.5145 3.5759,-20.1861 3.5723,-18.538 3.5723,-16.5463 3.5723,-14.1285 3.5758,-11.0497 3.8265,-6.6772 3.5759,1.0197 3.5723,20.9471 3.5723,123.3711 3.5723,320.5474 3.5723,71.1756 3.5758,17.1638 3.5723,5.4466 3.5723,1.4742 3.5723,-0.1739 3.5759,-0.9132 3.5723,-1.2503 3.5723,-1.3915 3.83,-1.4264 3.5723,-1.411 3.5723,-1.3698 3.5723,-1.3111 3.5759,-1.2503 3.5723,-1.1871 3.5723,-1.122 3.5723,-1.0653 3.5759,-1.0045 3.5723,-0.9502 3.5723,-0.9002 3.5723,-0.8523 3.5758,-0.8067 3.8265,-0.7675 3.5723,-0.7284 3.5759,-0.6914 3.5723,-0.6566 3.5723,-0.6284 3.5722,-0.5957 3.5759,-0.5719 3.5723,-0.5436 3.5723,-0.5196 3.5723,-0.5001 3.5759,-0.4762 3.5723,-0.4566 3.5723,-0.4392 3.83,-0.4196 3.5723,-0.4044 3.5723,-0.387 3.5723,-0.374 3.5759,-0.361 3.5723,-0.3456 3.5723,-0.3348 3.5723,-0.3218 3.5759,-0.3109 3.5723,-0.3001 3.5723,-0.2892 3.5723,-0.2805 3.5759,-0.2718 3.8264,-0.2609 3.5723,-0.2544 3.5759,-0.2457 3.5722,-0.237 3.5724,-0.2326 3.5723,-0.224 3.5759,-0.2152 3.5722,-0.2131 3.5724,-0.2044 3.5722,-0.1978 3.5759,-0.1936 3.5723,-0.1869 3.5723,-0.1827 3.8301,-0.1783 3.5722,-0.1717 3.5724,-0.1697 3.5722,-0.163 3.5759,-0.1609 3.5723,-0.1544 3.5723,-0.15 3.5723,-0.1478 3.5759,-0.1435 3.5723,-0.1414 3.5723,-0.137 3.5723,-0.1326 3.5759,-0.1305 3.8264,-0.1282 3.5723,-0.124 3.5759,-0.1217 3.5723,-0.1174 3.5723,-0.1153 3.5723,-0.113 3.5758,-0.1109 3.5724,-0.1087 3.5722,-0.1044 3.5724,-0.1044 3.5758,-0.1 3.5723,-0.1 3.5723,-0.0957 3.5723,-0.0956 3.8301,-0.0935 3.5722,-0.0892 3.5724,-0.0891 3.5758,-0.087 3.5723,-0.0848 0.6873,-0.0163" />
      </g>
      <g
         transform="matrix(1.0672847,0,0,0.81299846,-381.4168,-174.35182)"
         id="g4632"
         style="font-size:12px;font-style:normal;font-weight:normal;fill:#000000;fill-opacity:1;stroke:#000000;stroke-width:1;stroke-linecap:butt;stroke-linejoin:bevel;stroke-miterlimit:1;stroke-opacity:1;stroke-dasharray:10, 6;stroke-dashoffset:0;font-family:Dialog">
        <path
           inkscape:connector-curvature="0"
           id="path4634"
           style="fill:none;stroke-width:2.57647681;stroke-miterlimit:1;stroke-dasharray:7.72943041, 7.72943041;stroke-dashoffset:0"
           d="m 217.9442,698.9416 1.9472,-0.3549 3.5723,-0.6904 3.5759,-0.736 3.5723,-0.7843 3.5723,-0.8347 3.5723,-0.8944 3.5758,-0.9617 3.8265,-1.0539 3.5723,-1.1261 3.5759,-1.2254 3.5723,-1.3402 3.5722,-1.5112 3.5724,-1.665 3.5758,-1.8036 3.5723,-2.0177 3.5723,-2.2754 3.5723,-2.5718 3.5759,-2.9083 3.5723,-3.3008 3.5723,-3.7424 3.83,-4.2812 3.5723,-4.7551 3.5723,-5.2907 3.5723,-5.8212 3.5759,-6.4953 3.5723,-6.9337 3.5723,-7.1243 3.5723,-7.4091 3.5759,-7.6096 3.5723,-7.6889 3.5723,-7.6365 3.5723,-7.5111 3.5759,-7.31 3.8264,-7.2181 3.5723,-6.7506 3.5759,-6.4217 3.5723,-6.0839 3.5723,-5.7531 3.5723,-5.4933 3.5758,-5.1794 3.5723,-4.8641 3.5723,-4.658 3.5723,-4.4288 3.5723,-4.1526 3.5759,-3.9416 3.5723,-3.7381 3.83,-3.7088 3.5723,-3.3276 3.5723,-3.1242 3.5723,-2.9157 3.5759,-2.7005 3.5723,-2.4069 3.5723,-2.1569 3.5723,-1.9699 3.5723,-1.8025 3.5759,-1.5089 3.5723,-1.0306 3.5723,-0.6328 3.5723,-0.1565 3.5758,0.4088 3.8265,1.2545 3.5759,2.0482 3.5723,3.1831 3.5723,4.6509 3.5723,6.7576 3.5723,9.2233 3.5758,12.1108 3.5723,15.8921 3.5723,20.1433 3.5723,23.8723 3.5759,26.6535 3.5723,27.4482 3.5723,25.9383 3.83,22.9437 3.5723,18.3648 3.5723,14.2329 3.5723,10.6109 3.5759,7.6687 3.5723,5.3683 3.5723,3.6462 3.5723,2.3917 3.5759,1.5394 3.5723,0.8806 3.5723,0.3935 3.5723,0.0827 3.5758,-0.1305 3.8265,-0.2805 3.5723,-0.3631 3.5759,-0.4218 3.5723,-0.4566 3.5723,-0.4827 3.5722,-0.4892 3.5759,-0.4849 3.5723,-0.4805 3.5723,-0.4783 3.5723,-0.4697 3.5759,-0.45 3.5723,-0.4392 3.5723,-0.4262 3.83,-0.4218 3.5723,-0.4001 3.5723,-0.387 3.5723,-0.374 3.5759,-0.3653 3.5723,-0.3544 3.5723,-0.3392 3.5723,-0.3261 3.5759,-0.3218 3.5723,-0.3109 3.5723,-0.2978 3.5723,-0.2871 3.5759,-0.2782 3.8264,-0.2762 3.5723,-0.2609 3.5759,-0.2522 3.5722,-0.2457 3.5724,-0.2392 3.5723,-0.2348 3.5759,-0.2239 3.5722,-0.2175 3.5724,-0.2152 3.5722,-0.2088 3.5759,-0.2 3.5723,-0.1935 3.5723,-0.1892 3.8301,-0.187 3.5722,-0.1805 3.5724,-0.1739 3.5722,-0.1696 3.5759,-0.1652 3.5723,-0.1609 3.5723,-0.1587 3.5723,-0.1522 3.5759,-0.1523 3.5723,-0.1478 3.5723,-0.1413 3.5723,-0.1392 3.5759,-0.1348 3.8264,-0.1348 3.5723,-0.1282 3.5759,-0.1262 3.5723,-0.1239 3.5723,-0.1196 3.5723,-0.1196 3.5758,-0.1152 3.5724,-0.1109 3.5722,-0.1131 3.5724,-0.1087 3.5758,-0.1043 3.5723,-0.1044 3.5723,-0.1001 3.5723,-0.0978 3.8301,-0.0978 3.5722,-0.0957 3.5724,-0.0935 3.5758,-0.0891 3.5723,-0.0892 0.6873,-0.0167" />
      </g>
      <text
         sodipodi:linespacing="125%"
         id="text4450"
         y="512.58258"
         x="-179.81374"
         style="font-size:33.18000031px;font-style:normal;font-variant:normal;font-weight:normal;font-stretch:normal;text-align:center;line-height:125%;writing-mode:lr-tb;text-anchor:middle;fill:#000000;fill-opacity:1;stroke:none;font-family:Gill Sans MT;-inkscape-font-specification:Gill Sans MT"
         xml:space="preserve"><tspan
           y="512.58258"
           x="-179.81374"
           id="tspan4452"
           sodipodi:role="line">-0.5</tspan><tspan
           id="tspan6338"
           y="554.05756"
           x="-179.81374"
           sodipodi:role="line" /></text>
      <text
         sodipodi:linespacing="125%"
         id="text4450-4"
         y="424.21432"
         x="-180.19447"
         style="font-size:33.18000031px;font-style:normal;font-variant:normal;font-weight:normal;font-stretch:normal;text-align:center;line-height:125%;writing-mode:lr-tb;text-anchor:middle;fill:#000000;fill-opacity:1;stroke:none;font-family:Gill Sans MT;-inkscape-font-specification:Gill Sans MT"
         xml:space="preserve"><tspan
           y="424.21432"
           x="-180.19447"
           id="tspan4452-9"
           sodipodi:role="line">0</tspan><tspan
           id="tspan6338-1"
           y="465.68933"
           x="-180.19447"
           sodipodi:role="line" /></text>
      <text
         sodipodi:linespacing="125%"
         id="text4450-9"
         y="335.81357"
         x="-179.65993"
         style="font-size:33.18000031px;font-style:normal;font-variant:normal;font-weight:normal;font-stretch:normal;text-align:center;line-height:125%;writing-mode:lr-tb;text-anchor:middle;fill:#000000;fill-opacity:1;stroke:none;font-family:Gill Sans MT;-inkscape-font-specification:Gill Sans MT"
         xml:space="preserve"><tspan
           y="335.81357"
           x="-179.65993"
           id="tspan4452-6"
           sodipodi:role="line">0.5</tspan><tspan
           id="tspan6338-9"
           y="377.28857"
           x="-179.65993"
           sodipodi:role="line" /></text>
      <text
         sodipodi:linespacing="125%"
         id="text4450-1"
         y="247.41273"
         x="-180.21071"
         style="font-size:33.18000031px;font-style:normal;font-variant:normal;font-weight:normal;font-stretch:normal;text-align:center;line-height:125%;writing-mode:lr-tb;text-anchor:middle;fill:#000000;fill-opacity:1;stroke:none;font-family:Gill Sans MT;-inkscape-font-specification:Gill Sans MT"
         xml:space="preserve"><tspan
           y="247.41273"
           x="-180.21071"
           id="tspan4452-8"
           sodipodi:role="line">1</tspan><tspan
           id="tspan6338-8"
           y="288.88773"
           x="-180.21071"
           sodipodi:role="line" /></text>
      <text
         sodipodi:linespacing="125%"
         id="text4450-48"
         y="158.89867"
         x="-182.50319"
         style="font-size:33.18000031px;font-style:normal;font-variant:normal;font-weight:normal;font-stretch:normal;text-align:center;line-height:125%;writing-mode:lr-tb;text-anchor:middle;fill:#000000;fill-opacity:1;stroke:none;font-family:Gill Sans MT;-inkscape-font-specification:Gill Sans MT"
         xml:space="preserve"><tspan
           y="158.89867"
           x="-182.50319"
           id="tspan4452-89"
           sodipodi:role="line">1.5</tspan><tspan
           id="tspan6338-2"
           y="200.37367"
           x="-182.50319"
           sodipodi:role="line" /></text>
      <text
         sodipodi:linespacing="125%"
         id="text4450-10"
         y="70.789474"
         x="-180.17836"
         style="font-size:33.18000031px;font-style:normal;font-variant:normal;font-weight:normal;font-stretch:normal;text-align:center;line-height:125%;writing-mode:lr-tb;text-anchor:middle;fill:#000000;fill-opacity:1;stroke:none;font-family:Gill Sans MT;-inkscape-font-specification:Gill Sans MT"
         xml:space="preserve"><tspan
           id="tspan6338-3"
           y="70.789474"
           x="-180.17836"
           sodipodi:role="line">2</tspan></text>
      <text
         sodipodi:linespacing="125%"
         id="text4450-2"
         y="-17.724623"
         x="-179.71657"
         style="font-size:33.18000031px;font-style:normal;font-variant:normal;font-weight:normal;font-stretch:normal;text-align:center;line-height:125%;writing-mode:lr-tb;text-anchor:middle;fill:#000000;fill-opacity:1;stroke:none;font-family:Gill Sans MT;-inkscape-font-specification:Gill Sans MT"
         xml:space="preserve"><tspan
           y="-17.724623"
           x="-179.71657"
           id="tspan4452-0"
           sodipodi:role="line">2.5</tspan><tspan
           id="tspan6338-16"
           y="23.750378"
           x="-179.71657"
           sodipodi:role="line" /></text>
      <text
         sodipodi:linespacing="125%"
         id="text4450-8"
         y="-106.09302"
         x="-179.97585"
         style="font-size:33.18000031px;font-style:normal;font-variant:normal;font-weight:normal;font-stretch:normal;text-align:center;line-height:125%;writing-mode:lr-tb;text-anchor:middle;fill:#000000;fill-opacity:1;stroke:none;font-family:Gill Sans MT;-inkscape-font-specification:Gill Sans MT"
         xml:space="preserve"><tspan
           y="-106.09302"
           x="-179.97585"
           id="tspan4452-03"
           sodipodi:role="line">3</tspan><tspan
           id="tspan6338-34"
           y="-64.618019"
           x="-179.97585"
           sodipodi:role="line" /></text>
      <text
         sodipodi:linespacing="125%"
         id="text4450-19"
         y="547.07526"
         x="-149.33046"
         style="font-size:33.18000031px;font-style:normal;font-variant:normal;font-weight:normal;font-stretch:normal;text-align:center;line-height:125%;writing-mode:lr-tb;text-anchor:middle;fill:#000000;fill-opacity:1;stroke:none;font-family:Gill Sans MT;-inkscape-font-specification:Gill Sans MT"
         xml:space="preserve"><tspan
           id="tspan6338-39"
           y="547.07526"
           x="-149.33046"
           sodipodi:role="line">34.4</tspan></text>
      <text
         sodipodi:linespacing="125%"
         id="text4450-19-9"
         y="547.07526"
         x="-48.634296"
         style="font-size:33.18000031px;font-style:normal;font-variant:normal;font-weight:normal;font-stretch:normal;text-align:center;line-height:125%;writing-mode:lr-tb;text-anchor:middle;fill:#000000;fill-opacity:1;stroke:none;font-family:Gill Sans MT;-inkscape-font-specification:Gill Sans MT"
         xml:space="preserve"><tspan
           id="tspan6338-39-4"
           y="547.07526"
           x="-48.634296"
           sodipodi:role="line">34.5</tspan></text>
      <text
         sodipodi:linespacing="125%"
         id="text4450-19-95"
         y="547.07526"
         x="51.049297"
         style="font-size:33.18000031px;font-style:normal;font-variant:normal;font-weight:normal;font-stretch:normal;text-align:center;line-height:125%;writing-mode:lr-tb;text-anchor:middle;fill:#000000;fill-opacity:1;stroke:none;font-family:Gill Sans MT;-inkscape-font-specification:Gill Sans MT"
         xml:space="preserve"><tspan
           id="tspan6338-39-5"
           y="547.07526"
           x="51.049297"
           sodipodi:role="line">34.6</tspan></text>
      <text
         sodipodi:linespacing="125%"
         id="text4450-19-2"
         y="547.07526"
         x="150.79356"
         style="font-size:33.18000031px;font-style:normal;font-variant:normal;font-weight:normal;font-stretch:normal;text-align:center;line-height:125%;writing-mode:lr-tb;text-anchor:middle;fill:#000000;fill-opacity:1;stroke:none;font-family:Gill Sans MT;-inkscape-font-specification:Gill Sans MT"
         xml:space="preserve"><tspan
           id="tspan6338-39-1"
           y="547.07526"
           x="150.79356"
           sodipodi:role="line">34.7</tspan></text>
      <text
         sodipodi:linespacing="125%"
         id="text4450-19-0"
         y="547.07526"
         x="251.31139"
         style="font-size:33.18000031px;font-style:normal;font-variant:normal;font-weight:normal;font-stretch:normal;text-align:center;line-height:125%;writing-mode:lr-tb;text-anchor:middle;fill:#000000;fill-opacity:1;stroke:none;font-family:Gill Sans MT;-inkscape-font-specification:Gill Sans MT"
         xml:space="preserve"><tspan
           id="tspan6338-39-7"
           y="547.07526"
           x="251.31139"
           sodipodi:role="line">34.8</tspan></text>
      <text
         sodipodi:linespacing="125%"
         id="text4450-19-26"
         y="547.07526"
         x="351.57407"
         style="font-size:33.18000031px;font-style:normal;font-variant:normal;font-weight:normal;font-stretch:normal;text-align:center;line-height:125%;writing-mode:lr-tb;text-anchor:middle;fill:#000000;fill-opacity:1;stroke:none;font-family:Gill Sans MT;-inkscape-font-specification:Gill Sans MT"
         xml:space="preserve"><tspan
           id="tspan6338-39-19"
           y="547.07526"
           x="351.57407"
           sodipodi:role="line">34.9</tspan></text>
      <text
         sodipodi:linespacing="125%"
         id="text4450-19-263"
         y="547.07526"
         x="452.10013"
         style="font-size:33.18000031px;font-style:normal;font-variant:normal;font-weight:normal;font-stretch:normal;text-align:center;line-height:125%;writing-mode:lr-tb;text-anchor:middle;fill:#000000;fill-opacity:1;stroke:none;font-family:Gill Sans MT;-inkscape-font-specification:Gill Sans MT"
         xml:space="preserve"><tspan
           id="tspan6338-39-8"
           y="547.07526"
           x="452.10013"
           sodipodi:role="line">35</tspan></text>
      <text
         sodipodi:linespacing="125%"
         id="text5418-3-2"
         y="588.58588"
         x="151.62816"
         style="font-size:29.375px;font-style:normal;font-variant:normal;font-weight:normal;font-stretch:normal;text-align:center;line-height:125%;writing-mode:lr-tb;text-anchor:middle;fill:#000000;fill-opacity:1;stroke:none;font-family:Gill Sans MT;-inkscape-font-specification:Gill Sans MT"
         xml:space="preserve"><tspan
           y="588.58588"
           x="151.62816"
           id="tspan5420-4-5"
           sodipodi:role="line">\'{E}nergie de photoélectron (eV)</tspan></text>
      <text
         transform="matrix(0,-1,1,0,0,0)"
         sodipodi:linespacing="125%"
         id="text5418-3-2-7"
         y="-223.80556"
         x="-183.96855"
         style="font-size:29.375px;font-style:normal;font-variant:normal;font-weight:normal;font-stretch:normal;text-align:center;line-height:125%;writing-mode:lr-tb;text-anchor:middle;fill:#000000;fill-opacity:1;stroke:none;font-family:Gill Sans MT;-inkscape-font-specification:Gill Sans MT"
         xml:space="preserve"><tspan
           y="-223.80556"
           x="-183.96855"
           id="tspan5420-4-5-3"
           sodipodi:role="line">Phase (rad)</tspan></text>
    </g>
  </g>
</svg>
