<?xml version="1.0" encoding="UTF-8" standalone="no"?>
<!-- Created with Inkscape (http://www.inkscape.org/) -->

<svg
   xmlns:dc="http://purl.org/dc/elements/1.1/"
   xmlns:cc="http://creativecommons.org/ns#"
   xmlns:rdf="http://www.w3.org/1999/02/22-rdf-syntax-ns#"
   xmlns:svg="http://www.w3.org/2000/svg"
   xmlns="http://www.w3.org/2000/svg"
   xmlns:sodipodi="http://sodipodi.sourceforge.net/DTD/sodipodi-0.dtd"
   xmlns:inkscape="http://www.inkscape.org/namespaces/inkscape"
   id="svg3336"
   version="1.1"
   inkscape:version="0.48.4 r9939"
   xml:space="preserve"
   width="1272.5"
   height="935"
   viewBox="0 0 1272.5 935"
   sodipodi:docname="ProfilTemporel_Lund.pdf"><metadata
     id="metadata3342"><rdf:RDF><cc:Work
         rdf:about=""><dc:format>image/svg+xml</dc:format><dc:type
           rdf:resource="http://purl.org/dc/dcmitype/StillImage" /><dc:title></dc:title></cc:Work></rdf:RDF></metadata><defs
     id="defs3340"><marker
       inkscape:stockid="Arrow1Mend"
       orient="auto"
       refY="0.0"
       refX="0.0"
       id="Arrow1Mend"
       style="overflow:visible;"><path
         id="path3978"
         d="M 0.0,0.0 L 5.0,-5.0 L -12.5,0.0 L 5.0,5.0 L 0.0,0.0 z "
         style="fill-rule:evenodd;stroke:#000000;stroke-width:1.0pt;"
         transform="scale(0.4) rotate(180) translate(10,0)" /></marker><marker
       inkscape:stockid="Arrow1Send"
       orient="auto"
       refY="0.0"
       refX="0.0"
       id="Arrow1Send"
       style="overflow:visible;"><path
         id="path3984"
         d="M 0.0,0.0 L 5.0,-5.0 L -12.5,0.0 L 5.0,5.0 L 0.0,0.0 z "
         style="fill-rule:evenodd;stroke:#000000;stroke-width:1.0pt;"
         transform="scale(0.2) rotate(180) translate(6,0)" /></marker><clipPath
       clipPathUnits="userSpaceOnUse"
       id="clipPath3352"><path
         d="m 0,0 1357,0 0,997 L 0,997 0,0 Z"
         id="path3354"
         inkscape:connector-curvature="0" /></clipPath><marker
       inkscape:stockid="Arrow1Mend"
       orient="auto"
       refY="0"
       refX="0"
       id="Arrow1Mend-1"
       style="overflow:visible"><path
         inkscape:connector-curvature="0"
         id="path3978-7"
         d="M 0,0 5,-5 -12.5,0 5,5 0,0 z"
         style="fill-rule:evenodd;stroke:#000000;stroke-width:1pt"
         transform="matrix(-0.4,0,0,-0.4,-4,0)" /></marker></defs><sodipodi:namedview
     pagecolor="#ffffff"
     bordercolor="#666666"
     borderopacity="1"
     objecttolerance="10"
     gridtolerance="10"
     guidetolerance="10"
     inkscape:pageopacity="0"
     inkscape:pageshadow="2"
     inkscape:window-width="1680"
     inkscape:window-height="988"
     id="namedview3338"
     showgrid="true"
     inkscape:zoom="0.61257379"
     inkscape:cx="871.11885"
     inkscape:cy="578.9711"
     inkscape:window-x="-8"
     inkscape:window-y="-8"
     inkscape:window-maximized="1"
     inkscape:current-layer="g3344"><inkscape:grid
       type="xygrid"
       id="grid3961" /></sodipodi:namedview><g
     id="g3344"
     inkscape:groupmode="layer"
     inkscape:label="ProfilTemporel"
     transform="matrix(1.25,0,0,-1.25,0,935)"><path
   d="m 152.85,154 753.75,0 0,560.25 -753.75,0 0,-560.25 z"
   style="fill:#ffffff;fill-opacity:1;fill-rule:nonzero;stroke:none"
   id="path3364"
   inkscape:connector-curvature="0" /><path
   d="m 152.85,154 753.75,0"
   style="fill:none;stroke:#262626;stroke-width:0.50000024;stroke-linecap:butt;stroke-linejoin:round;stroke-miterlimit:10;stroke-dasharray:none;stroke-opacity:1"
   id="path3368"
   inkscape:connector-curvature="0" /><path
   d="m 152.85,714.25 753.75,0"
   style="fill:none;stroke:#262626;stroke-width:0.50000024;stroke-linecap:butt;stroke-linejoin:round;stroke-miterlimit:10;stroke-dasharray:none;stroke-opacity:1"
   id="path3372"
   inkscape:connector-curvature="0" /><path
   d="m 152.85,154 0,7.53749"
   style="fill:none;stroke:#262626;stroke-width:0.50000024;stroke-linecap:square;stroke-linejoin:round;stroke-miterlimit:10;stroke-dasharray:none;stroke-opacity:1"
   id="path3376"
   inkscape:connector-curvature="0" /><path
   d="m 260.52858,154 0,7.53749"
   style="fill:none;stroke:#262626;stroke-width:0.50000024;stroke-linecap:square;stroke-linejoin:round;stroke-miterlimit:10;stroke-dasharray:none;stroke-opacity:1"
   id="path3380"
   inkscape:connector-curvature="0" /><path
   d="m 368.20714,154 0,7.53749"
   style="fill:none;stroke:#262626;stroke-width:0.50000024;stroke-linecap:square;stroke-linejoin:round;stroke-miterlimit:10;stroke-dasharray:none;stroke-opacity:1"
   id="path3384"
   inkscape:connector-curvature="0" /><path
   d="m 475.88572,154 0,7.53749"
   style="fill:none;stroke:#262626;stroke-width:0.50000024;stroke-linecap:square;stroke-linejoin:round;stroke-miterlimit:10;stroke-dasharray:none;stroke-opacity:1"
   id="path3388"
   inkscape:connector-curvature="0" /><path
   d="m 583.56428,154 0,7.53749"
   style="fill:none;stroke:#262626;stroke-width:0.50000024;stroke-linecap:square;stroke-linejoin:round;stroke-miterlimit:10;stroke-dasharray:none;stroke-opacity:1"
   id="path3392"
   inkscape:connector-curvature="0" /><path
   d="m 691.24284,154 0,7.53749"
   style="fill:none;stroke:#262626;stroke-width:0.50000024;stroke-linecap:square;stroke-linejoin:round;stroke-miterlimit:10;stroke-dasharray:none;stroke-opacity:1"
   id="path3396"
   inkscape:connector-curvature="0" /><path
   d="m 798.92145,154 0,7.53749"
   style="fill:none;stroke:#262626;stroke-width:0.50000024;stroke-linecap:square;stroke-linejoin:round;stroke-miterlimit:10;stroke-dasharray:none;stroke-opacity:1"
   id="path3400"
   inkscape:connector-curvature="0" /><path
   d="m 906.6,154 0,7.53749"
   style="fill:none;stroke:#262626;stroke-width:0.50000024;stroke-linecap:square;stroke-linejoin:round;stroke-miterlimit:10;stroke-dasharray:none;stroke-opacity:1"
   id="path3404"
   inkscape:connector-curvature="0" /><path
   d="m 152.85,714.25 0,-7.53751"
   style="fill:none;stroke:#262626;stroke-width:0.50000024;stroke-linecap:square;stroke-linejoin:round;stroke-miterlimit:10;stroke-dasharray:none;stroke-opacity:1"
   id="path3408"
   inkscape:connector-curvature="0" /><path
   d="m 260.52858,714.25 0,-7.53751"
   style="fill:none;stroke:#262626;stroke-width:0.50000024;stroke-linecap:square;stroke-linejoin:round;stroke-miterlimit:10;stroke-dasharray:none;stroke-opacity:1"
   id="path3412"
   inkscape:connector-curvature="0" /><path
   d="m 368.20714,714.25 0,-7.53751"
   style="fill:none;stroke:#262626;stroke-width:0.50000024;stroke-linecap:square;stroke-linejoin:round;stroke-miterlimit:10;stroke-dasharray:none;stroke-opacity:1"
   id="path3416"
   inkscape:connector-curvature="0" /><path
   d="m 475.88572,714.25 0,-7.53751"
   style="fill:none;stroke:#262626;stroke-width:0.50000024;stroke-linecap:square;stroke-linejoin:round;stroke-miterlimit:10;stroke-dasharray:none;stroke-opacity:1"
   id="path3420"
   inkscape:connector-curvature="0" /><path
   d="m 583.56428,714.25 0,-7.53751"
   style="fill:none;stroke:#262626;stroke-width:0.50000024;stroke-linecap:square;stroke-linejoin:round;stroke-miterlimit:10;stroke-dasharray:none;stroke-opacity:1"
   id="path3424"
   inkscape:connector-curvature="0" /><path
   d="m 691.24284,714.25 0,-7.53751"
   style="fill:none;stroke:#262626;stroke-width:0.50000024;stroke-linecap:square;stroke-linejoin:round;stroke-miterlimit:10;stroke-dasharray:none;stroke-opacity:1"
   id="path3428"
   inkscape:connector-curvature="0" /><path
   d="m 798.92145,714.25 0,-7.53751"
   style="fill:none;stroke:#262626;stroke-width:0.50000024;stroke-linecap:square;stroke-linejoin:round;stroke-miterlimit:10;stroke-dasharray:none;stroke-opacity:1"
   id="path3432"
   inkscape:connector-curvature="0" /><path
   d="m 906.6,714.25 0,-7.53751"
   style="fill:none;stroke:#262626;stroke-width:0.50000024;stroke-linecap:square;stroke-linejoin:round;stroke-miterlimit:10;stroke-dasharray:none;stroke-opacity:1"
   id="path3436"
   inkscape:connector-curvature="0" /><g
   id="g3440"
   transform="matrix(0.75,0,0,-0.75,152.85,112.00001)"><text
   transform="translate(-21.5,30)"
   style="font-variant:normal;font-weight:normal;font-size:32px;font-family:'Times New Roman';-inkscape-font-specification:Times-Roman;writing-mode:lr-tb;fill:#262626;fill-opacity:1;fill-rule:nonzero;stroke:none"
   id="text3442"><tspan
     x="0 10.656 26.656"
     y="0"
     sodipodi:role="line"
     id="tspan3444">-10</tspan></text>

</g><g
   id="g3448"
   transform="matrix(0.75,0,0,-0.75,260.52858,112.00001)"><text
   transform="translate(-13.5,30)"
   style="font-variant:normal;font-weight:normal;font-size:32px;font-family:'Times New Roman';-inkscape-font-specification:Times-Roman;writing-mode:lr-tb;fill:#262626;fill-opacity:1;fill-rule:nonzero;stroke:none"
   id="text3450"><tspan
     x="0 10.656"
     y="0"
     sodipodi:role="line"
     id="tspan3452">-5</tspan></text>

</g><g
   id="g3456"
   transform="matrix(0.75,0,0,-0.75,368.20714,112.00001)"><text
   transform="translate(-8,30)"
   style="font-variant:normal;font-weight:normal;font-size:32px;font-family:'Times New Roman';-inkscape-font-specification:Times-Roman;writing-mode:lr-tb;fill:#262626;fill-opacity:1;fill-rule:nonzero;stroke:none"
   id="text3458"><tspan
     x="0"
     y="0"
     id="tspan3460">0</tspan></text>

</g><g
   id="g3464"
   transform="matrix(0.75,0,0,-0.75,475.88573,112.00001)"><text
   transform="translate(-8,30)"
   style="font-variant:normal;font-weight:normal;font-size:32px;font-family:'Times New Roman';-inkscape-font-specification:Times-Roman;writing-mode:lr-tb;fill:#262626;fill-opacity:1;fill-rule:nonzero;stroke:none"
   id="text3466"><tspan
     x="0"
     y="0"
     id="tspan3468">5</tspan></text>

</g><g
   id="g3472"
   transform="matrix(0.75,0,0,-0.75,583.56428,112.00001)"><text
   transform="translate(-16,30)"
   style="font-variant:normal;font-weight:normal;font-size:32px;font-family:'Times New Roman';-inkscape-font-specification:Times-Roman;writing-mode:lr-tb;fill:#262626;fill-opacity:1;fill-rule:nonzero;stroke:none"
   id="text3474"><tspan
     x="0 16"
     y="0"
     sodipodi:role="line"
     id="tspan3476">10</tspan></text>

</g><g
   id="g3480"
   transform="matrix(0.75,0,0,-0.75,691.24284,112.00001)"><text
   transform="translate(-16,30)"
   style="font-variant:normal;font-weight:normal;font-size:32px;font-family:'Times New Roman';-inkscape-font-specification:Times-Roman;writing-mode:lr-tb;fill:#262626;fill-opacity:1;fill-rule:nonzero;stroke:none"
   id="text3482"><tspan
     x="0 16"
     y="0"
     sodipodi:role="line"
     id="tspan3484">15</tspan></text>

</g><g
   id="g3488"
   transform="matrix(0.75,0,0,-0.75,798.92144,112.00001)"><text
   transform="translate(-16,30)"
   style="font-variant:normal;font-weight:normal;font-size:32px;font-family:'Times New Roman';-inkscape-font-specification:Times-Roman;writing-mode:lr-tb;fill:#262626;fill-opacity:1;fill-rule:nonzero;stroke:none"
   id="text3490"><tspan
     x="0 16"
     y="0"
     sodipodi:role="line"
     id="tspan3492">20</tspan></text>

</g><g
   id="g3496"
   transform="matrix(0.75,0,0,-0.75,906.6,112.00001)"><text
   transform="translate(-16,30)"
   style="font-variant:normal;font-weight:normal;font-size:32px;font-family:'Times New Roman';-inkscape-font-specification:Times-Roman;writing-mode:lr-tb;fill:#262626;fill-opacity:1;fill-rule:nonzero;stroke:none"
   id="text3498"><tspan
     x="0 16"
     y="0"
     sodipodi:role="line"
     id="tspan3500">25</tspan></text>

</g><path
   d="m 152.85,154 0,560.25"
   style="fill:none;stroke:#000000;stroke-width:0.50000024;stroke-linecap:butt;stroke-linejoin:round;stroke-miterlimit:10;stroke-dasharray:none;stroke-opacity:1"
   id="path3512"
   inkscape:connector-curvature="0" /><path
   d="m 906.6,154 0,560.25"
   style="fill:none;stroke:#000000;stroke-width:0.50000024;stroke-linecap:butt;stroke-linejoin:round;stroke-miterlimit:10;stroke-dasharray:none;stroke-opacity:1"
   id="path3516"
   inkscape:connector-curvature="0" /><path
   d="m 152.85,154 7.53751,0"
   style="fill:none;stroke:#000000;stroke-width:0.50000024;stroke-linecap:square;stroke-linejoin:round;stroke-miterlimit:10;stroke-dasharray:none;stroke-opacity:1"
   id="path3520"
   inkscape:connector-curvature="0" /><path
   d="m 152.85,434.125 7.53751,0"
   style="fill:none;stroke:#000000;stroke-width:0.50000024;stroke-linecap:square;stroke-linejoin:round;stroke-miterlimit:10;stroke-dasharray:none;stroke-opacity:1"
   id="path3524"
   inkscape:connector-curvature="0" /><path
   d="m 152.85,714.25 7.53751,0"
   style="fill:none;stroke:#000000;stroke-width:0.50000024;stroke-linecap:square;stroke-linejoin:round;stroke-miterlimit:10;stroke-dasharray:none;stroke-opacity:1"
   id="path3528"
   inkscape:connector-curvature="0" /><path
   d="m 906.6,154 -7.5375,0"
   style="fill:none;stroke:#000000;stroke-width:0.50000024;stroke-linecap:square;stroke-linejoin:round;stroke-miterlimit:10;stroke-dasharray:none;stroke-opacity:1"
   id="path3532"
   inkscape:connector-curvature="0" /><path
   d="m 906.6,714.25 -7.5375,0"
   style="fill:none;stroke:#000000;stroke-width:0.50000024;stroke-linecap:square;stroke-linejoin:round;stroke-miterlimit:10;stroke-dasharray:none;stroke-opacity:1"
   id="path3540"
   inkscape:connector-curvature="0" /><g
   id="g3544"
   transform="matrix(0.75,0,0,-0.75,112.44999,154)"><text
   transform="translate(-16,11.5)"
   style="font-variant:normal;font-weight:normal;font-size:32px;font-family:'Times New Roman';-inkscape-font-specification:Times-Roman;writing-mode:lr-tb;fill:#000000;fill-opacity:1;fill-rule:nonzero;stroke:none"
   id="text3546"><tspan
     x="0"
     y="0"
     id="tspan3548">0</tspan></text>

</g><g
   id="g3552"
   transform="matrix(0.75,0,0,-0.75,112.44999,434.125)"><text
   transform="translate(-40,11.5)"
   style="font-variant:normal;font-weight:normal;font-size:32px;font-family:'Times New Roman';-inkscape-font-specification:Times-Roman;writing-mode:lr-tb;fill:#000000;fill-opacity:1;fill-rule:nonzero;stroke:none"
   id="text3554"><tspan
     x="0 16 24"
     y="0"
     sodipodi:role="line"
     id="tspan3556">0.5</tspan></text>

</g><g
   id="g3560"
   transform="matrix(0.75,0,0,-0.75,112.44999,714.25)"><text
   transform="translate(-16,11.5)"
   style="font-variant:normal;font-weight:normal;font-size:32px;font-family:'Times New Roman';-inkscape-font-specification:Times-Roman;writing-mode:lr-tb;fill:#000000;fill-opacity:1;fill-rule:nonzero;stroke:none"
   id="text3562"><tspan
     x="0"
     y="0"
     id="tspan3564">1</tspan></text>

</g><path
   d="m 152.76014,166.99641 3.21041,1.20983 9.01555,3.73828 9.01556,3.85734 9.01554,3.73059 9.01554,3.35802 9.01556,2.93363 9.01552,3.13165 9.01557,4.09835 9.01554,5.83393 9.01556,8.48497 9.01554,12.45127 9.01554,17.80032 9.01554,24.52876 9.01557,32.01548 9.01554,38.91972 9.01554,45.06653 9.01554,50.44537 9.01556,54.1827 9.01554,54.77412 9.01555,52.07092 9.01556,46.08594 9.01554,37.39224 9.01554,26.78215 9.01554,14.3137 9.01556,0.0478 9.01553,-14.2978 9.01556,-26.81067 9.01557,-37.39064 9.01551,-46.0102 9.01557,-52.14329 9.01556,-55.31756 9.01552,-55.51623 9.01557,-52.81814 9.01551,-48.29993 9.01556,-42.74053 9.01557,-36.15728 9.01551,-28.64758 9.01557,-21.1962 9.01557,-14.37488 9.01551,-8.19063 9.01557,-2.67105 9.01556,1.97319 9.01552,5.64427 9.01556,8.34174 9.01552,10.09035 9.01557,11.03635 9.01556,11.23339 9.01556,10.68154 9.01552,9.44664 9.01552,7.83184 9.01556,5.92451 9.01557,3.7245 9.01556,1.31965 9.01552,-0.97472 9.01556,-3.08752 9.01556,-5.01869 9.01552,-6.71356 9.01557,-8.01746 9.01552,-8.90337 9.01556,-9.37133 9.01556,-9.44907 9.01552,-9.19812 9.01556,-8.62688 9.01557,-7.73657 9.01552,-6.64325 9.01558,-5.55286 9.01552,-4.48681 9.01553,-3.44632 9.01552,-2.49431 9.0156,-1.72074 9.01553,-1.13245 9.0156,-0.7273 9.01552,-0.44248 9.01553,-0.20594 9.01552,-0.0136 9.0156,0.13504 9.01553,0.25172 9.0156,0.34745 9.01552,0.42251 9.0156,0.47488 9.01545,0.47319 9.01553,0.39428 9.0156,0.23749 9.01545,0.01 2.42903,-0.0581"
   style="fill:none;stroke:#800080;stroke-width:3;stroke-linecap:butt;stroke-linejoin:round;stroke-miterlimit:10;stroke-dasharray:none;stroke-opacity:1"
   id="path3580"
   inkscape:connector-curvature="0" /><path
   d="m 906.6,154 0,560.25"
   style="fill:none;stroke:#000000;stroke-width:0.50000024;stroke-linecap:butt;stroke-linejoin:round;stroke-miterlimit:10;stroke-dasharray:none;stroke-opacity:1"
   id="path3584"
   inkscape:connector-curvature="0" /><path
   d="m 906.6,154 -7.5375,0"
   style="fill:none;stroke:#000000;stroke-width:0.50000024;stroke-linecap:square;stroke-linejoin:round;stroke-miterlimit:10;stroke-dasharray:none;stroke-opacity:1"
   id="path3588"
   inkscape:connector-curvature="0" /><path
   d="m 906.6,250.59482 -7.5375,0"
   style="fill:none;stroke:#000000;stroke-width:0.50000024;stroke-linecap:square;stroke-linejoin:round;stroke-miterlimit:10;stroke-dasharray:none;stroke-opacity:1"
   id="path3592"
   inkscape:connector-curvature="0" /><path
   d="m 906.6,347.18963 -7.5375,0"
   style="fill:none;stroke:#000000;stroke-width:0.50000024;stroke-linecap:square;stroke-linejoin:round;stroke-miterlimit:10;stroke-dasharray:none;stroke-opacity:1"
   id="path3596"
   inkscape:connector-curvature="0" /><path
   d="m 906.6,443.78447 -7.5375,0"
   style="fill:none;stroke:#000000;stroke-width:0.50000024;stroke-linecap:square;stroke-linejoin:round;stroke-miterlimit:10;stroke-dasharray:none;stroke-opacity:1"
   id="path3600"
   inkscape:connector-curvature="0" /><path
   d="m 906.6,540.37932 -7.5375,0"
   style="fill:none;stroke:#000000;stroke-width:0.50000024;stroke-linecap:square;stroke-linejoin:round;stroke-miterlimit:10;stroke-dasharray:none;stroke-opacity:1"
   id="path3604"
   inkscape:connector-curvature="0" /><path
   d="m 906.6,636.97414 -7.5375,0"
   style="fill:none;stroke:#000000;stroke-width:0.50000024;stroke-linecap:square;stroke-linejoin:round;stroke-miterlimit:10;stroke-dasharray:none;stroke-opacity:1"
   id="path3608"
   inkscape:connector-curvature="0" /><g
   id="g3612"
   transform="matrix(0.75,0,0,-0.75,924.59999,154)"><text
   transform="translate(0,11.5)"
   style="font-variant:normal;font-weight:normal;font-size:32px;font-family:'Times New Roman';-inkscape-font-specification:Times-Roman;writing-mode:lr-tb;fill:#000000;fill-opacity:1;fill-rule:nonzero;stroke:none"
   id="text3614"><tspan
     x="0 10.656"
     y="0"
     sodipodi:role="line"
     id="tspan3616">-5</tspan></text>

</g><g
   id="g3620"
   transform="matrix(0.75,0,0,-0.75,924.59999,250.59481)"><text
   transform="translate(0,11.5)"
   style="font-variant:normal;font-weight:normal;font-size:32px;font-family:'Times New Roman';-inkscape-font-specification:Times-Roman;writing-mode:lr-tb;fill:#000000;fill-opacity:1;fill-rule:nonzero;stroke:none"
   id="text3622"><tspan
     x="0 10.656"
     y="0"
     sodipodi:role="line"
     id="tspan3624">-4</tspan></text>

</g><g
   id="g3628"
   transform="matrix(0.75,0,0,-0.75,924.59999,347.18964)"><text
   transform="translate(0,11.5)"
   style="font-variant:normal;font-weight:normal;font-size:32px;font-family:'Times New Roman';-inkscape-font-specification:Times-Roman;writing-mode:lr-tb;fill:#000000;fill-opacity:1;fill-rule:nonzero;stroke:none"
   id="text3630"><tspan
     x="0 10.656"
     y="0"
     sodipodi:role="line"
     id="tspan3632">-3</tspan></text>

</g><g
   id="g3636"
   transform="matrix(0.75,0,0,-0.75,924.59999,443.78447)"><text
   transform="translate(0,11.5)"
   style="font-variant:normal;font-weight:normal;font-size:32px;font-family:'Times New Roman';-inkscape-font-specification:Times-Roman;writing-mode:lr-tb;fill:#000000;fill-opacity:1;fill-rule:nonzero;stroke:none"
   id="text3638"><tspan
     x="0 10.656"
     y="0"
     sodipodi:role="line"
     id="tspan3640">-2</tspan></text>

</g><g
   id="g3644"
   transform="matrix(0.75,0,0,-0.75,924.59999,540.37931)"><text
   transform="translate(0,11.5)"
   style="font-variant:normal;font-weight:normal;font-size:32px;font-family:'Times New Roman';-inkscape-font-specification:Times-Roman;writing-mode:lr-tb;fill:#000000;fill-opacity:1;fill-rule:nonzero;stroke:none"
   id="text3646"><tspan
     x="0 10.656"
     y="0"
     sodipodi:role="line"
     id="tspan3648">-1</tspan></text>

</g><g
   id="g3652"
   transform="matrix(0.75,0,0,-0.75,924.59999,636.97414)"><text
   transform="translate(0,11.5)"
   style="font-variant:normal;font-weight:normal;font-size:32px;font-family:'Times New Roman';-inkscape-font-specification:Times-Roman;writing-mode:lr-tb;fill:#000000;fill-opacity:1;fill-rule:nonzero;stroke:none"
   id="text3654"><tspan
     x="0"
     y="0"
     id="tspan3656">0</tspan></text>

</g><path
   d="m 152.76014,659.03393 3.21041,0.46356 9.01555,-1.60063 9.01556,-4.29917 9.01554,-6.93785 9.01554,-9.51667 9.01556,-11.96883 9.01552,-14.06222 9.01557,-15.74648 9.01554,-17.02145 9.01556,-17.78228 9.01554,-17.74303 9.01554,-16.85543 9.01554,-15.12133 9.01557,-12.88667 9.01554,-10.8983 9.01554,-9.25351 9.01554,-7.95135 9.01556,-6.91285 9.01554,-6.00213 9.01555,-5.20569 9.01556,-4.52307 9.01554,-3.93086 9.01554,-3.39677 9.01554,-2.91842 9.01556,-2.49388 9.01553,-2.06831 9.01556,-1.58059 9.01556,-1.02757 9.01552,-0.41391 9.01556,0.17169 9.01557,0.64952 9.01551,1.01676 9.01557,1.32438 9.01552,2.26888 9.01556,4.35402 9.01557,7.59114 9.01551,11.89325 9.01557,16.38091 9.01557,20.54366 9.01551,24.37504 9.01557,27.65344 9.01556,28.67647 9.01552,26.65568 9.01556,21.58679 9.01552,14.04159 9.01557,7.40536 9.01556,2.91907 9.01556,0.58465 9.01552,0.0611 9.01552,-0.22213 9.01556,-0.71723 9.01557,-1.42422 9.01556,-2.2698 9.01552,-2.99049 9.01556,-3.52696 9.01556,-3.87931 9.01552,-4.0778 9.01557,-4.20805 9.01552,-4.28506 9.01556,-4.30882 9.01556,-4.28589 9.01552,-4.23088 9.01556,-4.14572 9.01557,-4.02988 9.01552,-3.83359 9.01558,-3.46834 9.01552,-2.92502 9.01553,-2.21345 9.01552,-1.80934 9.0156,-2.39089 9.01553,-4.01009 9.0156,-6.63819 9.01552,-9.41585 9.01553,-11.35637 9.01552,-12.4053 9.0156,-12.57474 9.01553,-12.1052 9.0156,-11.2196 9.01552,-9.92633 9.0156,-8.26887 9.01545,-6.86885 9.01553,-6.1902 9.0156,-6.24401 9.01545,-6.95282 2.42902,-2.02068"
   style="fill:none;stroke:#800080;stroke-width:3;stroke-linecap:butt;stroke-linejoin:bevel;stroke-miterlimit:1;stroke-dasharray:3,9;stroke-dashoffset:0;stroke-opacity:1"
   id="path3668"
   inkscape:connector-curvature="0" /><text
   sodipodi:linespacing="125%"
   id="text5429-9-1-1"
   y="29.680023"
   x="91.599518"
   style="font-style:normal;font-variant:normal;font-weight:normal;font-stretch:normal;font-size:10.39999962px;line-height:125%;font-family:'Times New Roman';-inkscape-font-specification:'Times New Roman';letter-spacing:0px;word-spacing:0px;fill:#000000;fill-opacity:1;stroke:none"
   xml:space="preserve"
   transform="matrix(0,1,1,0,0,0)"><tspan
     style="font-size:14px;fill:#000000"
     y="29.680023"
     x="91.599518"
     id="tspan5431-5-7-7"
     sodipodi:role="line">$\left|\tilde{M}^{\text{res}} (t) \right|^2$</tspan></text>

<text
   transform="matrix(0,1,1,0,0,0)"
   xml:space="preserve"
   style="font-size:10.39999962px;font-style:normal;font-variant:normal;font-weight:normal;font-stretch:normal;line-height:125%;letter-spacing:0px;word-spacing:0px;fill:#000000;fill-opacity:1;stroke:none;font-family:Times New Roman;-inkscape-font-specification:Times New Roman"
   x="305.42773"
   y="27.682714"
   id="text4931"
   sodipodi:linespacing="125%"><tspan
     sodipodi:role="line"
     id="tspan4933"
     x="305.42773"
     y="27.682714"
     style="font-size:14px;fill:#000000">Profil temporel (u. arb.)</tspan></text>

<text
   sodipodi:linespacing="125%"
   id="text5429-9-1"
   y="-37.846649"
   x="463.91757"
   style="font-style:normal;font-variant:normal;font-weight:normal;font-stretch:normal;font-size:10.39999962px;line-height:125%;font-family:'Times New Roman';-inkscape-font-specification:'Times New Roman';letter-spacing:0px;word-spacing:0px;fill:#000000;fill-opacity:1;stroke:none"
   xml:space="preserve"
   transform="scale(1,-1)"><tspan
     style="font-size:14px;fill:#000000"
     y="-37.846649"
     x="463.91757"
     id="tspan5431-5-7"
     sodipodi:role="line">Temps (fs)</tspan></text>

<text
   sodipodi:linespacing="125%"
   id="text5429-9-1-1-4"
   y="-1001.992"
   x="-681.57794"
   style="font-size:10.39999962px;font-style:normal;font-variant:normal;font-weight:normal;font-stretch:normal;line-height:125%;letter-spacing:0px;word-spacing:0px;fill:#000000;fill-opacity:1;stroke:none;font-family:Times New Roman;-inkscape-font-specification:Times New Roman"
   xml:space="preserve"
   transform="matrix(0,-1,-1,0,0,0)"><tspan
     style="font-size:14px;fill:#000000"
     y="-1001.992"
     x="-681.57794"
     id="tspan5431-5-7-7-0"
     sodipodi:role="line">Phase $\arg \left[\tilde{M}^{\text{res}}(t) \right]$ (rad.) </tspan></text>

<path
   style="fill:none;stroke:#000000;stroke-width:2.4000001;stroke-linecap:butt;stroke-linejoin:miter;stroke-miterlimit:4;stroke-opacity:1;stroke-dasharray:none;marker-end:url(#Arrow1Mend)"
   d="m 529.63438,528 48,0"
   id="path3963"
   inkscape:connector-curvature="0" /><path
   style="fill:none;stroke:#000000;stroke-width:2.4000001;stroke-linecap:butt;stroke-linejoin:miter;stroke-miterlimit:4;stroke-opacity:1;stroke-dasharray:none;marker-end:url(#Arrow1Mend)"
   d="m 327.02386,677.21615 -48,0"
   id="path3963-4"
   inkscape:connector-curvature="0" /></g></svg>