<?xml version="1.0" encoding="UTF-8" standalone="no"?>
<!-- Created with Inkscape (http://www.inkscape.org/) -->

<svg
   xmlns:dc="http://purl.org/dc/elements/1.1/"
   xmlns:cc="http://creativecommons.org/ns#"
   xmlns:rdf="http://www.w3.org/1999/02/22-rdf-syntax-ns#"
   xmlns:svg="http://www.w3.org/2000/svg"
   xmlns="http://www.w3.org/2000/svg"
   xmlns:sodipodi="http://sodipodi.sourceforge.net/DTD/sodipodi-0.dtd"
   xmlns:inkscape="http://www.inkscape.org/namespaces/inkscape"
   width="210mm"
   height="297mm"
   id="svg3108"
   version="1.1"
   inkscape:version="0.48.4 r9939"
   sodipodi:docname="Schema_2s2p_sp3.pdf">
  <defs
     id="defs3110">
    <marker
       inkscape:stockid="Arrow2Mend9"
       orient="auto"
       refY="0"
       refX="0"
       id="Arrow2Mend9"
       style="overflow:visible">
      <path
         inkscape:connector-curvature="0"
         id="path5343"
         style="fill:#800080;fill-rule:evenodd;stroke:#800080;stroke-width:0.625;stroke-linejoin:round"
         d="M 8.7185878,4.0337352 -2.2072895,0.01601326 8.7185884,-4.0017078 c -1.7454984,2.3720609 -1.7354408,5.6174519 -6e-7,8.035443 z"
         transform="scale(-0.6,-0.6)" />
    </marker>
    <marker
       inkscape:stockid="Arrow2Mend9"
       orient="auto"
       refY="0"
       refX="0"
       id="marker3061"
       style="overflow:visible">
      <path
         inkscape:connector-curvature="0"
         id="path3063"
         style="fill:#800080;fill-rule:evenodd;stroke:#800080;stroke-width:0.625;stroke-linejoin:round"
         d="M 8.7185878,4.0337352 -2.2072895,0.01601326 8.7185884,-4.0017078 c -1.7454984,2.3720609 -1.7354408,5.6174519 -6e-7,8.035443 z"
         transform="scale(-0.6,-0.6)" />
    </marker>
    <marker
       inkscape:stockid="Arrow2Mend9"
       orient="auto"
       refY="0"
       refX="0"
       id="marker3065"
       style="overflow:visible">
      <path
         inkscape:connector-curvature="0"
         id="path3067"
         style="fill:#800080;fill-rule:evenodd;stroke:#800080;stroke-width:0.625;stroke-linejoin:round"
         d="M 8.7185878,4.0337352 -2.2072895,0.01601326 8.7185884,-4.0017078 c -1.7454984,2.3720609 -1.7354408,5.6174519 -6e-7,8.035443 z"
         transform="scale(-0.6,-0.6)" />
    </marker>
    <marker
       inkscape:stockid="marker4002v"
       orient="auto"
       refY="0"
       refX="0"
       id="marker4002v"
       style="overflow:visible">
      <path
         inkscape:connector-curvature="0"
         id="path4709"
         style="fill:#ff0000;fill-rule:evenodd;stroke:#ff0000;stroke-width:0.625;stroke-linejoin:round"
         d="M 8.7185878,4.0337352 -2.2072895,0.01601326 8.7185884,-4.0017078 c -1.7454984,2.3720609 -1.7354408,5.6174519 -6e-7,8.035443 z"
         transform="scale(-0.6,-0.6)" />
    </marker>
    <marker
       inkscape:stockid="marker4002v"
       orient="auto"
       refY="0"
       refX="0"
       id="marker3071"
       style="overflow:visible">
      <path
         inkscape:connector-curvature="0"
         id="path3073"
         style="fill:#ff0000;fill-rule:evenodd;stroke:#ff0000;stroke-width:0.625;stroke-linejoin:round"
         d="M 8.7185878,4.0337352 -2.2072895,0.01601326 8.7185884,-4.0017078 c -1.7454984,2.3720609 -1.7354408,5.6174519 -6e-7,8.035443 z"
         transform="scale(-0.6,-0.6)" />
    </marker>
    <marker
       inkscape:stockid="marker4002v"
       orient="auto"
       refY="0"
       refX="0"
       id="marker3075"
       style="overflow:visible">
      <path
         inkscape:connector-curvature="0"
         id="path3077"
         style="fill:#ff0000;fill-rule:evenodd;stroke:#ff0000;stroke-width:0.625;stroke-linejoin:round"
         d="M 8.7185878,4.0337352 -2.2072895,0.01601326 8.7185884,-4.0017078 c -1.7454984,2.3720609 -1.7354408,5.6174519 -6e-7,8.035443 z"
         transform="scale(-0.6,-0.6)" />
    </marker>
  </defs>
  <sodipodi:namedview
     id="base"
     pagecolor="#ffffff"
     bordercolor="#666666"
     borderopacity="1.0"
     inkscape:pageopacity="0.0"
     inkscape:pageshadow="2"
     inkscape:zoom="5.6"
     inkscape:cx="436.60183"
     inkscape:cy="792.23356"
     inkscape:document-units="px"
     inkscape:current-layer="layer1"
     showgrid="false"
     inkscape:window-width="1680"
     inkscape:window-height="988"
     inkscape:window-x="-8"
     inkscape:window-y="-8"
     inkscape:window-maximized="1" />
  <metadata
     id="metadata3113">
    <rdf:RDF>
      <cc:Work
         rdf:about="">
        <dc:format>image/svg+xml</dc:format>
        <dc:type
           rdf:resource="http://purl.org/dc/dcmitype/StillImage" />
        <dc:title></dc:title>
      </cc:Work>
    </rdf:RDF>
  </metadata>
  <g
     inkscape:label="Calque 1"
     inkscape:groupmode="layer"
     id="layer1">
    <rect
       style="opacity:0.98000004;fill:#800080;fill-opacity:0.3574661;stroke:none"
       id="rect3052"
       width="40.406101"
       height="8.3337584"
       x="369.46329"
       y="248.30107" />
    <g
       transform="matrix(0.62725833,0,0,1.0383879,244.2594,120.82752)"
       id="g5479">
      <path
         style="fill:none;stroke:#000000;stroke-width:1px;stroke-linecap:butt;stroke-linejoin:miter;stroke-opacity:1"
         d="m 180,192.36218 80,0"
         id="path5425"
         inkscape:connector-curvature="0" />
      <path
         style="fill:none;stroke:#000000;stroke-width:1px;stroke-linecap:butt;stroke-linejoin:miter;stroke-opacity:1"
         d="m 180,192.36218 5,-5"
         id="path5445"
         inkscape:connector-curvature="0" />
      <path
         style="fill:none;stroke:#000000;stroke-width:1px;stroke-linecap:butt;stroke-linejoin:miter;stroke-opacity:1"
         d="m 185,192.36218 5,-5"
         id="path5447"
         inkscape:connector-curvature="0" />
      <path
         style="fill:none;stroke:#000000;stroke-width:1px;stroke-linecap:butt;stroke-linejoin:miter;stroke-opacity:1"
         d="m 190,192.36218 5,-5"
         id="path5449"
         inkscape:connector-curvature="0" />
      <path
         style="fill:none;stroke:#000000;stroke-width:1px;stroke-linecap:butt;stroke-linejoin:miter;stroke-opacity:1"
         d="m 195,192.36218 5,-5"
         id="path5451"
         inkscape:connector-curvature="0" />
      <path
         style="fill:none;stroke:#000000;stroke-width:1px;stroke-linecap:butt;stroke-linejoin:miter;stroke-opacity:1"
         d="m 200,192.36218 5,-5"
         id="path5453"
         inkscape:connector-curvature="0" />
      <path
         style="fill:none;stroke:#000000;stroke-width:1px;stroke-linecap:butt;stroke-linejoin:miter;stroke-opacity:1"
         d="m 205,192.36218 5,-5"
         id="path5455"
         inkscape:connector-curvature="0" />
      <path
         style="fill:none;stroke:#000000;stroke-width:1px;stroke-linecap:butt;stroke-linejoin:miter;stroke-opacity:1"
         d="m 210,192.36218 5,-5"
         id="path5457"
         inkscape:connector-curvature="0" />
      <path
         style="fill:none;stroke:#000000;stroke-width:1px;stroke-linecap:butt;stroke-linejoin:miter;stroke-opacity:1"
         d="m 215,192.36218 5,-5"
         id="path5459"
         inkscape:connector-curvature="0" />
      <path
         style="fill:none;stroke:#000000;stroke-width:1px;stroke-linecap:butt;stroke-linejoin:miter;stroke-opacity:1"
         d="m 220,192.36218 5,-5"
         id="path5461"
         inkscape:connector-curvature="0" />
      <path
         style="fill:none;stroke:#000000;stroke-width:1px;stroke-linecap:butt;stroke-linejoin:miter;stroke-opacity:1"
         d="m 225,192.36218 5,-5"
         id="path5463"
         inkscape:connector-curvature="0" />
      <path
         style="fill:none;stroke:#000000;stroke-width:1px;stroke-linecap:butt;stroke-linejoin:miter;stroke-opacity:1"
         d="m 230,192.36218 5,-5"
         id="path5465"
         inkscape:connector-curvature="0" />
      <path
         style="fill:none;stroke:#000000;stroke-width:1px;stroke-linecap:butt;stroke-linejoin:miter;stroke-opacity:1"
         d="m 235,192.36218 5,-5"
         id="path5467"
         inkscape:connector-curvature="0" />
      <path
         style="fill:none;stroke:#000000;stroke-width:1px;stroke-linecap:butt;stroke-linejoin:miter;stroke-opacity:1"
         d="m 240,192.36218 5,-5"
         id="path5469"
         inkscape:connector-curvature="0" />
      <path
         style="fill:none;stroke:#000000;stroke-width:1px;stroke-linecap:butt;stroke-linejoin:miter;stroke-opacity:1"
         d="m 245,192.36218 5,-5"
         id="path5471"
         inkscape:connector-curvature="0" />
      <path
         style="fill:none;stroke:#000000;stroke-width:1px;stroke-linecap:butt;stroke-linejoin:miter;stroke-opacity:1"
         d="m 250,192.36218 5,-5"
         id="path5473"
         inkscape:connector-curvature="0" />
      <path
         style="fill:none;stroke:#000000;stroke-width:1px;stroke-linecap:butt;stroke-linejoin:miter;stroke-opacity:1"
         d="m 260,192.36218 5,-5"
         id="path5475"
         inkscape:connector-curvature="0" />
      <path
         style="fill:none;stroke:#000000;stroke-width:1px;stroke-linecap:butt;stroke-linejoin:miter;stroke-opacity:1"
         d="m 255,192.36218 5,-5"
         id="path5477"
         inkscape:connector-curvature="0" />
    </g>
    <path
       inkscape:connector-curvature="0"
       id="path5421-4"
       d="m 361.26945,352.88566 52.27095,0"
       style="fill:none;stroke:#000000;stroke-width:1.4583565;stroke-linecap:butt;stroke-linejoin:miter;stroke-miterlimit:4;stroke-opacity:1;stroke-dasharray:none" />
    <path
       inkscape:connector-curvature="0"
       id="path3966"
       d="m 369.43133,286.76461 0,-15"
       style="fill:none;stroke:#ff0000;stroke-width:1px;stroke-linecap:butt;stroke-linejoin:miter;stroke-opacity:1;marker-end:url(#marker4002v)" />
    <path
       style="fill:none;stroke:#ff0000;stroke-width:1px;stroke-linecap:butt;stroke-linejoin:miter;stroke-opacity:1;marker-end:url(#marker4002v)"
       d="m 369.43133,250.75274 0,15"
       id="path4803"
       inkscape:connector-curvature="0" />
    <path
       style="fill:none;stroke:#ff0000;stroke-width:1px;stroke-linecap:butt;stroke-linejoin:miter;stroke-opacity:1;marker-end:url(#marker4002v)"
       d="m 381.43133,244.76461 0,-15"
       id="path4805"
       inkscape:connector-curvature="0" />
    <path
       style="fill:none;stroke:#800080;stroke-width:1.29999995;stroke-linecap:butt;stroke-linejoin:miter;stroke-miterlimit:4;stroke-opacity:1;stroke-dasharray:none;marker-end:url(#Arrow2Mend9)"
       d="m 369.23874,352.3858 0,-62.50798"
       id="path4827"
       inkscape:connector-curvature="0"
       sodipodi:nodetypes="cc" />
    <path
       sodipodi:nodetypes="cc"
       inkscape:connector-curvature="0"
       id="path4829"
       d="m 381.23808,352.34711 0,-102.1767"
       style="fill:none;stroke:#800080;stroke-width:1.29999995;stroke-linecap:butt;stroke-linejoin:miter;stroke-miterlimit:4;stroke-opacity:1;stroke-dasharray:none;marker-end:url(#Arrow2Mend9)" />
    <path
       style="fill:none;stroke:#800080;stroke-width:1.3;stroke-linecap:butt;stroke-linejoin:miter;stroke-miterlimit:4;stroke-opacity:1;stroke-dasharray:none;marker-end:url(#Arrow2Mend9)"
       d="m 391.23744,352.30972 0,-143.86044"
       id="path4831"
       inkscape:connector-curvature="0"
       sodipodi:nodetypes="cc" />
    <path
       inkscape:connector-curvature="0"
       id="path3203"
       d="m 381.8599,210.03845 0,15"
       style="fill:none;stroke:#ff0000;stroke-width:1px;stroke-linecap:butt;stroke-linejoin:miter;stroke-opacity:1;marker-end:url(#marker4002v)" />
    <path
       style="fill:none;stroke:#000000;stroke-width:1.27750051;stroke-linecap:butt;stroke-linejoin:miter;stroke-miterlimit:4;stroke-opacity:1;stroke-dasharray:none"
       d="m 369.59981,254.88566 40.11023,0"
       id="path3209"
       inkscape:connector-curvature="0" />
    <text
       sodipodi:linespacing="125%"
       id="text5429-9-1"
       y="259.54761"
       x="413.69843"
       style="font-size:13px;font-style:normal;font-variant:normal;font-weight:normal;font-stretch:normal;line-height:125%;letter-spacing:0px;word-spacing:0px;fill:#000000;fill-opacity:1;stroke:none;font-family:Times New Roman;-inkscape-font-specification:Times New Roman"
       xml:space="preserve"><tspan
         style="font-size:17.5px;fill:#000000"
         y="259.54761"
         x="413.69843"
         id="tspan5431-5-7"
         sodipodi:role="line">$2s2p$</tspan></text>
    <text
       sodipodi:linespacing="125%"
       id="text5429-9-1-4"
       y="254.1637"
       x="347.46988"
       style="font-size:13px;font-style:normal;font-variant:normal;font-weight:normal;font-stretch:normal;line-height:125%;letter-spacing:0px;word-spacing:0px;fill:#800080;fill-opacity:1;stroke:none;font-family:Times New Roman;-inkscape-font-specification:Times New Roman"
       xml:space="preserve"><tspan
         style="font-size:17.5px;fill:#800080"
         y="254.1637"
         x="347.46988"
         id="tspan5431-5-7-0"
         sodipodi:role="line">$\text{H}_{39}$</tspan></text>
    <text
       sodipodi:linespacing="125%"
       id="text5429-9-1-4-9"
       y="167.10091"
       x="407.84918"
       style="font-size:13px;font-style:normal;font-variant:normal;font-weight:normal;font-stretch:normal;line-height:125%;letter-spacing:0px;word-spacing:0px;fill:#800080;fill-opacity:1;stroke:none;font-family:Times New Roman;-inkscape-font-specification:Times New Roman"
       xml:space="preserve"><tspan
         style="font-size:17.5px;fill:#800080"
         y="167.10091"
         x="407.84918"
         id="tspan5431-5-7-0-4"
         sodipodi:role="line">$\text{H}_{43}$</tspan></text>
    <text
       sodipodi:linespacing="125%"
       id="text5429-9-1-4-9-8"
       y="295.67706"
       x="347.25775"
       style="font-size:13px;font-style:normal;font-variant:normal;font-weight:normal;font-stretch:normal;line-height:125%;letter-spacing:0px;word-spacing:0px;fill:#800080;fill-opacity:1;stroke:none;font-family:Times New Roman;-inkscape-font-specification:Times New Roman"
       xml:space="preserve"><tspan
         style="font-size:17.5px;fill:#800080"
         y="295.67706"
         x="347.25775"
         id="tspan5431-5-7-0-4-8"
         sodipodi:role="line">$\text{H}_{37}$</tspan></text>
    <text
       sodipodi:linespacing="125%"
       id="text5429-9-1-2"
       y="355.3428"
       x="417.20276"
       style="font-size:13px;font-style:normal;font-variant:normal;font-weight:normal;font-stretch:normal;line-height:125%;letter-spacing:0px;word-spacing:0px;fill:#000000;fill-opacity:1;stroke:none;font-family:Times New Roman;-inkscape-font-specification:Times New Roman"
       xml:space="preserve"><tspan
         style="font-size:17.5px;fill:#000000"
         y="355.3428"
         x="417.20276"
         id="tspan5431-5-7-4"
         sodipodi:role="line">$1s^2$</tspan></text>
    <path
       inkscape:connector-curvature="0"
       id="path3040"
       d="m 369.59981,202.88566 40.11023,0"
       style="fill:none;stroke:#000000;stroke-width:1.27750051;stroke-linecap:butt;stroke-linejoin:miter;stroke-miterlimit:4;stroke-opacity:1;stroke-dasharray:none" />
    <text
       xml:space="preserve"
       style="font-size:13px;font-style:normal;font-variant:normal;font-weight:normal;font-stretch:normal;line-height:125%;letter-spacing:0px;word-spacing:0px;fill:#000000;fill-opacity:1;stroke:none;font-family:Times New Roman;-inkscape-font-specification:Times New Roman"
       x="413.69843"
       y="209.54762"
       id="text3042"
       sodipodi:linespacing="125%"><tspan
         sodipodi:role="line"
         id="tspan3044"
         x="413.69843"
         y="209.54762"
         style="font-size:17.5px;fill:#000000">$sp3+$</tspan></text>
    <path
       sodipodi:nodetypes="cc"
       inkscape:connector-curvature="0"
       id="path3046"
       d="m 403.2371,352.23602 0,-183.13948"
       style="fill:none;stroke:#800080;stroke-width:1.29999995;stroke-linecap:butt;stroke-linejoin:miter;stroke-miterlimit:4;stroke-opacity:1;stroke-dasharray:none;marker-end:url(#Arrow2Mend9)" />
    <path
       inkscape:connector-curvature="0"
       id="path3048"
       d="m 390.69402,201.90103 0,-15"
       style="fill:none;stroke:#ff0000;stroke-width:1px;stroke-linecap:butt;stroke-linejoin:miter;stroke-opacity:1;marker-end:url(#marker4002v)" />
    <path
       style="fill:none;stroke:#ff0000;stroke-width:1px;stroke-linecap:butt;stroke-linejoin:miter;stroke-opacity:1;marker-end:url(#marker4002v)"
       d="m 391.12259,167.17487 0,15"
       id="path3050"
       inkscape:connector-curvature="0" />
    <path
       style="opacity:0.98000004;fill:#008000;fill-opacity:1;stroke:#000000"
       id="path3856"
       d="m 435.7592,203.04884 c 1.19184,6e-4 2.38369,3.6e-4 3.57553,2.4e-4 0.89608,-0.0608 1.69857,0.0271 2.45367,0.5313 0.63466,0.37261 0.93403,0.92616 1.08958,1.62102 0.0582,0.70272 0.20902,1.39112 0.31206,2.08794 0.0969,0.7125 0.1146,1.43204 0.12645,2.14997 -0.009,0.71553 0.0473,1.43488 -0.0383,2.14645 -0.13295,0.7265 -0.3954,1.41703 -0.5348,2.14406 -0.22854,0.69909 -0.31365,1.42998 -0.47558,2.14345 -0.19389,0.69994 -0.2884,1.41769 -0.34089,2.14019 -0.0405,0.71308 -0.0393,1.42764 -0.04,2.1416 5.3e-4,0.71428 0.002,1.42855 0.003,2.14282 -0.0147,0.7198 -0.0152,1.42912 0.10244,2.13999 0.18682,0.66853 0.57992,1.27628 0.98789,1.83312 0.27679,0.52553 0.85409,0.75069 1.07935,1.30108 -0.005,0.6333 -0.33234,1.26022 -0.6793,1.77894 -0.34862,0.54449 -0.63507,1.13706 -0.87207,1.73913 -0.1634,0.63839 -0.28451,1.28811 -0.41834,1.93461 -0.13848,0.70103 -0.17067,1.41569 -0.19121,2.12802 -0.0144,0.71483 -0.0115,1.42986 -0.0106,2.14479 10e-4,0.71441 0.002,1.42881 0.002,2.14321 3.1e-4,0.71429 3.1e-4,1.42857 3.2e-4,2.14285 0,0.71429 -10e-6,1.42857 -2e-5,2.14285 -2.9e-4,0.90617 -10e-4,1.81233 -10e-4,2.71849 2.1e-4,0.87006 6.1e-4,1.74012 8.3e-4,2.61018 1.6e-4,0.72576 1.8e-4,1.45152 1.9e-4,2.17728 -0.017,0.71343 0.0418,1.4303 -0.0428,2.13983 -0.18455,0.73578 -0.48726,1.4316 -0.92658,2.04914 -0.3664,0.54854 -0.79175,1.05267 -1.31771,1.45264 -0.48839,0.43467 -1.02659,0.78125 -1.64151,1.00209 -0.55794,0.16889 -1.14138,0.19872 -1.71971,0.22316 0,0 -0.3484,-0.0537 -0.3484,-0.0537 l 0,0 c 0.57728,-0.0228 1.15964,-0.0501 1.71801,-0.21276 0.61563,-0.21413 1.15437,-0.55582 1.64018,-0.99138 0.52776,-0.39354 0.95206,-0.89598 1.31746,-1.4419 0.43948,-0.61121 0.74029,-1.30125 0.92583,-2.03147 0.0852,-0.70801 0.0251,-1.42366 0.0427,-2.13563 10e-6,-0.72576 3e-5,-1.45152 1.9e-4,-2.17728 2.1e-4,-0.87006 6.2e-4,-1.74012 8.3e-4,-2.61018 0,-0.90616 -7.3e-4,-1.81232 -10e-4,-2.71849 0,-0.71428 10e-6,-1.42856 10e-6,-2.14285 -10e-6,-0.71427 0,-1.42855 -3.1e-4,-2.14283 -3.8e-4,-0.71439 -0.001,-1.42879 -0.002,-2.14318 -9.4e-4,-0.71529 -0.004,-1.43067 0.0106,-2.14585 0.0206,-0.71438 0.0528,-1.43107 0.19122,-2.13419 0.13385,-0.64851 0.25602,-1.29981 0.41785,-1.94062 0.23622,-0.6049 0.52543,-1.19908 0.87301,-1.74681 0.34306,-0.507 0.6679,-1.12339 0.67772,-1.74408 -0.2299,-0.53982 -0.81002,-0.76776 -1.07784,-1.29288 -0.4079,-0.5637 -0.80473,-1.17354 -0.98819,-1.84954 -0.11754,-0.71279 -0.11731,-1.42406 -0.10254,-2.14572 -7.7e-4,-0.7143 -0.002,-1.42859 -0.003,-2.14289 7.4e-4,-0.71481 -4.8e-4,-1.4302 0.04,-2.14412 0.0525,-0.72425 0.14665,-1.4439 0.34107,-2.14552 0.16279,-0.71284 0.24575,-1.44387 0.47553,-2.14223 0.13878,-0.72645 0.39984,-1.41637 0.5347,-2.14164 0.0863,-0.70985 0.0283,-1.42777 0.0383,-2.14163 -0.0118,-0.71639 -0.0294,-1.43441 -0.12638,-2.14537 -0.10314,-0.69592 -0.25328,-1.38359 -0.31246,-2.0853 -0.15594,-0.68789 -0.45865,-1.22717 -1.0871,-1.59411 -0.75608,-0.49186 -1.55969,-0.5688 -2.44924,-0.51124 -1.19285,-1.2e-4 -2.38569,-3.6e-4 -3.57853,2.3e-4 0,0 0.34889,-0.0553 0.34889,-0.0553 z"
       inkscape:connector-curvature="0" />
    <text
       xml:space="preserve"
       style="font-size:13px;font-style:normal;font-variant:normal;font-weight:normal;font-stretch:normal;line-height:125%;letter-spacing:0px;word-spacing:0px;fill:#000000;fill-opacity:1;stroke:none;font-family:Times New Roman;-inkscape-font-specification:Times New Roman"
       x="449.4245"
       y="233.19995"
       id="text3042-1"
       sodipodi:linespacing="125%"><tspan
         sodipodi:role="line"
         id="tspan3044-7"
         x="449.4245"
         y="233.19995"
         style="font-size:17.5px;fill:#000000">3,51 eV</tspan></text>
    <path
       inkscape:connector-curvature="0"
       d="m 370.4001,210.27538 c -1.21649,4e-4 -2.43299,2.4e-4 -3.64949,1.5e-4 -0.91462,-0.0409 -1.73371,0.0182 -2.50443,0.3573 -0.64778,0.25057 -0.95335,0.62282 -1.11212,1.0901 -0.0594,0.47257 -0.21334,0.93551 -0.31852,1.40411 -0.0989,0.47915 -0.11696,0.96302 -0.12906,1.44582 0.009,0.48118 -0.0482,0.96493 0.0391,1.44345 0.1357,0.48856 0.40359,0.95293 0.54587,1.44185 0.23326,0.47012 0.32013,0.96163 0.48541,1.44143 0.1979,0.4707 0.29437,0.95338 0.34795,1.43924 0.0413,0.47953 0.0401,0.96007 0.0408,1.4402 -5.5e-4,0.48034 -0.002,0.96067 -0.003,1.44101 0.015,0.48405 0.0155,0.96106 -0.10456,1.4391 -0.19069,0.44958 -0.59193,0.85828 -1.00834,1.23275 -0.28251,0.3534 -0.87175,0.50482 -1.10167,0.87495 0.005,0.42588 0.33921,0.84748 0.69335,1.1963 0.35584,0.36616 0.64821,0.76466 0.89011,1.16954 0.16678,0.42931 0.2904,0.86623 0.42699,1.30099 0.14135,0.47143 0.17421,0.95203 0.19517,1.43106 0.0147,0.48072 0.0117,0.96156 0.0108,1.44234 -10e-4,0.48043 -0.002,0.96085 -0.002,1.44127 -3.2e-4,0.48035 -3.2e-4,0.96069 -3.3e-4,1.44103 0,0.48035 10e-6,0.96069 2e-5,1.44103 3e-4,0.60939 10e-4,1.21876 10e-4,1.82814 -2.1e-4,0.5851 -6.2e-4,1.1702 -8.5e-4,1.75531 -1.6e-4,0.48805 -1.8e-4,0.97612 -1.9e-4,1.46418 0.0173,0.47977 -0.0426,0.96185 0.0437,1.439 0.18836,0.4948 0.49734,0.96273 0.94575,1.37802 0.37397,0.36887 0.80812,0.7079 1.34496,0.97687 0.4985,0.29231 1.04782,0.52538 1.67547,0.67389 0.56948,0.11357 1.16499,0.13363 1.75528,0.15007 0,0 0.35561,-0.0361 0.35561,-0.0361 l 0,0 c -0.58922,-0.0154 -1.18362,-0.0337 -1.75354,-0.14307 -0.62838,-0.144 -1.17826,-0.37378 -1.67412,-0.66669 -0.53868,-0.26465 -0.97175,-0.60253 -1.34471,-0.96965 -0.44857,-0.41103 -0.75561,-0.87507 -0.94498,-1.36613 -0.0869,-0.47613 -0.0256,-0.95739 -0.0436,-1.43618 -1e-5,-0.48806 -4e-5,-0.97612 -2e-4,-1.46419 -2.2e-4,-0.58509 -6.3e-4,-1.17019 -8.4e-4,-1.7553 0,-0.60937 7.4e-4,-1.21875 10e-4,-1.82813 0,-0.48034 -10e-6,-0.96069 -10e-6,-1.44104 10e-6,-0.48033 0,-0.96067 3.2e-4,-1.44101 3.9e-4,-0.48042 10e-4,-0.96084 0.002,-1.44126 9.6e-4,-0.48102 0.004,-0.9621 -0.0108,-1.44305 -0.0211,-0.4804 -0.0539,-0.96237 -0.19518,-1.43521 -0.13661,-0.43611 -0.26131,-0.87409 -0.42649,-1.30502 -0.24111,-0.40679 -0.53629,-0.80637 -0.89107,-1.17471 -0.35015,-0.34095 -0.68171,-0.75546 -0.69174,-1.17286 0.23466,-0.36302 0.82678,-0.51631 1.10014,-0.86945 0.41634,-0.37907 0.82138,-0.78918 1.00864,-1.24378 0.11996,-0.47934 0.11973,-0.95765 0.10466,-1.44296 7.8e-4,-0.48035 0.002,-0.9607 0.003,-1.44106 -7.5e-4,-0.48069 4.8e-4,-0.96178 -0.0408,-1.44188 -0.0536,-0.48705 -0.14968,-0.971 -0.34813,-1.44283 -0.16615,-0.47937 -0.25084,-0.97098 -0.48536,-1.44061 -0.14166,-0.48853 -0.40811,-0.95249 -0.54577,-1.44022 -0.0881,-0.47736 -0.0289,-0.96015 -0.0391,-1.44021 0.0121,-0.48176 0.03,-0.96462 0.129,-1.44272 0.10527,-0.468 0.25852,-0.93044 0.31892,-1.40234 0.15917,-0.46259 0.46814,-0.82524 1.10959,-1.07201 0.77171,-0.33076 1.59195,-0.38251 2.4999,-0.34379 1.21753,-9e-5 2.43504,-2.5e-4 3.65256,1.4e-4 0,0 -0.35611,-0.0372 -0.35611,-0.0372 z"
       id="path3879"
       style="opacity:0.98000004;fill:#008000;fill-opacity:1;stroke:#ff0000;stroke-width:1;stroke-miterlimit:4;stroke-dasharray:none" />
    <text
       sodipodi:linespacing="125%"
       id="text5429-9-1-4-4"
       y="230.16727"
       x="278.76529"
       style="font-size:13px;font-style:normal;font-variant:normal;font-weight:normal;font-stretch:normal;line-height:125%;letter-spacing:0px;word-spacing:0px;fill:#ff0000;fill-opacity:1;stroke:none;font-family:Times New Roman;-inkscape-font-specification:Times New Roman"
       xml:space="preserve"><tspan
         style="font-size:17.5px;fill:#ff0000"
         y="230.16727"
         x="278.76529"
         id="tspan5431-5-7-0-0"
         sodipodi:role="line">$2 \omega = 3,06 - 3,16$ eV</tspan></text>
    <rect
       y="201.03838"
       x="369.46329"
       height="8.8388348"
       width="40.406101"
       id="rect3858"
       style="opacity:0.98000004;fill:#800080;fill-opacity:0.3574661;stroke:none" />
    <text
       xml:space="preserve"
       style="font-size:13px;font-style:normal;font-variant:normal;font-weight:normal;font-stretch:normal;line-height:125%;letter-spacing:0px;word-spacing:0px;fill:#800080;fill-opacity:1;stroke:none;font-family:Times New Roman;-inkscape-font-specification:Times New Roman"
       x="373.84918"
       y="211.10091"
       id="text3054"
       sodipodi:linespacing="125%"><tspan
         sodipodi:role="line"
         id="tspan3056"
         x="373.84918"
         y="211.10091"
         style="font-size:17.5px;fill:#800080">$\text{H}_{41}$</tspan></text>
  </g>
</svg>
